<svg width="32" height="32" viewBox="0 0 32 32" fill="none" xmlns="http://www.w3.org/2000/svg">
<g clip-path="url(#clip0_46_430)">
<path d="M29.0558 24.9382C28.5718 26.0562 27.999 27.0853 27.3353 28.0315C26.4307 29.3213 25.69 30.2141 25.1191 30.7099C24.2342 31.5237 23.2861 31.9405 22.2708 31.9642C21.542 31.9642 20.663 31.7568 19.6398 31.336C18.6133 30.9173 17.6699 30.7099 16.8073 30.7099C15.9026 30.7099 14.9324 30.9173 13.8946 31.336C12.8552 31.7568 12.0179 31.976 11.3777 31.9978C10.4041 32.0392 9.4337 31.6106 8.46503 30.7099C7.84678 30.1706 7.07347 29.2462 6.14708 27.9366C5.15314 26.5382 4.33598 24.9165 3.6958 23.0677C3.0102 21.0707 2.6665 19.1369 2.6665 17.2648C2.6665 15.1202 3.1299 13.2706 4.05806 11.7206C4.78752 10.4756 5.75796 9.49354 6.97254 8.77257C8.18712 8.05161 9.49947 7.68421 10.9128 7.66071C11.6861 7.66071 12.7002 7.89991 13.9604 8.37002C15.217 8.84171 16.0239 9.08091 16.3777 9.08091C16.6422 9.08091 17.5385 8.80121 19.0581 8.2436C20.4951 7.72648 21.7079 7.51237 22.7014 7.59671C25.3937 7.81399 27.4163 8.87529 28.7615 10.7873C26.3536 12.2462 25.1626 14.2896 25.1863 16.911C25.208 18.9528 25.9487 20.6519 27.4045 22.001C28.0642 22.6272 28.801 23.1111 29.6207 23.4548C29.4429 23.9703 29.2553 24.4642 29.0558 24.9382V24.9382ZM22.8812 0.640671C22.8812 2.24104 22.2965 3.73529 21.1311 5.11836C19.7247 6.76256 18.0236 7.71266 16.179 7.56273C16.1555 7.37074 16.1418 7.16867 16.1418 6.95633C16.1418 5.41998 16.8106 3.77579 17.9984 2.43143C18.5913 1.75076 19.3455 1.18479 20.26 0.733309C21.1726 0.288562 22.0358 0.042607 22.8476 0.000488281C22.8713 0.214432 22.8812 0.42839 22.8812 0.64065V0.640671Z" fill="#898989"/>
</g>
<defs>
<clipPath id="clip0_46_430">
<rect width="32" height="32" fill="white"/>
</clipPath>
</defs>
</svg>
