<svg width="24" height="18" viewBox="0 0 24 18" fill="none" xmlns="http://www.w3.org/2000/svg">
<path d="M7.5 9C8.29565 9 9.05871 8.68393 9.62132 8.12132C10.1839 7.55871 10.5 6.79565 10.5 6C10.5 5.20435 10.1839 4.44129 9.62132 3.87868C9.05871 3.31607 8.29565 3 7.5 3C6.70435 3 5.94129 3.31607 5.37868 3.87868C4.81607 4.44129 4.5 5.20435 4.5 6C4.5 6.79565 4.81607 7.55871 5.37868 8.12132C5.94129 8.68393 6.70435 9 7.5 9ZM13.5 5.25C13.5 5.05109 13.579 4.86032 13.7197 4.71967C13.8603 4.57902 14.0511 4.5 14.25 4.5H20.25C20.4489 4.5 20.6397 4.57902 20.7803 4.71967C20.921 4.86032 21 5.05109 21 5.25C21 5.44891 20.921 5.63968 20.7803 5.78033C20.6397 5.92098 20.4489 6 20.25 6H14.25C14.0511 6 13.8603 5.92098 13.7197 5.78033C13.579 5.63968 13.5 5.44891 13.5 5.25ZM13.5 9C13.5 8.80109 13.579 8.61032 13.7197 8.46967C13.8603 8.32902 14.0511 8.25 14.25 8.25H20.25C20.4489 8.25 20.6397 8.32902 20.7803 8.46967C20.921 8.61032 21 8.80109 21 9C21 9.19891 20.921 9.38968 20.7803 9.53033C20.6397 9.67098 20.4489 9.75 20.25 9.75H14.25C14.0511 9.75 13.8603 9.67098 13.7197 9.53033C13.579 9.38968 13.5 9.19891 13.5 9ZM15 12.75C15 12.5511 15.079 12.3603 15.2197 12.2197C15.3603 12.079 15.5511 12 15.75 12H20.25C20.4489 12 20.6397 12.079 20.7803 12.2197C20.921 12.3603 21 12.5511 21 12.75C21 12.9489 20.921 13.1397 20.7803 13.2803C20.6397 13.421 20.4489 13.5 20.25 13.5H15.75C15.5511 13.5 15.3603 13.421 15.2197 13.2803C15.079 13.1397 15 12.9489 15 12.75Z" fill="#898989"/>
<path d="M3 0C2.20435 0 1.44129 0.31607 0.87868 0.87868C0.316071 1.44129 0 2.20435 0 3L0 15C0 15.7956 0.316071 16.5587 0.87868 17.1213C1.44129 17.6839 2.20435 18 3 18H21C21.7957 18 22.5587 17.6839 23.1213 17.1213C23.6839 16.5587 24 15.7956 24 15V3C24 2.20435 23.6839 1.44129 23.1213 0.87868C22.5587 0.31607 21.7957 0 21 0H3ZM1.5 3C1.5 2.60218 1.65804 2.22064 1.93934 1.93934C2.22064 1.65804 2.60218 1.5 3 1.5H21C21.3978 1.5 21.7794 1.65804 22.0607 1.93934C22.342 2.22064 22.5 2.60218 22.5 3V15C22.5 15.3978 22.342 15.7794 22.0607 16.0607C21.7794 16.342 21.3978 16.5 21 16.5H13.44C13.479 16.2555 13.5 16.005 13.5 15.75C13.5 12.8505 10.815 10.5 7.5 10.5C4.371 10.5 1.8 12.597 1.524 15.2715C1.50783 15.1819 1.49979 15.091 1.5 15V3Z" fill="#898989"/>
</svg>
