<svg width="24" height="24" viewBox="0 0 24 24" fill="none" xmlns="http://www.w3.org/2000/svg">
<path fillRule="evenodd" clipRule="evenodd" d="M2.82812 0.76529C3.09057 0.503212 3.40572 0.299907 3.75268 0.168848C4.09965 0.0377897 4.4705 -0.0180293 4.84066 0.00509005C5.21083 0.0282094 5.57185 0.129739 5.89982 0.302951C6.22778 0.476164 6.51519 0.717103 6.743 1.0098L9.43541 4.46896C9.9289 5.10349 10.1029 5.93003 9.9079 6.71006L9.08742 9.99521C9.045 10.1654 9.04729 10.3436 9.09407 10.5126C9.14086 10.6816 9.23054 10.8356 9.35441 10.9598L13.0398 14.6454C13.164 14.7696 13.3183 14.8594 13.4876 14.9062C13.6569 14.953 13.8354 14.9551 14.0058 14.9124L17.2892 14.0919C17.6741 13.9957 18.0758 13.9882 18.464 14.07C18.8523 14.1519 19.2168 14.321 19.5301 14.5644L22.989 17.2555C24.2324 18.2231 24.3464 20.0607 23.2335 21.1722L21.6825 22.7233C20.5726 23.8333 18.9136 24.3209 17.3672 23.7763C13.4091 22.3836 9.81531 20.1174 6.85249 17.146C3.88152 14.1834 1.61557 10.5899 0.222699 6.63206C-0.320284 5.08699 0.167201 3.42641 1.27717 2.31636L2.82812 0.76529Z" fill="#D9D9D9"/>
</svg>
