<svg width="33" height="32" viewBox="0 0 33 32" fill="none" xmlns="http://www.w3.org/2000/svg">
<path d="M12.5388 0.467096L12.9091 1.92174C11.4495 2.27155 10.0525 2.83242 8.76507 3.5855L7.97283 2.29904C9.38993 1.46687 10.9296 0.849119 12.5388 0.467096V0.467096ZM20.4612 0.467096L20.0909 1.92174C21.5505 2.27155 22.9475 2.83242 24.2349 3.5855L25.0365 2.29904C23.6157 1.4676 22.0731 0.849928 20.4612 0.467096V0.467096ZM2.37087 7.7267C1.51349 9.10287 0.876503 10.5973 0.481673 12.1588L1.98178 12.518C2.34252 11.1026 2.92091 9.7479 3.69753 8.49949L2.37087 7.7267ZM1.54581 16C1.5457 15.2726 1.60211 14.5463 1.71457 13.8271L0.186339 13.5998C-0.062113 15.1894 -0.062113 16.8061 0.186339 18.3956L1.71457 18.1729C1.60229 17.4537 1.54587 16.7274 1.54581 16V16ZM25.0272 29.6964L24.2349 28.4145C22.9495 29.1683 21.554 29.7292 20.0956 30.0783L20.4659 31.5329C22.0731 31.1473 23.6109 30.5281 25.0272 29.6964ZM31.4542 16C31.4541 16.7274 31.3977 17.4537 31.2854 18.1729L32.8137 18.3956C33.0621 16.8061 33.0621 15.1894 32.8137 13.5998L31.2854 13.8271C31.3979 14.5463 31.4543 15.2726 31.4542 16V16ZM32.5183 19.8367L31.0182 19.4775C30.6583 20.8946 30.0799 22.2509 29.3025 23.5006L30.6291 24.2733C31.4873 22.8959 32.1244 21.3999 32.5183 19.8367V19.8367ZM18.7408 30.3374C17.2554 30.5556 15.7446 30.5556 14.2592 30.3374L14.0295 31.8193C15.6671 32.0603 17.3329 32.0603 18.9705 31.8193L18.7408 30.3374ZM28.5384 24.6006C27.6473 25.7723 26.579 26.8067 25.3694 27.669L26.2882 28.8782C27.6205 27.9271 28.7992 26.7888 29.7853 25.5007L28.5384 24.6006ZM25.3694 4.32646C26.5791 5.19039 27.6474 6.22637 28.5384 7.39941L29.7853 6.49934C28.8027 5.21008 27.6271 4.07018 26.2976 3.11728L25.3694 4.32646ZM4.46164 7.39941C5.35257 6.22637 6.42092 5.19039 7.63062 4.32646L6.70243 3.11728C5.37287 4.07018 4.19735 5.21008 3.21468 6.49934L4.46164 7.39941ZM30.6291 7.7267L29.3025 8.49949C30.0798 9.74593 30.6583 11.0992 31.0182 12.5134L32.5183 12.1543C32.1235 10.5942 31.4865 9.10127 30.6291 7.7267V7.7267ZM14.2592 1.66264C15.7446 1.44441 17.2554 1.44441 18.7408 1.66264L18.9705 0.180711C17.3329 -0.0602371 15.6671 -0.0602371 14.0295 0.180711L14.2592 1.66264ZM5.25389 29.2782L2.06147 29.9965L2.80684 26.9008L1.30204 26.5599L0.556677 29.6555C0.510041 29.8475 0.502884 30.0464 0.535616 30.241C0.568348 30.4357 0.640326 30.6221 0.747434 30.7897C0.854542 30.9573 0.994677 31.1028 1.15982 31.2179C1.32497 31.3329 1.51189 31.4153 1.70988 31.4602C1.94144 31.5102 2.1815 31.5102 2.41306 31.4602L5.60547 30.7465L5.25389 29.2782ZM1.62082 25.2234L3.1303 25.5598L3.64596 23.4142C2.89292 22.1893 2.33205 20.8625 1.98178 19.4775L0.481673 19.8367C0.819094 21.1624 1.3295 22.441 2.00053 23.6415L1.62082 25.2234ZM8.84008 28.4691L6.62742 28.9691L6.97901 30.4329L8.60569 30.0647C9.84277 30.7173 11.1616 31.2123 12.5294 31.5375L12.8997 30.0828C11.4759 29.7387 10.1126 29.1918 8.85414 28.46L8.84008 28.4691ZM16.5 2.99909C9.09322 3.00364 3.09748 8.82678 3.09748 16.0046C3.10156 18.4493 3.81471 20.8437 5.15544 22.9141L3.86629 28.2509L9.36512 27.0008C15.6328 30.8238 23.9115 29.0009 27.8539 22.9278C31.7964 16.8546 29.9213 8.82678 23.6583 4.99924C21.5142 3.69178 19.0328 2.99843 16.5 2.99909" fill="#898989"/>
</svg>
