<svg width="33" height="32" viewBox="0 0 33 32" fill="none" xmlns="http://www.w3.org/2000/svg">
<path d="M27.9359 5.54068C25.8326 4.60484 23.5771 3.91535 21.2189 3.52046C21.1759 3.51283 21.133 3.53188 21.1109 3.56997C20.8208 4.07026 20.4995 4.72293 20.2745 5.23592C17.7381 4.86769 15.2146 4.86769 12.7302 5.23592C12.5051 4.71152 12.1722 4.07026 11.8808 3.56997C11.8587 3.53315 11.8158 3.5141 11.7728 3.52046C9.41588 3.91409 7.1604 4.60358 5.05579 5.54068C5.03757 5.5483 5.02195 5.56101 5.01158 5.57751C0.733414 11.7753 -0.438557 17.8208 0.136373 23.7913C0.138974 23.8205 0.155884 23.8485 0.179297 23.8662C3.00191 25.8763 5.7361 27.0966 8.41951 27.9054C8.46246 27.9181 8.50796 27.9029 8.53529 27.8686C9.17005 27.028 9.73588 26.1417 10.221 25.2096C10.2497 25.1551 10.2223 25.0903 10.1638 25.0687C9.26631 24.7386 8.4117 24.336 7.58963 23.8789C7.5246 23.8421 7.5194 23.7519 7.57922 23.7088C7.75221 23.5831 7.92525 23.4523 8.09044 23.3202C8.12032 23.2961 8.16197 23.291 8.19711 23.3062C13.5978 25.6973 19.4446 25.6973 24.7816 23.3062C24.8167 23.2897 24.8583 23.2948 24.8895 23.3189C25.0548 23.451 25.2278 23.5831 25.4021 23.7088C25.4619 23.7519 25.458 23.8421 25.3929 23.8789C24.5709 24.3449 23.7163 24.7386 22.8175 25.0674C22.7589 25.089 22.7329 25.1551 22.7615 25.2096C23.2571 26.1404 23.8229 27.0267 24.446 27.8673C24.472 27.9029 24.5188 27.9181 24.5618 27.9054C27.2582 27.0966 29.9924 25.8763 32.815 23.8662C32.8397 23.8485 32.8553 23.8218 32.8579 23.7926C33.546 16.89 31.7054 10.8941 27.9788 5.57877C27.9697 5.56101 27.9541 5.5483 27.9359 5.54068ZM11.0275 20.1559C9.40156 20.1559 8.06181 18.7084 8.06181 16.9307C8.06181 15.1529 9.37558 13.7054 11.0275 13.7054C12.6925 13.7054 14.0192 15.1657 13.9932 16.9307C13.9932 18.7084 12.6794 20.1559 11.0275 20.1559ZM21.9928 20.1559C20.3669 20.1559 19.0271 18.7084 19.0271 16.9307C19.0271 15.1529 20.3408 13.7054 21.9928 13.7054C23.6577 13.7054 24.9845 15.1657 24.9585 16.9307C24.9585 18.7084 23.6577 20.1559 21.9928 20.1559Z" fill="#898989"/>
</svg>
