<svg width="33" height="32" viewBox="0 0 33 32" fill="none" xmlns="http://www.w3.org/2000/svg">
<path fillRule="evenodd" clipRule="evenodd" d="M16.5 0C7.391 0 0 7.16703 0 16C0 24.833 7.391 32 16.5 32C25.5911 32 33 24.833 33 16C33 7.16703 25.5911 0 16.5 0ZM27.3986 7.37527C29.3671 9.70065 30.5483 12.6681 30.5841 15.8785C30.1188 15.7918 25.4658 14.872 20.7771 15.4447C20.6698 15.2191 20.5802 14.9761 20.4729 14.7332C20.1865 14.0738 19.8645 13.397 19.5423 12.7549C24.7321 10.7072 27.0943 7.75705 27.3986 7.37527ZM16.5 2.36009C20.0792 2.36009 23.3541 3.66161 25.8417 5.7961C25.5911 6.14317 23.4615 8.90239 18.4506 10.7245C16.1421 6.61171 13.583 3.24512 13.1893 2.72451C14.2451 2.48156 15.3547 2.36009 16.5 2.36009ZM10.5049 3.64425C10.8807 4.13015 13.3861 7.5141 15.7305 11.5401C9.1448 13.2408 3.32864 13.2061 2.70228 13.2061C3.61496 8.9718 6.56778 5.44902 10.5049 3.64425ZM2.39805 16.0174C2.39805 15.8785 2.39805 15.7397 2.39805 15.6009C3.00651 15.6182 9.84274 15.705 16.8758 13.6573C17.2875 14.4208 17.6632 15.2017 18.0212 15.9826C17.8422 16.0347 17.6453 16.0868 17.4664 16.1388C10.2007 18.4121 6.33514 24.6247 6.01301 25.1453C3.77603 22.7332 2.39805 19.5228 2.39805 16.0174ZM16.5 29.6746C13.2429 29.6746 10.2364 28.5987 7.85629 26.7939C8.10683 26.2907 10.9701 20.9458 18.9159 18.256C18.9517 18.2386 18.9696 18.2386 19.0054 18.2213C20.9918 23.2017 21.7972 27.3839 22.0119 28.5813C20.3118 29.2928 18.4506 29.6746 16.5 29.6746ZM24.3563 27.3319C24.2131 26.4989 23.4615 22.5076 21.6182 17.5965C26.0385 16.9197 29.904 18.0304 30.3872 18.1866C29.7788 21.987 27.5239 25.2668 24.3563 27.3319Z" fill="#898989"/>
</svg>
