<svg width="24" height="24" viewBox="0 0 24 24" fill="none" xmlns="http://www.w3.org/2000/svg">
<path fillRule="evenodd" clipRule="evenodd" d="M19.0539 21.7064C23.2587 18.6543 25.0171 13.2379 23.4116 8.29208C21.8061 3.34624 17.2014 0 12.0027 0C6.80393 0 2.1933 3.34624 0.587811 8.29208C-1.01768 13.2379 0.740715 18.6543 4.94557 21.7064C9.15042 24.7645 14.849 24.7645 19.0539 21.7064ZM1.61697 8.6273C3.08132 4.1284 7.27441 1.08209 12.0027 1.08209C16.7309 1.08209 20.924 4.1284 22.3883 8.6273C23.8468 13.1262 22.2472 18.0544 18.4187 20.8361C14.5903 23.6177 9.40918 23.6177 5.5807 20.8361C1.75811 18.0544 0.152624 13.1262 1.61697 8.6273ZM14.2836 8.54824C14.066 8.54562 13.8475 8.543 13.6317 8.55085C13.1847 8.56849 12.8554 8.73903 12.8436 9.29184C12.8319 9.7035 12.826 10.6386 12.826 10.6386H14.3315H14.6902C14.6244 11.1561 14.5585 11.6585 14.4926 12.161C14.4762 12.2866 14.4597 12.4122 14.4432 12.5381H12.8378V17.284H10.8676V12.5322H9.25627V10.6386H10.8794V10.4974C10.8794 10.3698 10.8788 10.2428 10.8781 10.116C10.8768 9.86316 10.8755 9.61115 10.8794 9.35653C10.8853 9.10953 10.897 8.86253 10.9382 8.6273C11.0382 8.05097 11.3028 7.56285 11.7851 7.21588C12.2085 6.91595 12.6907 6.79245 13.2024 6.78069C13.4705 6.77599 13.7387 6.78634 14.0069 6.79669C14.0739 6.79927 14.141 6.80186 14.208 6.80421C14.3317 6.81219 14.4527 6.82559 14.5728 6.83889C14.6297 6.84519 14.6864 6.85147 14.7432 6.85714V8.55085H14.6079C14.5003 8.55085 14.3921 8.54954 14.2836 8.54824Z" fill="#4D77BA"/>
</svg>
