<svg width="32" height="32" viewBox="0 0 32 32" fill="none" xmlns="http://www.w3.org/2000/svg">
<path fillRule="evenodd" clipRule="evenodd" d="M10.8802 0H21.12C24.2998 0 26.8801 2.58033 26.8801 5.76004C26.8801 7.9883 25.6129 9.92215 23.7603 10.88C25.6129 11.8378 26.8801 13.7717 26.8801 16C26.8801 19.1797 24.2998 21.76 21.12 21.76C19.3113 21.76 17.6965 20.9251 16.6403 19.6198V26.24C16.6403 29.4197 14.0599 32 10.8802 32C7.70048 32 5.12012 29.4197 5.12012 26.24C5.12012 24.0117 6.3873 22.0778 8.23992 21.1199C6.3873 20.1621 5.12012 18.2282 5.12012 16C5.12012 13.7717 6.38729 11.8378 8.23989 10.88C6.38729 9.92215 5.12012 7.9883 5.12012 5.76004C5.12012 2.58033 7.70048 0 10.8802 0ZM6.40012 5.76004C6.40012 3.28727 8.40739 1.28 10.8802 1.28H15.36V10.2399H10.8802L10.8663 10.2399C8.39986 10.2324 6.40012 8.22816 6.40012 5.76004ZM15.3603 15.939C15.3601 15.9593 15.36 15.9796 15.36 16C15.36 16.0203 15.3601 16.0406 15.3603 16.0609V20.4799H10.8802C8.40739 20.48 6.40012 18.4727 6.40012 16C6.40012 13.5318 8.39994 11.5274 10.8664 11.5199L10.8802 11.52H15.36L15.3603 15.939ZM16.6403 16.0536V15.9463C16.669 13.5043 18.6552 11.5298 21.1017 11.52H21.12C21.1246 11.52 21.1292 11.52 21.1338 11.5199C23.6003 11.5274 25.6001 13.5318 25.6001 16C25.6001 18.4727 23.5928 20.48 21.12 20.48C18.6651 20.48 16.6691 18.5017 16.6403 16.0536ZM17.5005 11.52C17.1844 11.7756 16.896 12.0641 16.6403 12.3801V11.52H17.5005ZM21.1339 10.2399C21.1293 10.2399 21.1247 10.2399 21.12 10.2399C21.113 10.2399 21.106 10.2399 21.099 10.24H16.6403V1.28H21.12C23.5928 1.28 25.6001 3.28727 25.6001 5.76004C25.6001 8.22816 23.6004 10.2324 21.1339 10.2399ZM10.8802 21.7599C8.40739 21.7599 6.40012 23.7672 6.40012 26.24C6.40012 28.7127 8.40739 30.72 10.8802 30.72C13.353 30.72 15.3603 28.7127 15.3603 26.24V21.7599H10.8802Z" fill="#898989"/>
</svg>
