<svg width="33" height="32" viewBox="0 0 33 32" fill="none" xmlns="http://www.w3.org/2000/svg">
<g clip-path="url(#clip0_46_432)">
<path d="M16.4995 13.0908V19.2872H25.3795C24.9896 21.2799 23.8194 22.9673 22.0644 24.1018L27.4194 28.1309C30.5394 25.3383 32.3394 21.2364 32.3394 16.3637C32.3394 15.2292 32.2344 14.1382 32.0394 13.091L16.4995 13.0908Z" fill="#898989"/>
<path d="M7.25284 19.0454L6.04509 19.9419L1.77002 23.171C4.48501 28.3927 10.0496 32.0001 16.4995 32.0001C20.9544 32.0001 24.6894 30.5746 27.4194 28.131L22.0645 24.1019C20.5945 25.0619 18.7195 25.6438 16.4995 25.6438C12.2096 25.6438 8.56468 22.8365 7.25958 19.0546L7.25284 19.0454Z" fill="#898989"/>
<path d="M1.76987 8.8291C0.644933 10.9817 0 13.4109 0 15.9999C0 18.589 0.644933 21.0181 1.76987 23.1707C1.76987 23.1852 7.25997 19.0398 7.25997 19.0398C6.92997 18.0798 6.73491 17.0617 6.73491 15.9997C6.73491 14.9378 6.92997 13.9197 7.25997 12.9597L1.76987 8.8291Z" fill="#898989"/>
<path d="M16.4999 6.3709C18.9299 6.3709 21.0899 7.18543 22.8149 8.75636L27.5398 4.1746C24.6748 1.58555 20.9549 0 16.4999 0C10.0499 0 4.48501 3.59272 1.77002 8.8291L7.25994 12.96C8.56487 9.17816 12.2099 6.3709 16.4999 6.3709Z" fill="#898989"/>
</g>
<defs>
<clipPath id="clip0_46_432">
<rect width="33" height="32" fill="white"/>
</clipPath>
</defs>
</svg>
