<svg width="32" height="32" viewBox="0 0 32 32" fill="none" xmlns="http://www.w3.org/2000/svg">
<path fillRule="evenodd" clipRule="evenodd" d="M7.87419 13.7211C8.29748 15.1246 8.80989 16.4411 9.36685 17.711C10.3248 19.9854 10.9709 21.1884 11.8641 22.6811L11.9631 22.8429C13.0291 24.5851 14.2205 26.5324 16.1436 27.8072C17.5917 28.7652 19.3537 29.2553 21.0468 29.2553C23.4327 29.2553 25.4823 28.2082 26.7987 26.9808C28.0909 25.7778 29.7638 23.4588 29.7638 18.9343C29.7638 17.4642 30.3775 16.1902 30.8771 15.1532L30.8771 15.1532C30.9075 15.0901 30.9375 15.028 30.9668 14.9667C30.9668 14.9444 30.9891 14.8998 31.0337 14.8107C31.2342 14.3652 31.4793 13.7859 31.4793 13.2067C31.4793 12.7834 31.3679 12.2933 31.0782 11.87C30.6327 11.1125 29.8306 10.8452 29.0934 10.8452C27.378 10.8452 26.1952 12.0482 25.5937 13.2755L25.3932 13.6765C25.1481 13.3201 24.903 12.9414 24.7025 12.6072C24.0787 11.5155 23.7223 10.7803 23.4104 9.84262C23.1653 9.10743 22.9648 8.26085 22.8312 7.56819C22.4524 5.38287 21.8286 4.66996 20.8018 4.40262C20.0443 4.20211 19.1532 4.35806 18.5051 4.78135C18.0615 3.77882 17.3041 3.33325 16.2995 3.33325C14.8737 3.33325 13.5795 4.26895 13.5795 5.85275C13.5795 6.02162 13.5953 6.19049 13.6136 6.38599L13.6136 6.38603C13.617 6.42263 13.6205 6.46017 13.6241 6.49882C13.4458 6.45426 13.2453 6.43199 13.0448 6.43199C11.5076 6.43199 10.3694 7.50135 10.3694 8.95148C10.3694 9.28566 10.4139 9.66439 10.5253 10.11C10.3917 10.0877 10.258 10.0877 10.1243 10.0877C9.36685 10.1322 8.67621 10.4219 8.18406 11.0234C7.69596 11.6026 7.49546 12.4938 7.87419 13.7211ZM9.14405 13.3201C8.94354 12.674 8.96582 12.1839 9.21088 11.872C9.45595 11.5823 9.79013 11.4487 10.1911 11.4264C10.8818 11.4041 11.1491 11.8942 11.5501 13.1641C11.7952 13.9661 12.2853 15.1267 12.5749 15.7727C12.9537 16.5525 13.4884 17.5996 13.7334 17.958C13.9339 18.2699 14.1122 18.3591 14.3127 18.3591C14.6691 18.3591 14.9365 18.1586 14.9365 17.8021C14.9365 17.6216 14.774 17.3329 14.6604 17.1308L14.6603 17.1308C14.6477 17.1083 14.6357 17.0869 14.6246 17.0669C14.5842 16.9907 14.5349 16.8992 14.4794 16.7964L14.4793 16.7962L14.4793 16.7962C14.2591 16.3877 13.9425 15.8007 13.7111 15.2846C13.3992 14.5717 13.0428 13.6806 12.7532 12.8765C12.5749 12.4087 12.3744 11.7403 12.1739 11.072C11.862 10.0472 11.7061 9.42336 11.7061 8.95349C11.7061 8.24058 12.2408 7.77273 13.0428 7.77273C13.622 7.77273 14.0008 8.06235 14.2458 9.10944C14.4463 10.0674 14.8028 11.6289 15.3152 12.8542C15.6494 13.6563 16.1395 14.7277 16.4291 15.2623C16.4873 15.3642 16.5479 15.4614 16.6031 15.5499C16.7169 15.7323 16.8078 15.878 16.8078 15.953C16.8078 16.0521 16.6908 16.1873 16.5426 16.3584C16.4576 16.4565 16.3624 16.5664 16.2732 16.6882C16.1172 16.8887 16.0504 17.0223 16.0504 17.1783C16.0504 17.312 16.1395 17.4456 16.2732 17.6239C16.4068 17.8021 16.5405 17.9803 16.6965 17.9803C16.8078 17.9803 16.8747 17.9358 16.9415 17.8467C17.6322 16.9778 18.3896 16.3763 19.2605 15.8841C20.2853 15.3049 21.3344 15.0153 22.1587 14.837C22.5597 14.7479 22.6711 14.6588 22.6711 14.436C22.6711 14.1687 22.4706 14.0127 22.2033 13.9904C22.0395 13.9722 21.8905 13.9838 21.6713 14.0008C21.6223 14.0046 21.5697 14.0087 21.5127 14.0127C21.2899 14.035 21.1785 13.9236 21.0448 13.634C20.9825 13.5024 20.911 13.3568 20.833 13.1979C20.409 12.334 19.7913 11.0757 19.3962 9.53273C19.1957 8.75298 19.0175 7.92868 18.9061 6.85729C18.8392 6.36716 18.9284 6.18893 19.1734 5.96615C19.4853 5.6988 20.0423 5.58741 20.4656 5.6988C20.978 5.83248 21.2453 6.23349 21.5127 7.79501C21.6463 8.5302 21.8691 9.46589 22.1365 10.2699C22.4706 11.2948 22.8939 12.1434 23.54 13.2796C23.8965 13.9034 24.342 14.5494 24.8099 15.1753C24.7208 15.4426 24.5648 15.6208 24.0524 16.0441C23.54 16.4674 23.0276 16.913 22.5597 17.7373C22.2256 18.3388 22.0696 19.0072 22.0696 19.4527C22.0696 19.876 22.1587 19.9651 22.4261 19.9651C22.8939 19.9651 23.2727 19.876 23.2949 19.6755C23.4063 18.8735 23.54 18.3611 23.9856 17.7575C24.2529 17.4234 24.7208 17.0001 25.0995 16.6659C25.8124 16.0867 26.0575 15.7525 26.3025 14.9282C26.4139 14.5494 26.5476 14.193 26.7258 13.8588C27.1491 13.0791 27.9066 12.1879 29.0894 12.1879C29.4681 12.1879 29.78 12.2993 29.9805 12.6112C30.0919 12.7894 30.1365 13.0345 30.1365 13.2127C30.1365 13.5946 29.8738 14.1179 29.7333 14.3979L29.7132 14.438C29.6883 14.4911 29.6627 14.5455 29.6364 14.6014L29.6364 14.6015C29.1438 15.6486 28.421 17.1849 28.421 18.9403C28.421 22.9748 26.9952 24.9818 25.8792 26.0067C24.7876 27.0315 23.0701 27.9246 21.0428 27.9246C19.5947 27.9246 18.1 27.5013 16.8747 26.6993C15.1939 25.5861 14.1315 23.8507 13.0624 22.1047L13.0624 22.1047L12.9962 21.9965C12.1273 20.5484 11.5258 19.4102 10.5881 17.2046C10.0595 15.9267 9.56734 14.6791 9.14405 13.3201ZM16.2994 4.67196C15.6534 4.67196 14.8736 5.00613 14.8736 5.85272C14.8736 6.40968 15.0296 7.23398 15.1855 7.90031C15.3793 8.37014 15.456 8.71012 15.6109 9.39633C15.6697 9.6567 15.7397 9.96691 15.8316 10.353C16.0321 11.1793 16.2772 11.8922 16.5222 12.516C16.8118 13.2755 17.146 13.9216 17.6139 14.7904C17.8367 15.2137 17.948 15.2137 18.4827 14.9241C18.906 14.7013 19.5298 14.434 19.9977 14.278C19.1956 12.5403 18.5273 11.0902 18.1931 9.86487C18.104 9.50841 17.7921 8.08056 17.703 7.45677C17.6361 6.83297 17.5693 6.29829 17.4134 5.71905C17.2351 5.00613 16.9901 4.67196 16.2994 4.67196Z" fill="#898989"/>
<path d="M6.8937 20.7754C6.42181 21.067 3.92054 22.3774 3.35548 22.586C2.95244 22.7359 2.51497 22.6994 2.25776 21.9379C1.94181 20.9961 2.38535 20.7734 3.01725 20.5283C3.57624 20.3116 5.89522 19.4731 6.43396 19.3273C6.81269 19.226 7.07598 19.3536 7.25826 19.8093C7.45877 20.3096 7.32105 20.5101 6.8937 20.7754Z" fill="#898989"/>
<path d="M4.83192 15.467C4.15952 15.4852 1.3666 15.3657 0.72863 15.3029C0.173693 15.2482 -0.0511168 15.0032 0.00964268 14.1991C0.0744528 13.3363 0.410655 13.2837 0.955466 13.3363C1.58736 13.3971 4.51395 13.873 4.97977 14.0168C5.4618 14.1667 5.52863 14.3854 5.4699 14.8067C5.39496 15.3535 5.14787 15.4568 4.83192 15.467Z" fill="#898989"/>
<path d="M5.17852 9.81219C4.4089 9.56915 2.12434 8.18586 1.5289 7.8294C0.990162 7.50535 0.921301 7.2137 1.29598 6.50282C1.62814 5.87497 1.99674 5.7656 2.54358 6.04915C3.1775 6.37927 5.41548 8.12105 5.84282 8.46535C6.25598 8.7975 6.19928 8.96965 5.98257 9.397C5.76586 9.82434 5.56333 9.9337 5.17852 9.81219Z" fill="#898989"/>
</svg>
