<svg width="24" height="24" viewBox="0 0 24 24" fill="none" xmlns="http://www.w3.org/2000/svg">
<path fillRule="evenodd" clipRule="evenodd" d="M23.4122 8.29228C25.0177 13.2382 23.2593 18.6547 19.0543 21.707C14.8494 24.7651 9.15063 24.7651 4.94568 21.707C0.740732 18.6547 -1.0177 13.2382 0.587825 8.29228C2.19335 3.34632 6.80409 0 12.0029 0C17.2018 0 21.8066 3.34632 23.4122 8.29228ZM12.0029 1.08211C7.27458 1.08211 3.08139 4.1285 1.61701 8.6275C0.152627 13.1265 1.75815 18.0548 5.58084 20.8366C9.4094 23.6183 14.5906 23.6183 18.4133 20.8366C22.2418 18.0548 23.8415 13.1265 22.383 8.6275C20.9245 4.1285 16.7313 1.08211 12.0029 1.08211ZM8.23907 10.1683H10.2151V16.514H8.23907V10.1683ZM9.23297 7.01609C9.86224 7.01609 10.3739 7.52774 10.3739 8.15701C10.3739 8.78629 9.86224 9.30382 9.23297 9.30382C8.59781 9.30382 8.09204 8.79217 8.09204 8.15701C8.08616 7.52774 8.59781 7.01609 9.23297 7.01609ZM13.3497 10.1683H11.4619V16.5199H13.432V13.3794C13.432 12.5502 13.5849 11.7503 14.6141 11.7503C15.6198 11.7503 15.6374 12.6972 15.6374 13.4323V16.514H17.6076V13.0324C17.6076 11.321 17.2371 10.0095 15.2434 10.0095C14.2789 10.0095 13.6379 10.533 13.3732 11.0328H13.3497V10.1683Z" fill="#1586C8"/>
</svg>
