<svg width="24" height="24" viewBox="0 0 24 24" fill="none" xmlns="http://www.w3.org/2000/svg">
<path fillRule="evenodd" clipRule="evenodd" d="M19.0621 21.7088C23.2657 18.6516 25.0148 13.2281 23.4127 8.28962C21.7959 3.35112 17.1955 0 11.9924 0C6.80407 0 2.18893 3.35112 0.586857 8.28962C-1.01521 13.2281 0.733836 18.6516 4.96683 21.7088C9.17043 24.766 14.8585 24.766 19.0621 21.7088ZM1.61571 8.62767C3.0708 4.13011 7.2744 1.08764 11.9924 1.08764C16.7252 1.08764 20.9141 4.13011 22.3838 8.62767C23.8389 13.1252 22.2369 18.049 18.4154 20.8269C14.594 23.6048 9.4056 23.6048 5.58414 20.8269C1.74799 18.049 0.160618 13.1252 1.61571 8.62767ZM8.86178 17.5346H15.1378C16.4312 17.5346 17.4894 16.491 17.4894 15.227V8.75995C17.4894 7.48123 16.4312 6.45238 15.1378 6.45238H8.86178C7.56836 6.45238 6.51011 7.49593 6.51011 8.75995V15.227C6.51011 16.5057 7.56836 17.5346 8.86178 17.5346ZM7.45078 8.75995C7.45078 8.01036 8.08279 7.40774 8.86178 7.40774H15.1378C15.9168 7.40774 16.5488 8.01036 16.5488 8.75995V15.227C16.5488 15.9766 15.9168 16.5792 15.1378 16.5792H8.86178C8.08279 16.5792 7.45078 15.9766 7.45078 15.227V8.75995ZM11.9924 14.8743C10.4051 14.8743 9.12634 13.5809 9.12634 12.0082C9.12634 10.4208 10.4198 9.14209 11.9924 9.14209C13.5798 9.14209 14.8585 10.4355 14.8585 12.0082C14.8732 13.5809 13.5798 14.8743 11.9924 14.8743ZM11.9924 10.0681C10.9342 10.0681 10.067 10.9352 10.067 11.9935C10.067 13.0517 10.9342 13.9189 11.9924 13.9189C13.0507 13.9189 13.9179 13.0517 13.9179 11.9935C13.9179 10.9352 13.0507 10.0681 11.9924 10.0681ZM15.079 9.65652C15.4611 9.65652 15.7551 9.34787 15.7551 8.98042C15.7551 8.61297 15.4464 8.30431 15.079 8.30431C14.6968 8.30431 14.4029 8.61297 14.4029 8.98042C14.4029 9.36256 14.7115 9.65652 15.079 9.65652Z" fill="url(#paint0_linear_63_1395)"/>
<defs>
<linearGradient id="paint0_linear_63_1395" x1="5.56562" y1="15.7628" x2="17.4402" y2="7.29664" gradientUnits="userSpaceOnUse">
<stop stop-color="#FABD55"/>
<stop offset="0.3273" stop-color="#E62C42"/>
<stop offset="0.6485" stop-color="#A93F90"/>
<stop offset="1" stop-color="#5757A1"/>
</linearGradient>
</defs>
</svg>
