<svg width="33" height="32" viewBox="0 0 33 32" fill="none" xmlns="http://www.w3.org/2000/svg">
<g clip-path="url(#clip0_46_433)">
<path d="M30.5572 0H2.43633C1.08926 0 0 1.03125 0 2.30625V29.6875C0 30.9625 1.08926 32 2.43633 32H30.5572C31.9043 32 33 30.9625 33 29.6938V2.30625C33 1.03125 31.9043 0 30.5572 0ZM9.79043 27.2687H4.89199V11.9937H9.79043V27.2687ZM7.34121 9.9125C5.76856 9.9125 4.49883 8.68125 4.49883 7.1625C4.49883 5.64375 5.76856 4.4125 7.34121 4.4125C8.90742 4.4125 10.1771 5.64375 10.1771 7.1625C10.1771 8.675 8.90742 9.9125 7.34121 9.9125ZM28.1209 27.2687H23.2289V19.8438C23.2289 18.075 23.1967 15.7937 20.683 15.7937C18.1371 15.7937 17.7504 17.725 17.7504 19.7188V27.2687H12.8648V11.9937H17.557V14.0813H17.6215C18.2725 12.8813 19.8709 11.6125 22.2492 11.6125C27.2057 11.6125 28.1209 14.775 28.1209 18.8875V27.2687V27.2687Z" fill="#898989"/>
</g>
<defs>
<clipPath id="clip0_46_433">
<rect width="33" height="32" fill="white"/>
</clipPath>
</defs>
</svg>
