<svg width="18" height="24" viewBox="0 0 18 24" fill="none" xmlns="http://www.w3.org/2000/svg">
<path d="M9 24C9 24 18 15.471 18 9C18 6.61305 17.0518 4.32387 15.364 2.63604C13.6761 0.948211 11.3869 0 9 0C6.61305 0 4.32387 0.948211 2.63604 2.63604C0.948211 4.32387 3.55683e-08 6.61305 0 9C0 15.471 9 24 9 24ZM9 13.5C7.80653 13.5 6.66193 13.0259 5.81802 12.182C4.97411 11.3381 4.5 10.1935 4.5 9C4.5 7.80653 4.97411 6.66193 5.81802 5.81802C6.66193 4.97411 7.80653 4.5 9 4.5C10.1935 4.5 11.3381 4.97411 12.182 5.81802C13.0259 6.66193 13.5 7.80653 13.5 9C13.5 10.1935 13.0259 11.3381 12.182 12.182C11.3381 13.0259 10.1935 13.5 9 13.5Z" fill="white"/>
</svg>
