<svg width="33" height="32" viewBox="0 0 33 32" fill="none" xmlns="http://www.w3.org/2000/svg">
<path fillRule="evenodd" clipRule="evenodd" d="M0 15.5196C0 6.60382 7.20637 0 16.5 0C25.7936 0 33 6.60782 33 15.5236C33 24.4393 25.7936 31.0431 16.5 31.0431C14.8294 31.0431 13.2289 30.8272 11.7233 30.4272C11.4304 30.3512 11.1169 30.3712 10.8405 30.4912L7.56525 31.8911C7.36744 31.9757 7.15122 32.0119 6.93561 31.9965C6.71999 31.9812 6.51157 31.9146 6.32867 31.8029C6.14577 31.6911 5.99398 31.5374 5.88665 31.3555C5.77932 31.1735 5.71973 30.9687 5.71312 30.7592L5.62238 27.9112C5.61413 27.5592 5.44912 27.2313 5.181 26.9993C1.97175 24.2153 0 20.1834 0 15.5196ZM11.4386 12.6037L6.59177 20.0595C6.12564 20.7754 7.03314 21.5794 7.72614 21.0674L12.9319 17.2355C13.1032 17.1094 13.3122 17.0408 13.5273 17.04C13.7424 17.0393 13.9518 17.1065 14.124 17.2315L17.9809 20.0355C18.2545 20.2347 18.5676 20.3767 18.9007 20.4527C19.2337 20.5286 19.5794 20.5367 19.9158 20.4766C20.2523 20.4165 20.5722 20.2893 20.8555 20.1033C21.1387 19.9172 21.3791 19.6762 21.5614 19.3955L26.4124 11.9437C26.8744 11.2277 25.9669 10.4197 25.2739 10.9317L20.0681 14.7636C19.8969 14.8897 19.6879 14.9584 19.4728 14.9591C19.2577 14.9598 19.0482 14.8926 18.876 14.7676L15.0191 11.9637C14.7456 11.7645 14.4324 11.6224 14.0993 11.5465C13.7663 11.4705 13.4207 11.4624 13.0842 11.5225C12.7477 11.5827 12.4278 11.7098 12.1446 11.8959C11.8613 12.0819 11.621 12.323 11.4386 12.6037Z" fill="#898989"/>
</svg>
