<svg width="33" height="32" viewBox="0 0 33 32" fill="none" xmlns="http://www.w3.org/2000/svg">
<g clip-path="url(#clip0_46_428)">
<path d="M16.5 0C7.38633 0 0 7.1625 0 16C0 22.7813 4.35059 28.5687 10.4865 30.9C10.3447 29.6312 10.2094 27.6938 10.5445 26.3125C10.8475 25.0625 12.4781 18.3625 12.4781 18.3625C12.4781 18.3625 11.9818 17.4063 11.9818 15.9875C11.9818 13.7625 13.3096 12.1 14.966 12.1C16.3711 12.1 17.0543 13.125 17.0543 14.3562C17.0543 15.7312 16.152 17.7812 15.6879 19.6812C15.3012 21.275 16.5129 22.575 18.1307 22.575C21.0633 22.575 23.3191 19.575 23.3191 15.25C23.3191 11.4188 20.4832 8.7375 16.4291 8.7375C11.7369 8.7375 8.97832 12.15 8.97832 15.6812C8.97832 17.0562 9.52617 18.5312 10.2094 19.3312C10.3447 19.4875 10.3641 19.6313 10.3254 19.7875C10.2029 20.2938 9.91934 21.3813 9.86777 21.6C9.79688 21.8938 9.6293 21.9563 9.31348 21.8125C7.25098 20.8813 5.96191 17.9625 5.96191 15.6125C5.96191 10.5625 9.74531 5.93125 16.8609 5.93125C22.5844 5.93125 27.0316 9.8875 27.0316 15.175C27.0316 20.6875 23.448 25.125 18.4723 25.125C16.8029 25.125 15.2303 24.2813 14.6889 23.2875C14.6889 23.2875 13.8639 26.3438 13.6641 27.0938C13.2902 28.4813 12.2848 30.225 11.6145 31.2875C13.1613 31.75 14.7984 32 16.5 32C25.6137 32 33 24.8375 33 16C33 7.1625 25.6137 0 16.5 0Z" fill="#898989"/>
</g>
<defs>
<clipPath id="clip0_46_428">
<rect width="33" height="32" fill="white"/>
</clipPath>
</defs>
</svg>
