<svg width="33" height="32" viewBox="0 0 33 32" fill="none" xmlns="http://www.w3.org/2000/svg">
<path fillRule="evenodd" clipRule="evenodd" d="M33 16C33 24.8366 25.6127 32 16.5 32C7.3873 32 0 24.8366 0 16C0 7.16344 7.3873 0 16.5 0C25.6127 0 33 7.16344 33 16ZM25.0877 13.6608C26.4193 13.6608 27.5 14.7087 27.5 16C27.5 16.9544 26.9018 17.7777 26.1105 18.152C26.1491 18.3766 26.1684 18.6011 26.1684 18.8444C26.1684 22.4374 21.8649 25.338 16.5386 25.338C11.2123 25.338 6.90878 22.4374 6.90878 18.8444C6.90878 18.6011 6.92808 18.3579 6.96668 18.1333C6.11755 17.759 5.5386 16.9544 5.5386 16C5.5386 14.7087 6.61931 13.6608 7.95089 13.6608C8.58773 13.6608 9.18597 13.9228 9.61053 14.3158C11.2702 13.1368 13.5667 12.407 16.1333 12.3321L17.3491 6.75552C17.3877 6.64324 17.4456 6.54968 17.5421 6.49354C17.6386 6.43739 17.7544 6.41868 17.8702 6.4374L21.8649 7.26079C22.1351 6.69938 22.714 6.32511 23.3895 6.32511C24.3351 6.32511 25.107 7.07365 25.107 7.99061C25.107 8.90757 24.3351 9.65611 23.3895 9.65611C22.4632 9.65611 21.7105 8.945 21.6719 8.06546L18.1018 7.33564L17.0018 12.3321C19.5105 12.4257 21.7877 13.1742 23.4281 14.3158C23.8526 13.9041 24.4316 13.6608 25.0877 13.6608ZM12.7176 16C11.7719 16 11 16.7485 11 17.6655C11 18.5824 11.7719 19.331 12.7176 19.331C13.6632 19.331 14.4351 18.5824 14.4351 17.6655C14.4351 16.7485 13.6632 16 12.7176 16ZM16.5193 23.2795C17.1754 23.2795 19.414 23.2046 20.5912 22.0631C20.7649 21.8947 20.7649 21.6327 20.6298 21.4456C20.4562 21.2772 20.1667 21.2772 19.993 21.4456C19.2404 22.1567 17.6772 22.4187 16.5386 22.4187C15.4 22.4187 13.8176 22.1567 13.0842 21.4456C12.9105 21.2772 12.6211 21.2772 12.4474 21.4456C12.2737 21.614 12.2737 21.8947 12.4474 22.0631C13.6053 23.1859 15.8632 23.2795 16.5193 23.2795ZM18.5649 17.6655C18.5649 18.5824 19.3369 19.331 20.2825 19.331C21.2281 19.331 22 18.5824 22 17.6655C22 16.7485 21.2281 16 20.2825 16C19.3369 16 18.5649 16.7485 18.5649 17.6655Z" fill="#898989"/>
</svg>
