<svg width="24" height="23" viewBox="0 0 24 23" fill="none" xmlns="http://www.w3.org/2000/svg">
<path d="M16.5001 3.5937C16.5 2.75063 16.8093 1.93436 17.3738 1.28771C17.9383 0.641064 18.7222 0.205214 19.5882 0.0564156C20.4542 -0.0923827 21.3473 0.0553466 22.1111 0.473757C22.875 0.892168 23.4609 1.55462 23.7665 2.3452C24.0721 3.13578 24.0779 4.00416 23.7828 4.7984C23.4877 5.59264 22.9106 6.26217 22.1523 6.68984C21.3941 7.11752 20.5031 7.27611 19.6352 7.13786C18.7672 6.99962 17.9777 6.57334 17.4046 5.93362L7.32778 10.418C7.55943 11.1215 7.55943 11.8762 7.32778 12.5797L17.4046 17.0641C18.0104 16.389 18.8561 15.9535 19.7779 15.8419C20.6996 15.7302 21.6318 15.9505 22.3938 16.46C23.1558 16.9694 23.6932 17.7318 23.902 18.5993C24.1108 19.4668 23.9761 20.3777 23.5239 21.1554C23.0717 21.9332 22.3344 22.5224 21.4547 22.8089C20.575 23.0954 19.6156 23.0587 18.7625 22.706C17.9094 22.3534 17.2233 21.7098 16.8372 20.9C16.4511 20.0903 16.3924 19.172 16.6726 18.3231L6.59579 13.8388C6.09695 14.3958 5.43203 14.7931 4.69049 14.9772C3.94894 15.1613 3.16634 15.1234 2.44796 14.8686C1.72959 14.6137 1.10989 14.1542 0.672248 13.5517C0.234602 12.9493 0 12.2329 0 11.4988C0 10.7648 0.234602 10.0484 0.672248 9.44596C1.10989 8.84353 1.72959 8.38398 2.44796 8.12912C3.16634 7.87427 3.94894 7.83635 4.69049 8.02045C5.43203 8.20456 6.09695 8.60186 6.59579 9.15892L16.6726 4.67455C16.5579 4.32481 16.4997 3.9603 16.5001 3.5937Z" fill="white"/>
</svg>
