<svg width="32" height="32" viewBox="0 0 32 32" fill="none" xmlns="http://www.w3.org/2000/svg">
<path d="M31.8843 23.2769C31.6637 22.6722 31.2388 22.3453 30.7567 22.0839C30.6668 22.0348 30.5851 21.9858 30.5115 21.9531C30.3644 21.8796 30.2173 21.806 30.0703 21.7325C28.5667 20.9317 27.39 19.9348 26.581 18.7417C26.3522 18.4067 26.148 18.0472 25.9845 17.6794C25.911 17.4833 25.9192 17.3689 25.9682 17.2627C26.0172 17.181 26.0826 17.1156 26.1643 17.0584C26.4258 16.8868 26.6873 16.7152 26.867 16.6008C27.1857 16.3884 27.4472 16.2249 27.6106 16.1105C28.2235 15.6774 28.6566 15.2198 28.9262 14.705C29.3103 13.986 29.3593 13.1443 29.0652 12.3843C28.6566 11.3057 27.6433 10.6438 26.4094 10.6438C26.148 10.6438 25.8946 10.6683 25.6332 10.7255C25.5678 10.7419 25.4942 10.7582 25.4289 10.7746C25.437 10.0391 25.4207 9.26285 25.3553 8.49473C25.1265 5.80633 24.1786 4.40084 23.1981 3.28135C22.5689 2.5786 21.8334 1.98209 21.0081 1.51632C19.5209 0.666485 17.8294 0.233398 15.9908 0.233398C14.1523 0.233398 12.4689 0.666485 10.9817 1.51632C10.1564 1.98209 9.42099 2.5786 8.79179 3.28135C7.81122 4.40084 6.8715 5.8145 6.63453 8.49473C6.56916 9.26285 6.55281 10.0391 6.56098 10.7746C6.49561 10.7582 6.43024 10.7419 6.3567 10.7255C6.10338 10.6683 5.8419 10.6438 5.58858 10.6438C4.35469 10.6438 3.34143 11.3139 2.93286 12.3843C2.63869 13.1443 2.68772 13.986 3.07177 14.705C3.34143 15.2198 3.77452 15.6774 4.38738 16.1105C4.55081 16.2249 4.80412 16.3884 5.13098 16.6008C5.30258 16.7152 5.5559 16.8786 5.80921 17.0421C5.8991 17.0993 5.97264 17.1728 6.02984 17.2627C6.07887 17.3689 6.08704 17.4833 6.00533 17.6958C5.8419 18.0553 5.64578 18.4067 5.41698 18.7336C4.62435 19.8939 3.48035 20.8827 2.02583 21.6753C1.25771 22.0839 0.45691 22.3535 0.113709 23.2769C-0.139606 23.9715 0.0238233 24.7559 0.669368 25.426C0.90634 25.6711 1.18417 25.8836 1.48651 26.047C2.11572 26.3902 2.78577 26.6599 3.48852 26.8478C3.63561 26.8887 3.76635 26.9459 3.88892 27.0276C4.12589 27.2319 4.09321 27.5424 4.40372 28C4.55898 28.237 4.76327 28.4412 4.99207 28.6047C5.65395 29.0623 6.39756 29.0868 7.18201 29.1195C7.89293 29.144 8.69373 29.1767 9.61711 29.479C10.0012 29.6016 10.3934 29.8467 10.851 30.1327C11.9541 30.811 13.4577 31.7343 15.9827 31.7343C18.5076 31.7343 20.0194 30.8028 21.1307 30.1246C21.5883 29.8467 21.9805 29.6016 22.3482 29.479C23.2634 29.1767 24.0724 29.144 24.7833 29.1195C25.5678 29.0868 26.3114 29.0623 26.9733 28.6047C27.2511 28.4086 27.4799 28.1634 27.6433 27.8692C27.8721 27.4852 27.864 27.2155 28.0764 27.0276C28.1908 26.9459 28.3216 26.8887 28.4523 26.856C29.155 26.668 29.8415 26.3984 30.4788 26.047C30.7975 25.8754 31.0917 25.6466 31.3368 25.377L31.345 25.3688C31.9824 24.7151 32.1376 23.947 31.8843 23.2769ZM29.6453 24.4781C28.2807 25.2299 27.3655 25.1482 26.6628 25.6058C26.0581 25.9898 26.4176 26.8233 25.9845 27.1256C25.4452 27.4934 23.8599 27.1011 21.8171 27.7794C20.1256 28.335 19.0551 29.9448 16.0154 29.9448C12.9756 29.9448 11.9296 28.3432 10.2136 27.7794C8.17076 27.1011 6.5855 27.5015 6.04618 27.1256C5.6131 26.8233 5.96447 25.9898 5.36795 25.6058C4.65704 25.1482 3.75001 25.2299 2.38537 24.4781C1.51103 23.996 2.00949 23.7018 2.29549 23.5629C7.24739 21.1687 8.04002 17.467 8.0727 17.1892C8.11356 16.8541 8.16259 16.5926 7.79487 16.2576C7.4435 15.9308 5.87458 14.9584 5.43332 14.656C4.71424 14.1494 4.39555 13.6509 4.63252 13.0299C4.79595 12.605 5.19635 12.4415 5.6131 12.4415C5.74384 12.4415 5.87458 12.4579 6.00533 12.4824C6.79796 12.654 7.56607 13.0462 8.00733 13.1606C8.06453 13.177 8.11356 13.1851 8.17076 13.1851C8.40773 13.1851 8.48945 13.0626 8.4731 12.7929C8.42408 11.9267 8.3015 10.2434 8.44042 8.66634C8.62836 6.5009 9.32293 5.42227 10.1564 4.47438C10.5568 4.01678 12.4281 2.03929 16.0154 2.03929C19.6026 2.03929 21.4739 4.00861 21.8743 4.46621C22.7078 5.4141 23.4023 6.49273 23.5903 8.65816C23.7292 10.2353 23.6066 11.9186 23.5494 12.7847C23.5331 13.0707 23.6148 13.177 23.8518 13.177C23.909 13.177 23.958 13.1688 24.0152 13.1525C24.4565 13.0462 25.2246 12.6458 26.0172 12.4742C26.148 12.4415 26.2787 12.4334 26.4094 12.4334C26.8262 12.4334 27.2266 12.5968 27.39 13.0217C27.627 13.6428 27.3083 14.1412 26.5892 14.6478C26.1561 14.9502 24.5872 15.9226 24.2277 16.2494C23.8599 16.5845 23.909 16.846 23.9498 17.181C23.9825 17.4588 24.7751 21.1605 29.727 23.5547C30.0212 23.6936 30.5115 23.996 29.6453 24.4781Z" fill="#898989"/>
</svg>
