<svg width="24" height="24" viewBox="0 0 24 24" fill="none" xmlns="http://www.w3.org/2000/svg">
<path d="M23.9468 1.0287C24.0014 0.892402 24.0147 0.743093 23.9852 0.599281C23.9557 0.455468 23.8847 0.323476 23.7809 0.219667C23.6771 0.115859 23.5451 0.0447997 23.4013 0.0152988C23.2574 -0.014202 23.1081 -0.00084688 22.9718 0.0537084L1.15161 8.7821H1.15011L0.472119 9.05209C0.343706 9.10332 0.23195 9.18904 0.149196 9.29979C0.0664425 9.41054 0.0159114 9.54201 0.00318479 9.67967C-0.00954186 9.81734 0.0160312 9.95584 0.0770792 10.0799C0.138127 10.2039 0.232274 10.3087 0.34912 10.3826L0.964113 10.7726L0.965613 10.7756L8.45802 15.5425L13.225 23.0349L13.228 23.0379L13.618 23.6529C13.6921 23.7693 13.7969 23.863 13.9209 23.9237C14.0448 23.9843 14.1831 24.0096 14.3205 23.9967C14.4579 23.9839 14.5891 23.9333 14.6996 23.8507C14.8101 23.7681 14.8957 23.6566 14.9469 23.5284L23.9468 1.0287ZM21.1974 3.86366L9.9565 15.1045L9.634 14.5975C9.57491 14.5045 9.49604 14.4256 9.40301 14.3665L8.89601 14.044L20.1369 2.80317L21.9039 2.09668L21.1989 3.86366H21.1974Z" fill="white"/>
</svg>
