<svg width="24" height="25" viewBox="0 0 24 25" fill="none" xmlns="http://www.w3.org/2000/svg">
<path d="M3.71834 0.873047C3.71834 0.674135 3.79736 0.483369 3.93801 0.342717C4.07866 0.202065 4.26943 0.123047 4.46834 0.123047L19.4683 0.123047C19.6673 0.123047 19.858 0.202065 19.9987 0.342717C20.1393 0.483369 20.2183 0.674135 20.2183 0.873047C20.2183 1.68005 20.2003 2.44805 20.1673 3.17705C20.76 3.27519 21.3271 3.49103 21.835 3.81182C22.343 4.13261 22.7816 4.55186 23.1249 5.04486C23.4682 5.53785 23.7094 6.09461 23.8341 6.68229C23.9589 7.26997 23.9647 7.87667 23.8512 8.46663C23.7377 9.05658 23.5072 9.61784 23.1734 10.1173C22.8395 10.6168 22.409 11.0443 21.9073 11.3748C21.4056 11.7052 20.8427 11.9318 20.252 12.0413C19.6613 12.1507 19.0547 12.1408 18.4678 12.012C17.2828 14.8095 15.6508 16.1775 14.2183 16.5285V19.788L16.3558 20.322C16.6468 20.394 16.9213 20.5245 17.1613 20.7045L19.9183 22.773C20.0443 22.8675 20.1373 22.9992 20.1842 23.1494C20.2312 23.2997 20.2296 23.4609 20.1799 23.6102C20.1301 23.7596 20.0346 23.8894 19.9069 23.9815C19.7792 24.0735 19.6258 24.123 19.4683 24.123H4.46834C4.31093 24.123 4.15751 24.0735 4.02981 23.9815C3.90211 23.8894 3.80661 23.7596 3.75683 23.6102C3.70705 23.4609 3.70552 23.2997 3.75246 23.1494C3.79939 22.9992 3.89241 22.8675 4.01834 22.773L6.77534 20.7045C7.01534 20.5245 7.28984 20.394 7.58084 20.322L9.71834 19.788V16.5285C8.28584 16.1775 6.65384 14.8095 5.46884 12.0105C4.88172 12.14 4.27462 12.1505 3.68338 12.0414C3.09214 11.9323 2.52876 11.7058 2.02651 11.3753C1.52426 11.0448 1.09332 10.6171 0.759152 10.1173C0.424979 9.6175 0.194347 9.05581 0.0808747 8.46539C-0.0325972 7.87498 -0.0266073 7.26781 0.0984905 6.67975C0.223588 6.09169 0.465257 5.53466 0.809225 5.04155C1.15319 4.54845 1.59248 4.12927 2.10116 3.80878C2.60983 3.48828 3.17757 3.27297 3.77084 3.17555C3.73553 2.40856 3.71802 1.64085 3.71834 0.873047ZM3.86684 4.68305C3.08412 4.82626 2.39035 5.27455 1.93816 5.92929C1.48596 6.58402 1.31238 7.39158 1.45559 8.1743C1.59881 8.95702 2.04709 9.65079 2.70183 10.103C3.35657 10.5552 4.16412 10.7288 4.94684 10.5855C4.44734 9.01055 4.06484 7.06655 3.86684 4.68305ZM18.9913 10.5855C19.7741 10.7288 20.5816 10.5552 21.2364 10.103C21.8911 9.65079 22.3394 8.95702 22.4826 8.1743C22.6258 7.39158 22.4522 6.58402 22 5.92929C21.5478 5.27455 20.8541 4.82626 20.0713 4.68305C19.8718 7.06805 19.4893 9.01055 18.9913 10.5855Z" fill="#D9D9D9"/>
</svg>
