<svg width="24" height="24" viewBox="0 0 24 24" fill="none" xmlns="http://www.w3.org/2000/svg">
<path fillRule="evenodd" clipRule="evenodd" d="M19.0477 21.7086C23.2659 18.6515 25.015 13.228 23.4129 8.28954C21.7962 3.35109 17.1958 0 11.9928 0C6.80445 0 2.18935 3.35109 0.587295 8.28954C-1.01476 13.228 0.734272 18.6515 4.93783 21.7086C9.15609 24.7657 14.8441 24.7657 19.0477 21.7086ZM1.61614 8.62759C3.07122 4.13007 7.27478 1.08763 11.9928 1.08763C16.7254 1.08763 20.9143 4.13007 22.3841 8.62759C23.8392 13.1251 22.2371 18.0489 18.4157 20.8267C14.5943 23.6046 9.40595 23.6046 5.58454 20.8267C1.74842 18.0489 0.16106 13.1251 1.61614 8.62759ZM8.05376 12.9781C8.24483 13.6836 9.00911 14.5508 10.2143 14.5949C9.87628 14.8741 9.50884 15.0799 9.0973 15.271C8.36241 15.5796 7.58343 15.6825 6.77505 15.5943C6.78628 15.5999 6.79537 15.6034 6.80312 15.6064C6.81568 15.6112 6.82476 15.6146 6.83385 15.6237C7.96557 16.3292 9.21488 16.6673 10.5524 16.6232C10.9933 16.6232 11.4195 16.5644 11.8458 16.4762C13.0804 16.2116 14.1533 15.609 15.0352 14.6978C15.5643 14.1539 15.9759 13.5366 16.2992 12.8605C16.6079 12.1991 16.8136 11.5084 16.9018 10.7882C16.9459 10.4501 16.9606 10.0974 16.9459 9.75932C16.9459 9.72992 16.9606 9.70053 16.99 9.68583C17.2987 9.45066 17.5779 9.1861 17.8278 8.87745L18.0923 8.5247C18.0776 8.5247 18.0776 8.51001 18.0776 8.51001C17.6661 8.68638 17.2399 8.81866 16.7842 8.86275C17.2693 8.5541 17.5926 8.14256 17.7837 7.59875H17.769C17.7616 7.59875 17.758 7.60242 17.7543 7.60609C17.7506 7.60977 17.7469 7.61344 17.7396 7.61344C17.3134 7.84861 16.8724 8.02498 16.3874 8.12786C16.3433 8.12786 16.3139 8.12786 16.2698 8.08377C15.6966 7.52526 15.0058 7.30479 14.2268 7.43707C13.5507 7.55465 13.0216 7.9221 12.6542 8.49531C12.3602 8.95094 12.2573 9.46536 12.3161 10.0092C12.3308 10.0826 12.3455 10.1708 12.3602 10.2589L12.3602 10.259C10.4201 10.1268 8.81804 9.30369 7.55404 7.80451C7.26008 8.34833 7.17189 8.90685 7.30417 9.49476C7.43645 10.0827 7.7745 10.553 8.25953 10.9057C7.89208 10.891 7.55404 10.8029 7.23069 10.6265C7.23069 11.0821 7.33357 11.479 7.56873 11.8611C7.92148 12.4343 8.4212 12.7871 9.0826 12.934C9.07525 12.934 9.07158 12.9377 9.06791 12.9414C9.06423 12.9451 9.06056 12.9487 9.05321 12.9487C8.71516 13.0369 8.39181 13.0369 8.05376 12.9781Z" fill="#3CBFF0"/>
</svg>
