<svg width="33" height="32" viewBox="0 0 33 32" fill="none" xmlns="http://www.w3.org/2000/svg">
<g clip-path="url(#clip0_46_415)">
<path fillRule="evenodd" clipRule="evenodd" d="M2.31971 2.24942C0 4.49884 0 8.1192 0 15.36V16.64C0 23.8808 0 27.5011 2.31971 29.7506C4.63943 32 8.37293 32 15.84 32H17.16C24.6271 32 28.3605 32 30.6803 29.7506C33 27.5011 33 23.8808 33 16.64V15.36C33 8.1192 33 4.49884 30.6803 2.24942C28.3605 0 24.6271 0 17.16 0H15.84C8.37293 0 4.63943 0 2.31971 2.24942ZM5.56883 9.7334C5.74758 18.0534 10.0376 23.0534 17.5588 23.0534H17.9851V18.2934C20.7489 18.5601 22.8387 20.5201 23.6775 23.0534H27.5826C26.5101 19.2667 23.6912 17.1734 21.9312 16.3734C23.6912 15.3867 26.1662 12.9867 26.7574 9.7334H23.2099C22.4399 12.3734 20.1576 14.7734 17.9851 15.0001V9.7334H14.4375V18.9601C12.2375 18.4267 9.46007 15.8401 9.33632 9.7334H5.56883Z" fill="#898989"/>
</g>
<defs>
<clipPath id="clip0_46_415">
<rect width="33" height="32" fill="white"/>
</clipPath>
</defs>
</svg>
