<svg width="24" height="24" viewBox="0 0 24 24" fill="none" xmlns="http://www.w3.org/2000/svg">
<path fillRule="evenodd" clipRule="evenodd" d="M23.4113 8.28904C25.0132 13.2272 23.2643 18.6503 19.061 21.7073C14.8577 24.7642 9.17001 24.7642 4.95201 21.7073C0.734006 18.6503 -1.01492 13.2272 0.587037 8.28904C2.189 3.35089 6.80382 0 11.9918 0C17.1945 0 21.7946 3.35089 23.4113 8.28904ZM11.9918 1.08757C7.27412 1.08757 3.07081 4.12982 1.61582 8.62707C0.160828 13.1243 1.74809 18.0478 5.58398 20.8255C9.40516 23.6032 14.5932 23.6032 18.4144 20.8255C22.2355 18.0478 23.8375 13.1243 22.3825 8.62707C20.9128 4.12982 16.7242 1.08757 11.9918 1.08757ZM6.48049 17.5334C6.53927 17.2982 6.59806 17.0778 6.65685 16.872C6.73432 16.5815 6.81463 16.291 6.89529 15.9992C6.99823 15.6268 7.10174 15.2523 7.20063 14.8732C7.23003 14.7704 7.21533 14.6381 7.17124 14.5499C5.4811 11.3313 7.23003 7.42192 10.772 6.5842C13.9906 5.83466 16.8859 8.0098 17.415 10.9198C17.9587 13.9473 15.9747 16.8426 12.9765 17.357C11.7861 17.5628 10.6397 17.3864 9.53744 16.8573C9.43456 16.8132 9.30229 16.7985 9.19941 16.8279C8.77998 16.9381 8.40085 17.0385 8.06661 17.127L8.06633 17.127L8.06595 17.1271C7.24106 17.3455 6.68963 17.4915 6.48049 17.5334ZM8.39545 16.1042L8.39566 16.1041C8.71023 16.0242 9.01627 15.9464 9.31698 15.8579C9.46395 15.8138 9.56683 15.8432 9.6991 15.9167C10.6397 16.4605 11.6538 16.6663 12.7414 16.4899C15.2398 16.0931 16.9447 13.7563 16.5625 11.2725C16.1657 8.70055 13.7407 6.96632 11.1982 7.43662C8.11184 8.0098 6.46579 11.4489 8.00896 14.1678C8.18532 14.4764 8.22941 14.7263 8.11184 15.0349C7.99941 15.3385 7.92138 15.642 7.83828 15.9653L7.83826 15.9654C7.81274 16.0647 7.78674 16.1658 7.75911 16.2694C7.97557 16.2109 8.18737 16.1571 8.39545 16.1042ZM9.49335 11.6693C10.6691 13.7122 12.3739 14.5499 13.4468 14.594C13.9612 14.6234 14.8283 14.2854 14.7842 13.3301C14.7702 13.218 14.7028 13.186 13.7283 12.7247C13.6807 12.7022 13.631 12.6786 13.5791 12.654C13.3932 12.5727 13.3267 12.6567 13.0891 12.9569C13.0262 13.0364 12.9513 13.1311 12.8589 13.2419C12.7707 13.3301 12.6826 13.3595 12.565 13.3154C11.742 12.992 11.11 12.4483 10.6544 11.684C10.5956 11.5664 10.6103 11.4783 10.6985 11.3754C10.9777 11.0521 11.11 10.8757 11.0365 10.6846C10.9042 10.3172 10.7573 9.96448 10.5956 9.61176C10.5662 9.55297 10.5074 9.46479 10.4486 9.45009C10.2135 9.406 9.94895 9.36191 9.74319 9.55297C9.14062 10.1261 9.08183 10.9492 9.49335 11.6693Z" fill="#1F9E38"/>
</svg>
