<svg width="33" height="32" viewBox="0 0 33 32" fill="none" xmlns="http://www.w3.org/2000/svg">
<path d="M0 32L2.31962 23.7827C0.888248 21.3773 0.136125 18.6507 0.1375 15.8547C0.141625 7.11333 7.47723 0 16.4903 0C20.8642 0.00133333 24.9699 1.65333 28.0582 4.65067C31.1451 7.648 32.8446 11.632 32.8432 15.8693C32.8391 24.612 25.5034 31.7253 16.4903 31.7253C13.7541 31.724 11.0577 31.0587 8.66936 29.7947L0 32ZM9.07085 26.924C11.3753 28.2507 13.5753 29.0453 16.4848 29.0467C23.9758 29.0467 30.0781 23.1347 30.0822 15.8667C30.0849 8.584 24.0116 2.68 16.4958 2.67733C8.99935 2.67733 2.90124 8.58933 2.89849 15.856C2.89712 18.8227 3.79362 21.044 5.29924 23.368L3.92562 28.232L9.07085 26.924ZM24.7279 19.6387C24.6262 19.4733 24.3539 19.3747 23.9442 19.176C23.5358 18.9773 21.527 18.0187 21.1516 17.8867C20.7776 17.7547 20.5053 17.688 20.2317 18.0853C19.9595 18.4813 19.1757 19.3747 18.9378 19.6387C18.7 19.9027 18.4607 19.936 18.0523 19.7373C17.644 19.5387 16.3267 19.1213 14.7661 17.7707C13.552 16.72 12.7311 15.4227 12.4932 15.0253C12.2553 14.6293 12.4685 14.4147 12.672 14.2173C12.8562 14.04 13.0803 13.7547 13.2852 13.5227C13.4928 13.2933 13.5602 13.128 13.6977 12.8627C13.8338 12.5987 13.7665 12.3667 13.6633 12.168C13.5602 11.9707 12.7435 10.02 12.4038 9.22667C12.0711 8.45467 11.7342 8.55867 11.484 8.54667L10.7002 8.53333C10.428 8.53333 9.98523 8.632 9.61123 9.02933C9.23723 9.42667 8.18123 10.384 8.18123 12.3347C8.18123 14.2853 9.6456 16.1693 9.8491 16.4333C10.054 16.6973 12.7297 20.7 16.8286 22.416C17.8035 22.824 18.5652 23.068 19.1578 23.2507C20.1368 23.552 21.0278 23.5093 21.7318 23.408C22.5169 23.2947 24.1491 22.4493 24.4901 21.524C24.8311 20.5973 24.8311 19.804 24.7279 19.6387Z" fill="#898989"/>
</svg>
