<svg width="20" height="20" viewBox="0 0 20 20" fill="none" xmlns="http://www.w3.org/2000/svg">
<g clip-path="url(#clip0_1860_1393)">
<path d="M18.1599 15.5861C17.8575 16.2848 17.4995 16.928 17.0847 17.5194C16.5192 18.3255 16.0563 18.8835 15.6995 19.1934C15.1464 19.702 14.5539 19.9625 13.9193 19.9773C13.4638 19.9773 12.9144 19.8477 12.2749 19.5847C11.6333 19.323 11.0437 19.1934 10.5046 19.1934C9.9392 19.1934 9.3328 19.323 8.68418 19.5847C8.03457 19.8477 7.51125 19.9847 7.11114 19.9983C6.50264 20.0242 5.89612 19.7563 5.29071 19.1934C4.9043 18.8563 4.42098 18.2786 3.84199 17.4601C3.22077 16.586 2.71005 15.5725 2.30994 14.417C1.88143 13.1689 1.66663 11.9603 1.66663 10.7902C1.66663 9.44984 1.95625 8.29383 2.53635 7.32509C2.99226 6.54697 3.59879 5.93316 4.3579 5.48255C5.11701 5.03195 5.93723 4.80233 6.82054 4.78764C7.30385 4.78764 7.93766 4.93714 8.72529 5.23096C9.5107 5.52576 10.015 5.67526 10.2361 5.67526C10.4014 5.67526 10.9616 5.50045 11.9114 5.15195C12.8095 4.82875 13.5675 4.69492 14.1884 4.74764C15.8711 4.88344 17.1353 5.54675 17.976 6.74177C16.4711 7.6536 15.7267 8.93072 15.7415 10.5691C15.7551 11.8452 16.218 12.9071 17.1279 13.7503C17.5402 14.1417 18.0007 14.4441 18.513 14.6589C18.4019 14.9812 18.2846 15.2898 18.1599 15.5861ZM14.3008 0.400114C14.3008 1.40034 13.9354 2.33425 13.207 3.19867C12.328 4.22629 11.2648 4.8201 10.1119 4.7264C10.0972 4.60641 10.0887 4.48011 10.0887 4.3474C10.0887 3.38718 10.5067 2.35956 11.249 1.51934C11.6196 1.09392 12.091 0.74019 12.6626 0.458013C13.2329 0.180046 13.7724 0.0263242 14.2798 0C14.2946 0.133715 14.3008 0.267438 14.3008 0.400101V0.400114Z" fill="#898989"/>
</g>
<defs>
<clipPath id="clip0_1860_1393">
<rect width="20" height="20" fill="white"/>
</clipPath>
</defs>
</svg>
