<svg width="21" height="64" viewBox="0 0 21 64" fill="none" xmlns="http://www.w3.org/2000/svg">
<path d="M17.7201 20.9379C18.8036 14.5162 19.8872 8.0944 20.9707 1.67264C21.1757 0.65711 20.2679 0 19.36 0C13.3273 0.0597373 7.29449 0.0896059 1.23242 0.149343C-0.641841 0.179212 -0.261131 3.13621 1.58385 3.10634C6.44521 3.07647 11.3066 3.01673 16.1679 2.98686C7.70448 12.4851 0.471002 24.4624 1.37885 37.7241C1.84741 44.6835 4.60024 51.3442 8.84661 56.8102C10.8087 59.3191 13.0637 61.8281 15.6408 63.7098C17.1929 64.815 19.0086 62.4852 17.4565 61.3801C14.3815 59.1698 12.1266 56.5413 9.98874 53.4051C6.00593 47.6106 3.78025 40.6214 4.30738 33.5126C5.0688 23.1183 10.633 14.0084 17.2515 6.30228C16.4315 11.0514 15.6408 15.8304 14.8208 20.5795C14.4987 22.4314 17.3979 22.8196 17.7201 20.9379Z" fill="black"/>
</svg>
