<svg width="20" height="20" viewBox="0 0 20 20" fill="none" xmlns="http://www.w3.org/2000/svg">
<path fill-rule="evenodd" clip-rule="evenodd" d="M15.8786 18.0891C19.3827 15.5456 20.8481 11.0319 19.5102 6.91023C18.1722 2.7886 14.3348 0 10.0025 0C5.67008 0 1.82779 2.7886 0.489854 6.91023C-0.848085 11.0319 0.617277 15.5456 4.1214 18.0891C7.62553 20.6376 12.3745 20.6376 15.8786 18.0891ZM5.24368 6.87104V13.1344H5.29268H8.05188C8.32143 13.1344 8.58607 13.1148 8.85072 13.0706C9.46823 12.9677 9.91911 12.6345 10.1936 12.0758C10.3847 11.6935 10.4239 11.2818 10.3455 10.8653C10.2524 10.3507 9.95832 9.98799 9.47313 9.79196L9.46196 9.78842L9.46196 9.78842C9.44916 9.78447 9.43419 9.77984 9.41922 9.77236C9.45843 9.74785 9.49764 9.72335 9.53684 9.70374C9.79169 9.55672 9.98282 9.35578 10.0857 9.07153C10.1838 8.79708 10.1985 8.50793 10.1593 8.21878C10.0808 7.67478 9.79169 7.28761 9.2869 7.06217C8.97814 6.92495 8.64978 6.87104 8.31652 6.87104C7.55568 6.86369 6.79483 6.8646 6.03398 6.86552C5.78035 6.86583 5.52671 6.86614 5.27308 6.86614C5.26818 6.86614 5.26328 6.86736 5.25838 6.86859C5.25348 6.86981 5.24858 6.87104 5.24368 6.87104ZM6.72864 12.0464H6.69433V10.3801H6.71394C6.87422 10.3801 7.03395 10.3795 7.1935 10.379H7.19362H7.19374C7.51222 10.3779 7.82997 10.3768 8.14989 10.3801C8.30182 10.385 8.45375 10.4046 8.60077 10.4585C8.88503 10.5614 9.04675 10.7819 9.06146 11.0858C9.06636 11.2034 9.06146 11.321 9.03205 11.4387C8.95854 11.7523 8.7576 11.9434 8.44395 12.0072C8.31652 12.0317 8.1793 12.0464 8.04698 12.0464C7.75316 12.0496 7.46152 12.0485 7.16915 12.0475H7.16899C7.02251 12.0469 6.87585 12.0464 6.72864 12.0464ZM6.71884 9.33618H6.69433V7.95903H6.73354C6.86441 7.95903 6.99474 7.95849 7.12488 7.95794H7.12491H7.12494C7.38467 7.95685 7.64367 7.95577 7.90485 7.95903C8.11559 7.95903 8.32143 7.97863 8.52726 8.03254C8.7576 8.09626 8.89483 8.25799 8.92423 8.49813C8.94384 8.62555 8.93894 8.75297 8.90463 8.8755C8.86052 9.02252 8.77721 9.13524 8.63998 9.20385C8.45865 9.30187 8.25771 9.33618 8.05678 9.33618H6.71884ZM15.3199 11.027H12.051C12.0537 11.0653 12.058 11.102 12.0621 11.1373L12.0621 11.1373C12.0653 11.1652 12.0684 11.1921 12.0706 11.2181C12.0853 11.3456 12.1196 11.4681 12.1735 11.5808C12.3205 11.8847 12.5705 12.0513 12.8939 12.115C13.0753 12.1493 13.2615 12.1493 13.4428 12.115C13.7124 12.0562 13.9084 11.9043 14.0407 11.6641C14.0554 11.6396 14.0701 11.6298 14.0996 11.6298H15.212H15.2611C15.2586 11.6404 15.2563 11.6508 15.2541 11.6612C15.2528 11.6671 15.2515 11.673 15.2503 11.6788C15.2406 11.724 15.2314 11.7664 15.217 11.8062C15.1483 12.0317 15.016 12.2228 14.8592 12.3992C14.521 12.7815 14.0946 12.9874 13.5948 13.0609C13.2027 13.1197 12.8106 13.1099 12.4235 12.9972C12.0216 12.8795 11.6687 12.6835 11.3796 12.3796C11.1443 12.1346 11.012 11.8356 10.9434 11.5073C10.8209 10.9339 10.8209 10.3556 10.9924 9.78708C11.2423 8.98824 11.7961 8.51776 12.6097 8.36583C13.1145 8.27271 13.6144 8.31682 14.0897 8.51285C14.5357 8.69419 14.8445 9.02254 15.0601 9.44402C15.1973 9.71847 15.2758 10.0125 15.2954 10.3164C15.3064 10.4859 15.3092 10.6527 15.3119 10.8208V10.8209L15.3119 10.8212C15.3128 10.8765 15.3138 10.932 15.315 10.9878C15.3199 11.0025 15.3199 11.0123 15.3199 11.027ZM14.0996 10.2478V10.2282C14.0947 10.1841 14.0897 10.1399 14.0848 10.1007C14.026 9.75768 13.8398 9.50773 13.5163 9.37541C13.3448 9.3068 13.1684 9.29209 12.992 9.3019C12.6195 9.3264 12.3499 9.50773 12.198 9.85079C12.1702 9.91342 12.1498 9.98345 12.1297 10.0521L12.1297 10.0521C12.1215 10.0802 12.1134 10.108 12.1049 10.135C12.0951 10.1694 12.0902 10.2086 12.0853 10.2478H14.0996ZM11.8207 7.13077V7.8512H14.3397V7.13077H11.8207Z" fill="#898989"/>
</svg>
