<svg width="32" height="32" viewBox="0 0 32 32" fill="none" xmlns="http://www.w3.org/2000/svg">
<path d="M30.72 9.56753C30.72 9.53553 30.72 9.53553 30.72 9.50353C30.72 9.47153 30.688 9.47153 30.688 9.43953C30.688 9.43953 30.688 9.40753 30.656 9.40753L26.88 4.99153V3.83953C26.88 3.64753 26.752 3.51953 26.56 3.51953H5.44003C5.24803 3.51953 5.12003 3.64753 5.12003 3.83953V4.99153L1.34403 9.37553C1.34403 9.37553 1.34403 9.40753 1.31203 9.40753C1.31203 9.43953 1.28003 9.43953 1.28003 9.47153C1.28003 9.50353 1.28003 9.50353 1.28003 9.53553V9.56753V11.1675C1.28003 12.1275 1.98403 12.8955 2.88003 13.0555V26.5595H2.56003C2.36803 26.5595 2.24003 26.6875 2.24003 26.8795V28.1595C2.24003 28.3515 2.36803 28.4795 2.56003 28.4795H29.44C29.632 28.4795 29.76 28.3515 29.76 28.1595V26.8795C29.76 26.6875 29.632 26.5595 29.44 26.5595H29.12V13.0875C30.016 12.9275 30.72 12.1595 30.72 11.1995V9.59953V9.56753ZM5.60003 5.43953H7.10403L4.64003 9.27953H2.30403L5.60003 5.43953ZM24.16 5.43953L26.624 9.27953H24.192L22.272 5.43953H24.16ZM21.568 5.43953L23.488 9.27953H21.024L19.648 5.43953H21.568ZM18.976 5.43953L20.352 9.27953H17.888L17.344 5.43953H18.976ZM16.672 5.43953L17.216 9.27953H14.752L15.296 5.43953H16.672ZM14.112 9.27953H11.648L13.024 5.43953H14.656L14.112 9.27953ZM10.976 9.27953H8.51203L10.432 5.43953H12.352L10.976 9.27953ZM7.80803 9.27953H5.37603L7.84003 5.43953H9.69603L7.80803 9.27953ZM5.12003 9.91953H7.68003V11.1995C7.68003 11.9035 7.10403 12.4795 6.40003 12.4795C5.69603 12.4795 5.12003 11.9035 5.12003 11.1995V9.91953ZM8.32003 9.91953H10.88V11.1995C10.88 11.9035 10.304 12.4795 9.60003 12.4795C8.89603 12.4795 8.32003 11.9035 8.32003 11.1995V9.91953ZM11.52 9.91953H14.08V11.1995C14.08 11.9035 13.504 12.4795 12.8 12.4795C12.096 12.4795 11.52 11.9035 11.52 11.1995V9.91953ZM14.72 9.91953H17.28V11.1995C17.28 11.9035 16.704 12.4795 16 12.4795C15.296 12.4795 14.72 11.9035 14.72 11.1995V9.91953ZM17.92 9.91953H20.48V11.1995C20.48 11.9035 19.904 12.4795 19.2 12.4795C18.496 12.4795 17.92 11.9035 17.92 11.1995V9.91953ZM21.12 9.91953H23.68V11.1995C23.68 11.9035 23.104 12.4795 22.4 12.4795C21.696 12.4795 21.12 11.9035 21.12 11.1995V9.91953ZM24.32 9.91953H26.88V11.1995C26.88 11.9035 26.304 12.4795 25.6 12.4795C24.896 12.4795 24.32 11.9035 24.32 11.1995V9.91953ZM27.36 9.27953L24.896 5.43953H26.4L29.696 9.27953H27.36ZM5.76003 4.15953H26.24V4.79953H5.76003V4.15953ZM1.92003 11.1995V9.91953H4.48003V11.1995C4.48003 11.9035 3.90403 12.4795 3.20003 12.4795C2.49603 12.4795 1.92003 11.9035 1.92003 11.1995ZM29.12 27.8395H2.88003V27.1995H3.20003H5.12003H7.68003H8.96003H13.44H14.72H17.28H28.8H29.12V27.8395ZM13.76 26.5595V20.4795C13.76 20.2875 13.632 20.1595 13.44 20.1595H8.96003C8.76803 20.1595 8.64003 20.2875 8.64003 20.4795V26.5595H8.00003V25.5995C8.00003 25.4075 7.87203 25.2795 7.68003 25.2795H7.36003V19.1995H7.68003C7.87203 19.1995 8.00003 19.0715 8.00003 18.8795V17.9195H14.4V18.8795C14.4 19.0715 14.528 19.1995 14.72 19.1995H15.04V25.2795H14.72C14.528 25.2795 14.4 25.4075 14.4 25.5995V26.5595H13.76ZM13.12 26.5595H9.28003V20.7995H13.12V26.5595ZM15.04 25.9195H15.36H16.64H16.96V26.5595H15.04V25.9195ZM16.32 25.2795H15.68V19.1995H16.32V25.2795ZM16.64 18.5595H15.36H15.04V17.9195H16.96V18.5595H16.64ZM17.28 17.2795H14.72H7.68003H5.12003V16.6395H17.28V17.2795ZM5.47203 15.9995L6.52803 14.7195H15.84L16.896 15.9995H5.47203ZM7.36003 17.9195V18.5595H7.04003H5.76003H5.44003V17.9195H7.36003ZM6.08003 19.1995H6.72003V25.2795H6.08003V19.1995ZM5.76003 25.9195H7.04003H7.36003V26.5595H5.44003V25.9195H5.76003ZM17.6 26.5595V25.5995C17.6 25.4075 17.472 25.2795 17.28 25.2795H16.96V19.1995H17.28C17.472 19.1995 17.6 19.0715 17.6 18.8795V17.9195C17.792 17.9195 17.92 17.7915 17.92 17.5995V16.3195C17.92 16.2875 17.92 16.2555 17.888 16.2235C17.888 16.1915 17.856 16.1595 17.824 16.1595L16.224 14.2395C16.192 14.1115 16.096 14.0795 16 14.0795H6.40003C6.30403 14.0795 6.20803 14.1115 6.14403 14.2075L4.54403 16.1275C4.51203 16.1595 4.51203 16.1915 4.48003 16.1915C4.48003 16.2235 4.44803 16.2555 4.44803 16.2875V17.5675C4.44803 17.7595 4.57603 17.8875 4.76803 17.8875V18.8475C4.76803 19.0395 4.89603 19.1675 5.08803 19.1675H5.40803V25.2475H5.08803C4.89603 25.2475 4.76803 25.3755 4.76803 25.5675V26.5275H3.48803V13.0875C4.03203 12.9915 4.48003 12.7035 4.76803 12.2555C5.12003 12.7675 5.69603 13.1195 6.36803 13.1195C7.04003 13.1195 7.61603 12.7675 7.96803 12.2555C8.32003 12.7675 8.89603 13.1195 9.56803 13.1195C10.24 13.1195 10.816 12.7675 11.168 12.2555C11.52 12.7675 12.096 13.1195 12.768 13.1195C13.44 13.1195 14.016 12.7675 14.368 12.2555C14.72 12.7675 15.296 13.1195 15.968 13.1195C16.64 13.1195 17.216 12.7675 17.568 12.2555C17.92 12.7675 18.496 13.1195 19.168 13.1195C19.84 13.1195 20.416 12.7675 20.768 12.2555C21.12 12.7675 21.696 13.1195 22.368 13.1195C23.04 13.1195 23.616 12.7675 23.968 12.2555C24.32 12.7675 24.896 13.1195 25.568 13.1195C26.24 13.1195 26.816 12.7675 27.168 12.2555C27.456 12.7035 27.904 12.9915 28.448 13.0875V26.5595H17.6ZM30.08 11.1995C30.08 11.9035 29.504 12.4795 28.8 12.4795C28.096 12.4795 27.52 11.9035 27.52 11.1995V9.91953H30.08V11.1995Z" fill="#898989"/>
<path d="M26.5601 23.3599V19.1999C26.5601 19.0079 26.4321 18.8799 26.2401 18.8799H19.2001C19.0081 18.8799 18.8801 19.0079 18.8801 19.1999V23.3599C18.6881 23.3599 18.5601 23.4879 18.5601 23.6799V24.6399C18.5601 24.8319 18.6881 24.9599 18.8801 24.9599H26.5601C26.7521 24.9599 26.8801 24.8319 26.8801 24.6399V23.6799C26.8801 23.4879 26.7521 23.3599 26.5601 23.3599ZM25.9201 23.3599H23.0401V21.7599H25.9201V23.3599ZM25.9201 21.1199H23.0401V19.5199H25.9201V21.1199ZM22.4001 19.5199V21.1199H19.5201V19.5199H22.4001ZM19.5201 21.7599H22.4001V23.3599H19.5201V21.7599ZM26.2401 24.3199H19.2001V23.9999H26.2401V24.3199Z" fill="#898989"/>
</svg>
