<svg width="46" height="38" viewBox="0 0 46 38" fill="none" xmlns="http://www.w3.org/2000/svg">
<path d="M45.08 9.35178C45.08 9.30378 45.08 9.30379 45.08 9.25578C45.08 9.20779 45.032 9.20778 45.032 9.15979C45.032 9.15979 45.032 9.11178 44.984 9.11178L39.32 2.48779V0.759785C39.32 0.471785 39.128 0.279785 38.84 0.279785H7.16C6.872 0.279785 6.68 0.471785 6.68 0.759785V2.48779L1.016 9.06378C1.016 9.06378 1.016 9.11178 0.967998 9.11178C0.967998 9.15978 0.919998 9.15979 0.919998 9.20779C0.919998 9.25578 0.919998 9.25578 0.919998 9.30378V9.35178V11.7518C0.919998 13.1918 1.976 14.3438 3.32 14.5838V34.8398H2.84C2.552 34.8398 2.36 35.0318 2.36 35.3198V37.2398C2.36 37.5278 2.552 37.7198 2.84 37.7198H43.16C43.448 37.7198 43.64 37.5278 43.64 37.2398V35.3198C43.64 35.0318 43.448 34.8398 43.16 34.8398H42.68V14.6318C44.024 14.3918 45.08 13.2398 45.08 11.7998V9.39979V9.35178ZM7.4 3.15979H9.656L5.96 8.91978H2.456L7.4 3.15979ZM35.24 3.15979L38.936 8.91978H35.288L32.408 3.15979H35.24ZM31.352 3.15979L34.232 8.91978H30.536L28.472 3.15979H31.352ZM27.464 3.15979L29.528 8.91978H25.832L25.016 3.15979H27.464ZM24.008 3.15979L24.824 8.91978H21.128L21.944 3.15979H24.008ZM20.168 8.91978H16.472L18.536 3.15979H20.984L20.168 8.91978ZM15.464 8.91978H11.768L14.648 3.15979H17.528L15.464 8.91978ZM10.712 8.91978H7.064L10.76 3.15979H13.544L10.712 8.91978ZM6.68 9.87978H10.52V11.7998C10.52 12.8558 9.656 13.7198 8.6 13.7198C7.544 13.7198 6.68 12.8558 6.68 11.7998V9.87978ZM11.48 9.87978H15.32V11.7998C15.32 12.8558 14.456 13.7198 13.4 13.7198C12.344 13.7198 11.48 12.8558 11.48 11.7998V9.87978ZM16.28 9.87978H20.12V11.7998C20.12 12.8558 19.256 13.7198 18.2 13.7198C17.144 13.7198 16.28 12.8558 16.28 11.7998V9.87978ZM21.08 9.87978H24.92V11.7998C24.92 12.8558 24.056 13.7198 23 13.7198C21.944 13.7198 21.08 12.8558 21.08 11.7998V9.87978ZM25.88 9.87978H29.72V11.7998C29.72 12.8558 28.856 13.7198 27.8 13.7198C26.744 13.7198 25.88 12.8558 25.88 11.7998V9.87978ZM30.68 9.87978H34.52V11.7998C34.52 12.8558 33.656 13.7198 32.6 13.7198C31.544 13.7198 30.68 12.8558 30.68 11.7998V9.87978ZM35.48 9.87978H39.32V11.7998C39.32 12.8558 38.456 13.7198 37.4 13.7198C36.344 13.7198 35.48 12.8558 35.48 11.7998V9.87978ZM40.04 8.91978L36.344 3.15979H38.6L43.544 8.91978H40.04ZM7.64 1.23979H38.36V2.19979H7.64V1.23979ZM1.88 11.7998V9.87978H5.72V11.7998C5.72 12.8558 4.856 13.7198 3.8 13.7198C2.744 13.7198 1.88 12.8558 1.88 11.7998ZM42.68 36.7598H3.32V35.7998H3.8H6.68H10.52H12.44H19.16H21.08H24.92H42.2H42.68V36.7598ZM19.64 34.8398V25.7198C19.64 25.4318 19.448 25.2398 19.16 25.2398H12.44C12.152 25.2398 11.96 25.4318 11.96 25.7198V34.8398H11V33.3998C11 33.1118 10.808 32.9198 10.52 32.9198H10.04V23.7998H10.52C10.808 23.7998 11 23.6078 11 23.3198V21.8798H20.6V23.3198C20.6 23.6078 20.792 23.7998 21.08 23.7998H21.56V32.9198H21.08C20.792 32.9198 20.6 33.1118 20.6 33.3998V34.8398H19.64ZM18.68 34.8398H12.92V26.1998H18.68V34.8398ZM21.56 33.8798H22.04H23.96H24.44V34.8398H21.56V33.8798ZM23.48 32.9198H22.52V23.7998H23.48V32.9198ZM23.96 22.8398H22.04H21.56V21.8798H24.44V22.8398H23.96ZM24.92 20.9198H21.08H10.52H6.68V19.9598H24.92V20.9198ZM7.208 18.9998L8.792 17.0798H22.76L24.344 18.9998H7.208ZM10.04 21.8798V22.8398H9.56H7.64H7.16V21.8798H10.04ZM8.12 23.7998H9.08V32.9198H8.12V23.7998ZM7.64 33.8798H9.56H10.04V34.8398H7.16V33.8798H7.64ZM25.4 34.8398V33.3998C25.4 33.1118 25.208 32.9198 24.92 32.9198H24.44V23.7998H24.92C25.208 23.7998 25.4 23.6078 25.4 23.3198V21.8798C25.688 21.8798 25.88 21.6878 25.88 21.3998V19.4798C25.88 19.4318 25.88 19.3838 25.832 19.3358C25.832 19.2878 25.784 19.2398 25.736 19.2398L23.336 16.3598C23.288 16.1678 23.144 16.1198 23 16.1198H8.6C8.456 16.1198 8.312 16.1678 8.216 16.3118L5.816 19.1918C5.768 19.2398 5.768 19.2878 5.72 19.2878C5.72 19.3358 5.672 19.3838 5.672 19.4318V21.3518C5.672 21.6398 5.864 21.8318 6.152 21.8318V23.2718C6.152 23.5598 6.344 23.7518 6.632 23.7518H7.112V32.8718H6.632C6.344 32.8718 6.152 33.0638 6.152 33.3518V34.7918H4.232V14.6318C5.048 14.4878 5.72 14.0558 6.152 13.3838C6.68 14.1518 7.544 14.6798 8.552 14.6798C9.56 14.6798 10.424 14.1518 10.952 13.3838C11.48 14.1518 12.344 14.6798 13.352 14.6798C14.36 14.6798 15.224 14.1518 15.752 13.3838C16.28 14.1518 17.144 14.6798 18.152 14.6798C19.16 14.6798 20.024 14.1518 20.552 13.3838C21.08 14.1518 21.944 14.6798 22.952 14.6798C23.96 14.6798 24.824 14.1518 25.352 13.3838C25.88 14.1518 26.744 14.6798 27.752 14.6798C28.76 14.6798 29.624 14.1518 30.152 13.3838C30.68 14.1518 31.544 14.6798 32.552 14.6798C33.56 14.6798 34.424 14.1518 34.952 13.3838C35.48 14.1518 36.344 14.6798 37.352 14.6798C38.36 14.6798 39.224 14.1518 39.752 13.3838C40.184 14.0558 40.856 14.4878 41.672 14.6318V34.8398H25.4ZM44.12 11.7998C44.12 12.8558 43.256 13.7198 42.2 13.7198C41.144 13.7198 40.28 12.8558 40.28 11.7998V9.87978H44.12V11.7998Z" fill="#898989"/>
<path d="M38.84 30.0398V23.7998C38.84 23.5118 38.648 23.3198 38.36 23.3198H27.8C27.512 23.3198 27.32 23.5118 27.32 23.7998V30.0398C27.032 30.0398 26.84 30.2318 26.84 30.5198V31.9598C26.84 32.2478 27.032 32.4398 27.32 32.4398H38.84C39.128 32.4398 39.32 32.2478 39.32 31.9598V30.5198C39.32 30.2318 39.128 30.0398 38.84 30.0398ZM37.88 30.0398H33.56V27.6398H37.88V30.0398ZM37.88 26.6798H33.56V24.2798H37.88V26.6798ZM32.6 24.2798V26.6798H28.28V24.2798H32.6ZM28.28 27.6398H32.6V30.0398H28.28V27.6398ZM38.36 31.4798H27.8V30.9998H38.36V31.4798Z" fill="#898989"/>
</svg>
