<svg width="32" height="32" viewBox="0 0 32 32" fill="none" xmlns="http://www.w3.org/2000/svg">
<path d="M9.05005 9.97461C9.05005 9.97461 9.15005 9.97461 9.31255 9.97461C9.23755 9.91211 9.15005 9.84961 9.07505 9.78711L9.05005 9.97461Z" fill="#898989"/>
<path d="M28.325 24.5124C26.5125 23.1124 24.6875 21.7249 22.8625 20.3499C22.5625 20.1249 22.4625 19.9374 22.6 19.5249C23.1875 17.8374 22.6875 16.1624 21.25 15.0624C19.4375 13.6624 17.6125 12.2874 15.7625 10.9249C13.5875 9.32495 11.125 8.67495 8.45 9.07495C7.95 9.13745 7.4375 9.29995 7.125 9.48745C12.425 13.5624 18.7875 18.4124 24.075 22.4749C24.6625 22.9249 25.2625 23.3874 25.9375 23.9124C25.5625 24.0374 25.3125 24.0999 25.0875 24.1874C23.4125 24.8499 22.525 26.6999 23.05 28.4374C23.575 30.1624 25.3625 31.2124 27.125 30.7874C28.5625 30.4499 29.4625 29.5374 29.7625 28.0999C30.0875 26.6124 29.5 25.4249 28.325 24.5124ZM21.575 19.3624C17.5875 16.3124 13.2625 12.9999 9.3125 9.96245C9.875 9.96245 11.2 9.97495 12.05 10.2374C13.1125 10.5624 14.1625 11.0374 15.075 11.6624C17 12.9749 18.825 14.4249 20.675 15.8499C21.8125 16.7249 22.1625 18.0624 21.575 19.3624ZM26.3375 29.9374C24.9625 29.9249 23.8625 28.7999 23.8625 27.4124C23.8625 26.0124 25 24.8874 26.4125 24.8999C27.7875 24.9124 28.8875 26.0499 28.8875 27.4249C28.8875 28.8374 27.7375 29.9624 26.3375 29.9374Z" fill="#898989"/>
<path d="M25.9249 11.975C25.5374 11.825 25.2249 11.7375 24.9249 11.6C23.5749 10.975 22.7374 9.53754 22.9124 8.10004C23.0874 6.58754 24.1999 5.33754 25.6374 5.05004C27.1749 4.73754 28.6624 5.40004 29.4124 6.73754C30.1624 8.06254 29.9874 9.68754 28.9374 10.7875C28.4999 11.25 27.9624 11.625 27.4499 12.0125C26.2624 12.925 25.0749 13.8375 23.8874 14.75C23.6124 14.9625 23.2999 15.1625 23.0249 14.7875C22.7374 14.4125 23.0499 14.175 23.3124 13.975C24.1499 13.325 25.0124 12.675 25.9249 11.975ZM26.3874 10.9625C27.7749 10.9625 28.8874 9.85004 28.8874 8.47504C28.8999 7.07504 27.7499 5.92504 26.3624 5.93754C24.9749 5.95004 23.8499 7.10004 23.8624 8.50004C23.8749 9.87504 24.9999 10.9625 26.3874 10.9625Z" fill="#898989"/>
<path d="M12.8625 5.42532C12.8625 6.51282 11.95 7.41282 10.875 7.41282C9.82498 7.40032 8.92498 6.51282 8.91248 5.46282C8.89998 4.38782 9.81248 3.46282 10.8875 3.45032C11.9625 3.43782 12.8625 4.33782 12.8625 5.42532ZM10.875 4.42532C10.3375 4.43782 9.88748 4.88782 9.87498 5.42532C9.86248 5.98782 10.35 6.46282 10.9125 6.45032C11.4875 6.43782 11.925 5.97532 11.9 5.38782C11.875 4.82532 11.425 4.41282 10.875 4.42532Z" fill="#898989"/>
<path d="M8.38761 20.9502C7.45011 20.9502 6.88761 21.6752 6.90011 22.9377C6.90011 24.1752 7.47511 24.9377 8.41261 24.9127C9.31261 24.9002 9.86261 24.1627 9.87511 22.9502C9.86261 21.6877 9.32511 20.9502 8.38761 20.9502ZM8.38761 23.9127C8.05011 23.9252 7.83761 23.5377 7.83761 22.9252C7.83761 22.3002 8.03761 21.9377 8.37511 21.9377C8.71261 21.9377 8.91261 22.3127 8.91261 22.9377C8.91261 23.5377 8.71261 23.9127 8.38761 23.9127Z" fill="#898989"/>
<path d="M13.4001 24.9629C12.4626 24.9629 11.9001 25.6879 11.9126 26.9504C11.9126 28.1879 12.4876 28.9504 13.4251 28.9254C14.3251 28.9129 14.8751 28.1754 14.8876 26.9629C14.8876 25.7129 14.3376 24.9629 13.4001 24.9629ZM13.4001 27.9379C13.0626 27.9504 12.8501 27.5629 12.8501 26.9504C12.8501 26.3254 13.0501 25.9629 13.3876 25.9629C13.7251 25.9629 13.9251 26.3379 13.9251 26.9629C13.9251 27.5629 13.7251 27.9254 13.4001 27.9379Z" fill="#898989"/>
<path d="M14.3249 21.475C14.3249 21.2125 14.1124 21 13.8499 21C13.7124 21 13.5999 21.05 13.5124 21.15L7.5124 28.15C7.4374 28.2375 7.3999 28.3375 7.3999 28.4625C7.3999 28.725 7.6124 28.9375 7.8749 28.9375C8.0249 28.9375 8.1499 28.875 8.2374 28.7625L14.2249 21.7625C14.2749 21.675 14.3249 21.575 14.3249 21.475Z" fill="#898989"/>
<path d="M19.375 22.2748C19.6442 22.2748 19.8624 22.0565 19.8624 21.7873C19.8624 21.5181 19.6442 21.2998 19.375 21.2998C19.1057 21.2998 18.8875 21.5181 18.8875 21.7873C18.8875 22.0565 19.1057 22.2748 19.375 22.2748Z" fill="#898989"/>
<path d="M17.5625 30.9002H4.20005C2.93755 30.9002 1.92505 29.8752 1.92505 28.6252V19.2502C1.92505 18.5377 2.50005 17.9502 3.22505 17.9502H4.45005C4.71255 17.9502 4.92505 18.1627 4.92505 18.4252C4.92505 18.6877 4.71255 18.9002 4.45005 18.9002H3.22505C3.02505 18.9002 2.86255 19.0627 2.86255 19.2627V28.6377C2.86255 29.3752 3.46255 29.9752 4.20005 29.9752H17.5625C18.3 29.9752 18.9 29.3752 18.9 28.6377V20.2502C18.9 19.9877 19.1125 19.7752 19.375 19.7752C19.6376 19.7752 19.85 19.9877 19.85 20.2502V28.6252C19.85 29.8752 18.825 30.9002 17.5625 30.9002Z" fill="#898989"/>
<path d="M6.6 18.8875H5.85C5.5875 18.8875 5.375 18.675 5.375 18.4125C5.375 18.15 5.5875 17.9375 5.85 17.9375H6.6C6.8625 17.9375 7.075 18.15 7.075 18.4125C7.075 18.675 6.8625 18.8875 6.6 18.8875Z" fill="#898989"/>
<path d="M15.4626 18.8875H13.9876C13.7251 18.8875 13.5126 18.675 13.5126 18.4125C13.5126 18.15 13.7251 17.9375 13.9876 17.9375H15.4626C15.7251 17.9375 15.9376 18.15 15.9376 18.4125C15.9376 18.675 15.7251 18.8875 15.4626 18.8875ZM12.5126 18.8875H11.0376C10.7751 18.8875 10.5626 18.675 10.5626 18.4125C10.5626 18.15 10.7751 17.9375 11.0376 17.9375H12.5126C12.7751 17.9375 12.9876 18.15 12.9876 18.4125C12.9876 18.675 12.7626 18.8875 12.5126 18.8875ZM9.5626 18.8875H8.0751C7.8126 18.8875 7.6001 18.675 7.6001 18.4125C7.6001 18.15 7.8126 17.9375 8.0751 17.9375H9.5501C9.8126 17.9375 10.0251 18.15 10.0251 18.4125C10.0251 18.675 9.8126 18.8875 9.5626 18.8875Z" fill="#898989"/>
<path d="M17.6874 18.8875H16.9374C16.6749 18.8875 16.4624 18.675 16.4624 18.4125C16.4624 18.15 16.6749 17.9375 16.9374 17.9375H17.6874C17.9499 17.9375 18.1624 18.15 18.1624 18.4125C18.1624 18.675 17.9499 18.8875 17.6874 18.8875Z" fill="#898989"/>
<path d="M2.3124 16.9875C2.0499 16.9875 1.8374 16.775 1.8374 16.5125V11.8C1.8374 10.2625 2.7124 8.9875 3.5624 7.75C3.7249 7.5125 3.8749 7.2875 4.0249 7.0625C4.3874 6.5 4.7374 5.95 5.0499 5.45C5.7249 4.3875 6.2624 3.5375 6.6249 3.125C8.2624 1.275 9.9499 1 10.8249 1C11.6874 1 13.3749 1.275 15.0249 3.125C15.3874 3.5375 15.9249 4.375 16.5999 5.45C16.9124 5.9375 17.2624 6.5 17.6249 7.0625C17.7749 7.2875 17.9249 7.5125 18.0874 7.75C18.9374 8.9875 19.7999 10.2625 19.7999 11.8C19.7999 12.0625 19.5874 12.275 19.3249 12.275C19.0624 12.275 18.8499 12.0625 18.8499 11.8C18.8499 10.55 18.0624 9.4 17.2999 8.275C17.1374 8.05 16.9749 7.8125 16.8249 7.575C16.4499 7.0125 16.0999 6.45 15.7874 5.9625C15.1624 4.975 14.6124 4.1125 14.2999 3.7625C13.2749 2.6125 12.0124 1.95 10.8124 1.95C9.6124 1.95 8.3374 2.6125 7.3249 3.7625C7.0124 4.125 6.4624 4.975 5.8374 5.9625C5.5249 6.45 5.1749 7.0125 4.7999 7.575C4.6499 7.8125 4.4874 8.05 4.3249 8.275C3.5624 9.3875 2.7749 10.5375 2.7749 11.8V16.525C2.7874 16.7875 2.5749 16.9875 2.3124 16.9875Z" fill="#898989"/>
</svg>
