<svg width="21" height="20" viewBox="0 0 21 20" fill="none" xmlns="http://www.w3.org/2000/svg">
<g clip-path="url(#clip0_1860_1384)">
<path d="M17.4599 3.4629C16.1454 2.87799 14.7357 2.44707 13.2618 2.20025C13.2349 2.19549 13.2081 2.20739 13.1943 2.2312C13.013 2.54388 12.8122 2.9518 12.6716 3.27242C11.0863 3.04228 9.50914 3.04228 7.95637 3.27242C7.81571 2.94467 7.6076 2.54388 7.42549 2.2312C7.41167 2.20819 7.38485 2.19629 7.35801 2.20025C5.88492 2.44628 4.47525 2.87721 3.15987 3.4629C3.14848 3.46766 3.13872 3.4756 3.13224 3.48591C0.458384 7.35954 -0.274098 11.138 0.0852329 14.8695C0.0868588 14.8878 0.0974272 14.9053 0.112061 14.9164C1.8762 16.1726 3.58506 16.9353 5.26219 17.4408C5.28903 17.4488 5.31747 17.4393 5.33455 17.4178C5.73128 16.8925 6.08493 16.3385 6.38814 15.756C6.40604 15.7219 6.38896 15.6814 6.35238 15.6679C5.79144 15.4616 5.25731 15.21 4.74352 14.9243C4.70288 14.9013 4.69962 14.8449 4.73701 14.8179C4.84513 14.7394 4.95328 14.6576 5.05652 14.5751C5.0752 14.56 5.10123 14.5568 5.12319 14.5664C8.4986 16.0608 12.1529 16.0608 15.4885 14.5664C15.5104 14.5561 15.5365 14.5592 15.556 14.5743C15.6592 14.6568 15.7673 14.7394 15.8763 14.8179C15.9137 14.8449 15.9112 14.9013 15.8706 14.9243C15.3568 15.2155 14.8227 15.4616 14.2609 15.6671C14.2243 15.6806 14.2081 15.7219 14.226 15.756C14.5357 16.3377 14.8893 16.8917 15.2787 17.417C15.295 17.4393 15.3243 17.4488 15.3511 17.4408C17.0364 16.9353 18.7452 16.1726 20.5094 14.9164C20.5248 14.9053 20.5346 14.8886 20.5362 14.8703C20.9662 10.5562 19.8159 6.80878 17.4867 3.4867C17.4811 3.4756 17.4713 3.46766 17.4599 3.4629ZM6.89221 12.5974C5.87598 12.5974 5.03863 11.6927 5.03863 10.5816C5.03863 9.47056 5.85974 8.56585 6.89221 8.56585C7.93278 8.56585 8.76202 9.4785 8.74576 10.5816C8.74576 11.6927 7.92465 12.5974 6.89221 12.5974ZM13.7455 12.5974C12.7293 12.5974 11.8919 11.6927 11.8919 10.5816C11.8919 9.47056 12.713 8.56585 13.7455 8.56585C14.7861 8.56585 15.6153 9.4785 15.5991 10.5816C15.5991 11.6927 14.7861 12.5974 13.7455 12.5974Z" fill="#898989"/>
</g>
<defs>
<clipPath id="clip0_1860_1384">
<rect width="20.625" height="20" fill="white"/>
</clipPath>
</defs>
</svg>
