<svg width="21" height="20" viewBox="0 0 21 20" fill="none" xmlns="http://www.w3.org/2000/svg">
<path fill-rule="evenodd" clip-rule="evenodd" d="M10.3125 0C4.61938 0 0 4.47939 0 10C0 15.5206 4.61938 20 10.3125 20C15.9944 20 20.625 15.5206 20.625 10C20.625 4.47939 15.9944 0 10.3125 0ZM17.1241 4.60954C18.3544 6.06291 19.0927 7.91756 19.1151 9.92406C18.8242 9.86987 15.9161 9.295 12.9857 9.65294C12.9186 9.51194 12.8627 9.36006 12.7956 9.20825C12.6166 8.79613 12.4153 8.37313 12.2139 7.97181C15.4575 6.692 16.934 4.84816 17.1241 4.60954ZM10.3125 1.47506C12.5495 1.47506 14.5963 2.28851 16.1511 3.62256C15.9944 3.83948 14.6634 5.56399 11.5316 6.70281C10.0888 4.13232 8.48938 2.0282 8.2433 1.70282C8.90317 1.55097 9.59668 1.47506 10.3125 1.47506ZM6.56558 2.27766C6.80045 2.58134 8.36634 4.69631 9.83155 7.21256C5.7155 8.2755 2.0804 8.25381 1.68892 8.25381C2.25935 5.60738 4.10486 3.40564 6.56558 2.27766ZM1.49878 10.0109C1.49878 9.92406 1.49878 9.83731 1.49878 9.75056C1.87907 9.76137 6.15171 9.81563 10.5474 8.53581C10.8047 9.013 11.0395 9.50106 11.2632 9.98913C11.1514 10.0217 11.0283 10.0542 10.9165 10.0868C6.37541 11.5076 3.95947 15.3904 3.75813 15.7158C2.36002 14.2083 1.49878 12.2018 1.49878 10.0109ZM10.3125 18.5466C8.27681 18.5466 6.39778 17.8742 4.91018 16.7462C5.06677 16.4317 6.85633 13.0911 11.8224 11.41C11.8448 11.3991 11.856 11.3991 11.8784 11.3883C13.1199 14.5011 13.6233 17.1149 13.7575 17.8633C12.6949 18.308 11.5316 18.5466 10.3125 18.5466ZM15.2227 17.0824C15.1332 16.5618 14.6634 14.0673 13.5114 10.9978C16.2741 10.5748 18.69 11.269 18.992 11.3666C18.6117 13.7419 17.2024 15.7917 15.2227 17.0824Z" fill="#898989"/>
</svg>
