<svg width="32" height="32" viewBox="0 0 32 32" fill="none" xmlns="http://www.w3.org/2000/svg">
<path d="M27.5 2H4.5C3.125 2 2 3.125 2 4.5V27.5C2 28.875 3.125 30 4.5 30H15.5C15.775 30 16 29.775 16 29.5C16 29.225 15.775 29 15.5 29H4.5C3.675 29 3 28.325 3 27.5V4.5C3 3.675 3.675 3 4.5 3H27.5C28.325 3 29 3.675 29 4.5V27.5C29 28.325 28.325 29 27.5 29H22V20H25C25.25 20 25.475 19.8 25.5 19.55L26 15.55C26.025 15.4 25.975 15.275 25.875 15.15C25.775 15.05 25.65 14.975 25.5 14.975H22V11.5C22 11.225 22.225 11 22.5 11H25.5C25.775 11 26 10.775 26 10.5V6.5C26 6.225 25.775 6 25.5 6H21.5C19.025 6 17 8.025 17 10.5V15H13.5C13.225 15 13 15.225 13 15.5V19.5C13 19.775 13.225 20 13.5 20H17V29.5C17 29.775 17.225 30 17.5 30C17.775 30 18 29.775 18 29.5V19.5C18 19.225 17.775 19 17.5 19H14V16H17.5C17.775 16 18 15.775 18 15.5V10.5C18 8.575 19.575 7 21.5 7H25V10H22.5C21.675 10 21 10.675 21 11.5V15.5C21 15.775 21.225 16 21.5 16H24.925L24.55 19H21.5C21.225 19 21 19.225 21 19.5V29.5C21 29.775 21.225 30 21.5 30H27.5C28.875 30 30 28.875 30 27.5V4.5C30 3.125 28.875 2 27.5 2Z" fill="#898989"/>
</svg>
