<svg width="16" height="16" viewBox="0 0 16 16" fill="none" xmlns="http://www.w3.org/2000/svg">
<path d="M13.848 6.77033L12.936 4.03433C12.8037 3.63598 12.5492 3.28946 12.2087 3.044C11.8682 2.79854 11.4591 2.66662 11.0393 2.66699H4.96065C4.54091 2.66662 4.13172 2.79854 3.79124 3.044C3.45075 3.28946 3.19628 3.63598 3.06398 4.03433L2.15198 6.77033C1.90946 6.8718 1.70235 7.04271 1.55669 7.26156C1.41103 7.48041 1.33331 7.73743 1.33331 8.00033V11.3337C1.33331 11.8257 1.60265 12.251 1.99998 12.4823V14.0003C1.99998 14.1771 2.07022 14.3467 2.19524 14.4717C2.32027 14.5968 2.48984 14.667 2.66665 14.667H3.33331C3.51012 14.667 3.67969 14.5968 3.80472 14.4717C3.92974 14.3467 3.99998 14.1771 3.99998 14.0003V12.667H12V14.0003C12 14.1771 12.0702 14.3467 12.1952 14.4717C12.3203 14.5968 12.4898 14.667 12.6666 14.667H13.3333C13.5101 14.667 13.6797 14.5968 13.8047 14.4717C13.9297 14.3467 14 14.1771 14 14.0003V12.4823C14.2022 12.3663 14.3704 12.1991 14.4874 11.9974C14.6044 11.7958 14.6663 11.5668 14.6666 11.3337V8.00033C14.6666 7.73743 14.5889 7.48041 14.4433 7.26156C14.2976 7.04271 14.0905 6.8718 13.848 6.77033ZM4.96065 4.00033H11.0386C11.326 4.00033 11.5806 4.18299 11.6713 4.45633L12.4086 6.66699H3.59131L4.32798 4.45633C4.37221 4.32352 4.45712 4.20801 4.57068 4.12616C4.68423 4.04432 4.82067 4.00029 4.96065 4.00033ZM3.66665 10.667C3.53528 10.6669 3.40521 10.641 3.28386 10.5907C3.16251 10.5404 3.05226 10.4667 2.9594 10.3738C2.86654 10.2808 2.7929 10.1705 2.74266 10.0492C2.69243 9.92778 2.6666 9.79769 2.66665 9.66633C2.66669 9.53496 2.69261 9.40489 2.74292 9.28354C2.79323 9.16219 2.86695 9.05194 2.95987 8.95908C3.05279 8.86622 3.16309 8.79258 3.28448 8.74234C3.40586 8.69211 3.53595 8.66628 3.66731 8.66633C3.93262 8.66641 4.18702 8.77189 4.37456 8.95955C4.56209 9.14721 4.6674 9.40169 4.66731 9.66699C4.66722 9.9323 4.56175 10.1867 4.37409 10.3742C4.18642 10.5618 3.93195 10.6671 3.66665 10.667ZM12.3333 10.667C12.2019 10.6669 12.0719 10.641 11.9505 10.5907C11.8292 10.5404 11.7189 10.4667 11.6261 10.3738C11.5332 10.2808 11.4596 10.1705 11.4093 10.0492C11.3591 9.92778 11.3333 9.79769 11.3333 9.66633C11.3334 9.53496 11.3593 9.40489 11.4096 9.28354C11.4599 9.16219 11.5336 9.05194 11.6265 8.95908C11.7195 8.86622 11.8298 8.79258 11.9511 8.74234C12.0725 8.69211 12.2026 8.66628 12.334 8.66633C12.5993 8.66641 12.8537 8.77189 13.0412 8.95955C13.2288 9.14721 13.3341 9.40169 13.334 9.66699C13.3339 9.9323 13.2284 10.1867 13.0408 10.3742C12.8531 10.5618 12.5986 10.6671 12.3333 10.667Z" fill="#898989"/>
</svg>
