<svg width="16" height="16" viewBox="0 0 16 16" fill="none" xmlns="http://www.w3.org/2000/svg">
<path d="M12.5 1H3.5C3.10218 1 2.72064 1.15804 2.43934 1.43934C2.15804 1.72064 2 2.10218 2 2.5V12.5C1.99999 12.7109 2.04452 12.9194 2.13069 13.1119C2.21685 13.3043 2.3427 13.4764 2.5 13.6169V14.1875C2.5 14.403 2.5856 14.6097 2.73798 14.762C2.89035 14.9144 3.09701 15 3.3125 15H4.1875C4.40299 15 4.60965 14.9144 4.76202 14.762C4.9144 14.6097 5 14.403 5 14.1875V14H11V14.1875C11 14.403 11.0856 14.6097 11.238 14.762C11.3903 14.9144 11.597 15 11.8125 15H12.6875C12.903 15 13.1097 14.9144 13.262 14.762C13.4144 14.6097 13.5 14.403 13.5 14.1875V13.6169C13.6573 13.4764 13.7831 13.3043 13.8693 13.1119C13.9555 12.9194 14 12.7109 14 12.5V2.5C14 2.10218 13.842 1.72064 13.5607 1.43934C13.2794 1.15804 12.8978 1 12.5 1ZM4.60844 12.4944C4.40263 12.5168 4.19494 12.4747 4.01404 12.3741C3.83313 12.2734 3.68792 12.1191 3.59845 11.9324C3.50898 11.7457 3.47966 11.5359 3.51453 11.3318C3.5494 11.1277 3.64675 10.9395 3.79314 10.7931C3.93953 10.6468 4.12774 10.5494 4.3318 10.5145C4.53587 10.4797 4.74573 10.509 4.93242 10.5985C5.11911 10.6879 5.27343 10.8331 5.37409 11.014C5.47474 11.1949 5.51677 11.4026 5.49438 11.6084C5.46972 11.8349 5.36846 12.0462 5.20735 12.2074C5.04624 12.3685 4.83494 12.4697 4.60844 12.4944ZM7.375 9H3.5C3.36739 9 3.24021 8.94732 3.14645 8.85355C3.05268 8.75979 3 8.63261 3 8.5V4.5C3 4.36739 3.05268 4.24021 3.14645 4.14645C3.24021 4.05268 3.36739 4 3.5 4H7.375C7.40815 4 7.43995 4.01317 7.46339 4.03661C7.48683 4.06005 7.5 4.09185 7.5 4.125V8.875C7.5 8.90815 7.48683 8.93995 7.46339 8.96339C7.43995 8.98683 7.40815 9 7.375 9ZM8 3H3.51437C3.24563 3 3.01437 2.79375 3.00062 2.52531C2.99719 2.45761 3.00757 2.38991 3.03111 2.32634C3.05466 2.26276 3.09089 2.20464 3.1376 2.15551C3.18431 2.10637 3.24052 2.06725 3.30282 2.04052C3.36512 2.01378 3.43221 2 3.5 2H12.4856C12.7544 2 12.9856 2.20625 12.9994 2.47469C13.0028 2.54239 12.9924 2.61009 12.9689 2.67366C12.9453 2.73724 12.9091 2.79536 12.8624 2.84449C12.8157 2.89363 12.7595 2.93275 12.6972 2.95948C12.6349 2.98622 12.5678 3 12.5 3H8ZM8.625 4H12.5C12.6326 4 12.7598 4.05268 12.8536 4.14645C12.9473 4.24021 13 4.36739 13 4.5V8.5C13 8.63261 12.9473 8.75979 12.8536 8.85355C12.7598 8.94732 12.6326 9 12.5 9H8.625C8.59185 9 8.56005 8.98683 8.53661 8.96339C8.51317 8.93995 8.5 8.90815 8.5 8.875V4.125C8.5 4.09185 8.51317 4.06005 8.53661 4.03661C8.56005 4.01317 8.59185 4 8.625 4ZM10.5056 11.6084C10.4832 11.4026 10.5253 11.1949 10.6259 11.014C10.7266 10.8331 10.8809 10.6879 11.0676 10.5985C11.2543 10.509 11.4641 10.4797 11.6682 10.5145C11.8723 10.5494 12.0605 10.6468 12.2069 10.7931C12.3532 10.9395 12.4506 11.1277 12.4855 11.3318C12.5203 11.5359 12.491 11.7457 12.4015 11.9324C12.3121 12.1191 12.1669 12.2734 11.986 12.3741C11.8051 12.4747 11.5974 12.5168 11.3916 12.4944C11.1651 12.4697 10.9538 12.3685 10.7926 12.2074C10.6315 12.0462 10.5303 11.8349 10.5056 11.6084Z" fill="#898989"/>
</svg>
