<svg width="16" height="16" viewBox="0 0 16 16" fill="none" xmlns="http://www.w3.org/2000/svg">
<path d="M9 12.5C9.13261 12.5 9.25979 12.4473 9.35355 12.3536C9.44732 12.2598 9.5 12.1326 9.5 12V10.5H11.33C11.7725 10.4987 12.1965 10.3223 12.5094 10.0094C12.8223 9.69651 12.9987 9.27251 13 8.83V7C13.1326 7 13.2598 6.94732 13.3536 6.85355C13.4473 6.75979 13.5 6.63261 13.5 6.5C13.5 6.36739 13.4473 6.24021 13.3536 6.14645C13.2598 6.05268 13.1326 6 13 6H12C11.8674 6 11.7402 6.05268 11.6464 6.14645C11.5527 6.24021 11.5 6.36739 11.5 6.5C11.5 6.63261 11.5527 6.75979 11.6464 6.85355C11.7402 6.94732 11.8674 7 12 7V8.83C11.9988 8.97629 11.9491 9.11804 11.8586 9.23299C11.7681 9.34793 11.6419 9.42954 11.5 9.465V8.795C11.4959 8.60169 11.449 8.41169 11.3625 8.23874C11.276 8.0658 11.1522 7.91423 11 7.795V2.295C11.0013 2.06017 10.9563 1.82739 10.8675 1.60999C10.7787 1.3926 10.6479 1.19486 10.4825 1.02811C10.3171 0.861367 10.1205 0.728886 9.90387 0.638263C9.68723 0.547639 9.45483 0.500654 9.22 0.5H6.78C6.30832 0.501319 5.85634 0.689278 5.52281 1.02281C5.18928 1.35634 5.00132 1.80832 5 2.28V7.78C4.84778 7.89923 4.72396 8.0508 4.63749 8.22374C4.55101 8.39669 4.50405 8.58669 4.5 8.78V9.45C4.35807 9.41454 4.23194 9.33293 4.14143 9.21799C4.05093 9.10304 4.00118 8.96129 4 8.815V7C4.13261 7 4.25979 6.94732 4.35355 6.85355C4.44732 6.75979 4.5 6.63261 4.5 6.5C4.5 6.36739 4.44732 6.24021 4.35355 6.14645C4.25979 6.05268 4.13261 6 4 6H3C2.86739 6 2.74021 6.05268 2.64645 6.14645C2.55268 6.24021 2.5 6.36739 2.5 6.5C2.5 6.63261 2.55268 6.75979 2.64645 6.85355C2.74021 6.94732 2.86739 7 3 7V8.83C3.00132 9.27251 3.17769 9.69651 3.49059 10.0094C3.80349 10.3223 4.22749 10.4987 4.67 10.5H6.5V12C6.5 12.1326 6.55268 12.2598 6.64645 12.3536C6.74021 12.4473 6.86739 12.5 7 12.5H7.5V13.5H6.64C6.33765 13.5 6.04769 13.6201 5.8339 13.8339C5.62011 14.0477 5.5 14.3377 5.5 14.64V15C5.5 15.1326 5.55268 15.2598 5.64645 15.3536C5.74021 15.4473 5.86739 15.5 6 15.5C6.13261 15.5 6.25979 15.4473 6.35355 15.3536C6.44732 15.2598 6.5 15.1326 6.5 15V14.64C6.50125 14.6033 6.5164 14.5684 6.54239 14.5424C6.56838 14.5164 6.60327 14.5012 6.64 14.5H7.5V15C7.5 15.1326 7.55268 15.2598 7.64645 15.3536C7.74021 15.4473 7.86739 15.5 8 15.5C8.13261 15.5 8.25979 15.4473 8.35355 15.3536C8.44732 15.2598 8.5 15.1326 8.5 15V14.5H9.36C9.39673 14.5012 9.43162 14.5164 9.45761 14.5424C9.4836 14.5684 9.49875 14.6033 9.5 14.64V15C9.5 15.1326 9.55268 15.2598 9.64645 15.3536C9.74021 15.4473 9.86739 15.5 10 15.5C10.1326 15.5 10.2598 15.4473 10.3536 15.3536C10.4473 15.2598 10.5 15.1326 10.5 15V14.64C10.5 14.3377 10.3799 14.0477 10.1661 13.8339C9.95231 13.6201 9.66235 13.5 9.36 13.5H8.5V12.5H9ZM6 3.5H10V7.5H6V3.5ZM6.78 1.5H9.22C9.42687 1.5 9.62527 1.58218 9.77154 1.72846C9.91782 1.87474 10 2.07313 10 2.28V2.5H6V2.28C6 2.07313 6.08218 1.87474 6.22846 1.72846C6.37473 1.58218 6.57313 1.5 6.78 1.5ZM5.5 8.795C5.50129 8.71716 5.53278 8.64287 5.58783 8.58783C5.64287 8.53278 5.71716 8.50129 5.795 8.5H10.205C10.2828 8.50129 10.3571 8.53278 10.4122 8.58783C10.4672 8.64287 10.4987 8.71716 10.5 8.795V9.5H5.5V8.795ZM8.5 10.5V11.5H7.5V10.5H8.5Z" fill="#898989"/>
</svg>
