<svg width="16" height="16" viewBox="0 0 16 16" fill="none" xmlns="http://www.w3.org/2000/svg">
<path d="M8.08121 6.48059C8.74996 6.48684 9.38746 6.64309 9.93746 7.03059C11.0937 7.83684 12.1437 8.76809 12.9562 9.94309C13.3812 10.5618 13.6875 11.2306 13.7437 11.9868C13.875 13.8431 12.4187 14.9993 10.6 14.4493C9.39371 14.0806 8.17496 13.9556 6.93121 14.1306C6.52496 14.1868 6.11871 14.2931 5.71871 14.4118C5.19996 14.5618 4.67496 14.6431 4.14996 14.5306C2.91246 14.2681 2.19996 13.1181 2.40621 11.8056C2.58121 10.7181 3.13746 9.83684 3.87496 9.07434C4.52496 8.40559 5.23746 7.79309 5.96246 7.19934C6.56246 6.70559 7.28746 6.47434 8.08121 6.48059Z" fill="#898989"/>
<path d="M7.38122 4.02503C7.36872 4.15628 7.37497 4.28753 7.34997 4.40628C7.21247 5.10003 6.88122 5.67503 6.14997 5.85628C5.41247 6.03753 4.81872 5.71878 4.38122 5.14378C3.82497 4.40628 3.65622 3.58753 3.99997 2.70628C4.41247 1.65003 5.55622 1.34378 6.44997 2.04378C7.08122 2.55003 7.36872 3.23128 7.38122 4.02503Z" fill="#898989"/>
<path d="M8.75622 3.99353C8.76247 3.27478 9.00622 2.64978 9.54372 2.16228C10.5125 1.26853 11.8125 1.62478 12.2 2.88728C12.475 3.78728 12.15 4.88728 11.4187 5.48103C10.925 5.88103 10.3687 6.04353 9.76247 5.78103C9.11872 5.49978 8.84372 4.94353 8.76247 4.27478C8.74372 4.18103 8.75622 4.08728 8.75622 3.99353Z" fill="#898989"/>
<path d="M12.25 7.07498C12.2937 6.37498 12.4813 5.79998 12.9438 5.34998C13.3688 4.93748 13.8625 4.70623 14.475 4.87498C15.0813 5.04998 15.4125 5.49373 15.5375 6.07498C15.725 6.93748 15.5063 7.71248 14.85 8.32498C13.9438 9.17498 12.6937 8.81873 12.3562 7.62498C12.2937 7.42498 12.275 7.21248 12.25 7.07498Z" fill="#898989"/>
<path d="M3.86248 6.9184C3.86248 7.94965 3.32498 8.6809 2.51248 8.76215C2.23123 8.78715 1.89998 8.71215 1.64998 8.5809C0.656234 8.06215 0.237484 6.66215 0.743734 5.6559C1.15623 4.83715 2.04998 4.57465 2.82498 5.06215C3.53748 5.51215 3.81248 6.2059 3.86248 6.9184Z" fill="#898989"/>
</svg>
