<svg width="16" height="16" viewBox="0 0 16 16" fill="none" xmlns="http://www.w3.org/2000/svg">
<g clip-path="url(#clip0_1885_1665)">
<path d="M2.66667 2H13.3333C13.5101 2 13.6797 2.07024 13.8047 2.19526C13.9298 2.32029 14 2.48986 14 2.66667V13.3333C14 13.5101 13.9298 13.6797 13.8047 13.8047C13.6797 13.9298 13.5101 14 13.3333 14H2.66667C2.48986 14 2.32029 13.9298 2.19526 13.8047C2.07024 13.6797 2 13.5101 2 13.3333V2.66667C2 2.48986 2.07024 2.32029 2.19526 2.19526C2.32029 2.07024 2.48986 2 2.66667 2ZM3.33333 3.33333V12.6667H12.6667V3.33333H3.33333ZM6 4.66667H8.33333C8.95217 4.66667 9.54566 4.9125 9.98325 5.35008C10.4208 5.78767 10.6667 6.38116 10.6667 7C10.6667 7.61884 10.4208 8.21233 9.98325 8.64992C9.54566 9.0875 8.95217 9.33333 8.33333 9.33333H7.33333V11.3333H6V4.66667ZM7.33333 6V8H8.33333C8.59855 8 8.8529 7.89464 9.04044 7.70711C9.22798 7.51957 9.33333 7.26522 9.33333 7C9.33333 6.73478 9.22798 6.48043 9.04044 6.29289C8.8529 6.10536 8.59855 6 8.33333 6H7.33333Z" fill="#898989"/>
</g>
<defs>
<clipPath id="clip0_1885_1665">
<rect width="16" height="16" fill="white"/>
</clipPath>
</defs>
</svg>
