<svg width="16" height="16" viewBox="0 0 16 16" fill="none" xmlns="http://www.w3.org/2000/svg">
<path d="M5.33335 3.66634C5.97769 3.66634 6.50002 3.14401 6.50002 2.49967C6.50002 1.85534 5.97769 1.33301 5.33335 1.33301C4.68902 1.33301 4.16669 1.85534 4.16669 2.49967C4.16669 3.14401 4.68902 3.66634 5.33335 3.66634Z" fill="#898989"/>
<path d="M10.6667 3.66634C11.311 3.66634 11.8333 3.14401 11.8333 2.49967C11.8333 1.85534 11.311 1.33301 10.6667 1.33301C10.0223 1.33301 9.5 1.85534 9.5 2.49967C9.5 3.14401 10.0223 3.66634 10.6667 3.66634Z" fill="#898989"/>
<path d="M13.8167 8.68333L12.8667 5.16667C12.8333 5.06667 12.7833 4.96667 12.7167 4.9C12.4 4.56667 12 4.31667 11.5667 4.16667C11.2833 4.05 10.9833 4 10.6667 4C10.35 4 10.05 4.05 9.76668 4.15C9.31668 4.3 8.93334 4.55 8.61668 4.88333C8.55001 4.96667 8.50001 5.05 8.46668 5.15L8.00001 6.9L7.53334 5.16667C7.50001 5.06667 7.45001 4.96667 7.38334 4.9C7.06668 4.56667 6.66668 4.31667 6.23334 4.16667C5.95001 4.05 5.65001 4 5.33334 4C5.01668 4 4.71668 4.05 4.43334 4.15C3.98334 4.3 3.60001 4.55 3.28334 4.88333C3.21668 4.96667 3.16668 5.05 3.13334 5.15L2.20001 8.66667C2.13334 8.93333 2.26668 9.23333 2.55001 9.3C2.58334 9.33333 2.61668 9.33333 2.66668 9.33333C2.88334 9.33333 3.08334 9.18333 3.15001 8.96667L4.00001 5.76667V9.5V14.6667H5.00001V9.5H5.66668V14.6667H6.66668V9.5V5.76667L7.51668 8.95C7.58334 9.16667 7.78334 9.31667 8.00001 9.31667C8.05001 9.31667 8.08334 9.31667 8.13334 9.3C8.28334 9.25 8.40001 9.13333 8.45001 9C8.46668 9 9.33334 5.76667 9.33334 5.76667V7.11667L8.38334 10.6667H9.33334V14.6667H10.3333V10.6667H11V14.6667H12V10.6667H12.95L12 7.11667V5.76667L12.85 8.95C12.9167 9.16667 13.1167 9.31667 13.3333 9.31667C13.3833 9.31667 13.4167 9.31667 13.4667 9.3C13.7333 9.23333 13.8833 8.95 13.8167 8.68333Z" fill="#898989"/>
</svg>
