<svg width="16" height="16" viewBox="0 0 16 16" fill="none" xmlns="http://www.w3.org/2000/svg">
<g clip-path="url(#clip0_1884_1623)">
<path d="M13.1267 0.853523C13.0636 0.79224 12.9891 0.743972 12.9075 0.711476C12.8258 0.678979 12.7385 0.662891 12.6506 0.664129C12.473 0.666629 12.3038 0.739553 12.18 0.866857C12.0562 0.994161 11.9881 1.16542 11.9906 1.34295C11.9931 1.52049 12.066 1.68976 12.1933 1.81352C12.7618 2.37198 13.2133 3.03808 13.5215 3.77293C13.8297 4.50778 13.9884 5.29666 13.9884 6.09352C13.9884 6.89039 13.8297 7.67927 13.5215 8.41412C13.2133 9.14897 12.7618 9.81506 12.1933 10.3735C12.066 10.4973 11.9931 10.6666 11.9906 10.8441C11.9881 11.0216 12.0562 11.1929 12.18 11.3202C12.3038 11.4475 12.473 11.5204 12.6506 11.5229C12.8281 11.5254 12.9994 11.4573 13.1267 11.3335C13.8241 10.6507 14.3782 9.83545 14.7565 8.93566C15.1348 8.03586 15.3297 7.0696 15.3297 6.09352C15.3297 5.11744 15.1348 4.15118 14.7565 3.25139C14.3782 2.3516 13.8241 1.53638 13.1267 0.853523Z" fill="#898989"/>
<path d="M11.2533 2.75988C11.1236 2.6528 10.9581 2.59874 10.7901 2.60856C10.6222 2.61838 10.4641 2.69134 10.3477 2.81282C10.2313 2.9343 10.1651 3.0953 10.1624 3.26353C10.1598 3.43176 10.2208 3.59478 10.3333 3.71988C10.6478 4.02999 10.8975 4.39949 11.0679 4.80692C11.2383 5.21435 11.3261 5.65158 11.3261 6.09321C11.3261 6.53485 11.2383 6.97208 11.0679 7.37951C10.8975 7.78694 10.6478 8.15644 10.3333 8.46655C10.2092 8.59146 10.1395 8.76042 10.1395 8.93655C10.1395 9.11267 10.2092 9.28164 10.3333 9.40655C10.3953 9.47155 10.4697 9.52336 10.5522 9.55888C10.6347 9.59439 10.7235 9.61287 10.8133 9.61321C10.985 9.61253 11.1497 9.54567 11.2733 9.42655C11.7168 8.99204 12.0691 8.47342 12.3096 7.90104C12.5501 7.32867 12.674 6.71406 12.674 6.09321C12.674 5.47236 12.5501 4.85775 12.3096 4.28538C12.0691 3.71301 11.7168 3.19439 11.2733 2.75988H11.2533Z" fill="#898989"/>
<path d="M2 6.09352C1.99698 5.29516 2.15548 4.50443 2.46596 3.7689C2.77644 3.03337 3.23248 2.36824 3.80667 1.81352C3.93397 1.68976 4.00689 1.52049 4.00939 1.34295C4.01189 1.16542 3.94377 0.994161 3.82 0.866857C3.69623 0.739553 3.52696 0.666629 3.34943 0.664129C3.17189 0.661628 3.00064 0.729756 2.87333 0.853523C2.17588 1.53638 1.62176 2.3516 1.24347 3.25139C0.865177 4.15118 0.670319 5.11744 0.670319 6.09352C0.670319 7.0696 0.865177 8.03586 1.24347 8.93566C1.62176 9.83545 2.17588 10.6507 2.87333 11.3335C2.93637 11.3948 3.01085 11.4431 3.09254 11.4756C3.17423 11.5081 3.26152 11.5242 3.34943 11.5229C3.43733 11.5217 3.52413 11.5031 3.60488 11.4684C3.68562 11.4336 3.75872 11.3832 3.82 11.3202C3.88128 11.2572 3.92955 11.1827 3.96205 11.101C3.99454 11.0193 4.01063 10.932 4.00939 10.8441C4.00816 10.7562 3.98961 10.6694 3.95483 10.5886C3.92005 10.5079 3.8697 10.4348 3.80667 10.3735C3.23248 9.8188 2.77644 9.15368 2.46596 8.41815C2.15548 7.68262 1.99698 6.89189 2 6.09352Z" fill="#898989"/>
<path d="M5.68666 2.7798C5.56175 2.65563 5.39278 2.58594 5.21666 2.58594C5.04053 2.58594 4.87157 2.65563 4.74666 2.7798C4.30319 3.2143 3.95089 3.73293 3.71037 4.3053C3.46986 4.87767 3.34598 5.49228 3.34598 6.11313C3.34598 6.73398 3.46986 7.34859 3.71037 7.92096C3.95089 8.49333 4.30319 9.01196 4.74666 9.44647C4.87024 9.56559 5.03501 9.63245 5.20666 9.63313C5.29646 9.63279 5.38527 9.61431 5.46775 9.57879C5.55024 9.54328 5.62469 9.49147 5.68666 9.42647C5.81083 9.30156 5.88052 9.13259 5.88052 8.95647C5.88052 8.78034 5.81083 8.61137 5.68666 8.48646C5.37221 8.17636 5.12253 7.80686 4.95211 7.39943C4.78168 6.992 4.69392 6.55477 4.69392 6.11313C4.69392 5.6715 4.78168 5.23426 4.95211 4.82684C5.12253 4.41941 5.37221 4.04991 5.68666 3.7398C5.75118 3.67761 5.8025 3.60305 5.83755 3.52058C5.87261 3.43811 5.89068 3.34941 5.89068 3.2598C5.89068 3.17019 5.87261 3.08149 5.83755 2.99902C5.8025 2.91655 5.75118 2.84199 5.68666 2.7798Z" fill="#898989"/>
<path d="M8 4.09387C7.51676 4.07784 7.04407 4.23742 6.66942 4.54306C6.29477 4.8487 6.04352 5.27972 5.96219 5.75634C5.88086 6.23296 5.97494 6.72291 6.22702 7.1355C6.4791 7.5481 6.87212 7.8554 7.33333 8.00054V14.6672C7.33333 14.844 7.40357 15.0136 7.5286 15.1386C7.65362 15.2636 7.82319 15.3339 8 15.3339C8.17681 15.3339 8.34638 15.2636 8.4714 15.1386C8.59643 15.0136 8.66667 14.844 8.66667 14.6672V8.00054C9.10758 7.84055 9.47824 7.53069 9.71385 7.12512C9.94946 6.71955 10.035 6.24407 9.9556 5.7818C9.87617 5.31953 9.6368 4.89989 9.27933 4.59622C8.92186 4.29255 8.46903 4.12418 8 4.12054V4.09387ZM8 6.76054C7.86815 6.76054 7.73925 6.72144 7.62962 6.64819C7.51999 6.57493 7.43454 6.47081 7.38408 6.349C7.33362 6.22718 7.32042 6.09313 7.34614 5.96381C7.37187 5.83449 7.43536 5.7157 7.5286 5.62247C7.62183 5.52923 7.74062 5.46574 7.86994 5.44002C7.99926 5.41429 8.13331 5.4275 8.25512 5.47795C8.37694 5.52841 8.48106 5.61386 8.55431 5.72349C8.62757 5.83313 8.66667 5.96202 8.66667 6.09387C8.66667 6.27069 8.59643 6.44025 8.4714 6.56528C8.34638 6.6903 8.17681 6.76054 8 6.76054Z" fill="#898989"/>
</g>
<defs>
<clipPath id="clip0_1884_1623">
<rect width="16" height="16" fill="white"/>
</clipPath>
</defs>
</svg>
