<svg width="16" height="16" viewBox="0 0 16 16" fill="none" xmlns="http://www.w3.org/2000/svg">
<path d="M3.33333 1.33301H4.66667V3.33301H3.33333V1.33301ZM6 1.33301H7.33333V3.33301H6V1.33301ZM8.66667 1.33301H10V3.33301H8.66667V1.33301ZM12.6667 5.99967H11.3333V5.33301C11.3333 5.1562 11.2631 4.98663 11.1381 4.8616C11.013 4.73658 10.8435 4.66634 10.6667 4.66634H2.66667C2.48986 4.66634 2.32029 4.73658 2.19526 4.8616C2.07024 4.98663 2 5.1562 2 5.33301V11.9997C2 12.5301 2.21071 13.0388 2.58579 13.4139C2.96086 13.789 3.46957 13.9997 4 13.9997H9.33333C9.86377 13.9997 10.3725 13.789 10.7475 13.4139C11.1226 13.0388 11.3333 12.5301 11.3333 11.9997H12.6667C13.402 11.9997 14 11.4017 14 10.6663V7.33301C14 6.59767 13.402 5.99967 12.6667 5.99967ZM11.3333 10.6663V7.33301H12.6667L12.668 10.6663H11.3333Z" fill="#898989"/>
</svg>
