<svg width="16" height="16" viewBox="0 0 16 16" fill="none" xmlns="http://www.w3.org/2000/svg">
<path d="M6.92264 1.9834C6.83976 1.9834 6.76027 2.01632 6.70167 2.07493C6.64306 2.13353 6.61014 2.21302 6.61014 2.2959V4.50603H4.16705V2.2959C4.16705 2.21302 4.13413 2.13353 4.07553 2.07493C4.01692 2.01632 3.93743 1.9834 3.85455 1.9834C3.77167 1.9834 3.69219 2.01632 3.63358 2.07493C3.57498 2.13353 3.54205 2.21302 3.54205 2.2959V5.11431C3.54166 5.47631 3.65056 5.83 3.85451 6.12909C3.99387 6.33706 4.17399 6.51458 4.38397 6.6509C4.59395 6.78722 4.82941 6.87949 5.0761 6.92214V8.34791C4.80908 8.40234 4.56053 8.52448 4.35429 8.70262C4.32018 8.73196 4.2928 8.76832 4.27403 8.80922C4.25527 8.85011 4.24555 8.89458 4.24555 8.93957V13.2041C4.2453 13.3544 4.27468 13.5032 4.33201 13.6421C4.38934 13.781 4.4735 13.9073 4.57967 14.0136C4.68584 14.12 4.81193 14.2043 4.95073 14.2619C5.08954 14.3194 5.23833 14.3491 5.3886 14.3491C5.53886 14.3491 5.68766 14.3194 5.82646 14.2619C5.96527 14.2043 6.09136 14.12 6.19753 14.0136C6.30369 13.9073 6.38785 13.781 6.44518 13.6421C6.50251 13.5032 6.5319 13.3544 6.53165 13.2041V8.93956C6.53165 8.89456 6.52193 8.8501 6.50316 8.8092C6.48439 8.76831 6.45701 8.73195 6.4229 8.7026C6.21667 8.52447 5.96812 8.40233 5.7011 8.34789V6.92212C5.94779 6.87948 6.18325 6.7872 6.39323 6.65088C6.6032 6.51457 6.78332 6.33704 6.92268 6.12907C7.12663 5.82999 7.23554 5.47629 7.23514 5.11429V2.2959C7.23514 2.25486 7.22706 2.21422 7.21135 2.17631C7.19565 2.1384 7.17263 2.10395 7.14361 2.07493C7.11459 2.04591 7.08014 2.02289 7.04223 2.00719C7.00431 1.99148 6.96368 1.9834 6.92264 1.9834Z" fill="#898989"/>
<path d="M5.38861 4.31271C5.47149 4.31271 5.55098 4.27979 5.60958 4.22119C5.66819 4.16258 5.70111 4.08309 5.70111 4.00021V2.2959C5.70111 2.21302 5.66819 2.13353 5.60958 2.07493C5.55098 2.01632 5.47149 1.9834 5.38861 1.9834C5.30573 1.9834 5.22624 2.01632 5.16764 2.07493C5.10903 2.13353 5.07611 2.21302 5.07611 2.2959V4.00023C5.07611 4.08311 5.10904 4.16259 5.16765 4.22119C5.22625 4.27979 5.30573 4.31271 5.38861 4.31271Z" fill="#898989"/>
<path d="M12.458 4.28751C12.458 2.83447 11.4738 1.65234 10.264 1.65234C9.0542 1.65234 8.06995 2.83447 8.06995 4.28751C8.06995 5.61307 8.88923 6.71268 9.95148 6.89548V8.34814C9.68446 8.40258 9.43591 8.52472 9.22969 8.70285C9.19556 8.73219 9.16818 8.76854 9.14941 8.80944C9.13064 8.85034 9.12092 8.8948 9.12092 8.9398V13.2044C9.12067 13.3546 9.15006 13.5035 9.20739 13.6424C9.26472 13.7813 9.34888 13.9075 9.45504 14.0139C9.56121 14.1202 9.6873 14.2046 9.82611 14.2621C9.96491 14.3197 10.1137 14.3493 10.264 14.3493C10.4142 14.3493 10.563 14.3197 10.7018 14.2621C10.8406 14.2046 10.9667 14.1202 11.0729 14.0139C11.1791 13.9075 11.2632 13.7813 11.3206 13.6424C11.3779 13.5035 11.4073 13.3546 11.407 13.2044V8.9398C11.407 8.8948 11.3973 8.85034 11.3785 8.80944C11.3598 8.76854 11.3324 8.73219 11.2983 8.70285C11.092 8.52471 10.8435 8.40256 10.5765 8.34813V6.89548C11.6387 6.71268 12.458 5.61307 12.458 4.28751ZM10.2327 6.34453C10.1623 6.34453 10.0947 6.31654 10.0449 6.26673C9.99509 6.21691 9.9671 6.14935 9.9671 6.0789C9.9671 6.00846 9.99509 5.94089 10.0449 5.89108C10.0947 5.84126 10.1623 5.81328 10.2327 5.81328C10.8653 5.81328 11.3799 5.10078 11.3799 4.22501C11.3799 4.15456 11.4078 4.087 11.4577 4.03718C11.5075 3.98737 11.575 3.95938 11.6455 3.95938C11.7159 3.95938 11.7835 3.98737 11.8333 4.03718C11.8831 4.087 11.9111 4.15456 11.9111 4.22501C11.9111 5.39371 11.1582 6.34453 10.2327 6.34453Z" fill="#898989"/>
</svg>
