<svg width="16" height="16" viewBox="0 0 16 16" fill="none" xmlns="http://www.w3.org/2000/svg">
<path d="M3.81876 11.8379C3.58126 11.7504 3.36876 11.6754 3.11876 11.5879C3.22501 11.3316 3.32501 11.0754 3.43751 10.8066C1.47501 10.0441 0.456262 8.59414 0.293762 6.46289C0.443762 6.46289 0.556262 6.46289 0.668762 6.46289C4.20626 6.46289 7.75001 6.46289 11.2875 6.46289C11.9625 6.46289 12.125 6.63164 11.9875 7.28164C11.5813 9.15664 10.45 10.3754 8.60001 10.9066C8.51251 10.9316 8.41876 10.9566 8.31251 10.9816C8.38751 11.1879 8.45626 11.3754 8.53126 11.5879C8.30001 11.6754 8.08126 11.7629 7.85001 11.8441C7.81876 11.7879 7.78126 11.7441 7.77501 11.7004C7.67501 11.0816 7.28751 10.9629 6.71251 10.9941C5.93751 11.0379 5.15001 10.9754 4.37501 10.9754C4.29376 10.9754 4.16876 11.0566 4.13126 11.1316C4.00626 11.3566 3.91876 11.6004 3.81876 11.8379Z" fill="#898989"/>
<path d="M6.37502 6.1316C4.48127 6.1316 2.61252 6.1316 0.737518 6.1316C0.981268 5.7441 1.26252 5.38785 1.43752 4.98785C1.66252 4.4816 1.83752 3.9441 1.98127 3.40035C2.13127 2.85035 2.34377 2.6066 2.91877 2.51285C3.93752 2.3441 4.89377 2.01285 5.72502 1.3816C6.01877 1.1566 6.29377 1.2691 6.36877 1.6316C6.38127 1.6941 6.38752 1.7566 6.38752 1.8191C6.38752 3.1941 6.38752 4.5691 6.38752 5.9441C6.40002 5.9941 6.38752 6.0441 6.37502 6.1316Z" fill="#898989"/>
<path d="M4.33125 13.4189C4.325 14.2314 3.675 14.8877 2.86875 14.8939C2.0625 14.9002 1.375 14.2064 1.3875 13.4002C1.4 12.5939 2.0625 11.9502 2.875 11.9502C3.6875 11.9564 4.33125 12.6064 4.33125 13.4189ZM3.45 13.4252C3.45 13.0752 3.19375 12.8189 2.8375 12.8127C2.525 12.8127 2.2625 13.0877 2.25625 13.4252C2.25625 13.7502 2.525 14.0127 2.85625 14.0189C3.19375 14.0189 3.45 13.7627 3.45 13.4252Z" fill="#898989"/>
<path d="M10.2563 13.4252C10.2563 14.2314 9.58751 14.9002 8.78751 14.8939C7.98751 14.8939 7.31876 14.2252 7.31251 13.4252C7.30626 12.6002 7.96876 11.9502 8.80001 11.9502C9.61251 11.9564 10.2563 12.6064 10.2563 13.4252ZM9.40001 13.4127C9.40001 13.0877 9.11251 12.8189 8.76876 12.8127C8.45001 12.8127 8.19376 13.0752 8.19376 13.4189C8.18751 13.7627 8.46251 14.0252 8.81251 14.0127C9.13126 14.0064 9.40001 13.7314 9.40001 13.4127Z" fill="#898989"/>
<path d="M13.1313 2.3125C13.2438 2.58125 13.325 2.75625 13.3875 2.9375C13.4063 2.99375 13.3938 3.075 13.3688 3.13125C13.2125 3.475 13.0188 3.8125 12.8813 4.16875C12.6063 4.8625 12.3625 5.56875 12.1125 6.25C11.8563 6.2 11.625 6.15625 11.3563 6.10625C11.7438 5.09375 12.1063 4.075 12.5188 3.08125C12.6375 2.8125 12.8938 2.6 13.1313 2.3125Z" fill="#898989"/>
<path d="M13.6813 2.96865C13.575 2.65615 13.4813 2.39365 13.3813 2.09365C13.9875 1.88115 14.5688 1.6624 15.1563 1.48115C15.3813 1.4124 15.5563 1.55615 15.6313 1.78115C15.7188 2.0249 15.625 2.2874 15.3813 2.38115C14.8375 2.58115 14.275 2.7624 13.6813 2.96865Z" fill="#898989"/>
</svg>
