<svg width="16" height="16" viewBox="0 0 16 16" fill="none" xmlns="http://www.w3.org/2000/svg">
<path d="M5.99374 4.25C5.03124 4.25 4.24374 3.4625 4.24374 2.5C4.24374 1.5375 5.03124 0.75 5.99374 0.75C6.95624 0.75 7.74374 1.5375 7.74374 2.5C7.74374 3.4625 6.95624 4.25 5.99374 4.25ZM5.99374 1.75C5.58124 1.75 5.24374 2.0875 5.24374 2.5C5.24374 2.9125 5.58124 3.25 5.99374 3.25C6.40624 3.25 6.74374 2.9125 6.74374 2.5C6.74374 2.0875 6.40624 1.75 5.99374 1.75Z" fill="#898989"/>
<path d="M13.4937 12.75C13.3062 12.75 13.1312 12.6438 13.0437 12.475L11.1875 8.75H5.99374C5.71874 8.75 5.49374 8.525 5.49374 8.25V3.75C5.49374 3.475 5.71874 3.25 5.99374 3.25C6.26874 3.25 6.49374 3.475 6.49374 3.75V7.75H11.4937C11.6812 7.75 11.8562 7.85625 11.9437 8.025L13.75 11.6375L14.8375 11.275C15.1 11.1875 15.3812 11.3313 15.4687 11.5938C15.5562 11.8562 15.4125 12.1375 15.15 12.225L13.65 12.725C13.6 12.7438 13.5437 12.75 13.4937 12.75Z" fill="#898989"/>
<path d="M6.50001 14.5C6.40626 14.5 6.30626 14.5 6.21251 14.4937C5.01251 14.4187 3.91251 13.8812 3.11876 12.9812C2.32501 12.0812 1.92501 10.925 2.00001 9.725C2.15001 7.35625 4.12501 5.5 6.49376 5.5H9.99376C10.2688 5.5 10.4938 5.725 10.4938 6C10.4938 6.275 10.2688 6.5 9.99376 6.5H6.49376C4.65001 6.5 3.11876 7.94375 3.00001 9.78125C2.94376 10.7125 3.25001 11.6125 3.86876 12.3125C4.48751 13.0125 5.34376 13.4313 6.27501 13.4875C7.20626 13.5437 8.10626 13.2375 8.80626 12.6187C9.50626 12 9.92501 11.1437 9.98126 10.2125C10 9.9375 10.2375 9.725 10.5125 9.74375C10.7875 9.7625 11 10 10.9813 10.275C10.9063 11.475 10.3688 12.575 9.46876 13.3687C8.64376 14.1062 7.60001 14.5 6.50001 14.5Z" fill="#898989"/>
</svg>
