<svg width="300" height="133" viewBox="0 0 300 133" fill="none" xmlns="http://www.w3.org/2000/svg">
<g clip-path="url(#clip0_2283_214)">
<path d="M297.424 1.34474C297.262 1.34474 297.262 1.23265 297.424 1.34474Z" fill="#F4A019"/>
<path d="M297.423 1.34513L266.506 23.7639L192.109 77.5689L156.039 71.2917L114.171 79.9229L33.6554 21.1857L5.63607 0.784657L4.50886 0C1.77134 1.68141 0 4.14747 0 6.83772V123.527C0 128.572 5.7971 132.607 13.0435 132.607H287.118C294.364 132.607 300.161 128.572 300.161 123.527V6.83772C300 4.82003 299.034 2.80235 297.423 1.34513Z" fill="black"/>
<path d="M33.4943 21.1853L5.63599 0.78418L33.4943 21.1853Z" fill="#E5CAB5"/>
<path d="M297.424 1.34507C297.263 1.34507 297.263 1.23298 297.424 1.34507Z" fill="#E5CAB5"/>
<path d="M4.50903 130.123L125.765 72.0587C128.342 70.4894 138.648 64.8847 154.106 64.9968C169.082 65.1089 179.066 70.6015 181.804 72.1708C219.485 91.6751 257.327 111.292 295.008 130.796" fill="black"/>
<path d="M4.50903 130.123L125.765 72.0587C128.342 70.4894 138.648 64.8847 154.106 64.9968C169.082 65.1089 179.066 70.6015 181.804 72.1708C219.485 91.6751 257.327 111.292 295.008 130.796" stroke="#A09E99" stroke-width="2" stroke-miterlimit="10"/>
</g>
<defs>
<clipPath id="clip0_2283_214">
<rect width="300" height="132.607" fill="white"/>
</clipPath>
</defs>
</svg>
