<svg width="184" height="100" viewBox="0 0 184 100" fill="none" xmlns="http://www.w3.org/2000/svg">
<g filter="url(#filter0_d_1970_724)">
<path d="M132.457 3.91576C148.539 -5.29219 154.57 4.20054 156.279 7.42807C157.987 10.6556 164.119 20.0534 165.828 23.2809C167.536 26.5085 167.335 32.1092 158.993 36.8555C150.65 41.6019 128.135 51.3794 114.063 55.841L88.5323 50.3352C88.5323 50.2403 116.375 13.1237 132.457 3.91576Z" fill="black"/>
<path d="M50.8395 3.91576C34.7573 -5.29219 28.7264 4.20054 27.0177 7.42807C25.309 10.5607 19.1776 20.0534 17.4689 23.2809C15.7601 26.5085 15.9612 32.1092 24.3038 36.8555C32.6465 41.6019 55.2621 51.3794 69.3341 55.841L94.8646 50.3352C94.7641 50.2403 66.9218 13.1237 50.8395 3.91576Z" fill="black"/>
<path d="M135.456 40.642C150.46 33.4602 162.013 26.5009 161.26 25.098C160.507 23.695 147.734 28.3797 132.73 35.5615C117.726 42.7432 106.174 49.7025 106.927 51.1054C107.68 52.5084 120.453 47.8237 135.456 40.642Z" fill="#A09E99"/>
<path d="M77.0439 51.0731C77.7968 49.6702 66.2443 42.7109 51.2406 35.5291C36.237 28.3474 23.4638 23.6627 22.7108 25.0656C21.9579 26.4686 33.5104 33.4279 48.5141 40.6096C63.5177 47.7914 76.291 52.4761 77.0439 51.0731Z" fill="#A09E99"/>
<path d="M91.6482 63.8149C100.419 63.8149 107.529 57.0998 107.529 48.8164C107.529 40.5329 100.419 33.8179 91.6482 33.8179C82.8772 33.8179 75.767 40.5329 75.767 48.8164C75.767 57.0998 82.8772 63.8149 91.6482 63.8149Z" fill="#A09E99"/>
<path d="M173.668 91.059H10.2319C6.81439 91.059 4 88.4011 4 85.1735V54.2272C4 50.9997 6.81439 48.3417 10.2319 48.3417H173.768C177.186 48.3417 180 50.9997 180 54.2272V69.7479V85.2685C179.899 88.496 177.085 91.059 173.668 91.059Z" fill="black"/>
</g>
<defs>
<filter id="filter0_d_1970_724" x="0" y="0" width="184" height="99.0586" filterUnits="userSpaceOnUse" color-interpolation-filters="sRGB">
<feFlood flood-opacity="0" result="BackgroundImageFix"/>
<feColorMatrix in="SourceAlpha" type="matrix" values="0 0 0 0 0 0 0 0 0 0 0 0 0 0 0 0 0 0 127 0" result="hardAlpha"/>
<feOffset dy="4"/>
<feGaussianBlur stdDeviation="2"/>
<feComposite in2="hardAlpha" operator="out"/>
<feColorMatrix type="matrix" values="0 0 0 0 0 0 0 0 0 0 0 0 0 0 0 0 0 0 0.25 0"/>
<feBlend mode="normal" in2="BackgroundImageFix" result="effect1_dropShadow_1970_724"/>
<feBlend mode="normal" in="SourceGraphic" in2="effect1_dropShadow_1970_724" result="shape"/>
</filter>
</defs>
</svg>
