<svg width="21" height="20" viewBox="0 0 21 20" fill="none" xmlns="http://www.w3.org/2000/svg">
<g clip-path="url(#clip0_1860_1395)">
<path d="M10.3124 8.18164V12.0544H15.8624C15.6187 13.2998 14.8873 14.3544 13.7905 15.0635L17.1373 17.5817C19.0873 15.8363 20.2123 13.2726 20.2123 10.2272C20.2123 9.51812 20.1467 8.83623 20.0248 8.18175L10.3124 8.18164Z" fill="#898989"/>
<path d="M4.53296 11.9033L3.77812 12.4636L1.1062 14.4818C2.80307 17.7454 6.28094 20 10.3122 20C13.0965 20 15.4308 19.1091 17.1371 17.5818L13.7902 15.0636C12.8715 15.6636 11.6996 16.0273 10.3122 16.0273C7.63092 16.0273 5.35286 14.2728 4.53718 11.9091L4.53296 11.9033Z" fill="#898989"/>
<path d="M1.10617 5.51855C0.403083 6.86395 0 8.38216 0 10.0003C0 11.6185 0.403083 13.1367 1.10617 14.4821C1.10617 14.4911 4.53748 11.9003 4.53748 11.9003C4.33123 11.3003 4.20932 10.6639 4.20932 10.0002C4.20932 9.33648 4.33123 8.70016 4.53748 8.10016L1.10617 5.51855Z" fill="#898989"/>
<path d="M10.3124 3.98182C11.8311 3.98182 13.1811 4.49089 14.2592 5.47272L17.2123 2.60912C15.4217 0.990971 13.0968 0 10.3124 0C6.28115 0 2.80307 2.24545 1.1062 5.51819L4.5374 8.10001C5.35298 5.73635 7.63113 3.98182 10.3124 3.98182Z" fill="#898989"/>
</g>
<defs>
<clipPath id="clip0_1860_1395">
<rect width="20.625" height="20" fill="white"/>
</clipPath>
</defs>
</svg>
