<svg width="121" height="34" viewBox="0 0 121 34" fill="none" xmlns="http://www.w3.org/2000/svg">
<g clip-path="url(#clip0_2159_428)">
<path d="M46.7871 19.2227C46.2663 20.0406 45.8532 20.8764 45.2784 21.5699C43.6081 23.686 41.0936 23.4549 39.9262 21.0009C39.4233 19.9517 39.2078 18.7781 38.8665 17.6578C38.4175 18.4224 37.9865 19.2582 37.4476 20.0229C35.454 22.8503 32.1313 23.8283 28.8984 22.5124C28.4315 22.3168 27.7131 21.7833 27.7669 21.481C27.8567 20.8764 28.3237 20.2896 28.7368 19.7739C28.8625 19.6316 29.4013 19.7206 29.6887 19.845C30.0659 20.0051 30.3712 20.3074 30.7484 20.5208C32.0236 21.2321 33.3527 20.5919 33.3347 19.1515C33.3167 18.3335 32.8677 17.4978 32.5624 16.6798C32.4546 16.3952 32.1493 16.1641 31.9158 15.9507C31.3411 15.3994 30.7484 14.8482 30.0479 14.208C29.6528 14.8482 29.3295 15.4172 28.9703 15.9685C27.8567 17.6934 26.7971 19.436 25.6117 21.1076C25.1627 21.73 24.4802 22.2634 23.7977 22.6547C22.4506 23.4549 21.1395 22.9747 20.8342 21.4632C20.5288 20.0051 20.439 18.4758 20.4211 16.9821C20.4031 15.0082 20.5288 13.0166 20.6007 11.0427C20.6007 10.8827 20.5827 10.7049 20.5288 10.2425C20.0619 10.776 19.7027 11.0961 19.4333 11.4873C17.26 14.5814 16.2363 18.1024 15.5717 21.7655C15.446 22.4946 15.3562 23.0992 14.4043 23.0637C13.3087 23.0459 12.734 22.708 12.5903 21.7478C12.4646 20.9298 12.3927 20.094 12.4107 19.276C12.4287 15.8084 12.4825 12.3409 12.5185 8.87328C12.5364 7.96638 12.716 7.82412 13.5961 7.96638C15.0688 8.19755 15.3203 8.48207 15.3203 9.95801C15.3203 11.8074 15.3203 13.6745 15.4819 15.5773C15.6615 15.1327 15.8052 14.6881 16.0028 14.2436C16.6673 12.7854 17.296 11.3273 18.0323 9.90466C18.3017 9.38897 18.7687 8.96219 19.2177 8.58876C20.0619 7.87746 20.9958 7.69964 22.0375 8.23311C23.0792 8.76658 23.8515 9.33562 23.7617 10.7049C23.6001 13.0344 23.6001 15.3816 23.5642 17.7111C23.5642 18.2624 23.6181 18.8314 23.7258 19.3827C23.9054 20.1651 24.3544 20.3074 24.8932 19.685C25.468 19.0448 25.9529 18.3335 26.4019 17.6045C27.1742 16.3419 27.8567 15.026 28.6111 13.7457C28.8625 13.3189 28.9164 13.0166 28.5752 12.572C27.7849 11.4695 27.9825 10.2959 28.665 9.22893C29.3654 8.12642 30.3712 7.50403 31.7542 7.68186C32.6702 7.78855 33.1371 8.25089 32.8857 9.10445C32.5624 10.207 32.0056 11.2561 31.4848 12.4475C32.1852 12.981 33.0653 13.639 33.9453 14.2969C35.0948 15.186 36.1365 16.1463 36.3521 17.6756C36.4059 18.0668 36.3521 18.4936 36.3521 18.9915C36.5317 18.867 36.7113 18.7959 36.819 18.6714C38.0942 17.231 38.9743 15.6484 38.9204 13.639C38.8665 11.5051 38.9025 9.37119 38.9025 7.04169C37.9865 7.04169 37.0346 7.04169 36.1006 7.04169C35.5977 7.04169 35.1487 7.04169 35.1667 6.31261C35.2026 5.37014 35.5618 4.76554 36.2084 4.74776C37.1244 4.72997 38.0583 4.74776 39.0641 4.74776C39.1359 3.53855 39.1898 2.29378 39.2796 1.03123C39.3515 0.0354138 39.6209 -0.124628 40.6087 0.124326C42.7819 0.693363 42.7819 0.693363 42.6203 2.91617C42.5844 3.53855 42.5484 4.14315 42.4946 4.92558C43.195 4.97893 43.8236 5.03228 44.4523 5.08562C45.0809 5.13897 45.7095 5.19232 46.3201 5.22788C46.7871 5.26345 47.2721 5.24566 47.1643 5.93918C47.0745 6.526 47.0386 7.16617 46.1765 7.14838C44.9911 7.1306 43.7877 7.14838 42.5484 7.14838C42.4766 7.75299 42.3868 8.21533 42.3688 8.67767C42.297 11.4873 42.2072 14.2969 42.1892 17.1243C42.1892 17.9423 42.3329 18.7781 42.5484 19.5783C42.9256 20.9831 43.8057 21.1609 44.7935 20.0584C45.8532 18.867 46.4638 17.4978 46.4997 15.8796C46.5536 13.5678 46.9667 11.345 48.3856 9.42453C49.3016 8.17976 50.5229 7.39734 52.0675 7.71742C53.0015 7.91303 53.8276 8.57098 54.6897 9.03332C54.7077 8.49985 54.9592 8.03751 55.8033 8.1442C57.294 8.35759 57.779 8.71324 57.761 9.67349C57.7071 12.1275 57.6353 14.5814 57.6353 17.0532C57.6353 18.0312 57.7251 19.027 57.9945 19.9517C58.1202 20.4319 58.6411 21.0365 59.0901 21.1254C59.4672 21.2143 60.0959 20.7342 60.4012 20.3429C61.0478 19.5427 61.0657 18.5825 60.958 17.5689C60.7065 14.8126 61.0298 12.1097 62.5744 9.70905C64.1909 7.18395 66.6514 6.97056 68.7708 9.08667C68.8067 9.12223 68.8786 9.14002 68.9145 9.1578C69.112 8.8555 69.2378 8.41094 69.5072 8.30424C69.8484 8.16198 70.3154 8.21533 70.7105 8.28646C72.0935 8.55319 72.1833 8.71324 72.1653 9.92244C72.1114 12.6432 72.0576 15.3639 72.0216 18.1024C72.0216 18.4224 72.0576 18.7247 72.2551 19.116C72.5605 18.6714 72.9197 18.2446 73.1352 17.7467C73.9973 15.9329 74.7876 14.1013 75.6137 12.2697C75.8113 11.8252 75.7754 11.4873 75.3803 11.0961C74.6618 10.367 74.7696 9.4601 75.1109 8.60654C75.4162 7.85968 75.973 7.41512 76.8171 7.36177C77.9666 7.27286 78.4874 7.71742 78.4874 8.87328C78.4874 9.10445 78.4874 9.33562 78.4874 9.69127C79.4393 9.53123 80.3374 9.37119 81.2354 9.21115C83.2829 8.8555 83.9474 9.58458 83.6062 11.5762C83.2649 13.5856 82.9596 15.595 82.8518 17.6222C82.798 18.5469 83.1212 19.5605 83.4984 20.4319C83.9654 21.4988 85.0969 21.5344 85.7614 20.5563C86.1925 19.9162 86.426 19.2582 86.3003 18.4047C85.9051 15.8796 86.0668 13.39 87.1264 11.025C87.4677 10.2781 87.9167 9.54901 88.4555 8.92663C89.9283 7.27286 92.1733 7.25508 93.7539 8.81993C93.8976 8.96219 94.0233 9.10445 94.2388 9.33562C94.3106 8.48207 94.6339 8.05529 95.496 8.19755C97.1125 8.48207 97.3999 8.71324 97.3819 9.78018C97.346 12.4475 97.2741 15.1149 97.2921 17.7645C97.2921 18.6358 97.4178 19.5427 97.6693 20.3785C97.9925 21.4099 98.9804 21.5521 99.6808 20.7164C100.525 19.685 101.046 18.4936 101.064 17.1421C101.118 14.4392 101.118 11.754 101.154 9.0511C101.172 7.98416 101.387 7.82412 102.465 8.05529C104.099 8.41094 104.099 8.41094 104.099 10.0825C104.099 11.3628 104.099 12.6432 104.261 13.9768C104.62 12.9632 104.961 11.9496 105.338 10.936C105.554 10.3492 105.751 9.7624 106.003 9.19336C106.506 8.05529 106.901 7.82412 107.889 8.01972C109.128 8.26868 109.864 8.97997 109.918 10.0469C109.99 11.5762 110.026 13.1233 110.098 14.6704C110.116 15.2216 110.206 15.7729 110.278 16.4842C110.834 14.5459 111.319 12.7676 111.858 11.0072C112.074 10.2959 112.343 9.60236 112.648 8.94441C112.792 8.64211 113.025 8.30424 113.295 8.12642C114.337 7.52181 116.725 8.94441 116.725 10.1536C116.725 12.6965 116.671 15.2394 116.725 17.7823C116.743 18.5469 116.869 19.3293 117.156 20.0229C117.336 20.4674 117.893 21.0365 118.288 21.0542C118.665 21.0542 119.168 20.4674 119.419 20.0229C119.707 19.4894 119.761 18.8314 119.994 18.2624C120.102 17.9957 120.371 17.8001 120.551 17.5689C120.713 17.8356 121.018 18.1201 121 18.3869C120.91 19.685 120.623 20.9653 119.797 22.0323C118.737 23.4015 116.689 23.366 115.414 21.9789C114.462 20.9475 114.121 19.6316 114.049 18.298C113.924 16.3241 113.906 14.3325 113.852 12.3586C113.852 12.1275 113.852 11.8963 113.672 11.6118C113.546 11.8785 113.385 12.1452 113.277 12.412C112.127 15.1327 111.427 17.9601 111.355 20.9298C111.337 21.5699 111.05 21.8189 110.421 21.8722C109.164 21.9611 108.338 21.4099 108.122 20.0406C107.799 17.9957 107.601 15.9329 107.404 13.8879C107.35 13.1588 107.404 12.4475 107.404 11.754C107.296 11.7185 107.188 11.7007 107.081 11.6651C106.865 12.0208 106.632 12.3586 106.452 12.7143C105.105 15.4706 104.728 18.4047 104.692 21.4277C104.674 22.868 104.512 23.0281 103.219 23.0459C101.782 23.0637 101.207 22.6013 101.154 21.3743C101.136 21.2143 101.118 21.0365 101.082 20.6452C100.274 22.1212 99.4114 23.2948 97.7052 22.9925C96.1426 22.708 95.1907 21.7122 94.8854 19.9339C93.8976 21.5166 92.802 22.6547 91.0418 22.9392C89.156 23.2415 87.9347 22.299 86.9648 20.7875C86.5517 21.2854 86.2464 21.7833 85.8153 22.1745C84.4324 23.4371 82.4567 23.2059 81.1635 21.6766C80.1578 20.4674 79.7806 19.027 79.8345 17.5333C79.8884 15.7373 80.1757 13.9591 80.3553 12.163C80.3733 11.9674 80.4092 11.7718 80.4451 11.4695C79.6728 11.4695 78.9544 11.4339 78.2539 11.4873C78.0743 11.5051 77.8229 11.7718 77.7331 11.9852C76.4579 15.3639 74.6978 18.458 72.3629 21.2498C72.1474 21.4988 72.0755 21.9611 72.0935 22.3168C72.2012 24.8419 72.2372 27.3492 71.6265 29.821C70.9081 32.7195 68.6271 34.3733 65.951 33.9109C63.3826 33.4664 62.0536 31.2258 63.1671 28.8785C63.7239 27.7049 64.6578 26.6735 65.5559 25.6955C66.4718 24.6819 67.5315 23.8105 68.5553 22.8858C69.3994 22.1212 69.3994 22.139 69.1839 20.7342C68.1601 22.0856 66.9209 22.9925 65.2864 23.0281C63.6161 23.0637 62.4667 22.0678 61.6405 20.5386C60.8682 22.0145 59.9163 23.1526 58.228 22.9747C56.5936 22.8147 55.6237 21.7833 55.2824 19.9695C54.097 21.8011 52.6961 23.1526 50.5409 22.9747C48.3317 22.8325 47.4157 21.1254 46.7871 19.2227ZM49.553 15.8262C49.6788 16.8042 49.7865 17.9957 50.02 19.1871C50.1996 20.0762 50.5588 20.9831 51.6185 21.1076C52.75 21.2498 53.3068 20.3785 53.7738 19.525C53.9713 19.1693 54.1509 18.7603 54.2048 18.3691C54.4024 16.7865 54.6359 15.2216 54.6897 13.639C54.7077 12.821 54.4563 11.9319 54.133 11.1672C53.5043 9.72684 51.834 9.58458 50.918 10.8649C50.5409 11.3806 50.2715 12.003 50.1098 12.6254C49.8584 13.5856 49.7686 14.5992 49.553 15.8262ZM69.2557 14.5814C69.0582 13.4434 69.0222 12.3409 68.681 11.3095C68.1601 9.7624 66.5078 9.54901 65.4481 10.8116C65.1966 11.0961 64.9991 11.4517 64.8554 11.7896C63.8676 14.2969 63.7418 16.8576 64.4782 19.436C64.6938 20.2185 65.0709 20.9831 66.0049 21.1076C67.0107 21.2321 67.5854 20.5208 68.0344 19.7561C68.2859 19.3293 68.5014 18.8492 68.5912 18.3691C68.8426 17.1243 69.0402 15.844 69.2557 14.5814ZM94.4364 14.8837C94.2388 13.6923 94.149 12.6609 93.8976 11.6651C93.682 10.8471 93.233 10.118 92.2272 10.0291C91.2214 9.94023 90.5928 10.4737 90.1438 11.2917C89.9642 11.6296 89.7487 11.9852 89.7128 12.3586C89.5331 14.1724 89.3535 15.9862 89.3176 17.8178C89.2997 18.5825 89.5691 19.4005 89.9103 20.1118C90.521 21.3921 91.6884 21.5344 92.6403 20.4852C93.0714 19.9873 93.4665 19.3649 93.6461 18.7425C94.0053 17.4088 94.2029 16.0752 94.4364 14.8837ZM69.4712 24.5929C69.3635 24.5396 69.2737 24.4685 69.1659 24.4151C68.0883 25.7132 66.9747 26.958 65.9869 28.3095C65.5379 28.9319 65.2864 29.7498 65.0889 30.4967C64.8374 31.4036 65.2865 32.2572 66.0228 32.5773C66.7592 32.8973 67.7291 32.6484 68.2679 31.9549C68.5373 31.5992 68.7528 31.208 68.8786 30.7812C69.4713 28.7718 69.4712 26.6913 69.4712 24.5929Z" fill="white"/>
<path d="M5.72916 2.08099C2.78364 5.49522 1.72397 9.24731 4.13068 13.7996C3.44818 13.6218 3.01713 13.5862 2.63995 13.4084C0.7541 12.5193 -0.341491 10.2431 0.0895611 8.19815C0.879824 4.62388 2.8016 1.84982 6.17818 0.231622C7.72278 -0.51524 9.44699 0.693965 9.42903 2.34773C9.39311 7.02451 9.46495 11.7013 9.41107 16.3781C9.39311 18.2274 9.2135 20.0946 8.92614 21.9262C8.72857 23.2243 8.02811 24.3802 6.8966 25.1626C6.4835 25.4471 5.98061 25.6249 5.26219 25.9806C5.36995 25.3226 5.44179 24.967 5.49568 24.5935C5.69324 23.2776 6.03449 21.9795 6.05245 20.6636C6.14225 14.8488 6.16022 9.05171 6.19614 3.23685C6.19614 2.86342 6.14225 2.48999 6.10633 2.11656C5.99857 2.11656 5.85489 2.09878 5.72916 2.08099Z" fill="white"/>
</g>
<defs>
<clipPath id="clip0_2159_428">
<rect width="121" height="34" fill="white"/>
</clipPath>
</defs>
</svg>
