<svg width="32" height="32" viewBox="0 0 32 32" fill="none" xmlns="http://www.w3.org/2000/svg">
<path d="M23 30H9C5.14 30 2 26.86 2 23V9C2 5.14 5.14 2 9 2H23C26.86 2 30 5.14 30 9V23C30 26.86 26.86 30 23 30ZM9 3C5.691 3 3 5.691 3 9V23C3 26.309 5.691 29 9 29H23C26.309 29 29 26.309 29 23V9C29 5.691 26.309 3 23 3H9Z" fill="#898989"/>
<path d="M20 26H12C8.691 26 6 23.309 6 20V12C6 8.691 8.691 6 12 6H20C23.309 6 26 8.691 26 12V20C26 23.309 23.309 26 20 26ZM12 8C9.794 8 8 9.794 8 12V20C8 22.206 9.794 24 12 24H20C22.206 24 24 22.206 24 20V12C24 9.794 22.206 8 20 8H12Z" fill="#898989"/>
<path d="M21.5 11.75C20.811 11.75 20.25 11.189 20.25 10.5C20.25 9.811 20.811 9.25 21.5 9.25C22.189 9.25 22.75 9.811 22.75 10.5C22.75 11.189 22.189 11.75 21.5 11.75Z" fill="#898989"/>
<path d="M16 21C13.243 21 11 18.757 11 16C11 13.243 13.243 11 16 11C18.757 11 21 13.243 21 16C21 18.757 18.757 21 16 21ZM16 13C14.346 13 13 14.346 13 16C13 17.654 14.346 19 16 19C17.654 19 19 17.654 19 16C19 14.346 17.654 13 16 13Z" fill="#898989"/>
</svg>
