<svg width="20" height="20" viewBox="0 0 20 20" fill="none" xmlns="http://www.w3.org/2000/svg">
<path fill-rule="evenodd" clip-rule="evenodd" d="M0 9.69973C0 4.12739 4.3675 0 10 0C15.6325 0 20 4.12989 20 9.70223C20 15.2746 15.6325 19.402 10 19.402C8.9875 19.402 8.0175 19.267 7.105 19.017C6.9275 18.9695 6.7375 18.982 6.57 19.057L4.585 19.932C4.46511 19.9848 4.33407 20.0075 4.2034 19.9978C4.07272 19.9882 3.94641 19.9467 3.83556 19.8768C3.72471 19.8069 3.63271 19.7109 3.56767 19.5972C3.50262 19.4834 3.4665 19.3554 3.4625 19.2245L3.4075 17.4445C3.4025 17.2245 3.3025 17.0195 3.14 16.8745C1.195 15.1346 0 12.6147 0 9.69973ZM6.93251 7.87729L3.99501 12.5372C3.71251 12.9846 4.26251 13.4871 4.68251 13.1671L7.83751 10.7722C7.94132 10.6934 8.06798 10.6505 8.19834 10.65C8.3287 10.6496 8.45566 10.6916 8.56001 10.7697L10.8975 12.5222C11.0633 12.6467 11.2531 12.7355 11.455 12.7829C11.6568 12.8304 11.8663 12.8355 12.0702 12.7979C12.2741 12.7603 12.468 12.6808 12.6397 12.5645C12.8113 12.4482 12.957 12.2976 13.0675 12.1222L16.0075 7.4648C16.2875 7.01731 15.7375 6.51232 15.3175 6.83231L12.1625 9.22725C12.0587 9.30609 11.932 9.34898 11.8017 9.34944C11.6713 9.34989 11.5444 9.30787 11.44 9.22975L9.10251 7.4773C8.93671 7.35279 8.7469 7.264 8.54506 7.21654C8.34322 7.16908 8.13373 7.16399 7.92982 7.20157C7.72591 7.23916 7.532 7.31861 7.36035 7.43491C7.18869 7.55122 7.04301 7.70184 6.93251 7.87729Z" fill="#898989"/>
</svg>
