<svg width="21" height="20" viewBox="0 0 21 20" fill="none" xmlns="http://www.w3.org/2000/svg">
<g clip-path="url(#clip0_1860_1391)">
<path d="M10.3125 0C4.61646 0 0 4.47656 0 10C0 14.2383 2.71912 17.8555 6.55408 19.3125C6.46545 18.5195 6.38086 17.3086 6.59033 16.4453C6.77966 15.6641 7.79883 11.4766 7.79883 11.4766C7.79883 11.4766 7.48865 10.8789 7.48865 9.99219C7.48865 8.60156 8.31848 7.5625 9.35376 7.5625C10.2319 7.5625 10.6589 8.20312 10.6589 8.97266C10.6589 9.83203 10.095 11.1133 9.80493 12.3008C9.56323 13.2969 10.3206 14.1094 11.3317 14.1094C13.1645 14.1094 14.5745 12.2344 14.5745 9.53125C14.5745 7.13672 12.802 5.46094 10.2682 5.46094C7.33557 5.46094 5.61145 7.59375 5.61145 9.80078C5.61145 10.6602 5.95386 11.582 6.38086 12.082C6.46545 12.1797 6.47754 12.2695 6.45337 12.3672C6.37683 12.6836 6.19959 13.3633 6.16736 13.5C6.12305 13.6836 6.01831 13.7227 5.82092 13.6328C4.53186 13.0508 3.7262 11.2266 3.7262 9.75781C3.7262 6.60156 6.09082 3.70703 10.5381 3.70703C14.1152 3.70703 16.8948 6.17969 16.8948 9.48438C16.8948 12.9297 14.655 15.7031 11.5452 15.7031C10.5018 15.7031 9.51892 15.1758 9.18054 14.5547C9.18054 14.5547 8.66492 16.4648 8.54004 16.9336C8.3064 17.8008 7.67798 18.8906 7.25903 19.5547C8.22583 19.8438 9.24902 20 10.3125 20C16.0085 20 20.625 15.5234 20.625 10C20.625 4.47656 16.0085 0 10.3125 0Z" fill="#898989"/>
</g>
<defs>
<clipPath id="clip0_1860_1391">
<rect width="20.625" height="20" fill="white"/>
</clipPath>
</defs>
</svg>
