<svg width="20" height="20" viewBox="0 0 20 20" fill="none" xmlns="http://www.w3.org/2000/svg">
<path d="M8.75004 11.04C8.75004 10.47 8.28004 10 7.71004 10C7.14004 10 6.67004 10.47 6.67004 11.04C6.67004 11.3158 6.77962 11.5804 6.97465 11.7754C7.16969 11.9704 7.43422 12.08 7.71004 12.08C7.98587 12.08 8.2504 11.9704 8.44543 11.7754C8.64047 11.5804 8.75004 11.3158 8.75004 11.04ZM12.09 13.41C11.64 13.86 10.68 14.02 10 14.02C9.32004 14.02 8.36004 13.86 7.91004 13.41C7.88572 13.384 7.8563 13.3632 7.82362 13.349C7.79093 13.3348 7.75568 13.3275 7.72004 13.3275C7.68441 13.3275 7.64916 13.3348 7.61647 13.349C7.58379 13.3632 7.55437 13.384 7.53004 13.41C7.504 13.4343 7.48324 13.4637 7.46905 13.4964C7.45485 13.5291 7.44753 13.5644 7.44753 13.6C7.44753 13.6356 7.45485 13.6709 7.46905 13.7036C7.48324 13.7363 7.504 13.7657 7.53004 13.79C8.24004 14.5 9.60004 14.56 10 14.56C10.4 14.56 11.76 14.5 12.47 13.79C12.4961 13.7657 12.5168 13.7363 12.531 13.7036C12.5452 13.6709 12.5526 13.6356 12.5526 13.6C12.5526 13.5644 12.5452 13.5291 12.531 13.4964C12.5168 13.4637 12.4961 13.4343 12.47 13.41C12.37 13.31 12.2 13.31 12.09 13.41ZM12.29 10C11.72 10 11.25 10.47 11.25 11.04C11.25 11.61 11.72 12.08 12.29 12.08C12.86 12.08 13.33 11.61 13.33 11.04C13.33 10.47 12.87 10 12.29 10Z" fill="#898989"/>
<path d="M10 0C4.48 0 0 4.48 0 10C0 15.52 4.48 20 10 20C15.52 20 20 15.52 20 10C20 4.48 15.52 0 10 0ZM15.8 11.33C15.82 11.47 15.83 11.62 15.83 11.77C15.83 14.01 13.22 15.83 10 15.83C6.78 15.83 4.17 14.01 4.17 11.77C4.17 11.62 4.18 11.47 4.2 11.33C3.69 11.1 3.34 10.59 3.34 10C3.33852 9.71324 3.4218 9.43245 3.57939 9.19287C3.73698 8.9533 3.96185 8.76563 4.22576 8.65345C4.48966 8.54126 4.78083 8.50956 5.06269 8.56232C5.34456 8.61508 5.60454 8.74995 5.81 8.95C6.82 8.22 8.22 7.76 9.77 7.71L10.51 4.22C10.52 4.15 10.56 4.09 10.62 4.06C10.68 4.02 10.75 4.01 10.82 4.02L13.24 4.54C13.3221 4.37358 13.4472 4.23215 13.6023 4.13038C13.7575 4.02861 13.9371 3.9702 14.1224 3.96122C14.3077 3.95224 14.4921 3.99301 14.6564 4.07931C14.8207 4.1656 14.9589 4.29428 15.0566 4.45199C15.1544 4.60969 15.2082 4.79069 15.2125 4.9762C15.2167 5.16171 15.1712 5.34498 15.0808 5.507C14.9903 5.66901 14.8582 5.80388 14.698 5.8976C14.5379 5.99132 14.3556 6.04049 14.17 6.04C13.61 6.04 13.16 5.6 13.13 5.05L10.96 4.59L10.3 7.71C11.83 7.76 13.2 8.23 14.2 8.95C14.3533 8.80361 14.5367 8.69249 14.7375 8.6244C14.9382 8.55631 15.1514 8.5329 15.3621 8.55581C15.5728 8.57872 15.776 8.6474 15.9574 8.75703C16.1388 8.86667 16.2941 9.01461 16.4123 9.19052C16.5306 9.36643 16.609 9.56606 16.642 9.77543C16.6751 9.98481 16.662 10.1989 16.6037 10.4027C16.5454 10.6064 16.4432 10.795 16.3044 10.9552C16.1656 11.1154 15.9934 11.2433 15.8 11.33Z" fill="#898989"/>
</svg>
