<svg width="29" height="28" viewBox="0 0 29 28" fill="none" xmlns="http://www.w3.org/2000/svg">
<g filter="url(#filter0_d_1860_1385)">
<path fill-rule="evenodd" clip-rule="evenodd" d="M24.625 10C24.625 15.5228 20.0079 20 14.3125 20C8.61706 20 4 15.5228 4 10C4 4.47715 8.61706 0 14.3125 0C20.0079 0 24.625 4.47715 24.625 10ZM19.6798 8.53799C20.5121 8.53799 21.1875 9.19296 21.1875 9.99998C21.1875 10.5965 20.8136 11.1111 20.3191 11.345C20.3432 11.4854 20.3553 11.6257 20.3553 11.7778C20.3553 14.0234 17.6656 15.8362 14.3366 15.8362C11.0077 15.8362 8.31799 14.0234 8.31799 11.7778C8.31799 11.6257 8.33005 11.4737 8.35417 11.3333C7.82347 11.0994 7.46163 10.5965 7.46163 9.99998C7.46163 9.19296 8.13707 8.53799 8.9693 8.53799C9.36733 8.53799 9.74123 8.70173 10.0066 8.94735C11.0439 8.21051 12.4792 7.75437 14.0833 7.70758L14.8432 4.2222C14.8673 4.15203 14.9035 4.09355 14.9638 4.05846C15.0241 4.02337 15.0965 4.01168 15.1689 4.02337L17.6656 4.53799C17.8344 4.18711 18.1963 3.9532 18.6184 3.9532C19.2094 3.9532 19.6919 4.42103 19.6919 4.99413C19.6919 5.56723 19.2094 6.03507 18.6184 6.03507C18.0395 6.03507 17.5691 5.59062 17.545 5.04092L15.3136 4.58478L14.6261 7.70758C16.1941 7.76606 17.6173 8.2339 18.6426 8.94735C18.9079 8.69004 19.2697 8.53799 19.6798 8.53799ZM11.9485 9.99998C11.3575 9.99998 10.875 10.4678 10.875 11.0409C10.875 11.614 11.3575 12.0819 11.9485 12.0819C12.5395 12.0819 13.0219 11.614 13.0219 11.0409C13.0219 10.4678 12.5395 9.99998 11.9485 9.99998ZM14.3246 14.5497C14.7347 14.5497 16.1338 14.5029 16.8695 13.7895C16.9781 13.6842 16.9781 13.5204 16.8936 13.4035C16.7851 13.2982 16.6042 13.2982 16.4956 13.4035C16.0252 13.8479 15.0483 14.0117 14.3366 14.0117C13.625 14.0117 12.636 13.8479 12.1776 13.4035C12.0691 13.2982 11.8882 13.2982 11.7796 13.4035C11.6711 13.5088 11.6711 13.6842 11.7796 13.7895C12.5033 14.4912 13.9145 14.5497 14.3246 14.5497ZM15.6031 11.0409C15.6031 11.614 16.0855 12.0819 16.6765 12.0819C17.2675 12.0819 17.75 11.614 17.75 11.0409C17.75 10.4678 17.2675 9.99998 16.6765 9.99998C16.0855 9.99998 15.6031 10.4678 15.6031 11.0409Z" fill="#898989"/>
</g>
<defs>
<filter id="filter0_d_1860_1385" x="0" y="0" width="28.625" height="28" filterUnits="userSpaceOnUse" color-interpolation-filters="sRGB">
<feFlood flood-opacity="0" result="BackgroundImageFix"/>
<feColorMatrix in="SourceAlpha" type="matrix" values="0 0 0 0 0 0 0 0 0 0 0 0 0 0 0 0 0 0 127 0" result="hardAlpha"/>
<feOffset dy="4"/>
<feGaussianBlur stdDeviation="2"/>
<feComposite in2="hardAlpha" operator="out"/>
<feColorMatrix type="matrix" values="0 0 0 0 0 0 0 0 0 0 0 0 0 0 0 0 0 0 0.25 0"/>
<feBlend mode="normal" in2="BackgroundImageFix" result="effect1_dropShadow_1860_1385"/>
<feBlend mode="normal" in="SourceGraphic" in2="effect1_dropShadow_1860_1385" result="shape"/>
</filter>
</defs>
</svg>
