<svg width="48" height="48" viewBox="0 0 48 48" fill="none" xmlns="http://www.w3.org/2000/svg">
<path d="M39.7915 13.8563C39.7915 13.8413 39.7915 13.8254 39.7915 13.8104C39.791 13.8066 39.791 13.8028 39.7915 13.7991L39.7859 13.7607V13.7504C39.7833 13.7373 39.7799 13.7245 39.7755 13.7119C39.776 13.7097 39.776 13.7075 39.7755 13.7054C39.7709 13.6913 39.7662 13.6782 39.7605 13.665C39.7357 13.6057 39.6994 13.5518 39.6537 13.5066L30.2815 4.12504C30.2365 4.08057 30.1837 4.04468 30.1259 4.0191H30.1193L30.0865 4.00691L30.0724 4.00223L30.0452 3.99566L30.0227 3.99004H30.0021L29.973 3.98535H29.9271H12.0227C11.0136 3.98609 10.0458 4.38646 9.33112 5.09888C8.61642 5.8113 8.21295 6.77779 8.20898 7.78691V40.2132C8.20998 41.2242 8.61213 42.1936 9.32716 42.9085C10.0422 43.6233 11.0117 44.0252 12.0227 44.026H35.9777C36.9888 44.0252 37.9583 43.6233 38.6733 42.9085C39.3883 42.1936 39.7905 41.2242 39.7915 40.2132V13.8563ZM30.4259 5.70004L38.0702 13.3585H32.5315C31.9729 13.3572 31.4377 13.1346 31.043 12.7394C30.6483 12.3442 30.4264 11.8086 30.4259 11.25V5.70004ZM38.7827 40.215C38.7805 40.9582 38.4842 41.6703 37.9587 42.1957C37.4331 42.7211 36.7209 43.0171 35.9777 43.0191H12.0227C11.2796 43.0171 10.5674 42.7211 10.0418 42.1957C9.51623 41.6703 9.21996 40.9582 9.21773 40.215V7.78691C9.21996 7.04375 9.51623 6.33168 10.0418 5.80627C10.5674 5.28086 11.2796 4.98483 12.0227 4.98285H29.4171V11.25C29.4183 12.0757 29.7468 12.8673 30.3306 13.4512C30.9144 14.0351 31.7058 14.3639 32.5315 14.3654H38.7809L38.7827 40.215Z" fill="#898989"/>
<path d="M14.128 22.0717C14.1942 22.0714 14.2597 22.0581 14.3208 22.0326C14.3819 22.007 14.4374 21.9696 14.484 21.9226C14.5307 21.8756 14.5677 21.8199 14.5928 21.7586C14.6179 21.6973 14.6307 21.6317 14.6305 21.5654L14.6211 19.4326C14.6183 18.3845 15.0313 17.3782 15.7694 16.6341C16.5075 15.89 17.5105 15.4689 18.5586 15.4632H18.5745C19.6198 15.4647 20.6221 15.8795 21.3628 16.6172C22.1034 17.3548 22.5223 18.3554 22.528 19.4007L22.5354 21.5336C22.5364 21.6668 22.59 21.7944 22.6844 21.8884C22.7788 21.9825 22.9065 22.0356 23.0398 22.0361C23.1738 22.0353 23.302 21.9815 23.3963 21.8865C23.4907 21.7914 23.5435 21.6628 23.5433 21.5289L23.5348 19.397C23.5302 18.4127 23.2333 17.4519 22.6819 16.6365C22.1304 15.8212 21.3492 15.188 20.4373 14.8173C20.5905 14.7091 20.7338 14.5877 20.8658 14.4545C21.3203 13.9965 21.6291 13.4142 21.7531 12.781C21.8771 12.1477 21.8109 11.4919 21.5627 10.8963C21.3145 10.3007 20.8956 9.79189 20.3586 9.43408C19.8216 9.07626 19.1907 8.88546 18.5455 8.88574H18.5323C17.838 8.88834 17.1626 9.11212 16.6041 9.52459C16.0456 9.93707 15.6331 10.5168 15.4264 11.1796C15.2197 11.8424 15.2296 12.5539 15.4546 13.2107C15.6797 13.8675 16.1082 14.4355 16.6779 14.8323C15.7682 15.2095 14.9911 15.8486 14.4453 16.6683C13.8994 17.4881 13.6095 18.4515 13.6123 19.4364L13.6208 21.5692C13.6215 21.703 13.6753 21.8311 13.7704 21.9253C13.8655 22.0195 13.9941 22.0722 14.128 22.0717ZM18.5389 9.89543H18.5473C19.1383 9.90618 19.7015 10.1482 20.116 10.5695C20.5306 10.9907 20.7634 11.5578 20.7647 12.1488C20.7659 12.7399 20.5354 13.3078 20.1226 13.7308C19.7098 14.1538 19.1476 14.3982 18.5567 14.4114H18.5473C17.9564 14.4005 17.3933 14.1584 16.9788 13.737C16.5644 13.3156 16.3316 12.7486 16.3305 12.1575C16.3294 11.5665 16.56 10.9986 16.9729 10.5757C17.3858 10.1527 17.948 9.90852 18.5389 9.89543Z" fill="#898989"/>
<path d="M25.9087 17.582C25.9087 17.7157 25.9618 17.844 26.0564 17.9386C26.151 18.0332 26.2793 18.0863 26.4131 18.0863H33.8812C34.0113 18.0807 34.1343 18.0251 34.2244 17.931C34.3145 17.837 34.3647 17.7118 34.3647 17.5815C34.3647 17.4513 34.3145 17.326 34.2244 17.232C34.1343 17.1379 34.0113 17.0823 33.8812 17.0767H26.4131C26.3468 17.0767 26.2811 17.0897 26.2198 17.1151C26.1586 17.1405 26.1029 17.1778 26.0561 17.2247C26.0092 17.2717 25.9721 17.3274 25.9468 17.3887C25.9215 17.45 25.9086 17.5157 25.9087 17.582Z" fill="#898989"/>
<path d="M33.8812 21.063H26.4131C26.2793 21.063 26.151 21.1161 26.0564 21.2107C25.9618 21.3053 25.9087 21.4336 25.9087 21.5674C25.9087 21.7011 25.9618 21.8294 26.0564 21.924C26.151 22.0186 26.2793 22.0717 26.4131 22.0717H33.8812C34.015 22.0717 34.1433 22.0186 34.2378 21.924C34.3324 21.8294 34.3856 21.7011 34.3856 21.5674C34.3856 21.4336 34.3324 21.3053 34.2378 21.2107C34.1433 21.1161 34.015 21.063 33.8812 21.063Z" fill="#898989"/>
<path d="M33.8813 25.0483H14.1188C13.9887 25.0539 13.8657 25.1096 13.7756 25.2037C13.6855 25.2977 13.6353 25.4229 13.6353 25.5532C13.6353 25.6834 13.6855 25.8087 13.7756 25.9027C13.8657 25.9968 13.9887 26.0524 14.1188 26.058H33.8813C34.0114 26.0524 34.1344 25.9968 34.2245 25.9027C34.3146 25.8087 34.3649 25.6834 34.3649 25.5532C34.3649 25.4229 34.3146 25.2977 34.2245 25.2037C34.1344 25.1096 34.0114 25.0539 33.8813 25.0483Z" fill="#898989"/>
<path d="M33.8811 29.0352H14.1186C13.9849 29.0352 13.8566 29.0883 13.762 29.1829C13.6674 29.2775 13.6143 29.4058 13.6143 29.5395C13.6143 29.6733 13.6674 29.8016 13.762 29.8962C13.8566 29.9908 13.9849 30.0439 14.1186 30.0439H33.8811C34.0149 30.0439 34.1432 29.9908 34.2378 29.8962C34.3324 29.8016 34.3855 29.6733 34.3855 29.5395C34.3855 29.4058 34.3324 29.2775 34.2378 29.1829C34.1432 29.0883 34.0149 29.0352 33.8811 29.0352Z" fill="#898989"/>
<path d="M33.8813 33.0205H14.1188C13.9887 33.0261 13.8657 33.0818 13.7756 33.1758C13.6855 33.2699 13.6353 33.3951 13.6353 33.5254C13.6353 33.6556 13.6855 33.7808 13.7756 33.8749C13.8657 33.9689 13.9887 34.0246 14.1188 34.0302H33.8813C34.0114 34.0246 34.1344 33.9689 34.2245 33.8749C34.3146 33.7808 34.3649 33.6556 34.3649 33.5254C34.3649 33.3951 34.3146 33.2699 34.2245 33.1758C34.1344 33.0818 34.0114 33.0261 33.8813 33.0205Z" fill="#898989"/>
<path d="M33.8811 37.0068H14.1186C13.9849 37.0068 13.8566 37.06 13.762 37.1546C13.6674 37.2492 13.6143 37.3774 13.6143 37.5112C13.6143 37.645 13.6674 37.7733 13.762 37.8679C13.8566 37.9624 13.9849 38.0156 14.1186 38.0156H33.8811C34.0149 38.0156 34.1432 37.9624 34.2378 37.8679C34.3324 37.7733 34.3855 37.645 34.3855 37.5112C34.3855 37.3774 34.3324 37.2492 34.2378 37.1546C34.1432 37.06 34.0149 37.0068 33.8811 37.0068Z" fill="#898989"/>
</svg>
