<svg width="19" height="14" viewBox="0 0 19 14" fill="none" xmlns="http://www.w3.org/2000/svg">
<path d="M3.76562 4.69775C3.76562 4.60889 3.75195 4.52913 3.72461 4.4585C3.69954 4.38558 3.65169 4.3195 3.58105 4.26025C3.51042 4.19873 3.4113 4.13835 3.28369 4.0791C3.15609 4.01986 2.99089 3.95833 2.78809 3.89453C2.5625 3.82161 2.34831 3.73958 2.14551 3.64844C1.94499 3.55729 1.76725 3.45133 1.6123 3.33057C1.45964 3.20752 1.33887 3.0651 1.25 2.90332C1.16341 2.74154 1.12012 2.55355 1.12012 2.33936C1.12012 2.132 1.16569 1.94401 1.25684 1.77539C1.34798 1.60449 1.47559 1.45866 1.63965 1.33789C1.80371 1.21484 1.9974 1.12028 2.2207 1.0542C2.44629 0.988118 2.69352 0.955078 2.9624 0.955078C3.32926 0.955078 3.64941 1.02116 3.92285 1.15332C4.19629 1.28548 4.4082 1.46663 4.55859 1.69678C4.71126 1.92692 4.7876 2.1901 4.7876 2.48633H3.76904C3.76904 2.34049 3.73828 2.21289 3.67676 2.10352C3.61751 1.99186 3.52637 1.90413 3.40332 1.84033C3.28255 1.77653 3.12988 1.74463 2.94531 1.74463C2.76758 1.74463 2.61947 1.77197 2.50098 1.82666C2.38249 1.87907 2.29362 1.95085 2.23438 2.04199C2.17513 2.13086 2.14551 2.23112 2.14551 2.34277C2.14551 2.42708 2.16602 2.50342 2.20703 2.57178C2.25033 2.64014 2.31413 2.70394 2.39844 2.76318C2.48275 2.82243 2.58643 2.87826 2.70947 2.93066C2.83252 2.98307 2.97493 3.03434 3.13672 3.08447C3.40788 3.1665 3.646 3.25879 3.85107 3.36133C4.05843 3.46387 4.23161 3.57894 4.37061 3.70654C4.5096 3.83415 4.61442 3.97884 4.68506 4.14062C4.7557 4.30241 4.79102 4.48584 4.79102 4.69092C4.79102 4.90739 4.74886 5.10107 4.66455 5.27197C4.58024 5.44287 4.45833 5.58757 4.29883 5.70605C4.13932 5.82454 3.94906 5.91455 3.72803 5.97607C3.507 6.0376 3.25977 6.06836 2.98633 6.06836C2.74023 6.06836 2.49756 6.03646 2.2583 5.97266C2.01904 5.90658 1.80143 5.80745 1.60547 5.67529C1.41178 5.54313 1.25684 5.37451 1.14062 5.16943C1.02441 4.96436 0.966309 4.72168 0.966309 4.44141H1.99512C1.99512 4.59635 2.01904 4.72738 2.06689 4.83447C2.11475 4.94157 2.18197 5.02816 2.26855 5.09424C2.35742 5.16032 2.46224 5.20817 2.58301 5.23779C2.70605 5.26742 2.84049 5.28223 2.98633 5.28223C3.16406 5.28223 3.3099 5.25716 3.42383 5.20703C3.54004 5.1569 3.62549 5.0874 3.68018 4.99854C3.73714 4.90967 3.76562 4.80941 3.76562 4.69775ZM8.37305 4.34912H9.39502C9.37451 4.68408 9.28223 4.98145 9.11816 5.24121C8.95638 5.50098 8.72965 5.70378 8.43799 5.84961C8.1486 5.99544 7.79997 6.06836 7.39209 6.06836C7.07308 6.06836 6.78711 6.01367 6.53418 5.9043C6.28125 5.79264 6.06478 5.63314 5.88477 5.42578C5.70703 5.21842 5.57145 4.96777 5.47803 4.67383C5.3846 4.37988 5.33789 4.05062 5.33789 3.68604V3.34082C5.33789 2.97624 5.38574 2.64697 5.48145 2.35303C5.57943 2.0568 5.71842 1.80501 5.89844 1.59766C6.08073 1.3903 6.29834 1.23079 6.55127 1.11914C6.8042 1.00749 7.08675 0.95166 7.39893 0.95166C7.81364 0.95166 8.16341 1.02686 8.44824 1.17725C8.73535 1.32764 8.95752 1.53499 9.11475 1.79932C9.27425 2.06364 9.36995 2.36442 9.40186 2.70166H8.37646C8.36507 2.50114 8.3252 2.33138 8.25684 2.19238C8.18848 2.05111 8.0848 1.94515 7.9458 1.87451C7.80908 1.8016 7.62679 1.76514 7.39893 1.76514C7.22803 1.76514 7.07878 1.79704 6.95117 1.86084C6.82357 1.92464 6.71647 2.02148 6.62988 2.15137C6.54329 2.28125 6.47835 2.44531 6.43506 2.64355C6.39404 2.83952 6.37354 3.06966 6.37354 3.33398V3.68604C6.37354 3.94352 6.3929 4.17025 6.43164 4.36621C6.47038 4.5599 6.52962 4.72396 6.60938 4.8584C6.69141 4.99056 6.79622 5.09082 6.92383 5.15918C7.05371 5.22526 7.2098 5.2583 7.39209 5.2583C7.60628 5.2583 7.78288 5.22412 7.92188 5.15576C8.06087 5.0874 8.16683 4.986 8.23975 4.85156C8.31494 4.71712 8.35938 4.54964 8.37305 4.34912ZM12.0918 1.87451L10.7383 6H9.64795L11.4971 1.02344H12.1909L12.0918 1.87451ZM13.2163 6L11.8594 1.87451L11.75 1.02344H12.4507L14.3101 6H13.2163ZM13.1548 4.14746V4.95068H10.5264V4.14746H13.1548ZM18.8218 1.02344V6H17.7964L15.7969 2.66406V6H14.7715V1.02344H15.7969L17.7998 4.36279V1.02344H18.8218ZM5.87793 9.02344H6.74609L8.02441 12.6772L9.30273 9.02344H10.1709L8.37305 14H7.67578L5.87793 9.02344ZM5.40967 9.02344H6.27441L6.43164 12.585V14H5.40967V9.02344ZM9.77441 9.02344H10.6426V14H9.61719V12.585L9.77441 9.02344ZM14.8809 13.2002V14H12.2319V13.2002H14.8809ZM12.5669 9.02344V14H11.5415V9.02344H12.5669ZM14.5356 11.0503V11.8296H12.2319V11.0503H14.5356ZM14.8774 9.02344V9.82666H12.2319V9.02344H14.8774Z" fill="black"/>
</svg>
