<svg width="20" height="20" viewBox="0 0 20 20" fill="none" xmlns="http://www.w3.org/2000/svg">
<path d="M19.9277 14.5477C19.7898 14.1698 19.5242 13.9655 19.2229 13.802C19.1667 13.7714 19.1157 13.7408 19.0697 13.7203C18.9778 13.6744 18.8858 13.6284 18.7939 13.5824C17.8542 13.0819 17.1188 12.4589 16.6131 11.7132C16.4701 11.5038 16.3425 11.2791 16.2403 11.0493C16.1944 10.9267 16.1995 10.8552 16.2301 10.7888C16.2608 10.7378 16.3016 10.6969 16.3527 10.6611C16.5161 10.5539 16.6795 10.4466 16.7919 10.3751C16.9911 10.2424 17.1545 10.1402 17.2567 10.0687C17.6397 9.79803 17.9104 9.51203 18.0789 9.19028C18.3189 8.74085 18.3496 8.21482 18.1657 7.73985C17.9104 7.06571 17.2771 6.65203 16.5059 6.65203C16.3425 6.65203 16.1841 6.66735 16.0207 6.7031C15.9799 6.71331 15.9339 6.72353 15.893 6.73374C15.8981 6.2741 15.8879 5.78892 15.8471 5.30884C15.7041 3.62859 15.1116 2.75016 14.4988 2.05048C14.1055 1.61126 13.6459 1.23844 13.1301 0.947331C12.2006 0.416187 11.1434 0.145508 9.99427 0.145508C8.84516 0.145508 7.79309 0.416187 6.86359 0.947331C6.34776 1.23844 5.88812 1.61126 5.49487 2.05048C4.88201 2.75016 4.29469 3.6337 4.14658 5.30884C4.10572 5.78892 4.09551 6.2741 4.10061 6.73374C4.05976 6.72353 4.0189 6.71331 3.97294 6.7031C3.81461 6.66735 3.65119 6.65203 3.49286 6.65203C2.72168 6.65203 2.0884 7.07081 1.83304 7.73985C1.64918 8.21482 1.67982 8.74085 1.91986 9.19028C2.0884 9.51203 2.35907 9.79803 2.74211 10.0687C2.84425 10.1402 3.00258 10.2424 3.20686 10.3751C3.31411 10.4466 3.47243 10.5488 3.63076 10.6509C3.68694 10.6867 3.7329 10.7326 3.76865 10.7888C3.79929 10.8552 3.8044 10.9267 3.75333 11.0595C3.65119 11.2842 3.52861 11.5038 3.38561 11.7081C2.89022 12.4333 2.17522 13.0513 1.26614 13.5467C0.78607 13.802 0.285569 13.9706 0.0710683 14.5477C-0.0872535 14.9818 0.0148896 15.4721 0.418355 15.8909C0.566463 16.0441 0.740106 16.1769 0.929071 16.279C1.32232 16.4935 1.74111 16.6621 2.18032 16.7795C2.27225 16.8051 2.35397 16.8408 2.43057 16.8919C2.57868 17.0196 2.55825 17.2136 2.75233 17.4996C2.84936 17.6477 2.97704 17.7754 3.12004 17.8776C3.53372 18.1636 3.99847 18.1789 4.48876 18.1993C4.93308 18.2146 5.43358 18.2351 6.01069 18.424C6.25073 18.5006 6.49587 18.6538 6.78187 18.8326C7.47134 19.2565 8.41106 19.8336 9.98917 19.8336C11.5673 19.8336 12.5121 19.2514 13.2067 18.8275C13.4927 18.6538 13.7378 18.5006 13.9676 18.424C14.5396 18.2351 15.0453 18.2146 15.4896 18.1993C15.9799 18.1789 16.4446 18.1636 16.8583 17.8776C17.0319 17.755 17.1749 17.6018 17.2771 17.4179C17.4201 17.1779 17.415 17.0093 17.5478 16.8919C17.6193 16.8408 17.701 16.8051 17.7827 16.7846C18.2219 16.6672 18.6509 16.4986 19.0493 16.279C19.2484 16.1718 19.4323 16.0288 19.5855 15.8602L19.5906 15.8551C19.989 15.4465 20.086 14.9665 19.9277 14.5477ZM18.5283 15.2984C17.6754 15.7683 17.1034 15.7172 16.6642 16.0032C16.2863 16.2433 16.511 16.7642 16.2403 16.9532C15.9033 17.183 14.9125 16.9378 13.6357 17.3617C12.5785 17.709 11.9095 18.7151 10.0096 18.7151C8.10973 18.7151 7.45602 17.7141 6.38351 17.3617C5.10673 16.9378 4.11594 17.1881 3.77886 16.9532C3.50819 16.7642 3.72779 16.2433 3.35497 16.0032C2.91065 15.7172 2.34375 15.7683 1.49086 15.2984C0.944392 14.9971 1.25593 14.8133 1.43468 14.7264C4.52962 13.23 5.02501 10.9165 5.04544 10.7429C5.07097 10.5335 5.10162 10.37 4.8718 10.1606C4.65219 9.95636 3.67161 9.3486 3.39583 9.15964C2.9464 8.843 2.74722 8.53146 2.89533 8.14332C2.99747 7.87774 3.24772 7.7756 3.50819 7.7756C3.5899 7.7756 3.67161 7.78581 3.75333 7.80114C4.24872 7.90839 4.7288 8.15353 5.00458 8.22503C5.04033 8.23524 5.07098 8.24035 5.10673 8.24035C5.25483 8.24035 5.3059 8.16374 5.29569 7.99521C5.26505 7.45385 5.18844 6.40177 5.27526 5.41609C5.39273 4.0627 5.82683 3.38855 6.34776 2.79612C6.59801 2.51012 7.76755 1.27419 10.0096 1.27419C12.2516 1.27419 13.4212 2.50501 13.6714 2.79101C14.1924 3.38345 14.6265 4.05759 14.7439 5.41099C14.8308 6.39667 14.7541 7.44874 14.7184 7.9901C14.7082 8.16885 14.7593 8.23524 14.9074 8.23524C14.9431 8.23524 14.9738 8.23014 15.0095 8.21992C15.2853 8.15353 15.7654 7.90328 16.2608 7.79603C16.3425 7.7756 16.4242 7.77049 16.5059 7.77049C16.7664 7.77049 17.0166 7.87264 17.1188 8.13821C17.2669 8.52635 17.0677 8.83789 16.6183 9.15453C16.3476 9.3435 15.367 9.95125 15.1423 10.1555C14.9125 10.3649 14.9431 10.5284 14.9686 10.7378C14.9891 10.9114 15.4845 13.2249 18.5794 14.7213C18.7633 14.8082 19.0697 14.9971 18.5283 15.2984Z" fill="#898989"/>
</svg>
