<svg width="32" height="32" viewBox="0 0 32 32" fill="none" xmlns="http://www.w3.org/2000/svg">
<g clip-path="url(#clip0_1858_146)">
<g filter="url(#filter0_d_1858_146)">
<path d="M14 15.3125C14 13.5875 14 11.85 14 10.125C14 9.91246 14 9.71246 14.025 9.49996C14.0625 9.22496 14.225 9.02496 14.525 9.04996C14.7875 9.06246 14.95 9.24996 14.9625 9.49996C14.9875 9.94996 14.9875 10.4125 14.9875 10.875C14.9875 11.275 15.0125 11.6625 14.9875 12.0625C14.9125 12.9875 15.0875 13.6625 15.95 14.3125C17.5375 15.5125 17.3 17.8875 15.6 18.9875C15.125 19.2875 14.975 19.625 14.9875 20.15C15.0125 21.15 15 22.15 14.9875 23.15C14.9875 23.4875 14.975 23.875 14.55 23.9375C14.1 23.9875 14.025 23.625 13.975 23.275C13.9125 22.9 13.6625 22.6375 13.425 22.3875C11.8 20.6375 9.72503 20.0125 7.40003 20C6.93753 20 6.85003 20.275 6.87503 20.6625C6.96253 21.6125 7.06253 22.575 7.11253 23.525C7.16253 24.3625 6.95003 24.6 6.15003 24.7875C4.43753 25.175 4.22503 25.025 3.97503 23.275C3.85003 22.4125 3.70003 21.55 3.57503 20.6875C3.51253 20.275 3.37503 20.0375 2.87503 19.9875C1.71253 19.85 1.02503 19.0625 1.00003 17.875C0.987529 16.9375 0.975029 16 1.00003 15.0625C1.02503 13.85 1.83753 13.0375 3.05003 13C3.77503 12.975 4.51253 12.9875 5.23753 13C5.60003 13 5.95003 13.0875 5.93753 13.525C5.91253 13.925 5.57503 13.9875 5.23753 13.9875C4.55003 14 3.86253 13.975 3.17503 14C2.40003 14.025 2.02503 14.3875 2.00003 15.1625C1.97503 16.0625 1.97503 16.95 2.00003 17.85C2.02503 18.575 2.41253 18.9625 3.13753 18.975C4.20003 19 5.26253 18.975 6.32503 18.9875C6.81253 19 6.98753 18.7875 6.98753 18.3125C6.97503 16.8375 6.97503 15.35 6.98753 13.875C6.98753 13.15 7.13753 13.0125 7.87503 12.975C9.52503 12.9125 10.9875 12.475 12.1125 11.175C12.3375 10.9125 12.65 10.675 12.9625 11C13.275 11.3125 13.0375 11.6125 12.8125 11.875C11.8 13.0125 10.525 13.6375 9.02503 13.8625C7.98753 14.0125 7.98753 14.025 7.98753 15.05C7.98753 16.15 8.00003 17.2625 7.98753 18.3625C7.98753 18.775 8.15003 18.9625 8.56253 19.0125C10.45 19.225 12.175 19.8375 13.6125 21.125C13.6875 21.1875 13.825 21.2625 13.875 21.2375C14.0625 21.15 13.9875 20.95 13.9875 20.7875C14 18.975 14 17.1375 14 15.3125ZM6.11253 23.2125C6.02503 22.25 5.93753 21.3875 5.85003 20.525C5.80003 19.95 5.38753 19.9875 4.97503 20C4.50003 20.0125 4.52503 20.325 4.57503 20.6625C4.71253 21.525 4.83753 22.3875 4.96253 23.2375C5.01253 23.55 4.98753 23.9375 5.50003 23.8875C6.01253 23.8375 6.17503 23.575 6.11253 23.2125ZM15.9875 16.425C15.9625 15.975 15.8125 15.525 15.475 15.1625C15.3875 15.075 15.3 14.975 15.1625 15.025C15.0125 15.075 15.0125 15.2125 15.0125 15.3375C15.0125 16.1 15.0125 16.875 15.0125 17.6375C15.0125 17.7625 15 17.9 15.15 17.9625C15.325 18.025 15.425 17.8875 15.5125 17.7875C15.825 17.4 15.9875 16.9625 15.9875 16.425Z" fill="#898989"/>
<path d="M25.9625 10.9883C27.1 11.0258 28.0875 11.3133 28.95 11.9633C29.225 12.1758 29.5 12.4258 29.225 12.7883C28.9875 13.1133 28.675 12.9883 28.4 12.8008C25.9625 11.0633 22.875 12.3883 22.1875 14.8758C22.05 15.3508 21.65 15.4758 21.2875 15.6758C21.15 15.7508 20.9375 15.7883 20.925 15.9758C20.9 16.1883 21.1125 16.2383 21.2625 16.3008C21.8625 16.5133 22.15 16.9633 22.375 17.5508C23.0375 19.2383 24.8 20.2133 26.6125 19.9508C27 19.9008 27.5375 19.6758 27.6375 20.2883C27.725 20.8883 27.15 20.8758 26.7625 20.9383C24.75 21.3008 22.575 20.2383 21.6625 18.3508C21.3125 17.6133 20.8375 17.1633 20.125 16.8383C19.7125 16.6508 19.0875 16.5758 19.1 15.9758C19.1125 15.4258 19.7125 15.3383 20.1125 15.1633C20.825 14.8508 21.3 14.3883 21.6625 13.6633C22.5125 11.8883 24.0625 11.0633 25.9625 10.9883Z" fill="#898989"/>
<path d="M19.9126 21.0882C19.7751 21.3132 19.8626 21.4507 19.9001 21.5757C20.0751 22.0382 19.8876 22.3257 19.5001 22.5632C18.6376 23.0882 18.0126 23.8132 17.7001 24.8007C17.1751 26.4882 17.7876 28.2632 19.2751 29.3007C19.3751 29.3757 19.4876 29.4382 19.5876 29.5007C19.8751 29.6757 20.1126 29.9132 19.9126 30.2632C19.6876 30.6507 19.3501 30.5132 19.0376 30.3382C17.2751 29.3882 16.2126 27.2007 16.5501 25.2132C16.7751 23.9257 17.3751 22.8632 18.4126 22.0632C18.7501 21.8007 18.8376 21.5507 18.6876 21.1632C18.4626 20.5632 18.2751 19.9382 18.0751 19.3257C17.9876 19.0507 17.9751 18.7882 18.2501 18.6007C18.5376 18.4132 18.7751 18.5757 18.9751 18.7632C19.6376 19.3757 20.2876 19.9757 20.9376 20.6007C21.1876 20.8382 21.4626 20.9632 21.8251 21.0007C22.8876 21.0757 23.8501 21.4382 24.6751 22.1382C24.9376 22.3632 25.2126 22.6132 24.9501 22.9757C24.6751 23.3382 24.3626 23.1507 24.0876 22.9382C23.3001 22.3007 22.3876 21.9757 21.3751 21.9882C20.8376 22.0007 20.5876 21.5882 20.2376 21.3007C20.1376 21.2382 20.0376 21.1757 19.9126 21.0882Z" fill="#898989"/>
<path d="M19.875 10.838C19.9125 10.838 19.975 10.863 19.9875 10.8505C20.625 10.063 21.525 9.97548 22.4375 9.86298C23.0625 9.78798 23.6 9.43797 24.1 9.03797C24.3625 8.83798 24.65 8.66297 24.925 8.97547C25.2125 9.32547 24.975 9.60047 24.7125 9.82547C23.9 10.538 22.9375 10.9005 21.8625 10.988C21.4875 11.013 21.1875 11.1505 20.925 11.413C20.3 12.0255 19.65 12.613 19.0125 13.213C18.8125 13.4005 18.5875 13.5755 18.2875 13.413C17.975 13.2255 18 12.938 18.1 12.638C18.275 12.1005 18.425 11.563 18.6375 11.038C18.85 10.5255 18.7625 10.2005 18.3125 9.82547C15.7375 7.67547 15.95 3.72547 18.7125 1.87547C18.8125 1.80047 18.925 1.73797 19.025 1.67547C19.3375 1.51297 19.6875 1.37547 19.9 1.75047C20.125 2.13797 19.8125 2.35047 19.525 2.53797C16.8125 4.33797 16.8 7.61297 19.5 9.45047C19.875 9.71297 20.05 9.98798 19.8875 10.438C19.85 10.538 19.7625 10.688 19.875 10.838Z" fill="#898989"/>
<path d="M24.2499 7.98786C23.9999 7.98786 23.7499 8.00036 23.4999 7.98786C22.1374 7.93786 21.1499 7.02536 21.0124 5.67536C20.9749 5.32536 20.9624 5.01286 20.4999 4.97536C20.2249 4.95036 20.0374 4.77536 20.0499 4.47536C20.0624 4.21286 20.2499 4.05036 20.4999 4.02536C20.9624 3.97536 21.0124 3.68786 20.9999 3.32536C20.9999 2.78786 20.9999 2.25036 21.0124 1.70036C21.0249 1.36286 21.1249 1.05036 21.5249 1.06286C21.8874 1.07536 21.9874 1.37536 21.9999 1.68786C22.0124 2.25036 22.0249 2.81286 22.0124 3.37536C21.9999 3.82536 22.1874 4.02536 22.6374 4.01286C22.9249 4.00036 23.2249 4.01286 23.5124 4.03786C23.7874 4.07536 23.9874 4.23786 23.9624 4.53786C23.9499 4.80036 23.7624 4.95036 23.5124 4.97536C23.1874 5.01286 22.8499 5.01286 22.5124 5.01286C22.1374 5.01286 22.0124 5.22536 22.0249 5.57536C22.0624 6.32536 22.6749 6.93786 23.5124 6.98786C24.0874 7.02536 24.6749 7.00036 25.2624 7.01286C25.6249 7.01286 25.9749 7.10036 25.9624 7.53786C25.9499 7.93786 25.5999 8.00036 25.2749 8.00036C24.9124 7.98786 24.5874 7.98786 24.2499 7.98786Z" fill="#898989"/>
<path d="M24.3124 24.0007C24.6624 24.0007 25.0249 23.9882 25.3749 24.0007C25.6999 24.0132 25.9624 24.1507 25.9499 24.5132C25.9374 24.8382 25.6749 24.9632 25.3874 24.9757C24.7624 24.9882 24.1374 24.9757 23.5124 25.0007C22.6999 25.0382 22.0999 25.6007 22.0249 26.3382C21.9874 26.7382 22.0999 26.9882 22.5499 26.9757C22.8374 26.9757 23.1374 26.9757 23.4249 27.0007C23.7249 27.0257 23.9624 27.1632 23.9499 27.5007C23.9374 27.8007 23.7249 27.9257 23.4499 27.9632C23.3249 27.9757 23.1999 27.9757 23.0749 27.9757C21.9999 28.0007 21.9999 28.0007 21.9999 29.1007C21.9999 29.5382 21.9999 29.9757 21.9749 30.4132C21.9624 30.6882 21.8249 30.9132 21.5249 30.9257C21.1999 30.9382 21.0249 30.7132 21.0124 30.4132C20.9874 29.8132 20.9874 29.2132 20.9874 28.6007C20.9874 28.2507 20.9124 28.0007 20.4999 27.9507C20.2249 27.9132 20.0249 27.7507 20.0374 27.4507C20.0499 27.1507 20.2749 27.0257 20.5374 26.9757C20.7624 26.9382 20.9124 26.8507 20.9749 26.6132C21.5874 24.3507 22.0374 23.9882 24.3124 24.0007Z" fill="#898989"/>
<path d="M30.9874 17.1126C30.9874 17.5251 30.9999 17.9501 30.9874 18.3626C30.9749 18.6876 30.8499 18.9626 30.4749 18.9376C30.1499 18.9251 30.0249 18.6626 30.0124 18.3626C29.9999 17.6126 30.0124 16.8626 29.9874 16.1126C29.9624 15.4876 29.5999 15.0626 29.0874 15.0126C28.5249 14.9501 28.0374 15.4001 28.0124 16.0501C27.9749 16.7751 27.9999 17.5126 27.9874 18.2376C27.9874 18.5751 27.9124 18.9126 27.5124 18.9251C27.0749 18.9376 26.9999 18.5751 26.9999 18.2251C26.9999 17.0626 26.9874 15.8876 26.9999 14.7251C27.0124 14.1126 27.2249 13.9626 27.8249 14.1251C28.0499 14.1876 28.2374 14.1126 28.4249 14.0751C29.7624 13.7501 30.9124 14.6001 30.9749 15.9876C31.0124 16.3626 30.9999 16.7376 30.9874 17.1126Z" fill="#898989"/>
<path d="M25.4874 13.9627C25.7498 13.9627 25.9625 13.75 25.9625 13.4877C25.9625 13.2254 25.7498 13.0127 25.4874 13.0127C25.2251 13.0127 25.0125 13.2254 25.0125 13.4877C25.0125 13.75 25.2251 13.9627 25.4874 13.9627Z" fill="#898989"/>
<path d="M24.9875 14.7131C24.9875 14.4381 25.2125 14.2256 25.475 14.2256C25.7375 14.2256 25.9625 14.4506 25.9625 14.7131C25.9625 14.7131 25.9625 18.4256 25.9625 18.4506C25.9625 18.7256 25.7375 18.9381 25.475 18.9381C25.2125 18.9381 24.9875 18.7131 24.9875 18.4506V14.7131Z" fill="#898989"/>
</g>
</g>
<defs>
<filter id="filter0_d_1858_146" x="-3.0144" y="1.0625" width="38.0144" height="37.8633" filterUnits="userSpaceOnUse" color-interpolation-filters="sRGB">
<feFlood flood-opacity="0" result="BackgroundImageFix"/>
<feColorMatrix in="SourceAlpha" type="matrix" values="0 0 0 0 0 0 0 0 0 0 0 0 0 0 0 0 0 0 127 0" result="hardAlpha"/>
<feOffset dy="4"/>
<feGaussianBlur stdDeviation="2"/>
<feComposite in2="hardAlpha" operator="out"/>
<feColorMatrix type="matrix" values="0 0 0 0 0 0 0 0 0 0 0 0 0 0 0 0 0 0 0.25 0"/>
<feBlend mode="normal" in2="BackgroundImageFix" result="effect1_dropShadow_1858_146"/>
<feBlend mode="normal" in="SourceGraphic" in2="effect1_dropShadow_1858_146" result="shape"/>
</filter>
<clipPath id="clip0_1858_146">
<rect width="32" height="32" fill="white"/>
</clipPath>
</defs>
</svg>
