<svg width="240" height="135" viewBox="0 0 240 135" fill="none" xmlns="http://www.w3.org/2000/svg">
<mask id="mask0_1860_2186" style="mask-type:alpha" maskUnits="userSpaceOnUse" x="0" y="0" width="240" height="135">
<path d="M144.488 41.3623C144.488 38.5873 146.588 36.2998 149.55 36.2998C151.35 36.2998 152.513 36.8998 153.413 37.9123L151.725 39.7123C151.125 39.0748 150.488 38.6623 149.513 38.6623C148.163 38.6623 147.188 39.8623 147.188 41.2873V41.3248C147.188 42.7873 148.125 43.9873 149.625 43.9873C150.525 43.9873 151.163 43.5748 151.838 42.9748L153.45 44.5873C152.513 45.5998 151.425 46.3498 149.513 46.3498C146.625 46.3498 144.488 44.0998 144.488 41.3623Z" fill="#4391CF"/>
<path d="M154.275 41.3623C154.275 38.5498 156.525 36.2998 159.525 36.2998C162.525 36.2998 164.738 38.5123 164.738 41.2873V41.3248C164.738 44.0998 162.488 46.3498 159.488 46.3498C156.488 46.3498 154.275 44.1373 154.275 41.3623ZM162 41.3623C162 39.8998 160.988 38.6623 159.45 38.6623C157.875 38.6623 156.938 39.8623 156.938 41.2873V41.3248C156.938 42.7498 157.95 43.9873 159.488 43.9873C161.063 43.9873 162 42.7873 162 41.3623Z" fill="#4391CF"/>
<path d="M166.575 36.4873H169.313V37.8373C169.95 37.0123 170.738 36.2998 172.125 36.2998C174.188 36.2998 175.388 37.6498 175.388 39.8998V46.1248H172.65V40.7248C172.65 39.4123 172.05 38.7748 171 38.7748C169.95 38.7748 169.275 39.4498 169.275 40.7248V46.1248H166.538V36.4873H166.575Z" fill="#4391CF"/>
<path d="M177.75 36.4873H180.487V37.8373C181.125 37.0123 181.912 36.2998 183.3 36.2998C185.362 36.2998 186.562 37.6498 186.562 39.8998V46.1248H183.825V40.7248C183.825 39.4123 183.225 38.7748 182.175 38.7748C181.125 38.7748 180.45 39.4498 180.45 40.7248V46.1248H177.75V36.4873Z" fill="#4391CF"/>
<path d="M188.438 41.3623C188.438 38.5873 190.388 36.2998 193.2 36.2998C196.425 36.2998 197.888 38.8123 197.888 41.5498C197.888 41.7748 197.887 41.9998 197.85 42.2623H191.138C191.4 43.4998 192.263 44.1373 193.5 44.1373C194.4 44.1373 195.075 43.8373 195.825 43.1623L197.4 44.5498C196.5 45.6748 195.188 46.3498 193.463 46.3498C190.575 46.3498 188.438 44.3248 188.438 41.3623ZM195.225 40.5373C195.075 39.2998 194.325 38.4748 193.2 38.4748C192.075 38.4748 191.325 39.2998 191.1 40.5373H195.225Z" fill="#4391CF"/>
<path d="M199.275 41.3623C199.275 38.5873 201.375 36.2998 204.338 36.2998C206.138 36.2998 207.3 36.8998 208.2 37.9123L206.513 39.7123C205.913 39.0748 205.275 38.6623 204.3 38.6623C202.95 38.6623 201.975 39.8623 201.975 41.2873V41.3248C201.975 42.7873 202.913 43.9873 204.413 43.9873C205.313 43.9873 205.95 43.5748 206.625 42.9748L208.238 44.5873C207.3 45.5998 206.213 46.3498 204.3 46.3498C201.413 46.3498 199.275 44.0998 199.275 41.3623Z" fill="#4391CF"/>
<path d="M210.45 43.3877V38.8127H209.288V36.4877H210.45V34.0127H213.188V36.4877H215.438V38.8127H213.188V42.9377C213.188 43.5752 213.45 43.8752 214.088 43.8752C214.575 43.8752 215.025 43.7627 215.438 43.5377V45.7502C214.875 46.0877 214.2 46.3127 213.263 46.3127C211.613 46.2752 210.45 45.6377 210.45 43.3877Z" fill="#4391CF"/>
<path d="M28.2 32.2129L28.35 33.0004L26.625 33.3004L25.2 25.2004L26.8875 24.9004L27.4125 27.9004C27.7125 27.2629 28.2 26.7754 29.1 26.6254C30.4875 26.3629 31.9875 27.2254 32.3625 29.2129V29.2504C32.7 31.2379 31.6125 32.5504 30.1875 32.8129C29.2875 32.9254 28.6875 32.6254 28.2 32.2129ZM30.675 29.5129C30.4875 28.5004 29.7 27.9754 28.9125 28.0879C28.125 28.2379 27.6 28.9879 27.75 29.9629V30.0004C27.9375 30.9754 28.6875 31.5379 29.475 31.3879C30.2625 31.2379 30.8625 30.5254 30.675 29.5129Z" fill="#4391CF"/>
<path d="M33.2999 29.0626C32.9999 27.3376 33.9749 25.7251 35.6999 25.4251C37.6874 25.0876 38.8499 26.4376 39.1499 28.1251C39.1874 28.2751 39.1874 28.4251 39.1874 28.5751L35.0624 29.2876C35.3624 30.0376 35.9624 30.3376 36.7124 30.1876C37.2749 30.0751 37.6499 29.8501 38.0624 29.3251L39.1874 30.0001C38.7374 30.7876 38.0249 31.3501 36.9749 31.5376C35.1749 31.9126 33.5999 30.9001 33.2999 29.0626ZM37.3874 27.8626C37.1624 27.1126 36.6374 26.7001 35.9249 26.8126C35.2124 26.9251 34.8749 27.5251 34.8749 28.3126L37.3874 27.8626Z" fill="#4391CF"/>
<path d="M40.05 27.8999C39.75 26.1749 40.8 24.5624 42.6 24.2249C43.725 24.0374 44.475 24.2999 45.15 24.7874L44.325 26.0624C43.875 25.7249 43.4625 25.5374 42.8625 25.6499C42.0375 25.7999 41.55 26.6624 41.7 27.5249V27.5624C41.85 28.4624 42.5625 29.0999 43.5 28.9499C44.0625 28.8374 44.4 28.5374 44.7375 28.0874L45.9 28.9124C45.45 29.6624 44.85 30.2249 43.65 30.4124C41.8875 30.7124 40.35 29.5874 40.05 27.8999Z" fill="#4391CF"/>
<path d="M46.1249 26.8129C45.8249 25.0879 46.9499 23.4754 48.7874 23.1379C50.6249 22.8004 52.2374 23.9254 52.5374 25.6504V25.6879C52.8374 27.3754 51.7124 29.0254 49.8749 29.3629C48.0374 29.6629 46.4249 28.5379 46.1249 26.8129ZM50.8874 25.9879C50.7374 25.0879 49.9499 24.4504 49.0499 24.6004C48.0749 24.7879 47.6249 25.6129 47.8124 26.4754V26.5129C47.9624 27.3754 48.7499 28.0504 49.6499 27.8629C50.5874 27.7129 51.0374 26.8504 50.8874 25.9879Z" fill="#4391CF"/>
<path d="M53.2124 22.4629L54.8999 22.1629L55.0499 22.9879C55.3499 22.4254 55.7624 21.8629 56.6249 21.7129C57.4124 21.5629 58.0499 21.8254 58.4624 22.3504C58.8749 21.6379 59.4374 21.2254 60.2624 21.0754C61.4999 20.8504 62.3999 21.4879 62.6624 22.9129L63.3374 26.7754L61.6499 27.0754L61.0499 23.7754C60.8999 22.9879 60.4874 22.6129 59.8499 22.7254C59.2124 22.8379 58.9124 23.3254 59.0249 24.1129L59.6249 27.4129L57.9374 27.7129L57.3374 24.4129C57.1874 23.6254 56.7749 23.2504 56.1374 23.3629C55.4999 23.4754 55.1999 23.9629 55.3124 24.7504L55.9124 28.0504L54.2249 28.3504L53.2124 22.4629Z" fill="#4391CF"/>
<path d="M64.0124 23.6622C63.7124 21.9372 64.6875 20.3247 66.4125 20.0247C68.4 19.6872 69.5624 21.0372 69.8624 22.7247C69.8999 22.8747 69.8999 23.0247 69.9374 23.1747L65.8124 23.8872C66.1124 24.6372 66.7124 24.9372 67.4624 24.7872C68.0249 24.6747 68.3999 24.4497 68.8124 23.9247L69.9374 24.5997C69.4874 25.3872 68.7749 25.9497 67.6874 26.1372C65.8874 26.5122 64.3499 25.4997 64.0124 23.6622ZM68.1 22.4247C67.875 21.6747 67.3499 21.2622 66.6374 21.3747C65.9249 21.4872 65.5874 22.0872 65.5874 22.8747L68.1 22.4247Z" fill="#4391CF"/>
<path d="M74.2874 23.1376C74.0624 21.8251 74.9249 21.0376 76.3499 20.8126C76.9499 20.7001 77.3999 20.7376 77.8499 20.8126V20.7001C77.7374 19.9876 77.2124 19.6876 76.3874 19.8376C75.7499 19.9501 75.2999 20.1376 74.8124 20.4376L74.1749 19.2376C74.7749 18.8251 75.3749 18.5251 76.3874 18.3376C77.3249 18.1876 77.9999 18.3001 78.5249 18.6376C79.0499 19.0126 79.3499 19.6126 79.4999 20.4376L80.0999 23.8876L78.4874 24.1876L78.3749 23.5501C78.0374 24.0751 77.5499 24.4876 76.7249 24.6376C75.5249 24.7876 74.4749 24.3001 74.2874 23.1376ZM78.0749 22.0501L78.0374 21.7501C77.7374 21.6751 77.3249 21.6376 76.9124 21.7126C76.1999 21.8251 75.7874 22.2001 75.8999 22.7251V22.7626C75.9749 23.2126 76.3874 23.4001 76.9499 23.3251C77.7374 23.1751 78.1874 22.6501 78.0749 22.0501Z" fill="#4391CF"/>
<path d="M84.3 18.4877L83.5875 18.6002L83.325 17.2127L84.0375 17.1002L83.9625 16.7252C83.85 16.0877 83.925 15.5627 84.1875 15.1877C84.45 14.8127 84.8625 14.5877 85.4625 14.4752C85.9875 14.4002 86.3625 14.4002 86.7 14.4377L86.9625 15.8252C86.6999 15.7877 86.475 15.7502 86.175 15.8252C85.8 15.9002 85.6125 16.1252 85.6875 16.5752L85.725 16.8002L87.075 16.5752L87.3 17.9627L85.95 18.1877L86.7375 22.6877L85.05 22.9877L84.3 18.4877Z" fill="#4391CF"/>
<path d="M88.2375 20.6621C88.0125 19.3496 88.875 18.5621 90.3 18.3371C90.9 18.2246 91.35 18.2621 91.8 18.3371V18.2246C91.6875 17.5121 91.1625 17.2121 90.3375 17.3621C89.7 17.4746 89.25 17.6621 88.7625 17.9621L88.125 16.7621C88.725 16.3496 89.325 16.0496 90.3375 15.8621C91.275 15.7121 91.95 15.8246 92.475 16.1621C93 16.5371 93.3 17.1371 93.45 17.9621L94.05 21.4121L92.4375 21.7121L92.325 21.0746C91.9875 21.5996 91.5 22.0121 90.675 22.1621C89.475 22.3121 88.4625 21.8246 88.2375 20.6621ZM92.025 19.5746L91.9875 19.2746C91.6875 19.1996 91.275 19.1621 90.8625 19.2371C90.15 19.3496 89.7375 19.7246 89.85 20.2496V20.2871C89.925 20.7371 90.3375 20.9246 90.9 20.8496C91.6875 20.7371 92.1375 20.2121 92.025 19.5746Z" fill="#4391CF"/>
<path d="M94.4249 15.1875L96.1124 14.8875L96.2624 15.7125C96.5624 15.15 96.9749 14.5875 97.8374 14.4375C99.1124 14.2125 100.012 14.925 100.237 16.275L100.912 20.1375L99.2249 20.4375L98.6249 17.1375C98.4749 16.35 98.0249 16.0125 97.3874 16.125C96.7499 16.2375 96.4124 16.725 96.5624 17.5125L97.1624 20.8125L95.4749 21.1125L94.4249 15.1875Z" fill="#4391CF"/>
<path d="M38.8125 68.9624L37.35 68.6624L37.9875 65.7374L39.45 66.0374L39.6375 65.2499C39.9375 63.8624 40.5 62.9249 41.2875 62.3999C42.075 61.8749 43.125 61.7624 44.4 62.0249C45.525 62.2499 46.2375 62.5499 46.875 62.9249L46.2375 65.8874C45.75 65.5874 45.3 65.3624 44.7 65.2499C43.875 65.0624 43.3125 65.3999 43.125 66.3374L43.0125 66.8249L45.9 67.4249L45.2625 70.3499L42.4125 69.7499L40.3875 79.2749L36.825 78.5249L38.8125 68.9624Z" fill="#4391CF"/>
<path d="M45.4499 73.8372V73.7997C46.1999 70.1997 49.7624 67.8747 53.6624 68.6997C57.5624 69.5247 59.8499 73.0122 59.0624 76.6497V76.6872C58.3124 80.2872 54.7499 82.6122 50.8499 81.7872C46.9499 80.9622 44.6999 77.4372 45.4499 73.8372ZM55.5374 75.9747V75.9372C55.9499 74.0997 54.9374 72.1872 52.9499 71.7747C50.9249 71.3247 49.3499 72.6372 48.9749 74.5122V74.5497C48.5624 76.3872 49.5749 78.2997 51.5624 78.7122C53.5874 79.1622 55.1624 77.8497 55.5374 75.9747Z" fill="#4391CF"/>
<path d="M63.825 66.3379L67.3875 67.0879L63.75 84.2254L60.1875 83.4754L63.825 66.3379Z" fill="#4391CF"/>
<path d="M70.5374 67.7627L74.0999 68.5127L70.4624 85.6502L66.8999 84.9002L70.5374 67.7627Z" fill="#4391CF"/>
<path d="M74.175 79.9495V79.912C74.925 76.312 78.4875 73.987 82.3875 74.812C86.2875 75.637 88.575 79.1245 87.7875 82.762V82.7995C87.0375 86.3995 83.475 88.7245 79.575 87.8995C75.675 87.0745 73.3875 83.5495 74.175 79.9495ZM84.2625 82.087V82.0495C84.675 80.212 83.6625 78.2995 81.675 77.887C79.65 77.437 78.075 78.7495 77.7 80.6245V80.662C77.2875 82.4995 78.3 84.412 80.2875 84.8245C82.3125 85.237 83.8875 83.9245 84.2625 82.087Z" fill="#4391CF"/>
<path d="M89.9249 76.6504L93.5249 77.4004L93.9374 85.4629L97.9499 78.3004L101.025 78.9379L101.775 87.1504L105.45 79.9504L109.012 80.7004L102.412 92.5504L99.1874 91.8754L98.3999 83.6254L94.2749 90.8254L91.0874 90.1504L89.9249 76.6504Z" fill="#4391CF"/>
<path d="M116.4 90.7879L118.125 82.6504L121.687 83.4004L120.187 90.4129C119.812 92.1004 120.45 93.1504 121.8 93.4129C123.15 93.7129 124.2 93.0004 124.575 91.3129L126.075 84.3004L129.637 85.0504L126.975 97.6504L123.412 96.9004L123.787 95.1004C122.737 96.0004 121.462 96.7129 119.662 96.3379C116.962 95.7754 115.8 93.6754 116.4 90.7879Z" fill="#4391CF"/>
<path d="M129.375 96.4501L131.4 94.4251C132.562 95.7001 133.875 96.5251 135.038 96.7876C136.088 97.0126 136.613 96.7126 136.725 96.1501V96.1126C136.875 95.3251 135.713 94.8376 134.438 94.0876C132.787 93.1876 130.95 91.9501 131.475 89.5126V89.4751C132.038 86.9251 134.4 85.9126 136.913 86.4751C138.525 86.8126 140.137 87.7126 141.3 88.9126L139.425 91.0876C138.337 90.1126 137.175 89.4001 136.275 89.1751C135.412 88.9876 134.887 89.2876 134.775 89.7751V89.8126C134.625 90.5251 135.75 91.0876 137.025 91.8751C138.675 92.8501 140.512 94.1251 140.025 96.4126V96.4501C139.425 99.2251 137.062 100.05 134.362 99.4876C132.637 99.1126 130.763 98.1001 129.375 96.4501Z" fill="#4391CF"/>
<path d="M194.962 91.5377L195.6 90.0752C196.462 90.5252 197.325 90.6752 198 90.5627C198.6 90.4877 198.825 90.2252 198.787 89.8877V89.8502C198.712 89.4002 198 89.3627 197.175 89.2502C196.125 89.1002 194.925 88.8377 194.7 87.4502V87.4127C194.475 85.9502 195.525 84.9752 196.95 84.7502C197.85 84.6002 198.9 84.7502 199.762 85.1627L199.2 86.7002C198.412 86.4002 197.7 86.2502 197.175 86.3252C196.687 86.4002 196.462 86.6627 196.5 86.9252V86.9627C196.575 87.3752 197.287 87.4502 198.075 87.6002C199.125 87.7877 200.362 88.0877 200.587 89.3627V89.4002C200.85 90.9752 199.762 91.9127 198.225 92.1377C197.175 92.2877 196.012 92.1377 194.962 91.5377Z" fill="#4391CF"/>
<path d="M200.812 81.6002L202.838 81.2627L203.4 84.8627C203.775 84.1877 204.3 83.5502 205.312 83.4002C206.85 83.1752 207.9 84.0377 208.162 85.6502L208.912 90.2627L206.888 90.6002L206.25 86.6252C206.1 85.6502 205.575 85.2377 204.787 85.3502C204 85.4627 203.587 86.0627 203.737 87.0002L204.375 90.9752L202.35 91.3127L200.812 81.6002Z" fill="#4391CF"/>
<path d="M209.85 88.0502C209.587 86.4752 210.675 85.5377 212.362 85.2752C213.075 85.1627 213.637 85.2002 214.162 85.2752L214.125 85.1627C213.975 84.3377 213.412 83.9252 212.4 84.1127C211.612 84.2252 211.087 84.4502 210.487 84.8252L209.737 83.3627C210.487 82.8752 211.2 82.5377 212.437 82.3502C213.562 82.1627 214.387 82.3502 214.987 82.7627C215.587 83.2127 215.962 83.9627 216.112 84.9377L216.787 89.1002L214.837 89.4002L214.725 88.6127C214.312 89.2502 213.712 89.7002 212.7 89.8502C211.312 90.0377 210.075 89.4377 209.85 88.0502ZM214.462 86.8502L214.387 86.4752C214.012 86.3627 213.562 86.3252 213.037 86.4002C212.175 86.5502 211.687 86.9627 211.8 87.6002V87.6377C211.875 88.2002 212.4 88.4252 213.037 88.3127C214.012 88.2002 214.575 87.5627 214.462 86.8502Z" fill="#4391CF"/>
<path d="M217.387 81.6379L219.412 81.3004L219.637 82.7254C219.9 81.6754 220.462 80.9254 221.662 80.7754L222 82.9129H221.887C220.537 83.1379 219.825 84.0754 220.125 85.7629L220.537 88.3879L218.512 88.7254L217.387 81.6379Z" fill="#4391CF"/>
<path d="M223.05 84.4129C222.713 82.3504 223.913 80.4379 225.975 80.1004C228.375 79.7254 229.763 81.4129 230.063 83.4379C230.1 83.5879 230.1 83.7754 230.138 83.9629L225.15 84.7504C225.488 85.6504 226.2 86.0254 227.1 85.8754C227.775 85.7629 228.225 85.4629 228.713 84.8629L230.025 85.6879C229.5 86.6254 228.6 87.2629 227.325 87.4879C225.225 87.8629 223.425 86.6254 223.05 84.4129ZM228 83.0254C227.738 82.1254 227.1 81.6004 226.238 81.7504C225.413 81.9004 224.963 82.5754 224.925 83.5129L228 83.0254Z" fill="#4391CF"/>
<path d="M103.762 116.513L104.25 115.875C104.625 116.175 105.037 116.363 105.375 116.4C105.675 116.438 105.825 116.325 105.825 116.175C105.825 115.95 105.487 115.838 105.112 115.688C104.625 115.5 104.062 115.238 104.1 114.525C104.137 113.775 104.775 113.438 105.487 113.475C105.937 113.513 106.425 113.7 106.8 114L106.35 114.675C106.012 114.45 105.675 114.3 105.412 114.263C105.15 114.263 105.037 114.338 105 114.488C105 114.675 105.337 114.825 105.712 114.975C106.2 115.163 106.762 115.463 106.725 116.138C106.65 116.925 106.05 117.263 105.262 117.188C104.737 117.113 104.212 116.925 103.762 116.513Z" fill="#4391CF"/>
<path d="M107.475 115.95L107.625 113.625L108.637 113.7L108.487 115.725C108.45 116.213 108.675 116.475 109.05 116.513C109.425 116.55 109.725 116.325 109.725 115.837L109.875 113.812L110.887 113.888L110.625 117.487L109.612 117.413L109.65 116.888C109.387 117.188 109.087 117.412 108.562 117.375C107.812 117.338 107.4 116.813 107.475 115.95Z" fill="#4391CF"/>
<path d="M112.687 117.15L112.65 117.638L111.637 117.563L111.975 112.65L112.987 112.725L112.875 114.563C113.137 114.225 113.512 114.038 114.037 114.075C114.862 114.15 115.65 114.863 115.537 116.063C115.462 117.263 114.6 117.863 113.775 117.825C113.212 117.713 112.912 117.45 112.687 117.15ZM114.525 115.95C114.562 115.35 114.187 114.9 113.7 114.863C113.212 114.825 112.8 115.2 112.762 115.8C112.725 116.4 113.1 116.813 113.55 116.85C114.037 116.925 114.487 116.55 114.525 115.95Z" fill="#4391CF"/>
<path d="M115.912 117.375L116.4 116.738C116.775 117.038 117.187 117.225 117.525 117.263C117.825 117.3 117.975 117.188 117.975 117.038C117.975 116.813 117.637 116.7 117.262 116.55C116.775 116.363 116.212 116.1 116.25 115.388C116.287 114.638 116.925 114.3 117.637 114.338C118.087 114.375 118.575 114.563 118.95 114.863L118.5 115.538C118.162 115.313 117.825 115.163 117.562 115.125C117.3 115.125 117.187 115.2 117.15 115.35C117.15 115.538 117.487 115.688 117.862 115.838C118.35 116.025 118.912 116.325 118.875 117C118.8 117.788 118.2 118.125 117.412 118.05C116.925 117.975 116.362 117.788 115.912 117.375Z" fill="#4391CF"/>
<path d="M119.475 116.325C119.55 115.275 120.412 114.488 121.5 114.563C122.175 114.6 122.587 114.863 122.887 115.275L122.212 115.913C121.987 115.65 121.8 115.5 121.425 115.463C120.9 115.425 120.525 115.838 120.487 116.4C120.45 116.963 120.787 117.413 121.35 117.45C121.687 117.488 121.95 117.338 122.212 117.113L122.775 117.75C122.4 118.125 121.987 118.35 121.237 118.313C120.15 118.238 119.4 117.338 119.475 116.325Z" fill="#4391CF"/>
<path d="M123.6 114.788L124.612 114.863L124.575 115.576C124.837 115.088 125.175 114.788 125.775 114.863L125.7 115.951H125.662C124.987 115.913 124.537 116.288 124.462 117.151L124.35 118.501L123.337 118.426L123.6 114.788Z" fill="#4391CF"/>
<path d="M126.375 114.976L127.387 115.051L127.125 118.651L126.112 118.576L126.375 114.976ZM126.45 113.663L127.537 113.738L127.462 114.638L126.375 114.563L126.45 113.663Z" fill="#4391CF"/>
<path d="M129.187 118.312L129.15 118.8L128.137 118.725L128.475 113.812L129.487 113.888L129.375 115.725C129.637 115.425 130.012 115.2 130.537 115.237C131.362 115.312 132.15 116.025 132.037 117.225C131.962 118.425 131.1 119.025 130.275 118.987C129.712 118.912 129.412 118.65 129.187 118.312ZM131.025 117.112C131.062 116.512 130.687 116.062 130.2 116.025C129.712 115.987 129.3 116.362 129.262 116.962C129.225 117.562 129.6 117.975 130.05 118.013C130.537 118.088 130.987 117.712 131.025 117.112Z" fill="#4391CF"/>
<path d="M132.637 117.263C132.712 116.213 133.5 115.425 134.55 115.5C135.75 115.575 136.237 116.55 136.162 117.6C136.162 117.675 136.125 117.788 136.125 117.863L133.612 117.675C133.687 118.163 133.987 118.425 134.437 118.463C134.775 118.5 135.037 118.388 135.337 118.163L135.9 118.725C135.525 119.1 135.037 119.325 134.362 119.288C133.312 119.175 132.562 118.35 132.637 117.263ZM135.187 117.15C135.15 116.7 134.925 116.363 134.475 116.325C134.062 116.288 133.762 116.588 133.65 117.038L135.187 117.15Z" fill="#4391CF"/>
<path d="M180.75 16.7999C180.525 15.2999 181.462 13.9124 183.037 13.6874C183.975 13.5374 184.575 13.6874 185.175 14.0624L184.575 15.0374C184.125 14.7749 183.75 14.6249 183.15 14.7374C182.325 14.8874 181.762 15.7124 181.912 16.5749C182.062 17.5124 182.812 18.1124 183.75 17.9624C184.162 17.8874 184.537 17.7374 184.762 17.4749L184.65 16.7249L183.487 16.9124L183.337 15.9374L185.587 15.5624L185.962 17.8124C185.512 18.3374 184.837 18.8249 183.862 18.9749C182.287 19.2749 180.975 18.3374 180.75 16.7999Z" fill="#4391CF"/>
<path d="M186.487 13.2002L187.612 13.0127L188.437 18.1877L187.312 18.3752L186.487 13.2002Z" fill="#4391CF"/>
<path d="M188.925 12.825L192.862 12.1875L193.012 13.2375L190.2 13.6875L190.387 14.775L192.862 14.4L193.012 15.45L190.537 15.825L190.837 17.85L189.712 18.0375L188.925 12.825Z" fill="#4391CF"/>
<path d="M19.6125 100.576L21.075 100.351L21.1875 101.101C21.45 100.613 21.825 100.163 22.575 100.051C23.7 99.8634 24.45 100.501 24.6375 101.701L25.1625 105.038L23.7 105.263L23.25 102.376C23.1375 101.701 22.7625 101.363 22.2 101.476C21.6375 101.588 21.3375 101.963 21.45 102.676L21.9 105.563L20.4375 105.788L19.6125 100.576Z" fill="#4391CF"/>
<path d="M25.8001 102.263C25.5751 100.763 26.4376 99.3755 27.9376 99.1505C29.6626 98.888 30.6751 100.088 30.9001 101.551C30.9001 101.663 30.9376 101.813 30.9376 101.926L27.3376 102.488C27.6001 103.126 28.0876 103.388 28.7626 103.313C29.2501 103.238 29.5876 103.013 29.9251 102.601L30.8626 103.201C30.4876 103.876 29.8501 104.363 28.9126 104.513C27.3751 104.738 26.0251 103.838 25.8001 102.263ZM29.3626 101.251C29.1751 100.613 28.7251 100.238 28.0876 100.313C27.4876 100.426 27.1501 100.913 27.1501 101.588L29.3626 101.251Z" fill="#4391CF"/>
<path d="M30.9 98.7752L32.4 98.5502L33.7125 101.55L34.2 98.2502L35.475 98.0627L36.975 101.063L37.3125 97.8002L38.775 97.5752L37.9875 103.013L36.675 103.238L35.175 100.238L34.65 103.575L33.3375 103.8L30.9 98.7752Z" fill="#4391CF"/>
<path d="M39.7876 101.963L40.2751 100.913C40.9126 101.213 41.5126 101.363 42.0001 101.288C42.4126 101.213 42.6001 101.026 42.5626 100.801V100.763C42.5251 100.463 42.0001 100.426 41.4001 100.351C40.6501 100.238 39.7876 100.051 39.6001 99.0381V99.0006C39.4501 97.9506 40.2001 97.2381 41.2126 97.0506C41.8501 96.9381 42.6001 97.0506 43.2376 97.3506L42.8251 98.4381C42.2626 98.2131 41.7376 98.1006 41.3626 98.1756C40.9876 98.2506 40.8376 98.4006 40.8751 98.6256V98.6631C40.9126 98.9631 41.4376 99.0006 42.0376 99.1131C42.7876 99.2256 43.6876 99.4506 43.8376 100.388V100.426C44.0251 101.588 43.2376 102.226 42.1126 102.413C41.4001 102.526 40.5376 102.413 39.7876 101.963Z" fill="#4391CF"/>
<path d="M11.1375 76.1998L10.8375 75.1123L11.55 74.9248L11.85 76.0123L12.9375 75.7123L13.125 76.4248L12.0375 76.7248L12.3375 77.8123L11.625 77.9998L11.325 76.9123L10.2375 77.2123L10.05 76.4998L11.1375 76.1998ZM12.7875 78.1123L12.4875 77.0248L13.575 76.7248L13.275 75.6373L15.825 74.9623L16.6875 75.5248L17.85 75.2248C18.2625 75.1123 18.675 75.3748 18.75 75.7498L19.9125 80.0998C20.025 80.5123 19.7625 80.9248 19.3875 80.9998L13.575 82.5373C13.1625 82.6498 12.75 82.3873 12.675 82.0123L11.7 78.3748L12.7875 78.1123ZM16.2 80.6623C17.2125 80.3998 17.775 79.3498 17.5125 78.3748C17.25 77.3998 16.2 76.7998 15.225 77.0623C14.2125 77.3248 13.65 78.3748 13.9125 79.3498C14.175 80.3623 15.225 80.9623 16.2 80.6623ZM14.55 79.1623C14.7375 79.7998 15.375 80.1748 16.0125 80.0248C16.65 79.8373 17.025 79.1998 16.875 78.5623C16.6875 77.9248 16.05 77.5498 15.4125 77.6998C14.775 77.8873 14.4 78.5248 14.55 79.1623Z" fill="#4391CF"/>
<path d="M188.4 60.0379L179.85 62.8129C179.25 63.0004 178.95 63.6379 179.138 64.2379L182.25 73.8754L183.713 71.0254L191.213 68.5879C191.813 68.4004 192.113 67.7629 191.925 67.1629L189.825 60.7504C189.638 60.1504 189 59.8504 188.4 60.0379Z" fill="#4391CF"/>
<path d="M220.875 23.8129L224.775 26.1754C225.337 26.5129 226.05 26.0254 225.9 25.3504L224.887 20.9254C224.812 20.6629 224.925 20.3629 225.112 20.1754L228.562 17.2129C229.05 16.7629 228.787 15.9379 228.15 15.9004L223.65 15.5254C223.387 15.4879 223.125 15.3379 223.012 15.0754L221.25 10.9129C220.987 10.3129 220.125 10.3129 219.862 10.9129L218.1 15.0754C217.987 15.3379 217.762 15.4879 217.462 15.5254L212.962 15.9004C212.287 15.9379 212.025 16.7629 212.55 17.2129L216 20.1754C216.225 20.3629 216.3 20.6254 216.225 20.9254L215.212 25.3504C215.062 25.9879 215.775 26.5129 216.337 26.1754L220.237 23.8129C220.35 23.7004 220.65 23.7004 220.875 23.8129Z" fill="#4391CF"/>
<path d="M11.85 116.85C12.525 116.175 13.575 116.175 14.25 116.85L15.7875 118.387L16.5375 117.637L15 116.1C13.9125 115.012 12.1875 115.012 11.1 116.1C10.0125 117.187 10.0125 118.912 11.1 120L12.6375 121.537L13.3875 120.787L11.85 119.25C11.175 118.612 11.175 117.525 11.85 116.85ZM13.05 118.837L16.1625 121.95L16.95 121.162L13.8375 118.05L13.05 118.837ZM18.9 120L17.3625 118.462L16.6125 119.212L18.15 120.75C18.825 121.425 18.825 122.475 18.15 123.15C17.475 123.825 16.425 123.825 15.75 123.15L14.2125 121.612L13.4625 122.362L15 123.9C16.0875 124.987 17.8125 124.987 18.9 123.9C19.95 122.812 19.95 121.087 18.9 120Z" fill="#4391CF"/>
<path d="M14.25 9C11.1375 9 8.625 11.5125 8.625 14.625C8.625 17.7375 11.1375 20.25 14.25 20.25C17.3625 20.25 19.875 17.7375 19.875 14.625C19.875 11.5125 17.3625 9 14.25 9ZM18.15 12.375H16.5C16.3125 11.6625 16.05 10.9875 15.7125 10.3875C16.725 10.725 17.5875 11.4375 18.15 12.375ZM14.25 10.1625C14.7 10.8375 15.075 11.5875 15.3375 12.375H13.2C13.425 11.5875 13.8 10.8375 14.25 10.1625ZM9.9 15.75C9.825 15.375 9.75 15 9.75 14.625C9.75 14.25 9.7875 13.875 9.9 13.5H11.8125C11.775 13.875 11.7375 14.25 11.7375 14.625C11.7375 15 11.775 15.375 11.8125 15.75H9.9ZM10.35 16.875H12C12.1875 17.5875 12.45 18.2625 12.7875 18.8625C11.775 18.525 10.9125 17.8125 10.35 16.875ZM12 12.375H10.35C10.875 11.4375 11.7375 10.725 12.7875 10.3875C12.45 10.9875 12.1875 11.6625 12 12.375ZM14.25 19.0875C13.8 18.4125 13.425 17.6625 13.1625 16.875H15.3C15.075 17.6625 14.7 18.4125 14.25 19.0875ZM15.5625 15.75H12.9375C12.9 15.375 12.8625 15 12.8625 14.625C12.8625 14.25 12.9 13.875 12.9375 13.5H15.5625C15.6 13.875 15.6375 14.25 15.6375 14.625C15.6375 15 15.6 15.375 15.5625 15.75ZM15.7125 18.8625C16.05 18.225 16.3125 17.55 16.5 16.875H18.15C17.5875 17.8125 16.725 18.525 15.7125 18.8625ZM16.6875 15.75C16.725 15.375 16.7625 15 16.7625 14.625C16.7625 14.25 16.725 13.875 16.6875 13.5H18.6C18.675 13.875 18.75 14.25 18.75 14.625C18.75 15 18.675 15.375 18.6 15.75H16.6875Z" fill="#4391CF"/>
<path d="M193.875 119.625C196.35 119.625 198.375 117.6 198.375 115.125C198.375 112.65 196.35 110.625 193.875 110.625C191.4 110.625 189.375 112.65 189.375 115.125C189.375 117.6 191.4 119.625 193.875 119.625ZM183.75 117.375V114H181.5V117.375H178.125V119.625H181.5V123H183.75V119.625H187.125V117.375H183.75ZM193.875 121.875C190.875 121.875 184.875 123.375 184.875 126.375V128.625H202.875V126.375C202.875 123.375 196.875 121.875 193.875 121.875Z" fill="#4391CF"/>
<path d="M156.75 22.125C157.988 22.125 159 21.1125 159 19.875C159 18.6375 157.988 17.625 156.75 17.625C155.513 17.625 154.5 18.6375 154.5 19.875C154.5 21.1125 155.513 22.125 156.75 22.125ZM156.75 23.25C155.25 23.25 152.25 24 152.25 25.5V26.625H161.25V25.5C161.25 24 158.25 23.25 156.75 23.25Z" fill="#4391CF"/>
<path d="M130.425 16.3503L131.888 9.48777C132 8.96277 131.663 8.40027 131.1 8.28777L124.238 6.82527C123.713 6.71277 123.15 7.05027 123.038 7.61277L121.575 14.4753C121.463 15.0003 121.8 15.5628 122.363 15.6753L129.225 17.1378C129.788 17.2503 130.313 16.9128 130.425 16.3503ZM124.875 12.3753L125.775 14.1003L127.95 12.2628L129.525 15.6753L122.663 14.2128L124.875 12.3753Z" fill="#4391CF"/>
<path d="M152.775 122.4L156.487 113.138C156.6 112.838 156.3 112.538 156 112.65L146.737 116.363C146.475 116.475 146.438 116.775 146.625 116.963L148.95 119.288L151.275 117.338C151.612 117.038 152.1 117.525 151.8 117.863L149.85 120.188L152.175 122.513C152.362 122.738 152.7 122.663 152.775 122.4Z" fill="#4391CF"/>
<path d="M164.25 91.575C163.688 91.575 163.163 91.8 162.788 92.1375L157.425 89.025C157.462 88.8375 157.5 88.6875 157.5 88.5C157.5 88.3125 157.462 88.1625 157.425 87.975L162.712 84.9C163.125 85.275 163.65 85.5 164.25 85.5C165.488 85.5 166.5 84.4875 166.5 83.25C166.5 82.0125 165.488 81 164.25 81C163.012 81 162 82.0125 162 83.25C162 83.4375 162.038 83.5875 162.075 83.775L156.788 86.85C156.375 86.475 155.85 86.25 155.25 86.25C154.013 86.25 153 87.2625 153 88.5C153 89.7375 154.013 90.75 155.25 90.75C155.85 90.75 156.375 90.525 156.788 90.15L162.112 93.2625C162.075 93.4125 162.038 93.6 162.038 93.75C162.038 94.95 163.012 95.925 164.212 95.925C165.412 95.925 166.388 94.95 166.388 93.75C166.388 92.55 165.45 91.575 164.25 91.575Z" fill="#4391CF"/>
<path d="M70.2375 104.476C71.4802 104.476 72.4875 103.468 72.4875 102.226C72.4875 100.983 71.4802 99.9756 70.2375 99.9756C68.9949 99.9756 67.9875 100.983 67.9875 102.226C67.9875 103.468 68.9949 104.476 70.2375 104.476Z" fill="#4391CF"/>
<path d="M63.1125 109.351L56.925 105.938L56.85 104.438L63.0375 107.851L67.4625 104.738C66.9 104.138 66.525 103.313 66.4875 102.413L56.7375 102.938C55.9125 102.976 55.275 103.688 55.3125 104.513L55.7625 113.513C55.8 114.338 56.5125 114.976 57.3375 114.938L69.3375 114.301C70.1625 114.263 70.8 113.551 70.7625 112.726L70.425 105.976C69.75 106.013 69.075 105.863 68.5125 105.563L63.1125 109.351Z" fill="#4391CF"/>
<path d="M137.25 68.2504H138.75V63.7504H137.25V68.2504ZM145.5 64.1254C145.5 63.7129 145.162 63.3754 144.75 63.3754H142.388L142.763 61.6504V61.5379C142.763 61.3879 142.687 61.2379 142.612 61.1254L142.2 60.7129L139.725 63.1879C139.575 63.3379 139.5 63.5254 139.5 63.7129V67.4629C139.5 67.8754 139.838 68.2129 140.25 68.2129H143.625C143.925 68.2129 144.187 68.0254 144.3 67.7629L145.425 65.1004C145.462 65.0254 145.462 64.9129 145.462 64.8379V64.1254H145.5Z" fill="#4391CF"/>
<path d="M216.375 106.051C216.375 104.326 217.763 102.976 219.45 102.976H225.375C226.613 102.976 227.625 103.988 227.625 105.226C227.625 106.463 226.613 107.476 225.375 107.476H220.575C219.788 107.476 219.15 106.838 219.15 106.051C219.15 105.263 219.788 104.626 220.575 104.626H224.775V105.751H220.5C220.2 105.751 220.2 106.313 220.5 106.313H225.375C226.012 106.313 226.5 105.788 226.5 105.188C226.5 104.588 226.012 104.063 225.375 104.063H219.45C218.363 104.063 217.5 104.963 217.5 106.013C217.5 107.063 218.4 107.963 219.45 107.963H224.775V109.088H219.45C217.763 109.126 216.375 107.738 216.375 106.051Z" fill="#4391CF"/>
<path d="M27.6751 51.4507L24 50.6632C23.5875 50.5882 23.2125 50.8507 23.1 51.2257L21.8625 57.0757L24.6751 56.5132L27 58.1632L28.2376 52.2757C28.3126 51.9382 28.0501 51.5632 27.6751 51.4507Z" fill="#4391CF"/>
<path d="M117.675 45.3373C117.075 45.8998 116.175 45.8998 115.612 45.3373C113.55 43.3498 109.162 38.8498 109.162 36.6748C109.162 34.3498 110.962 32.5498 113.287 32.5498C114.6 32.5498 115.837 33.1498 116.662 34.1248C117.487 33.1498 118.725 32.5498 120.037 32.5498C122.362 32.5498 124.162 34.3498 124.162 36.6748C124.125 38.8498 119.737 43.3498 117.675 45.3373Z" fill="#4391CF"/>
<path d="M89.1375 127.688C89.6552 127.688 90.075 127.268 90.075 126.75C90.075 126.232 89.6552 125.812 89.1375 125.812C88.6197 125.812 88.2 126.232 88.2 126.75C88.2 127.268 88.6197 127.688 89.1375 127.688Z" fill="#4391CF"/>
<path d="M86.175 121.688L86.625 122.85C89.475 121.763 92.6625 123.188 93.75 126.038L94.9125 125.588C93.5626 122.063 89.6625 120.338 86.175 121.688ZM87.0375 123.975L87.4875 125.138C89.0625 124.538 90.825 125.325 91.4625 126.9L92.625 126.45C91.7625 124.238 89.2501 123.113 87.0375 123.975Z" fill="#4391CF"/>
<path d="M96.375 55.5C93.2625 55.5 90.75 58.0125 90.75 61.125C90.75 64.2375 93.2625 66.75 96.375 66.75C99.4875 66.75 102 64.2375 102 61.125C102 58.0125 99.4875 55.5 96.375 55.5ZM94.425 58.3125C94.875 58.3125 95.25 58.8 95.25 59.4375C95.25 60.075 94.875 60.5625 94.425 60.5625C93.975 60.5625 93.6 60.075 93.6 59.4375C93.5625 58.8 93.9375 58.3125 94.425 58.3125ZM96.375 64.8C95.4 64.8 94.2375 64.05 93.525 63.1875C93.225 62.8125 93.4875 62.25 93.975 62.25H98.8125C99.3 62.25 99.5625 62.8125 99.2625 63.1875C98.5125 64.0125 97.35 64.8 96.375 64.8ZM98.325 60.5625C97.875 60.5625 97.5 60.075 97.5 59.4375C97.5 58.8 97.875 58.3125 98.325 58.3125C98.775 58.3125 99.15 58.8 99.15 59.4375C99.1875 60.075 98.8125 60.5625 98.325 60.5625Z" fill="#4391CF"/>
<path d="M226.5 57.3375C226.275 57.3375 226.088 57.525 226.088 57.75C226.088 57.975 226.275 58.1625 226.5 58.1625C226.725 58.1625 226.912 57.975 226.912 57.75C226.912 57.525 226.725 57.3375 226.5 57.3375ZM226.5 54C224.438 54 222.75 55.6875 222.75 57.75C222.75 59.8125 224.438 61.5 226.5 61.5C228.562 61.5 230.25 59.8125 230.25 57.75C230.25 55.6875 228.562 54 226.5 54ZM227.325 58.575L224.25 60L225.675 56.925L228.75 55.5L227.325 58.575Z" fill="#4391CF"/>
<path d="M67.65 39.675L71.2875 35.25C71.475 35.025 71.85 35.1 71.925 35.4L75.4125 48.4875C75.4876 48.7875 75.1875 49.05 74.925 48.9375L69.5625 46.9125L68.1 47.2875L68.2875 48C68.4001 48.4125 68.175 48.825 67.7625 48.9L67.05 49.0875L67.8375 51.975C67.95 52.3875 67.725 52.8 67.3125 52.875L65.85 53.25C65.4376 53.3625 65.025 53.1375 64.95 52.725L63.7875 48.375L61.6125 48.975L59.775 47.925L58.6125 43.575L59.6625 41.7375L67.65 39.675Z" fill="#4391CF"/>
</mask>
<g mask="url(#mask0_1860_2186)">
<rect width="240" height="135" fill="#FFB317"/>
</g>
</svg>
