<svg width="240" height="135" viewBox="0 0 240 135" fill="none" xmlns="http://www.w3.org/2000/svg">
<path d="M29.9625 40.9498C29.8875 41.8498 29.475 42.6748 28.7625 43.2373C28.05 43.7998 27.1875 44.0998 26.2875 44.0248L20.3625 43.4998C19.4625 43.4248 18.6375 43.0123 18.075 42.2998C17.5125 41.6248 17.2125 40.7248 17.2875 39.8248L17.8125 33.8623C17.8875 32.9623 18.3 32.1373 19.0125 31.5748C19.6125 31.0498 20.4 30.7873 21.1875 30.7873C21.3 30.7873 21.375 30.7873 21.4875 30.7873L26.7375 31.2373C26.775 30.9748 26.8875 30.7498 26.9625 30.4873L21.525 29.9998C20.4375 29.8873 19.35 30.2248 18.525 30.9373C17.7 31.6498 17.175 32.6248 17.0625 33.7498L16.5375 39.7498C16.425 40.8373 16.7625 41.9248 17.475 42.7498C18.1875 43.6123 19.1625 44.0998 20.2875 44.2123L26.25 44.7373C26.3625 44.7373 26.5125 44.7373 26.625 44.7373C27.6 44.7373 28.5375 44.3998 29.2875 43.7623C30.15 43.0498 30.6375 42.0748 30.75 40.9498L31.275 34.9873C31.0125 35.0998 30.7875 35.1373 30.4875 35.1748L29.9625 40.9498Z" fill="#FFB317"/>
<path opacity="0.2" d="M111.975 112.913L110.025 113.251C109.912 113.476 109.8 113.663 109.65 113.888L107.362 117.151C107.212 117.376 106.875 117.413 106.65 117.263L103.388 114.976C103.2 114.826 103.013 114.676 102.825 114.526L100.5 114.938L101.625 121.201L113.062 119.176L111.975 112.913Z" fill="#FFB317"/>
<path d="M55.425 45.4881C55.35 45.4881 55.3125 45.4881 55.2375 45.4506L54.45 45.0381C51.5625 43.5756 49.6875 42.6006 49.2 40.8006C49.0125 40.0506 49.0875 39.3006 49.4625 38.6256C49.8375 37.9881 50.475 37.5006 51.1875 37.3131C51.9 37.1256 52.6875 37.2006 53.3625 37.5381C53.775 36.9006 54.4125 36.4506 55.125 36.2631C56.6625 35.8506 58.2 36.7506 58.6125 38.2881C59.1 40.0881 57.9375 41.8881 56.2125 44.5881L55.725 45.3381C55.6875 45.4131 55.575 45.4881 55.425 45.4881ZM52.0125 37.9506C51.825 37.9506 51.6375 37.9881 51.45 38.0256C50.8875 38.1756 50.4375 38.5131 50.175 39.0006C49.9125 39.4881 49.8375 40.0506 49.9875 40.6131C50.4 42.1131 52.1625 43.0131 54.8625 44.4006L55.35 44.6631L55.65 44.2131C57.3 41.6631 58.3875 39.9756 57.975 38.5131C57.675 37.3881 56.55 36.7131 55.3875 37.0131C54.75 37.2006 54.1875 37.6506 53.925 38.2506C53.8875 38.3631 53.775 38.4381 53.7 38.4381C53.5875 38.4756 53.475 38.4381 53.4 38.4006C52.95 38.1006 52.5 37.9506 52.0125 37.9506Z" fill="#FFB317"/>
<path d="M44.2875 33.1878C44.175 33.1878 44.025 33.1128 43.9875 33.0003L43.6875 32.5128C42.4875 30.6753 41.7375 29.4753 42.075 28.2003C42.375 27.1128 43.4625 26.4753 44.55 26.7753C45.0375 26.8878 45.45 27.1878 45.7125 27.6003C46.1625 27.4128 46.6875 27.3753 47.1375 27.4878C47.6625 27.6378 48.1125 27.9753 48.375 28.4253C48.6375 28.8753 48.7125 29.4378 48.5625 29.9628C48.225 31.2003 46.95 31.8753 45 32.8878L44.475 33.1503C44.4 33.1878 44.3625 33.1878 44.2875 33.1878ZM43.9875 27.4503C43.425 27.4503 42.9375 27.8253 42.75 28.3878C42.4875 29.3253 43.2 30.4128 44.2875 32.1003L44.4375 32.3253L44.6625 32.2128C46.425 31.3128 47.5875 30.7128 47.85 29.7753C47.925 29.4378 47.8875 29.1003 47.7375 28.8003C47.5875 28.5003 47.2875 28.3128 46.95 28.2003C46.575 28.0878 46.125 28.1628 45.7875 28.3878C45.7125 28.4628 45.6 28.4628 45.4875 28.4253C45.375 28.3878 45.3 28.3128 45.2625 28.2378C45.075 27.8628 44.7375 27.6003 44.3625 27.4878C44.2125 27.4878 44.1 27.4503 43.9875 27.4503Z" fill="#FFB317"/>
<g opacity="0.2">
<path d="M66.3 66.3752V68.3627H72V73.1252H66.3V78.0002H60.1125V61.7627H72.825V66.3752H66.3Z" fill="#FFB317"/>
<path d="M88.7251 71.6252C88.7251 75.8627 85.2001 78.3002 81.0751 78.3002C76.9126 78.3002 73.3876 75.8627 73.3876 71.6252C73.3876 67.3877 76.9501 64.9502 81.0751 64.9502C85.2001 64.9877 88.7251 67.4252 88.7251 71.6252ZM82.8376 71.6252C82.8376 70.4252 82.1251 69.3752 81.0376 69.3752C79.9501 69.3752 79.2376 70.4252 79.2376 71.6252C79.2376 72.8252 79.9501 73.8752 81.0376 73.8752C82.1251 73.8752 82.8376 72.8252 82.8376 71.6252Z" fill="#FFB317"/>
<path d="M90.3 60.2627H96.4125V78.0002H90.3V60.2627Z" fill="#FFB317"/>
<path d="M98.6626 60.2627H104.775V78.0002H98.6626V60.2627Z" fill="#FFB317"/>
<path d="M121.688 71.6252C121.688 75.8627 118.163 78.3002 114.038 78.3002C109.875 78.3002 106.35 75.8627 106.35 71.6252C106.35 67.3877 109.913 64.9502 114.038 64.9502C118.163 64.9877 121.688 67.4252 121.688 71.6252ZM115.8 71.6252C115.8 70.4252 115.088 69.3752 114 69.3752C112.913 69.3752 112.2 70.4252 112.2 71.6252C112.2 72.8252 112.913 73.8752 114 73.8752C115.088 73.8752 115.8 72.8252 115.8 71.6252Z" fill="#FFB317"/>
<path d="M144.525 65.2881L140.7 78.0006H134.775L133.088 72.2256L131.325 78.0006H125.438L121.613 65.2881H127.838L129.075 72.2256L130.875 65.2881H135.225L137.138 72.2256L138.45 65.2881H144.525Z" fill="#FFB317"/>
<path d="M167.175 61.7627V71.5877C167.175 76.2002 164.25 78.3002 159.337 78.3002C154.425 78.3002 151.5 76.2002 151.5 71.5877V61.7627H157.763V71.5127C157.763 72.6752 157.987 73.5377 159.337 73.5377C160.687 73.5377 160.913 72.6377 160.913 71.5127V61.7627H167.175Z" fill="#FFB317"/>
<path d="M180.638 73.8748C180.638 76.8748 178.238 78.2998 174.488 78.2998C172.388 78.2998 170.363 77.7373 168.713 76.8373L169.275 73.1998C170.363 73.9123 171.975 74.5123 173.588 74.5123C174.225 74.5123 174.6 74.3623 174.6 74.0248C174.6 73.2373 169.125 74.0248 169.125 69.4498C169.125 66.4123 171.638 64.9873 175.388 64.9873C177.15 64.9873 178.838 65.3998 180.3 66.0373L179.775 69.5248C178.913 69.1498 177.338 68.7748 176.325 68.7748C175.725 68.7748 175.05 68.8123 175.05 69.2248C175.05 70.0498 180.638 69.1498 180.638 73.8748Z" fill="#FFB317"/>
</g>
<path d="M66.3 78.3752H60.1125C59.8875 78.3752 59.7375 78.2252 59.7375 78.0002V61.7627C59.7375 61.5377 59.8875 61.3877 60.1125 61.3877H72.825C73.05 61.3877 73.2 61.5377 73.2 61.7627V66.3752C73.2 66.6002 73.05 66.7502 72.825 66.7502H66.675V67.9877H72C72.225 67.9877 72.375 68.1377 72.375 68.3627V73.1252C72.375 73.3502 72.225 73.5002 72 73.5002H66.675V78.0002C66.675 78.2252 66.525 78.3752 66.3 78.3752ZM60.4875 77.6252H65.925V73.1627C65.925 72.9377 66.075 72.7877 66.3 72.7877H71.625V68.7752H66.3C66.075 68.7752 65.925 68.6252 65.925 68.4002V66.3752C65.925 66.1502 66.075 66.0002 66.3 66.0002H72.45V62.1377H60.4875V77.6252Z" fill="#FFB317"/>
<path d="M81.0751 78.6752C76.3126 78.6752 73.0126 75.7877 73.0126 71.6252C73.0126 67.4627 76.3501 64.5752 81.0751 64.5752C85.8001 64.5752 89.1001 67.4627 89.1001 71.6252C89.1001 75.7877 85.8001 78.6752 81.0751 78.6752ZM81.0751 65.3627C77.5501 65.3627 73.7626 67.3502 73.7626 71.6627C73.7626 75.9752 77.5501 77.9627 81.0751 77.9627C84.6001 77.9627 88.3501 75.9752 88.3501 71.6627C88.3501 67.3502 84.6001 65.3627 81.0751 65.3627ZM81.0376 74.2502C79.8001 74.2502 78.8626 73.1252 78.8626 71.6252C78.8626 70.1252 79.8001 69.0002 81.0376 69.0002C82.2751 69.0002 83.2126 70.1252 83.2126 71.6252C83.2126 73.1252 82.3126 74.2502 81.0376 74.2502ZM81.0376 69.7877C80.1001 69.7877 79.6126 70.7627 79.6126 71.6627C79.6126 72.5627 80.1001 73.5377 81.0376 73.5377C81.9751 73.5377 82.4626 72.5627 82.4626 71.6627C82.4626 70.7627 81.9751 69.7877 81.0376 69.7877Z" fill="#FFB317"/>
<path d="M96.4125 78.3752H90.3C90.075 78.3752 89.925 78.2252 89.925 78.0002V60.2627C89.925 60.0377 90.075 59.8877 90.3 59.8877H96.4125C96.6375 59.8877 96.7875 60.0377 96.7875 60.2627V78.0002C96.7875 78.2252 96.6375 78.3752 96.4125 78.3752ZM90.675 77.6252H96.0375V60.6377H90.675V77.6252Z" fill="#FFB317"/>
<path d="M104.775 78.3752H98.6626C98.4376 78.3752 98.2876 78.2252 98.2876 78.0002V60.2627C98.2876 60.0377 98.4376 59.8877 98.6626 59.8877H104.775C105 59.8877 105.15 60.0377 105.15 60.2627V78.0002C105.15 78.2252 104.963 78.3752 104.775 78.3752ZM99.0376 77.6252H104.4V60.6377H99.0376V77.6252Z" fill="#FFB317"/>
<path d="M114 78.6752C109.238 78.6752 105.938 75.7877 105.938 71.6252C105.938 67.4627 109.275 64.5752 114 64.5752C118.725 64.5752 122.025 67.4627 122.025 71.6252C122.025 75.7877 118.762 78.6752 114 78.6752ZM114 65.3627C110.475 65.3627 106.688 67.3502 106.688 71.6627C106.688 75.9752 110.475 77.9627 114 77.9627C117.525 77.9627 121.275 75.9752 121.275 71.6627C121.275 67.3502 117.525 65.3627 114 65.3627ZM114 74.2502C112.762 74.2502 111.825 73.1252 111.825 71.6252C111.825 70.1252 112.762 69.0002 114 69.0002C115.238 69.0002 116.175 70.1252 116.175 71.6252C116.175 73.1252 115.238 74.2502 114 74.2502ZM114 69.7877C113.062 69.7877 112.575 70.7627 112.575 71.6627C112.575 72.5627 113.062 73.5377 114 73.5377C114.938 73.5377 115.425 72.5627 115.425 71.6627C115.425 70.7627 114.938 69.7877 114 69.7877Z" fill="#FFB317"/>
<path d="M140.7 78.3756H134.775C134.625 78.3756 134.475 78.2631 134.4 78.1131L133.05 73.5381L131.663 78.1131C131.625 78.2631 131.475 78.3756 131.288 78.3756H125.4C125.25 78.3756 125.1 78.2631 125.025 78.1131L121.2 65.4006C121.163 65.2881 121.2 65.1756 121.275 65.0631C121.35 64.9506 121.463 64.9131 121.575 64.9131H127.8C127.988 64.9131 128.138 65.0256 128.175 65.2131L129.113 70.4631L130.463 65.2131C130.5 65.0631 130.65 64.9506 130.838 64.9506H135.188C135.375 64.9506 135.488 65.0631 135.563 65.2131L137.025 70.5756L138.038 65.2506C138.075 65.0631 138.225 64.9506 138.413 64.9506H144.563C144.675 64.9506 144.788 64.9881 144.863 65.1006C144.938 65.2131 144.938 65.3256 144.938 65.4381L141.113 78.1506C141 78.2631 140.85 78.3756 140.7 78.3756ZM135.038 77.6256H140.4L144 65.6631H138.638L137.4 72.3006C137.363 72.4881 137.213 72.6006 137.063 72.6006C136.875 72.6006 136.725 72.4881 136.688 72.3381L134.85 65.6631H131.1L129.375 72.3006C129.338 72.4881 129.188 72.6006 129 72.5631C128.813 72.5631 128.663 72.4131 128.663 72.2631L127.5 65.6256H122.063L125.663 77.5881H131.025L132.713 72.0756C132.75 71.9256 132.9 71.8131 133.088 71.8131C133.238 71.8131 133.388 71.9256 133.463 72.0756L135.038 77.6256Z" fill="#FFB317"/>
<path d="M159.337 78.6752C153.975 78.6752 151.125 76.2377 151.125 71.5877V61.7627C151.125 61.5377 151.275 61.3877 151.5 61.3877H157.763C157.988 61.3877 158.138 61.5377 158.138 61.7627V71.5127C158.138 72.7502 158.437 73.1627 159.337 73.1627C160.237 73.1627 160.538 72.7502 160.538 71.5127V61.7627C160.538 61.5377 160.688 61.3877 160.913 61.3877H167.175C167.4 61.3877 167.55 61.5377 167.55 61.7627V71.5877C167.55 76.2377 164.7 78.6752 159.337 78.6752ZM151.875 62.1377V71.5877C151.875 75.7877 154.387 77.9252 159.337 77.9252C164.287 77.9252 166.8 75.7877 166.8 71.5877V62.1377H161.288V71.5127C161.288 72.1502 161.287 73.9127 159.337 73.9127C157.387 73.9127 157.388 72.2252 157.388 71.5127V62.1377H151.875Z" fill="#FFB317"/>
<path d="M174.488 78.6748C172.425 78.6748 170.363 78.1498 168.525 77.1748C168.375 77.0998 168.3 76.9498 168.338 76.7998L168.9 73.1623C168.938 73.0498 169.013 72.9373 169.125 72.8623C169.238 72.8248 169.388 72.8248 169.5 72.8998C170.663 73.6873 172.2 74.1373 173.625 74.1373C173.85 74.1373 174 74.0998 174.113 74.0998C173.925 74.0623 173.663 73.9873 173.438 73.9498C171.825 73.6123 168.788 73.0123 168.788 69.4498C168.788 66.3748 171.225 64.6123 175.425 64.6123C177.113 64.6123 178.8 64.9873 180.45 65.6623C180.6 65.7373 180.713 65.8873 180.675 66.0748L180.15 69.5623C180.15 69.6748 180.075 69.7873 179.963 69.8248C179.85 69.8623 179.738 69.8998 179.625 69.8248C178.838 69.4873 177.3 69.0748 176.363 69.0748C176.025 69.0748 175.8 69.0748 175.65 69.1123C175.838 69.1873 176.138 69.2248 176.4 69.2998C178.05 69.6373 181.088 70.2748 181.088 73.8748C181.013 76.9498 178.65 78.6748 174.488 78.6748ZM169.125 76.6498C170.813 77.5123 172.65 77.9623 174.488 77.9623C176.663 77.9623 180.263 77.4373 180.263 73.9123C180.263 70.9498 177.788 70.4248 176.175 70.0873C175.275 69.8998 174.638 69.7498 174.638 69.1873C174.638 68.3623 175.725 68.3623 176.288 68.3623C177.225 68.3623 178.5 68.6623 179.438 68.9998L179.85 66.2623C178.388 65.6623 176.888 65.3623 175.388 65.3623C173.175 65.3623 169.5 65.8873 169.5 69.4498C169.5 72.3748 171.938 72.8623 173.55 73.1998C174.375 73.3873 174.975 73.4998 174.975 74.0248C174.975 74.2873 174.825 74.8873 173.588 74.8873C172.238 74.8873 170.738 74.5123 169.538 73.8373L169.125 76.6498Z" fill="#FFB317"/>
<path d="M197.513 106.088L199.275 106.388L197.7 115.313L195.938 115.013L197.513 106.088Z" fill="#FFB317"/>
<path d="M200.063 109.837L201.825 110.137L200.813 115.875L199.05 115.575L200.063 109.837ZM200.25 108C200.288 107.7 200.438 107.475 200.663 107.325C200.888 107.175 201.15 107.1 201.45 107.137C201.75 107.175 201.975 107.325 202.125 107.55C202.275 107.775 202.35 108.037 202.313 108.337C202.275 108.637 202.125 108.862 201.9 109.012C201.675 109.162 201.413 109.237 201.113 109.2C200.813 109.162 200.588 109.012 200.438 108.787C200.288 108.562 200.213 108.262 200.25 108Z" fill="#FFB317"/>
<path d="M203.737 107.176L205.5 107.476L204.525 112.951L206.888 111.038L209.062 111.413L206.325 113.588L208.125 117.151L205.875 116.776L204.45 113.513H204.412L203.888 116.438L202.125 116.138L203.737 107.176Z" fill="#FFB317"/>
<path d="M214.05 117.188C213.712 117.488 213.3 117.713 212.812 117.825C212.362 117.938 211.875 117.975 211.425 117.9C210.975 117.825 210.562 117.675 210.225 117.45C209.85 117.225 209.55 116.963 209.325 116.663C209.1 116.363 208.912 115.988 208.8 115.575C208.687 115.163 208.687 114.75 208.762 114.3C208.837 113.85 208.987 113.438 209.212 113.1C209.437 112.763 209.737 112.5 210.075 112.275C210.412 112.05 210.787 111.9 211.2 111.863C211.612 111.788 212.025 111.788 212.475 111.863C212.887 111.938 213.262 112.088 213.562 112.275C213.862 112.463 214.125 112.725 214.312 113.025C214.5 113.325 214.612 113.663 214.687 114.075C214.762 114.45 214.725 114.9 214.65 115.35L214.537 115.913L210.412 115.2C210.412 115.538 210.525 115.838 210.712 116.1C210.9 116.325 211.2 116.513 211.537 116.55C211.837 116.588 212.1 116.588 212.325 116.475C212.55 116.363 212.737 116.25 212.925 116.063L214.05 117.188ZM212.962 114.375C213.037 114.075 212.962 113.813 212.812 113.55C212.662 113.288 212.4 113.138 212.062 113.1C211.875 113.063 211.687 113.063 211.537 113.1C211.387 113.138 211.237 113.213 211.125 113.288C211.012 113.363 210.9 113.475 210.825 113.588C210.75 113.7 210.675 113.85 210.637 113.963L212.962 114.375Z" fill="#FFB317"/>
<path d="M98.8126 19.8756C98.5501 19.6881 98.2876 19.6506 97.9501 19.7256C97.8376 19.7631 97.7251 19.8006 97.6501 19.8756C97.5751 19.9506 97.5376 20.0631 97.5751 20.1756C97.6126 20.2881 97.6876 20.3256 97.8001 20.3631C97.9126 20.4006 98.0626 20.4006 98.2501 20.4006C98.4376 20.4006 98.6251 20.4006 98.8126 20.3631C99.0001 20.3631 99.2251 20.3631 99.4126 20.4381C99.6001 20.4756 99.7876 20.5881 99.9376 20.7006C100.088 20.8131 100.2 21.0381 100.275 21.3006C100.35 21.5631 100.35 21.8256 100.275 22.0131C100.2 22.2381 100.088 22.3881 99.9376 22.5756C99.7876 22.7256 99.6001 22.8756 99.3751 22.9506C99.1501 23.0631 98.9251 23.1381 98.7001 23.2131C98.4001 23.2881 98.1001 23.3256 97.7626 23.3256C97.4251 23.3256 97.1251 23.2506 96.8626 23.1006L97.4251 22.0131C97.5751 22.1256 97.7626 22.2006 97.9126 22.2381C98.1001 22.2756 98.2501 22.2756 98.4751 22.2006C98.6251 22.1631 98.7376 22.0881 98.8501 22.0131C98.9626 21.9381 99.0001 21.8256 98.9626 21.7131C98.9251 21.6006 98.8501 21.5256 98.7376 21.5256C98.6251 21.4881 98.4751 21.4881 98.2876 21.4881C98.1001 21.4881 97.9126 21.4881 97.7251 21.5256C97.5376 21.5256 97.3126 21.5256 97.1251 21.4881C96.9376 21.4506 96.7501 21.3756 96.6001 21.2256C96.4501 21.1131 96.3376 20.8881 96.2626 20.6256C96.1876 20.3631 96.1876 20.1381 96.2251 19.9506C96.2626 19.7256 96.3751 19.5756 96.5251 19.3881C96.6751 19.2006 96.8251 19.0881 97.0126 18.9756C97.2001 18.8631 97.4251 18.7881 97.6501 18.7131C97.9126 18.6381 98.2126 18.6006 98.5126 18.6006C98.8126 18.6006 99.1126 18.6756 99.3376 18.8256L98.8126 19.8756Z" fill="#FFB317"/>
<path d="M100.838 15.4883L101.625 18.4133C101.625 18.3383 101.663 18.2258 101.7 18.1133C101.738 18.0008 101.813 17.9258 101.888 17.8133C101.963 17.7383 102.075 17.6258 102.188 17.5508C102.3 17.4758 102.45 17.4008 102.6 17.3633C102.938 17.2883 103.2 17.2508 103.425 17.2883C103.65 17.3258 103.838 17.4383 104.025 17.5883C104.175 17.7383 104.325 17.9258 104.438 18.1508C104.55 18.3758 104.625 18.6383 104.7 18.9383L105.338 21.2633L104.025 21.6008L103.463 19.5383C103.425 19.4258 103.388 19.2758 103.35 19.1633C103.313 19.0508 103.238 18.9383 103.163 18.8258C103.088 18.7133 103.013 18.6383 102.9 18.6008C102.788 18.5633 102.638 18.5633 102.488 18.6008C102.338 18.6383 102.188 18.7133 102.113 18.7883C102.038 18.8633 101.963 18.9758 101.925 19.0883C101.888 19.2008 101.888 19.3133 101.925 19.4633C101.925 19.6133 101.963 19.7258 102 19.8758L102.563 21.9758L101.25 22.3133L99.4875 15.7508L100.838 15.4883Z" fill="#FFB317"/>
<path d="M108.825 19.8383C108.713 20.1008 108.563 20.3258 108.375 20.4758C108.15 20.6258 107.925 20.7383 107.663 20.8133C107.475 20.8508 107.25 20.8883 107.063 20.8883C106.875 20.8883 106.688 20.8508 106.5 20.7758C106.313 20.7008 106.2 20.5883 106.05 20.4383C105.938 20.2883 105.825 20.1383 105.788 19.9133C105.713 19.6883 105.713 19.4633 105.75 19.2758C105.788 19.0883 105.863 18.9008 106.013 18.7508C106.125 18.6008 106.275 18.4508 106.463 18.3383C106.65 18.2258 106.838 18.1133 107.025 18.0383C107.213 17.9633 107.438 17.8883 107.663 17.8133C107.888 17.7383 108.075 17.7008 108.263 17.6633C108.188 17.4383 108.075 17.2883 107.85 17.1758C107.663 17.1008 107.438 17.0633 107.213 17.1383C106.988 17.2133 106.8 17.2883 106.65 17.4383C106.5 17.5883 106.388 17.7383 106.275 17.9258L105.375 17.4008C105.563 17.1008 105.788 16.8758 106.088 16.6508C106.388 16.4258 106.688 16.3133 107.063 16.2008C107.438 16.0883 107.775 16.0508 108.038 16.0883C108.3 16.1258 108.563 16.2008 108.75 16.3508C108.938 16.5008 109.125 16.6883 109.238 16.9508C109.35 17.2133 109.463 17.5133 109.575 17.8508L110.138 19.9883L108.938 20.3258L108.825 19.8383ZM108.15 18.6008C108.038 18.6383 107.925 18.6758 107.775 18.7133C107.625 18.7508 107.513 18.8258 107.363 18.9008C107.213 18.9758 107.138 19.0883 107.063 19.1633C106.988 19.2758 106.988 19.3883 107.025 19.5383C107.063 19.6883 107.175 19.8008 107.325 19.8383C107.475 19.8758 107.625 19.8758 107.775 19.8383C107.888 19.8008 108.038 19.7633 108.113 19.6883C108.225 19.6133 108.3 19.5383 108.375 19.4633C108.45 19.3883 108.488 19.2758 108.525 19.1633C108.563 19.0508 108.563 18.9383 108.525 18.7883L108.45 18.5258L108.15 18.6008Z" fill="#FFB317"/>
<path d="M109.95 15.5633L111.263 15.2258L111.45 15.9008C111.525 15.6008 111.638 15.3758 111.788 15.1883C111.938 15.0008 112.163 14.8883 112.463 14.8133C112.538 14.7758 112.613 14.7758 112.688 14.7758C112.763 14.7758 112.838 14.7383 112.913 14.7383L113.25 15.9383C113.138 15.9383 113.063 15.9383 112.95 15.9383C112.875 15.9383 112.763 15.9758 112.65 15.9758C112.388 16.0508 112.2 16.1258 112.088 16.2383C111.975 16.3508 111.863 16.4633 111.825 16.6133C111.788 16.7633 111.788 16.9133 111.788 17.1008C111.825 17.2883 111.863 17.4758 111.9 17.7008L112.388 19.4633L111.075 19.8008L109.95 15.5633Z" fill="#FFB317"/>
<path d="M118.388 17.063C118.238 17.4005 118.05 17.663 117.75 17.888C117.488 18.113 117.15 18.263 116.813 18.3755C116.475 18.4505 116.175 18.488 115.838 18.4505C115.538 18.413 115.238 18.338 114.975 18.188C114.713 18.038 114.488 17.8505 114.3 17.6255C114.113 17.4005 113.963 17.1005 113.888 16.763C113.813 16.4255 113.775 16.088 113.813 15.788C113.85 15.488 113.963 15.188 114.113 14.963C114.263 14.7005 114.488 14.513 114.75 14.3255C115.013 14.138 115.313 14.0255 115.613 13.913C115.913 13.838 116.213 13.8005 116.475 13.838C116.738 13.8755 117 13.988 117.225 14.1005C117.45 14.2505 117.638 14.438 117.825 14.7005C117.975 14.963 118.125 15.2255 118.2 15.563L118.313 15.9755L115.275 16.8005C115.388 17.0255 115.575 17.213 115.763 17.288C115.988 17.4005 116.213 17.4005 116.475 17.3255C116.7 17.2505 116.85 17.1755 116.963 17.0255C117.075 16.8755 117.188 16.7255 117.263 16.538L118.388 17.063ZM116.775 15.488C116.738 15.263 116.588 15.113 116.4 14.963C116.213 14.8505 115.988 14.813 115.763 14.888C115.613 14.9255 115.5 15.0005 115.388 15.0755C115.275 15.1505 115.2 15.2255 115.163 15.338C115.088 15.413 115.05 15.5255 115.05 15.638C115.05 15.7505 115.05 15.863 115.05 15.9755L116.775 15.488Z" fill="#FFB317"/>
<path d="M17.5876 60.4123C17.5876 60.1873 17.6251 59.9623 17.7001 59.8123C17.7751 59.6623 17.8876 59.4748 18.0376 59.3623C18.2626 59.1373 18.4501 58.9498 18.6376 58.7998C18.8251 58.6498 18.9751 58.4998 19.1251 58.3498C19.2751 58.1998 19.3501 58.0873 19.4251 57.9373C19.5001 57.8248 19.5376 57.6748 19.5376 57.5623C19.5376 57.2998 19.4626 57.0748 19.2751 56.9623C19.1251 56.8123 18.9001 56.7373 18.6751 56.7373C18.3001 56.7373 18.0001 56.8498 17.8126 57.0373C17.6251 57.2623 17.5126 57.4873 17.4751 57.7873L15.6376 57.6748C15.7126 56.8123 16.0501 56.1748 16.5751 55.7248C17.1001 55.2748 17.8126 55.0498 18.6376 55.0498C19.0126 55.0498 19.3501 55.0873 19.6876 55.1998C20.0251 55.3123 20.2876 55.4623 20.5501 55.6498C20.8126 55.8373 21.0001 56.0998 21.1501 56.3998C21.3001 56.6998 21.3751 57.0373 21.3751 57.4123C21.3751 57.6373 21.3376 57.8623 21.3001 58.0498C21.2626 58.2373 21.1876 58.4248 21.0376 58.6123C20.9251 58.7998 20.7751 58.9873 20.5876 59.1748C20.4001 59.3623 20.1751 59.5873 19.8751 59.7748C19.6876 59.9248 19.5751 60.0748 19.5001 60.1873C19.4251 60.2998 19.3876 60.4498 19.3876 60.5998V60.9373H17.5876V60.4123ZM17.4001 62.6998C17.4001 62.5498 17.4376 62.3998 17.4751 62.2498C17.5126 62.0998 17.6251 61.9873 17.7001 61.9123C17.8126 61.7998 17.9251 61.7248 18.0376 61.6873C18.1876 61.6498 18.3001 61.6123 18.4876 61.6123C18.6751 61.6123 18.7876 61.6498 18.9376 61.6873C19.0876 61.7248 19.2001 61.8373 19.2751 61.9123C19.3876 62.0248 19.4626 62.1373 19.5001 62.2498C19.5376 62.3998 19.5751 62.5123 19.5751 62.6998C19.5751 62.8873 19.5376 62.9998 19.5001 63.1498C19.4626 63.2998 19.3501 63.4123 19.2751 63.4873C19.1626 63.5998 19.0501 63.6748 18.9376 63.7123C18.7876 63.7498 18.6751 63.7873 18.4876 63.7873C18.3001 63.7873 18.1876 63.7498 18.0376 63.7123C17.8876 63.6748 17.7751 63.5623 17.7001 63.4873C17.6251 63.4123 17.5126 63.2623 17.4751 63.1498C17.4001 62.9998 17.4001 62.8873 17.4001 62.6998Z" fill="#FFB317"/>
<path d="M22.5001 62.6998C22.5001 62.5498 22.5376 62.3998 22.5751 62.2498C22.6126 62.0998 22.7251 61.9873 22.8001 61.9123C22.9126 61.7998 23.0251 61.7248 23.1376 61.6873C23.2876 61.6498 23.4001 61.6123 23.5876 61.6123C23.7751 61.6123 23.8876 61.6498 24.0376 61.6873C24.1876 61.7248 24.3001 61.8373 24.3751 61.9123C24.4876 62.0248 24.5626 62.1373 24.6001 62.2498C24.6376 62.3998 24.6751 62.5123 24.6751 62.6998C24.6751 62.8873 24.6376 62.9998 24.6001 63.1498C24.5626 63.2998 24.4501 63.4123 24.3751 63.4873C24.2626 63.5998 24.1501 63.6748 24.0376 63.7123C23.8876 63.7498 23.7751 63.7873 23.5876 63.7873C23.4001 63.7873 23.2876 63.7498 23.1376 63.7123C22.9876 63.6748 22.8751 63.5623 22.8001 63.4873C22.7251 63.4123 22.6126 63.2623 22.5751 63.1498C22.5376 62.9998 22.5001 62.8873 22.5001 62.6998ZM24.5251 60.9373H22.7251V55.2373H24.5251V60.9373Z" fill="#FFB317"/>
<path d="M210.113 43.6501L211.35 43.3126L211.5 43.8751C211.538 43.8001 211.538 43.6876 211.613 43.5751C211.688 43.4626 211.725 43.3876 211.838 43.2751C211.913 43.2001 212.025 43.0876 212.138 43.0126C212.25 42.9376 212.4 42.8626 212.55 42.8251C212.888 42.7501 213.15 42.7126 213.375 42.7501C213.6 42.7876 213.788 42.9001 213.975 43.0501C214.163 43.2001 214.275 43.3876 214.388 43.6126C214.5 43.8376 214.575 44.1001 214.65 44.4001L215.288 46.7251L213.975 47.0626L213.413 45.0001C213.375 44.8876 213.338 44.7376 213.3 44.6251C213.263 44.5126 213.188 44.4001 213.113 44.2876C213.038 44.1751 212.963 44.1001 212.85 44.0626C212.738 44.0251 212.588 44.0251 212.438 44.0626C212.288 44.1001 212.138 44.1751 212.063 44.2501C211.988 44.3251 211.913 44.4376 211.875 44.5501C211.838 44.6626 211.838 44.7751 211.875 44.9251C211.913 45.0751 211.913 45.1876 211.95 45.3376L212.513 47.4376L211.2 47.7751L210.113 43.6501Z" fill="#FFB317"/>
<path d="M220.013 44.7378C219.863 45.0753 219.675 45.3378 219.375 45.5628C219.113 45.7878 218.775 45.9378 218.438 46.0503C218.1 46.1253 217.8 46.1628 217.463 46.1253C217.163 46.0878 216.863 46.0128 216.6 45.8628C216.338 45.7128 216.113 45.5253 215.925 45.3003C215.738 45.0753 215.588 44.7753 215.513 44.4378C215.438 44.1003 215.4 43.7628 215.438 43.4628C215.475 43.1628 215.588 42.8628 215.738 42.6378C215.888 42.3753 216.113 42.1878 216.375 42.0003C216.638 41.8128 216.938 41.7003 217.238 41.5878C217.538 41.5128 217.838 41.4753 218.1 41.5128C218.363 41.5503 218.625 41.6628 218.85 41.7753C219.075 41.9253 219.263 42.1128 219.45 42.3753C219.6 42.6378 219.75 42.9003 219.825 43.2378L219.938 43.6503L216.9 44.4753C217.013 44.7003 217.2 44.8878 217.388 44.9628C217.613 45.0753 217.838 45.0753 218.1 45.0003C218.325 44.9253 218.475 44.8503 218.588 44.7003C218.7 44.5503 218.813 44.4003 218.888 44.2128L220.013 44.7378ZM218.4 43.2003C218.363 42.9753 218.213 42.8253 218.025 42.6753C217.838 42.5253 217.613 42.5253 217.388 42.6003C217.238 42.6378 217.125 42.7128 217.013 42.7878C216.9 42.8628 216.825 42.9378 216.788 43.0503C216.713 43.1253 216.675 43.2378 216.675 43.3503C216.675 43.4628 216.675 43.5753 216.675 43.6878L218.4 43.2003Z" fill="#FFB317"/>
<path d="M219.413 41.1752L220.8 40.8002L222.375 43.2377V40.3877L223.8 40.0127L225.3 42.4502L225.375 39.6002L226.688 39.2627L226.313 43.8752L225.038 44.2127L223.425 41.6252L223.388 44.6252L222.075 44.9627L219.413 41.1752Z" fill="#FFB317"/>
<path d="M229.875 39.6754C229.613 39.4879 229.35 39.4504 229.013 39.5254C228.9 39.5629 228.788 39.6004 228.713 39.6754C228.638 39.7504 228.6 39.8629 228.638 39.9754C228.675 40.0879 228.75 40.1254 228.863 40.1629C228.975 40.2004 229.125 40.2004 229.313 40.2004C229.5 40.2004 229.688 40.2004 229.875 40.1629C230.063 40.1629 230.288 40.1629 230.475 40.2379C230.663 40.2754 230.85 40.3879 231 40.5004C231.15 40.6129 231.263 40.8379 231.338 41.1004C231.413 41.3629 231.413 41.6254 231.338 41.8129C231.263 42.0379 231.15 42.1879 231 42.3754C230.85 42.5254 230.663 42.6754 230.438 42.7504C230.213 42.8629 229.988 42.9379 229.763 43.0129C229.463 43.0879 229.163 43.1254 228.825 43.1254C228.488 43.1254 228.225 43.0504 227.925 42.9004L228.488 41.8129C228.638 41.9254 228.825 42.0004 228.975 42.0379C229.125 42.0754 229.313 42.0754 229.538 42.0004C229.688 41.9629 229.838 41.8879 229.913 41.8129C230.025 41.7379 230.063 41.6254 230.025 41.5129C229.988 41.4004 229.913 41.3254 229.8 41.3254C229.688 41.2879 229.538 41.2879 229.35 41.2879C229.163 41.2879 228.975 41.2879 228.788 41.3254C228.6 41.3629 228.375 41.3254 228.188 41.2879C228 41.2504 227.813 41.1754 227.663 41.0254C227.513 40.9129 227.4 40.6879 227.325 40.4254C227.25 40.1629 227.25 39.9379 227.288 39.7504C227.325 39.5254 227.438 39.3754 227.588 39.1879C227.738 39.0379 227.888 38.8879 228.075 38.7754C228.263 38.6629 228.488 38.5879 228.713 38.5129C228.975 38.4379 229.275 38.4004 229.575 38.4004C229.875 38.4004 230.175 38.4754 230.4 38.6254L229.875 39.6754Z" fill="#FFB317"/>
<path d="M10.2 14.3252C9.18748 10.6127 11.625 6.86268 15.075 5.96268C18.45 5.06268 21.4125 6.78768 22.2375 9.90018C22.9875 12.7502 21.5625 14.5127 19.9875 14.9252C18.75 15.2627 18.1875 14.4752 17.9625 14.1002C17.625 15.0752 16.9125 15.7502 16.0125 15.9752C14.2875 16.4252 12.9375 15.4127 12.525 13.8377C11.925 11.6627 13.125 9.41268 15.075 8.92518C16.0125 8.66268 16.875 8.92518 17.4375 9.45018L17.3625 8.58768L19.3125 8.06268L19.6125 12.2252C19.65 12.6377 19.8375 13.4627 20.5125 13.2752C21.375 13.0502 21.9 12.0002 21.375 10.1252C20.625 7.31268 18.1875 5.96268 15.225 6.75018C12.15 7.57518 10.1625 10.9127 10.9875 14.0627C11.775 16.9502 14.625 18.4877 17.475 17.7377C18.5625 17.4377 19.5 16.8377 20.25 16.0502L20.85 16.5752C19.95 17.5127 18.9 18.1877 17.6625 18.5252C14.25 19.4252 11.0625 17.4752 10.2 14.3252ZM17.475 11.4752C17.2875 10.7252 16.6875 10.2377 15.9 10.4627C14.8125 10.7627 14.325 11.9252 14.625 13.1252C14.85 13.9502 15.4875 14.3627 16.2375 14.1752C17.175 13.9127 17.8875 12.9002 17.475 11.4752Z" fill="#FFB317"/>
<path d="M40.1625 124.914C39.9375 124.689 39.675 124.576 39.3375 124.614C39.225 124.614 39.1125 124.651 39 124.726C38.8875 124.801 38.85 124.876 38.85 125.026C38.85 125.139 38.925 125.214 39.0375 125.251C39.15 125.289 39.3 125.326 39.4875 125.364C39.675 125.401 39.8625 125.401 40.05 125.439C40.2375 125.476 40.425 125.514 40.6125 125.589C40.8 125.664 40.95 125.776 41.0625 125.926C41.175 126.076 41.25 126.301 41.2875 126.564C41.325 126.826 41.2875 127.089 41.175 127.276C41.0625 127.464 40.9125 127.614 40.725 127.764C40.5375 127.876 40.35 127.989 40.0875 128.064C39.8625 128.139 39.6 128.176 39.375 128.176C39.075 128.214 38.775 128.176 38.4375 128.139C38.1 128.064 37.8375 127.951 37.6125 127.764L38.3625 126.789C38.5125 126.939 38.6625 127.051 38.8125 127.089C38.9625 127.126 39.15 127.164 39.375 127.164C39.525 127.164 39.675 127.126 39.7875 127.051C39.9 127.014 39.975 126.901 39.9375 126.789C39.9375 126.676 39.8625 126.601 39.75 126.564C39.6375 126.526 39.4875 126.489 39.3 126.451C39.1125 126.414 38.925 126.414 38.7375 126.376C38.55 126.339 38.3625 126.301 38.175 126.226C37.9875 126.151 37.8375 126.039 37.725 125.889C37.6125 125.739 37.5375 125.514 37.5 125.251C37.4625 124.989 37.5 124.764 37.6125 124.576C37.6875 124.389 37.8375 124.201 37.9875 124.089C38.1375 123.939 38.325 123.864 38.55 123.789C38.775 123.714 39 123.676 39.225 123.639C39.525 123.601 39.7875 123.639 40.0875 123.676C40.3875 123.751 40.65 123.864 40.875 124.051L40.1625 124.914Z" fill="#FFB317"/>
<path d="M46.35 127.463L45.075 127.575L45.0375 126.975C45 127.05 44.925 127.163 44.8875 127.238C44.8125 127.313 44.7375 127.425 44.625 127.5C44.5125 127.575 44.4 127.65 44.2875 127.688C44.1375 127.725 43.9875 127.763 43.8375 127.8C43.5 127.838 43.2 127.8 43.0125 127.725C42.7875 127.65 42.6 127.5 42.4875 127.35C42.3375 127.163 42.2625 126.975 42.1875 126.713C42.1125 126.45 42.075 126.188 42.075 125.888L41.85 123.488L43.2 123.375L43.3875 125.513C43.3875 125.625 43.425 125.775 43.425 125.888C43.4625 126.038 43.5 126.15 43.5375 126.263C43.575 126.375 43.6875 126.45 43.7625 126.525C43.875 126.6 43.9875 126.6 44.175 126.6C44.3625 126.6 44.475 126.525 44.5875 126.488C44.7 126.413 44.775 126.338 44.8125 126.225C44.85 126.113 44.8875 126 44.8875 125.85C44.8875 125.7 44.8875 125.588 44.8875 125.438L44.7 123.263L46.05 123.15L46.35 127.463Z" fill="#FFB317"/>
<path d="M46.8 120.601L48.15 120.488L48.4125 123.376C48.5625 123.151 48.75 123.001 48.975 122.888C49.2 122.776 49.4625 122.701 49.7625 122.701C50.0625 122.663 50.3625 122.701 50.625 122.813C50.8875 122.926 51.1125 123.076 51.3 123.263C51.4875 123.451 51.6375 123.713 51.75 123.976C51.8625 124.238 51.9375 124.538 51.975 124.838C52.0125 125.176 51.975 125.476 51.9 125.776C51.825 126.076 51.7125 126.301 51.525 126.526C51.3375 126.751 51.15 126.901 50.8875 127.051C50.625 127.201 50.3625 127.276 50.025 127.276C49.875 127.276 49.725 127.276 49.575 127.238C49.425 127.201 49.3125 127.163 49.1625 127.126C49.05 127.088 48.9375 127.013 48.825 126.938C48.75 126.863 48.6375 126.788 48.6 126.713L48.6375 127.276L47.4 127.388L46.8 120.601ZM48.45 125.063C48.4875 125.401 48.6 125.663 48.7875 125.851C48.975 126.038 49.275 126.113 49.6125 126.076C49.95 126.038 50.2125 125.926 50.3625 125.701C50.55 125.476 50.5875 125.213 50.5875 124.876C50.55 124.538 50.4375 124.276 50.25 124.088C50.0625 123.901 49.7625 123.826 49.425 123.863C49.0875 123.901 48.825 124.013 48.675 124.238C48.525 124.463 48.4125 124.763 48.45 125.063Z" fill="#FFB317"/>
<path d="M55.0876 123.601C54.8626 123.376 54.6001 123.264 54.2626 123.301C54.1501 123.301 54.0376 123.339 53.9251 123.414C53.8126 123.489 53.7751 123.564 53.7751 123.714C53.7751 123.826 53.8501 123.901 53.9626 123.939C54.0751 123.976 54.2251 124.014 54.4126 124.051C54.6001 124.089 54.7876 124.089 54.9751 124.126C55.1626 124.164 55.3501 124.201 55.5376 124.276C55.7251 124.351 55.8751 124.464 55.9876 124.614C56.1001 124.764 56.1751 124.989 56.2126 125.251C56.2501 125.551 56.2126 125.776 56.1001 125.964C55.9876 126.151 55.8376 126.301 55.6501 126.451C55.4626 126.564 55.2751 126.676 55.0126 126.751C54.7876 126.826 54.5251 126.864 54.3001 126.864C54.0001 126.901 53.7001 126.864 53.3626 126.826C53.0251 126.751 52.7626 126.639 52.5376 126.451L53.2876 125.476C53.4376 125.626 53.5876 125.739 53.7376 125.776C53.8876 125.814 54.0751 125.851 54.3001 125.851C54.4501 125.851 54.6001 125.814 54.7126 125.739C54.8251 125.664 54.9001 125.589 54.8626 125.476C54.8626 125.364 54.7876 125.289 54.6751 125.251C54.5626 125.214 54.4126 125.176 54.2251 125.139C54.0376 125.101 53.8501 125.101 53.6626 125.064C53.4751 125.026 53.2876 124.989 53.1001 124.914C52.9126 124.839 52.7626 124.726 52.6501 124.576C52.5376 124.426 52.4626 124.201 52.4251 123.939C52.3876 123.676 52.4251 123.451 52.5376 123.264C52.6126 123.076 52.7626 122.889 52.9126 122.776C53.0626 122.626 53.2501 122.551 53.4751 122.476C53.7001 122.401 53.9251 122.364 54.1501 122.326C54.4501 122.289 54.7126 122.326 55.0126 122.364C55.3126 122.439 55.5751 122.551 55.8001 122.739L55.0876 123.601Z" fill="#FFB317"/>
<path d="M59.7 123.3C59.625 123.225 59.5125 123.15 59.4 123.075C59.2875 123.038 59.1375 123 58.9875 123C58.65 123.038 58.3875 123.15 58.2375 123.375C58.05 123.6 58.0125 123.863 58.0125 124.2C58.05 124.538 58.1625 124.8 58.35 124.988C58.575 125.175 58.8375 125.25 59.175 125.213C59.325 125.213 59.4375 125.138 59.55 125.063C59.6625 124.988 59.7375 124.913 59.8125 124.8L60.7875 125.663C60.6 125.888 60.375 126.075 60.075 126.188C59.8125 126.3 59.55 126.375 59.2875 126.375C58.95 126.413 58.65 126.375 58.3125 126.3C58.0125 126.225 57.75 126.075 57.4875 125.888C57.2625 125.7 57.075 125.475 56.925 125.213C56.775 124.95 56.7 124.65 56.6625 124.275C56.625 123.938 56.6625 123.6 56.775 123.3C56.8875 123 57.0375 122.738 57.225 122.55C57.4125 122.325 57.675 122.138 57.9375 122.025C58.2375 121.875 58.5375 121.8 58.875 121.763C59.1375 121.725 59.4 121.763 59.7 121.838C60 121.913 60.2625 122.025 60.4875 122.213L59.7 123.3Z" fill="#FFB317"/>
<path d="M61.0126 121.801L62.3626 121.688L62.4376 122.401C62.5501 122.101 62.7001 121.913 62.8876 121.763C63.0751 121.613 63.3001 121.538 63.6001 121.501C63.6751 121.501 63.7501 121.501 63.8251 121.501C63.9001 121.501 63.9751 121.501 64.0501 121.501L64.1626 122.738C64.0501 122.701 63.9751 122.701 63.8626 122.701C63.7501 122.701 63.6751 122.701 63.5626 122.701C63.3001 122.738 63.1126 122.776 62.9626 122.851C62.8126 122.926 62.7001 123.038 62.6626 123.188C62.5876 123.338 62.5501 123.488 62.5501 123.676C62.5501 123.863 62.5501 124.051 62.5501 124.276L62.7001 126.113L61.3501 126.226L61.0126 121.801Z" fill="#FFB317"/>
<path d="M64.425 120.113C64.425 119.888 64.4625 119.7 64.6125 119.55C64.7625 119.4 64.9125 119.288 65.1375 119.288C65.3625 119.25 65.55 119.325 65.7 119.475C65.85 119.625 65.9625 119.775 65.9625 120C66 120.225 65.925 120.413 65.775 120.563C65.625 120.713 65.475 120.825 65.25 120.825C65.025 120.825 64.8375 120.788 64.6875 120.638C64.5375 120.488 64.4625 120.338 64.425 120.113ZM64.6875 121.463L66.0375 121.35L66.4125 125.7L65.0625 125.813L64.6875 121.463Z" fill="#FFB317"/>
<path d="M66.9 118.838L68.25 118.726L68.5125 121.613C68.6625 121.388 68.85 121.238 69.075 121.126C69.3 121.013 69.5625 120.938 69.8625 120.938C70.1625 120.901 70.4625 120.938 70.725 121.051C70.9875 121.163 71.2125 121.313 71.4 121.501C71.5875 121.688 71.7375 121.951 71.85 122.213C71.9625 122.476 72.0375 122.776 72.075 123.076C72.1125 123.413 72.075 123.713 72 124.013C71.925 124.313 71.8125 124.538 71.625 124.763C71.4375 124.988 71.25 125.138 70.9875 125.288C70.725 125.438 70.4625 125.513 70.125 125.513C69.975 125.513 69.825 125.513 69.675 125.476C69.525 125.438 69.4125 125.401 69.2625 125.363C69.15 125.326 69.0375 125.251 68.925 125.176C68.85 125.101 68.7375 125.026 68.7 124.951L68.7375 125.513L67.5 125.626L66.9 118.838ZM68.55 123.338C68.5875 123.676 68.7 123.938 68.8875 124.126C69.075 124.313 69.375 124.388 69.7125 124.351C70.05 124.313 70.3125 124.201 70.4625 123.976C70.65 123.751 70.6875 123.488 70.6875 123.151C70.65 122.813 70.5375 122.551 70.35 122.363C70.1625 122.176 69.8625 122.101 69.525 122.138C69.1875 122.176 68.925 122.288 68.775 122.513C68.625 122.738 68.5125 123.001 68.55 123.338Z" fill="#FFB317"/>
<path d="M77.025 124.013C76.8375 124.313 76.575 124.538 76.275 124.726C75.975 124.913 75.6375 125.026 75.2625 125.026C74.925 125.063 74.625 125.026 74.2875 124.951C73.9875 124.876 73.725 124.726 73.4625 124.538C73.2375 124.351 73.05 124.126 72.9 123.863C72.75 123.601 72.675 123.301 72.6375 122.926C72.6 122.588 72.6375 122.251 72.75 121.951C72.8625 121.651 73.0125 121.388 73.2 121.201C73.3875 120.976 73.65 120.788 73.9125 120.676C74.2125 120.526 74.5125 120.451 74.85 120.413C75.15 120.376 75.45 120.413 75.7125 120.488C75.975 120.563 76.2 120.713 76.3875 120.901C76.575 121.088 76.725 121.313 76.875 121.576C76.9875 121.838 77.0625 122.176 77.1 122.513L77.1375 122.926L74.025 123.188C74.1 123.451 74.25 123.638 74.4375 123.788C74.625 123.938 74.85 123.976 75.1125 123.976C75.3375 123.938 75.525 123.901 75.675 123.788C75.825 123.676 75.9375 123.526 76.05 123.376L77.025 124.013ZM75.75 122.213C75.75 121.988 75.6375 121.801 75.4875 121.651C75.3 121.501 75.1125 121.426 74.85 121.463C74.7 121.463 74.5875 121.501 74.475 121.576C74.3625 121.651 74.2875 121.688 74.2125 121.801C74.1375 121.876 74.1 121.988 74.0625 122.063C74.025 122.176 74.025 122.288 74.025 122.363L75.75 122.213Z" fill="#FFB317"/>
<path d="M48 16.125C45.3 16.125 43.125 13.95 43.125 11.25C43.125 8.55 45.3 6.375 48 6.375C50.7 6.375 52.875 8.55 52.875 11.25C52.875 13.95 50.7 16.125 48 16.125ZM48 7.125C45.7125 7.125 43.875 8.9625 43.875 11.25C43.875 13.5375 45.7125 15.375 48 15.375C50.2875 15.375 52.125 13.5375 52.125 11.25C52.125 8.9625 50.2875 7.125 48 7.125Z" fill="#FFB317"/>
<path d="M48 14.4375C47.325 14.4375 46.6875 14.1375 46.2 13.5375C46.05 13.3875 46.0875 13.125 46.2375 13.0125C46.3875 12.8625 46.65 12.9 46.7625 13.05C47.1 13.4625 47.5125 13.65 47.9625 13.65C48.4125 13.65 48.8625 13.425 49.1625 13.05C49.3125 12.9 49.5375 12.8625 49.6875 13.0125C49.8375 13.1625 49.875 13.3875 49.725 13.5375C49.3125 14.1375 48.675 14.4375 48 14.4375Z" fill="#FFB317"/>
<g opacity="0.2">
<path d="M45.375 12.9375C45.8928 12.9375 46.3125 12.5178 46.3125 12C46.3125 11.4822 45.8928 11.0625 45.375 11.0625C44.8572 11.0625 44.4375 11.4822 44.4375 12C44.4375 12.5178 44.8572 12.9375 45.375 12.9375Z" fill="#FFB317"/>
</g>
<path d="M47.0625 10.875C46.8375 10.875 46.6875 10.725 46.6875 10.5C46.6875 10.0875 46.35 9.75 45.9375 9.75C45.525 9.75 45.1875 10.0875 45.1875 10.5C45.1875 10.725 45.0375 10.875 44.8125 10.875C44.5875 10.875 44.4375 10.725 44.4375 10.5C44.4375 9.675 45.1125 9 45.9375 9C46.7625 9 47.4375 9.675 47.4375 10.5C47.4375 10.725 47.2875 10.875 47.0625 10.875Z" fill="#FFB317"/>
<path d="M51.1875 10.875C50.9625 10.875 50.8125 10.725 50.8125 10.5C50.8125 10.0875 50.475 9.75 50.0625 9.75C49.65 9.75 49.3125 10.0875 49.3125 10.5C49.3125 10.725 49.1625 10.875 48.9375 10.875C48.7125 10.875 48.5625 10.725 48.5625 10.5C48.5625 9.675 49.2375 9 50.0625 9C50.8875 9 51.5625 9.675 51.5625 10.5C51.5625 10.725 51.4125 10.875 51.1875 10.875Z" fill="#FFB317"/>
<g opacity="0.2">
<path d="M50.625 12.9375C51.1428 12.9375 51.5625 12.5178 51.5625 12C51.5625 11.4822 51.1428 11.0625 50.625 11.0625C50.1072 11.0625 49.6875 11.4822 49.6875 12C49.6875 12.5178 50.1072 12.9375 50.625 12.9375Z" fill="#FFB317"/>
</g>
<g opacity="0.2">
<path d="M137.625 122.775C138.453 122.775 139.125 122.104 139.125 121.275C139.125 120.447 138.453 119.775 137.625 119.775C136.797 119.775 136.125 120.447 136.125 121.275C136.125 122.104 136.797 122.775 137.625 122.775Z" fill="#FFB317"/>
</g>
<g opacity="0.2">
<path d="M147.787 120.075C148.616 120.075 149.287 119.404 149.287 118.575C149.287 117.747 148.616 117.075 147.787 117.075C146.959 117.075 146.287 117.747 146.287 118.575C146.287 119.404 146.959 120.075 147.787 120.075Z" fill="#FFB317"/>
</g>
<path d="M145.472 117.224C146.273 117.01 146.66 115.863 146.339 114.663C146.017 113.462 145.108 112.663 144.308 112.877C143.508 113.092 143.12 114.239 143.441 115.439C143.763 116.639 144.672 117.438 145.472 117.224Z" fill="#FFB317"/>
<path d="M138.952 118.987C139.752 118.772 140.14 117.625 139.818 116.425C139.497 115.225 138.587 114.426 137.787 114.64C136.987 114.855 136.599 116.001 136.921 117.202C137.242 118.402 138.152 119.201 138.952 118.987Z" fill="#FFB317"/>
<path d="M142.125 127.125C138 127.125 134.175 124.35 133.05 120.187C131.7 115.2 134.7 110.025 139.687 108.712C144.675 107.362 149.85 110.362 151.162 115.35C152.512 120.337 149.512 125.512 144.525 126.825C143.737 127.012 142.912 127.125 142.125 127.125ZM133.8 120C135.037 124.575 139.762 127.312 144.375 126.112C148.95 124.875 151.687 120.15 150.487 115.537C149.287 110.925 144.525 108.225 139.912 109.425C135.3 110.662 132.562 115.387 133.8 120Z" fill="#FFB317"/>
<path d="M142.425 123.713C141.487 123.713 140.587 123.451 139.725 122.926C139.537 122.813 139.5 122.588 139.612 122.401C139.725 122.213 139.95 122.176 140.137 122.288C141.187 122.926 142.35 123.113 143.475 122.813C144.6 122.513 145.537 121.763 146.1 120.676C146.212 120.488 146.437 120.413 146.625 120.526C146.812 120.638 146.887 120.863 146.775 121.051C146.1 122.326 145.012 123.188 143.662 123.563C143.25 123.676 142.837 123.713 142.425 123.713Z" fill="#FFB317"/>
<g opacity="0.5">
<path d="M190.125 50.625H145.125C144.9 50.625 144.75 50.475 144.75 50.25C144.75 50.025 144.9 49.875 145.125 49.875H190.125C190.35 49.875 190.5 50.025 190.5 50.25C190.5 50.475 190.35 50.625 190.125 50.625Z" fill="#FFB317"/>
</g>
<g opacity="0.5">
<path d="M102.375 87.375H57.375C57.15 87.375 57 87.225 57 87C57 86.775 57.15 86.625 57.375 86.625H102.375C102.6 86.625 102.75 86.775 102.75 87C102.75 87.225 102.6 87.375 102.375 87.375Z" fill="#FFB317"/>
</g>
<g opacity="0.5">
<path d="M41.25 95.625C41.025 95.625 40.875 95.475 40.875 95.25V68.25C40.875 68.025 41.025 67.875 41.25 67.875C41.475 67.875 41.625 68.025 41.625 68.25V95.25C41.625 95.475 41.475 95.625 41.25 95.625Z" fill="#FFB317"/>
</g>
<g opacity="0.5">
<path d="M26.775 34.6504L21.5625 34.2004C20.925 34.1629 20.4 34.6129 20.325 35.2129L19.8375 40.6504C19.8 40.9879 20.2125 41.1754 20.4375 40.9879L21.9375 39.7129C22.0875 39.6004 22.275 39.5254 22.5 39.5254L26.2875 39.8629C26.925 39.9004 27.45 39.4504 27.525 38.8504L27.7875 35.8504C27.825 35.2504 27.375 34.6879 26.775 34.6504Z" fill="#FFB317"/>
</g>
<path d="M213.263 33.3006C213 33.3006 212.738 33.2256 212.55 33.0381C212.325 32.8506 212.175 32.5881 212.138 32.2881C212.1 31.6881 212.55 31.1256 213.15 31.0881C213.788 31.0506 214.313 31.5006 214.388 32.1006C214.425 32.4006 214.313 32.7006 214.125 32.9256C213.938 33.1506 213.675 33.3006 213.375 33.3381C213.338 33.3006 213.3 33.3006 213.263 33.3006ZM213.263 31.8006C213.038 31.8381 212.888 31.9881 212.888 32.2131C212.888 32.3256 212.925 32.4006 213.038 32.4756C213.15 32.5506 213.225 32.5881 213.3 32.5506C213.413 32.5506 213.488 32.5131 213.563 32.4006C213.638 32.3256 213.675 32.2131 213.638 32.1381C213.638 31.9506 213.45 31.8006 213.263 31.8006Z" fill="#FFB317"/>
<g opacity="0.2">
<path d="M139.988 22.7998C139.088 22.5748 138.563 21.6373 138.788 20.7373L140.213 15.4873L143.475 16.3498L142.05 21.5998C141.825 22.4998 140.888 23.0623 139.988 22.7998Z" fill="#FFB317"/>
</g>
<path d="M99.6375 119.626C99.4125 119.626 99.1875 119.551 99 119.438C98.7375 119.251 98.5875 119.026 98.55 118.726C98.4375 118.126 98.85 117.526 99.45 117.413C100.05 117.301 100.65 117.713 100.763 118.313C100.875 118.913 100.463 119.513 99.8625 119.626C99.75 119.626 99.675 119.626 99.6375 119.626ZM99.2625 118.576C99.2625 118.688 99.3375 118.763 99.4125 118.801C99.4875 118.876 99.6 118.876 99.675 118.876C99.8625 118.838 100.013 118.651 99.975 118.426C99.9375 118.238 99.75 118.088 99.525 118.126C99.3375 118.163 99.225 118.351 99.2625 118.576Z" fill="#FFB317"/>
<path d="M21.6375 91.0498C21.4125 91.0498 21.1875 90.9748 21 90.8623C20.7375 90.6748 20.5875 90.4498 20.55 90.1498C20.4375 89.5498 20.85 88.9498 21.45 88.8373C21.75 88.7998 22.05 88.8373 22.275 89.0248C22.5375 89.2123 22.6875 89.4373 22.725 89.7373C22.8375 90.3373 22.425 90.9373 21.825 91.0498C21.75 91.0498 21.7125 91.0498 21.6375 91.0498ZM21.6375 89.5498C21.6 89.5498 21.6 89.5498 21.5625 89.5498C21.375 89.5873 21.225 89.7748 21.2625 89.9998C21.2625 90.1123 21.3375 90.1873 21.4125 90.2248C21.4875 90.2998 21.6 90.2998 21.675 90.2998C21.7875 90.2998 21.8625 90.2248 21.9 90.1498C21.975 90.0748 21.975 89.9623 21.975 89.8873C21.975 89.7748 21.9 89.6998 21.825 89.6623C21.7875 89.5498 21.7125 89.5498 21.6375 89.5498Z" fill="#FFB317"/>
<g opacity="0.2">
<path d="M24.6465 74.5333L13.5675 76.4863L15.846 89.4118L26.925 87.4588L24.6465 74.5333Z" fill="#FFB317"/>
</g>
<path d="M121.387 103.35C121.237 103.35 121.087 103.313 120.975 103.2C120.75 103.05 120.637 102.788 120.712 102.525L121.087 100.425L119.55 98.9252C119.362 98.7377 119.287 98.4752 119.362 98.2127C119.437 97.9502 119.662 97.7627 119.925 97.7252L122.062 97.4252L123 95.5127C123.112 95.2877 123.375 95.1377 123.637 95.1377C123.9 95.1377 124.162 95.2877 124.275 95.5127L125.212 97.4252L127.35 97.7252C127.612 97.7627 127.837 97.9502 127.912 98.2127C127.987 98.4752 127.912 98.7377 127.725 98.9252L126.187 100.425L126.562 102.525C126.6 102.788 126.487 103.05 126.3 103.2C126.075 103.35 125.812 103.388 125.55 103.238L123.637 102.225L121.725 103.238C121.612 103.313 121.5 103.35 121.387 103.35ZM120.112 98.4377L121.612 99.9002C121.762 100.05 121.837 100.275 121.8 100.538L121.462 102.563L123.3 101.588C123.487 101.475 123.75 101.475 123.937 101.588L125.775 102.563L125.437 100.538C125.4 100.313 125.475 100.088 125.625 99.9002L127.125 98.4377L125.062 98.1377C124.837 98.1002 124.65 97.9502 124.537 97.7627L123.637 95.8877L122.737 97.7627C122.625 97.9877 122.437 98.1002 122.212 98.1377L120.112 98.4377Z" fill="#FFB317"/>
<path d="M156.788 39.6002C156.675 39.6002 156.6 39.5627 156.488 39.5252L154.988 38.7377L153.488 39.5252C153.263 39.6377 153 39.6377 152.813 39.4877C152.625 39.3377 152.513 39.1127 152.55 38.8502L152.85 37.2002L151.65 36.0377C151.463 35.8502 151.425 35.6252 151.5 35.4002C151.575 35.1752 151.763 34.9877 152.025 34.9502L153.675 34.7252L154.425 33.2252C154.538 33.0002 154.763 32.8877 154.988 32.8877C155.25 32.8877 155.438 33.0377 155.55 33.2252L156.3 34.7252L157.95 34.9502C158.175 34.9877 158.4 35.1377 158.475 35.4002C158.55 35.6252 158.475 35.8877 158.325 36.0377L157.125 37.2002L157.425 38.8502C157.463 39.0752 157.388 39.3377 157.163 39.4877C157.05 39.5627 156.938 39.6002 156.788 39.6002ZM152.363 35.6627L153.45 36.7127C153.6 36.8627 153.675 37.0877 153.638 37.2752L153.375 38.7752L154.725 38.0627C154.913 37.9502 155.138 37.9502 155.325 38.0627L156.675 38.7752L156.413 37.2752C156.375 37.0877 156.45 36.8627 156.6 36.7127L157.688 35.6627L156.188 35.4377C155.963 35.4002 155.813 35.2877 155.7 35.1002L155.025 33.7502L154.35 35.1002C154.275 35.2877 154.088 35.4002 153.863 35.4377L152.363 35.6627Z" fill="#FFB317"/>
<path d="M222.375 90.0004V90.3754V92.2504V95.4379C222.112 95.3254 221.775 95.2504 221.438 95.2504C220.5 95.2504 219.75 95.7379 219.75 96.3754C219.75 97.0129 220.5 97.5004 221.438 97.5004C222.375 97.5004 223.125 97.0129 223.125 96.3754V92.0629L228 90.9004V93.9004C227.738 93.7879 227.4 93.7129 227.062 93.7129C226.125 93.7129 225.375 94.2004 225.375 94.8379C225.375 95.4754 226.125 95.9629 227.062 95.9629C228 95.9629 228.75 95.4754 228.75 94.8379V90.7129V89.5879V88.4629L222.375 90.0004Z" fill="#FFB317"/>
<path d="M30 34.1631C31.2426 34.1631 32.25 33.1557 32.25 31.9131C32.25 30.6704 31.2426 29.6631 30 29.6631C28.7574 29.6631 27.75 30.6704 27.75 31.9131C27.75 33.1557 28.7574 34.1631 30 34.1631Z" fill="#FFB317"/>
<path d="M175.875 127.837C175.763 127.837 175.688 127.837 175.575 127.8C175.275 127.725 175.05 127.537 174.9 127.275L171.9 122.062C170.963 120.412 170.7 118.5 171.188 116.662C171.675 114.825 172.875 113.287 174.525 112.35C177.938 110.4 182.288 111.562 184.275 114.975C185.213 116.625 185.475 118.537 184.988 120.375C184.5 122.212 183.3 123.75 181.65 124.687L176.438 127.687C176.25 127.762 176.063 127.837 175.875 127.837ZM172.538 121.687L175.538 126.9C175.575 126.975 175.65 127.05 175.763 127.087C175.875 127.125 175.95 127.087 176.063 127.05L181.275 124.05C182.738 123.187 183.788 121.837 184.238 120.187C184.688 118.537 184.463 116.812 183.6 115.35C181.838 112.312 177.938 111.262 174.9 113.025C171.825 114.75 170.775 118.65 172.538 121.687Z" fill="#FFB317"/>
<path d="M178.088 121.125C177.188 121.125 176.288 120.637 175.8 119.812C175.088 118.575 175.5 116.962 176.775 116.212C177.375 115.875 178.088 115.762 178.763 115.95C179.438 116.137 180 116.55 180.375 117.187C180.713 117.787 180.825 118.5 180.638 119.175C180.45 119.85 180.038 120.412 179.4 120.75C178.988 121.012 178.538 121.125 178.088 121.125ZM176.438 119.437C176.7 119.887 177.075 120.187 177.563 120.3C178.05 120.412 178.538 120.375 178.988 120.112C179.438 119.85 179.738 119.475 179.85 118.987C179.963 118.5 179.925 118.012 179.663 117.562C179.138 116.662 178.013 116.362 177.113 116.887C176.25 117.412 175.913 118.537 176.438 119.437Z" fill="#FFB317"/>
<path d="M42.7875 108.188L42 106.8C41.8875 106.613 41.7375 106.5 41.55 106.463L39.15 105.825L40.425 102.9C40.6125 102.488 40.6125 102.038 40.3875 101.663C40.1625 101.288 39.8625 100.988 39.4125 100.875L39.1875 100.8C39.1125 100.8 39.075 100.763 39 100.763C38.7375 100.763 38.475 100.913 38.3625 101.138L37.65 102.413L35.2125 104.963L34.9875 105L35.0625 104.738C35.1 104.55 34.9875 104.325 34.8 104.288L30.075 103.013C29.9625 102.975 29.8875 103.013 29.775 103.05C29.7 103.088 29.625 103.2 29.5875 103.275L27.5625 110.888C27.525 111 27.5625 111.075 27.6 111.188C27.6375 111.263 27.75 111.338 27.825 111.375L32.55 112.65C32.5875 112.65 32.625 112.65 32.6625 112.65C32.8125 112.65 32.9625 112.538 33.0375 112.388L33.15 111.975L33.5625 112.688C33.675 112.875 33.825 112.988 34.0125 113.025L38.7375 114.3C38.8125 114.3 38.85 114.338 38.925 114.338C39.0375 114.338 39.1875 114.3 39.3 114.225L40.6875 113.438C40.8375 113.363 40.9125 113.25 40.9875 113.1L42.8625 108.938C42.9375 108.675 42.9375 108.413 42.7875 108.188ZM32.3625 111.788L28.3875 110.738L30.225 103.838L34.2 104.888L33.3375 108.038L32.625 110.663L32.3625 111.788ZM40.275 112.725L38.8875 113.513L34.1625 112.238L33.375 110.85L34.725 105.788L35.55 105.638L38.25 102.863L39 101.513L39.225 101.588C39.675 101.7 39.9 102.188 39.7125 102.6L38.4375 105.525C38.25 105.938 38.475 106.425 38.925 106.538L41.325 107.175L42.1125 108.563L40.275 112.725Z" fill="#FFB317"/>
<path d="M31.5751 109.612C31.2751 109.537 30.9751 109.725 30.9001 110.025C30.8251 110.325 31.0126 110.625 31.3126 110.7C31.6126 110.775 31.9126 110.587 31.9876 110.287C32.0626 110.025 31.8751 109.687 31.5751 109.612Z" fill="#FFB317"/>
<path d="M60.75 94.125V96H62.625V97.5H60.75V99.375H59.25V97.5H57.375V96H59.25V94.125H60.75ZM60.75 93.375H59.25C58.8375 93.375 58.5 93.7125 58.5 94.125V95.25H57.375C56.9625 95.25 56.625 95.5875 56.625 96V97.5C56.625 97.9125 56.9625 98.25 57.375 98.25H58.5V99.375C58.5 99.7875 58.8375 100.125 59.25 100.125H60.75C61.1625 100.125 61.5 99.7875 61.5 99.375V98.25H62.625C63.0375 98.25 63.375 97.9125 63.375 97.5V96C63.375 95.5875 63.0375 95.25 62.625 95.25H61.5V94.125C61.5 93.7125 61.1625 93.375 60.75 93.375Z" fill="#FFB317"/>
<path d="M217.575 72.3747C217.088 72.3747 216.638 72.2622 216.188 71.9997C215.363 71.5122 214.838 70.6872 214.838 69.7497V59.9997C214.838 59.0622 215.325 58.2372 216.188 57.7497C217.05 57.2622 218.138 57.2622 219 57.7872L227.063 62.6622C227.85 63.1497 228.338 63.9747 228.338 64.8747C228.338 65.7747 227.85 66.5997 227.063 67.0872L219 71.9622C218.588 72.2247 218.1 72.3747 217.575 72.3747ZM217.575 58.1247C217.238 58.1247 216.9 58.1997 216.563 58.3872C215.963 58.7247 215.588 59.3247 215.588 59.9997V69.7497C215.588 70.4247 215.963 71.0247 216.563 71.3622C217.2 71.7372 217.988 71.6997 218.625 71.3247L226.688 66.4497C227.25 66.1122 227.588 65.5122 227.588 64.8747C227.588 64.2372 227.25 63.6372 226.688 63.2997L218.625 58.4247C218.325 58.2372 217.95 58.1247 217.575 58.1247Z" fill="#FFB317"/>
<path d="M170.1 98.1752C170.062 98.1002 169.95 98.0252 169.875 97.9877L166.612 97.1252C166.5 97.0877 166.425 97.1252 166.312 97.1627C166.2 97.2002 166.162 97.3127 166.125 97.3877V97.4627L166.012 97.2752L165.45 95.2877L165.3 94.5002C165.225 94.2377 165.037 94.0127 164.775 93.9377L164.512 93.8627C164.4 93.8252 164.325 93.8252 164.212 93.8252C163.612 93.8252 163.087 94.3127 163.087 94.9502L163.05 96.6002L161.812 96.2627C161.737 96.2627 161.7 96.2252 161.625 96.2252C161.512 96.2252 161.362 96.2627 161.25 96.3377L160.35 96.8627C160.162 96.9752 160.012 97.2002 159.975 97.4252L159.675 100.05C159.637 100.2 159.675 100.388 159.787 100.5L160.312 101.4C160.425 101.588 160.575 101.7 160.762 101.738L164.025 102.6C164.1 102.6 164.137 102.638 164.212 102.638C164.325 102.638 164.475 102.6 164.587 102.525L164.85 102.375L164.737 102.788C164.7 102.975 164.812 103.2 165 103.238L168.262 104.1C168.3 104.1 168.337 104.1 168.375 104.1C168.525 104.1 168.675 103.988 168.75 103.838L170.212 98.4002C170.175 98.3627 170.175 98.2502 170.1 98.1752ZM164.175 101.888L160.912 101.025L160.387 100.125L160.687 97.5002L161.587 96.9752L163.312 97.4252C163.35 97.4252 163.387 97.4252 163.425 97.4252C163.612 97.4252 163.8 97.2752 163.8 97.0502L163.837 94.9127C163.837 94.6877 164.025 94.5377 164.212 94.5377C164.25 94.5377 164.287 94.5377 164.325 94.5377L164.587 94.6127L164.737 95.4377L165.337 97.5377L165.862 98.4377L165.075 101.325L164.175 101.888ZM168.075 103.313L165.525 102.638L166.5 98.9627L166.575 98.6627L166.762 97.9502L169.312 98.6252L168.075 103.313Z" fill="#FFB317"/>
<g opacity="0.5">
<path d="M169.838 103.387C169.8 103.387 169.763 103.387 169.725 103.387C169.538 103.35 169.425 103.125 169.463 102.937L170.738 98.2125C170.775 98.025 170.663 97.8 170.475 97.7625L168.788 97.3125C168.6 97.275 168.488 97.05 168.525 96.8625C168.563 96.675 168.788 96.5625 168.975 96.6L170.663 97.05C171.263 97.2 171.6 97.8375 171.45 98.4375L170.175 103.162C170.138 103.312 169.988 103.387 169.838 103.387Z" fill="#FFB317"/>
</g>
<path d="M29.025 88.6127L26.4375 73.8377C26.3625 73.3502 26.0625 72.9002 25.65 72.6377C25.2375 72.3377 24.75 72.2252 24.2625 72.3377L13.2 74.2877C12.7125 74.3627 12.2625 74.6627 12 75.0752C11.7 75.4877 11.5875 75.9752 11.7 76.4627L14.2875 91.2377C14.3625 91.7252 14.6625 92.1752 15.075 92.4377C15.4125 92.6627 15.75 92.7752 16.1625 92.7752C16.275 92.7752 16.3875 92.7752 16.5 92.7377L23.5125 91.5002L24.0375 94.4627C24.075 94.6127 24.15 94.6877 24.3 94.7627C24.3375 94.7627 24.375 94.8002 24.4125 94.8002C24.4875 94.8002 24.6 94.7627 24.675 94.7252L26.1375 93.4502L27.975 94.1627C28.0875 94.2002 28.2375 94.2002 28.35 94.0877C28.4625 94.0127 28.5 93.8627 28.4625 93.7502L27.9375 90.7502C28.275 90.6002 28.575 90.3752 28.8 90.0752C28.9875 89.5877 29.1 89.1002 29.025 88.6127ZM26.1 92.5877C25.9875 92.5502 25.8375 92.5502 25.725 92.6627L24.5625 93.6752L23.625 88.4252L26.5875 87.9002L27.525 93.1502L26.1 92.5877ZM16.125 88.9877L13.9875 76.8002L24.3375 74.9627L26.475 87.1502L16.125 88.9877ZM28.0875 89.5877C27.975 89.7377 27.8625 89.8502 27.7125 89.9252L27.2625 87.4127L24.975 74.4752C24.975 74.3627 24.9 74.2877 24.825 74.2502C24.75 74.1752 24.6375 74.1752 24.5625 74.1752L13.5 76.1252C13.3125 76.1627 13.1625 76.3502 13.2 76.5752L15.4875 89.5127C15.525 89.7002 15.675 89.8127 15.8625 89.8127C15.9 89.8127 15.9 89.8127 15.9375 89.8127L22.95 88.5752L23.325 90.7877L16.3125 92.0252C16.0125 92.0627 15.7125 92.0252 15.4875 91.8377C15.225 91.6502 15.075 91.4252 15.0375 91.1252L12.375 76.3127C12.3375 76.0127 12.375 75.7127 12.5625 75.4877C12.75 75.2252 12.975 75.0752 13.275 75.0377L24.3375 73.0877C24.4125 73.0877 24.4875 73.0877 24.525 73.0877C24.75 73.0877 24.975 73.1627 25.1625 73.2752C25.425 73.4627 25.575 73.6877 25.6125 73.9877L28.2 88.7627C28.35 89.0252 28.275 89.3252 28.0875 89.5877Z" fill="#FFB317"/>
<path d="M216.658 13.0827C217.174 13.0375 217.533 12.3319 217.461 11.5067C217.389 10.6814 216.912 10.0489 216.396 10.0941C215.881 10.1392 215.521 10.8448 215.593 11.6701C215.665 12.4954 216.142 13.1278 216.658 13.0827Z" fill="#FFB317"/>
<path d="M220.782 12.7067C221.297 12.6616 221.657 11.956 221.585 11.1307C221.513 10.3054 221.036 9.67297 220.52 9.7181C220.004 9.76322 219.645 10.4688 219.717 11.2941C219.789 12.1194 220.266 12.7518 220.782 12.7067Z" fill="#FFB317"/>
<path d="M218.775 16.6498C217.913 16.6498 217.088 16.2748 216.413 15.5998C216.263 15.4498 216.263 15.2248 216.413 15.0748C216.563 14.9248 216.788 14.9248 216.938 15.0748C217.538 15.6748 218.25 15.9373 218.963 15.8998C219.713 15.8248 220.35 15.4123 220.838 14.7373C220.95 14.5498 221.175 14.5123 221.363 14.6248C221.55 14.7373 221.588 14.9623 221.475 15.1498C220.875 16.0123 220.013 16.5373 219.038 16.6123C218.963 16.6498 218.888 16.6498 218.775 16.6498Z" fill="#FFB317"/>
<g opacity="0.2">
<path d="M222.15 14.4756C222.771 14.4756 223.275 13.9719 223.275 13.3506C223.275 12.7293 222.771 12.2256 222.15 12.2256C221.529 12.2256 221.025 12.7293 221.025 13.3506C221.025 13.9719 221.529 14.4756 222.15 14.4756Z" fill="#FFB317"/>
</g>
<g opacity="0.2">
<path d="M215.438 15.0752C216.059 15.0752 216.562 14.5715 216.562 13.9502C216.562 13.3289 216.059 12.8252 215.438 12.8252C214.816 12.8252 214.312 13.3289 214.312 13.9502C214.312 14.5715 214.816 15.0752 215.438 15.0752Z" fill="#FFB317"/>
</g>
<path d="M171.75 16.125H158.25V16.5H171.75V16.125Z" fill="#FFB317"/>
<g opacity="0.75">
<path d="M159.75 12H159V15.75H159.75V12Z" fill="#FFB317"/>
</g>
<g opacity="0.5">
<path d="M159.75 9.375H159V10.125H159.75V9.375Z" fill="#FFB317"/>
</g>
<g opacity="0.5">
<path d="M159.75 8.25H159V8.625H159.75V8.25Z" fill="#FFB317"/>
</g>
<g opacity="0.5">
<path d="M160.875 10.125H160.125V10.5H160.875V10.125Z" fill="#FFB317"/>
</g>
<g opacity="0.5">
<path d="M162 10.875H161.25V11.25H162V10.875Z" fill="#FFB317"/>
</g>
<g opacity="0.5">
<path d="M163.125 7.875H162.375V8.25H163.125V7.875Z" fill="#FFB317"/>
</g>
<g opacity="0.5">
<path d="M164.25 9.75H163.5V10.125H164.25V9.75Z" fill="#FFB317"/>
</g>
<g opacity="0.5">
<path d="M165.375 7.5H164.625V7.875H165.375V7.5Z" fill="#FFB317"/>
</g>
<g opacity="0.5">
<path d="M166.5 9H165.75V9.375H166.5V9Z" fill="#FFB317"/>
</g>
<g opacity="0.5">
<path d="M167.625 12.375H166.875V12.75H167.625V12.375Z" fill="#FFB317"/>
</g>
<g opacity="0.5">
<path d="M168.75 10.875H168V11.25H168.75V10.875Z" fill="#FFB317"/>
</g>
<g opacity="0.5">
<path d="M169.875 8.25H169.125V8.625H169.875V8.25Z" fill="#FFB317"/>
</g>
<g opacity="0.5">
<path d="M171 10.5H170.25V10.875H171V10.5Z" fill="#FFB317"/>
</g>
<g opacity="0.35">
<path d="M159.75 10.5H159V11.625H159.75V10.5Z" fill="#FFB317"/>
</g>
<g opacity="0.75">
<path d="M160.875 14.625H160.125V15.75H160.875V14.625Z" fill="#FFB317"/>
</g>
<g opacity="0.5">
<path d="M160.875 11.625H160.125V12.375H160.875V11.625Z" fill="#FFB317"/>
</g>
<g opacity="0.35">
<path d="M160.875 13.125H160.125V14.25H160.875V13.125Z" fill="#FFB317"/>
</g>
<g opacity="0.75">
<path d="M162 14.625H161.25V15.75H162V14.625Z" fill="#FFB317"/>
</g>
<g opacity="0.5">
<path d="M162 12H161.25V12.75H162V12Z" fill="#FFB317"/>
</g>
<g opacity="0.35">
<path d="M162 13.125H161.25V14.25H162V13.125Z" fill="#FFB317"/>
</g>
<g opacity="0.75">
<path d="M163.125 12H162.375V15.75H163.125V12Z" fill="#FFB317"/>
</g>
<g opacity="0.5">
<path d="M163.125 9H162.375V10.125H163.125V9Z" fill="#FFB317"/>
</g>
<g opacity="0.35">
<path d="M163.125 10.5H162.375V11.625H163.125V10.5Z" fill="#FFB317"/>
</g>
<g opacity="0.75">
<path d="M164.25 13.5H163.5V15.75H164.25V13.5Z" fill="#FFB317"/>
</g>
<g opacity="0.5">
<path d="M164.25 10.875H163.5V11.625H164.25V10.875Z" fill="#FFB317"/>
</g>
<g opacity="0.35">
<path d="M164.25 12H163.5V13.125H164.25V12Z" fill="#FFB317"/>
</g>
<g opacity="0.75">
<path d="M165.375 11.25H164.625V15.75H165.375V11.25Z" fill="#FFB317"/>
</g>
<g opacity="0.5">
<path d="M165.375 8.625H164.625V9.375H165.375V8.625Z" fill="#FFB317"/>
</g>
<g opacity="0.35">
<path d="M165.375 9.75H164.625V10.875H165.375V9.75Z" fill="#FFB317"/>
</g>
<g opacity="0.75">
<path d="M166.5 12.75H165.75V15.75H166.5V12.75Z" fill="#FFB317"/>
</g>
<g opacity="0.5">
<path d="M166.5 10.125H165.75V10.875H166.5V10.125Z" fill="#FFB317"/>
</g>
<g opacity="0.35">
<path d="M166.5 11.25H165.75V12.375H166.5V11.25Z" fill="#FFB317"/>
</g>
<g opacity="0.75">
<path d="M167.625 15.375H166.875V15.75H167.625V15.375Z" fill="#FFB317"/>
</g>
<g opacity="0.5">
<path d="M167.625 13.5H166.875V13.875H167.625V13.5Z" fill="#FFB317"/>
</g>
<g opacity="0.35">
<path d="M167.625 14.25H166.875V15H167.625V14.25Z" fill="#FFB317"/>
</g>
<g opacity="0.75">
<path d="M168.75 14.625H168V15.75H168.75V14.625Z" fill="#FFB317"/>
</g>
<g opacity="0.5">
<path d="M168.75 12H168V12.75H168.75V12Z" fill="#FFB317"/>
</g>
<g opacity="0.35">
<path d="M168.75 13.125H168V14.25H168.75V13.125Z" fill="#FFB317"/>
</g>
<g opacity="0.75">
<path d="M169.875 12H169.125V15.75H169.875V12Z" fill="#FFB317"/>
</g>
<g opacity="0.5">
<path d="M169.875 9.375H169.125V10.125H169.875V9.375Z" fill="#FFB317"/>
</g>
<g opacity="0.35">
<path d="M169.875 10.5H169.125V11.625H169.875V10.5Z" fill="#FFB317"/>
</g>
<g opacity="0.75">
<path d="M171 14.25H170.25V15.75H171V14.25Z" fill="#FFB317"/>
</g>
<g opacity="0.5">
<path d="M171 11.625H170.25V12.375H171V11.625Z" fill="#FFB317"/>
</g>
<g opacity="0.35">
<path d="M171 12.75H170.25V13.875H171V12.75Z" fill="#FFB317"/>
</g>
<path d="M208.013 83.7754L203.438 81.8254C203.325 81.7879 203.25 81.6754 203.213 81.5629L202.237 76.6879C202.162 76.2754 201.825 75.9379 201.412 75.8254C201 75.7129 200.55 75.8629 200.287 76.1629L197.588 79.2379V54.7504C197.588 52.8754 196.088 51.3754 194.213 51.3754H50.55C50.2125 49.2004 48.375 47.5879 46.125 47.5879C44.8875 47.5879 43.65 48.1129 42.75 48.9754C41.85 48.1129 40.6125 47.5879 39.375 47.5879C36.8625 47.5879 34.875 49.5754 34.875 52.0879C34.875 55.0879 37.4625 57.4504 41.4 61.0129L42.375 61.8754V90.2629C42.375 90.8629 42.7125 91.4254 43.3125 91.6504C43.5 91.7254 43.6875 91.7629 43.9125 91.7629C44.2875 91.7629 44.6625 91.6129 44.9625 91.3129L49.875 86.4004C50.2125 86.0629 50.7 85.8379 51.1875 85.8379H193.162L191.138 90.1879C190.95 90.5629 191.025 91.0129 191.288 91.3504C191.55 91.6879 192 91.8379 192.412 91.7254L197.25 90.6379C197.363 90.6004 197.513 90.6379 197.588 90.7129L201.225 94.0879C201.45 94.2754 201.712 94.3879 201.975 94.3879C202.125 94.3879 202.238 94.3504 202.388 94.3129C202.8 94.1629 203.062 93.7879 203.1 93.3754L203.55 88.4254C203.55 88.3129 203.625 88.2004 203.737 88.1254L208.088 85.6879C208.463 85.4629 208.688 85.0879 208.65 84.6379C208.688 84.3004 208.425 83.9254 208.013 83.7754ZM35.625 52.0879C35.625 49.9879 37.275 48.3379 39.375 48.3379C40.5375 48.3379 41.7 48.8629 42.45 49.7629C42.6 49.9129 42.8625 49.9129 43.0125 49.7629C43.7625 48.8629 44.925 48.3379 46.0875 48.3379C48.1875 48.3379 49.8375 49.9879 49.8375 52.0879C49.8375 54.7504 47.3625 57.0004 43.575 60.4504L42.7125 61.2379L41.85 60.4504C38.1375 57.0004 35.625 54.7504 35.625 52.0879ZM49.3125 85.9129L44.4 90.8254C44.175 91.0504 43.875 91.1254 43.575 90.9754C43.275 90.8629 43.125 90.6004 43.125 90.3004V61.8754L44.1 60.9754C48 57.4504 50.5875 55.0879 50.5875 52.1254H194.213C195.675 52.1254 196.838 53.2879 196.838 54.7504V79.9879C196.8 80.0254 196.725 80.0254 196.65 80.0254L191.7 79.4254C191.288 79.3879 190.875 79.5754 190.612 79.9129C190.387 80.2879 190.35 80.7379 190.575 81.1129L192.975 85.1254H51.1875C50.475 85.1254 49.8375 85.3879 49.3125 85.9129ZM207.75 85.1254L203.4 87.5629C203.063 87.7504 202.875 88.0879 202.838 88.4254L202.388 93.3754C202.388 93.5254 202.275 93.6379 202.162 93.6754C202.012 93.7129 201.862 93.7129 201.787 93.6004L198.15 90.2254C197.925 90.0379 197.663 89.9254 197.4 89.9254C197.325 89.9254 197.25 89.9254 197.138 89.9629L192.3 91.0504C192.15 91.0879 192 91.0504 191.925 90.9379C191.85 90.8254 191.812 90.6754 191.888 90.5629L193.95 86.0629C194.1 85.7254 194.1 85.3504 193.912 85.0129L191.362 80.7379C191.287 80.6254 191.287 80.4754 191.362 80.3254C191.438 80.2129 191.587 80.1379 191.737 80.1754L196.688 80.7754C197.062 80.8129 197.437 80.6629 197.662 80.4004L200.925 76.6504C201.037 76.5379 201.15 76.5004 201.3 76.5379C201.45 76.5754 201.525 76.6879 201.562 76.8379L202.537 81.7129C202.612 82.0879 202.838 82.3879 203.213 82.5379L207.787 84.4879C207.937 84.5629 208.013 84.6754 208.013 84.8254C208.013 84.9754 207.863 85.0504 207.75 85.1254Z" fill="#FFB317"/>
<path d="M81 101.25C77.475 101.25 74.625 104.1 74.625 107.625C74.625 111.15 77.475 114 81 114C84.525 114 87.375 111.15 87.375 107.625C87.375 104.1 84.525 101.25 81 101.25ZM84.6375 107.25C84.6 106.575 84.525 105.937 84.4125 105.337C85.575 105.787 86.3625 106.463 86.5875 107.25H84.6375ZM83.8875 107.25H81.375V104.737C82.1625 104.775 82.9125 104.888 83.55 105.075C83.7375 105.713 83.85 106.463 83.8875 107.25ZM81.375 103.987V102.038C82.125 102.225 82.8375 103.05 83.2875 104.212C82.6875 104.1 82.05 104.025 81.375 103.987ZM80.625 102.038V103.987C79.95 104.025 79.3125 104.1 78.7125 104.212C79.1625 103.05 79.875 102.263 80.625 102.038ZM80.625 104.737V107.25H78.1125C78.15 106.463 78.2625 105.713 78.45 105.075C79.0875 104.888 79.8375 104.775 80.625 104.737ZM77.3625 107.25H75.4125C75.6 106.5 76.425 105.787 77.5875 105.337C77.475 105.937 77.4 106.575 77.3625 107.25ZM77.3625 108C77.4 108.675 77.475 109.313 77.5875 109.913C76.425 109.463 75.6375 108.787 75.4125 108H77.3625ZM78.1125 108H80.625V110.513C79.8375 110.475 79.0875 110.362 78.45 110.175C78.2625 109.537 78.15 108.787 78.1125 108ZM80.625 111.263V113.212C79.875 113.025 79.1625 112.2 78.7125 111.038C79.3125 111.15 79.95 111.225 80.625 111.263ZM81.375 113.212V111.263C82.05 111.225 82.6875 111.15 83.2875 111.038C82.8375 112.2 82.125 112.987 81.375 113.212ZM81.375 110.513V108H83.8875C83.85 108.787 83.7375 109.537 83.55 110.175C82.9125 110.362 82.1625 110.475 81.375 110.513ZM84.6375 108H86.5875C86.4 108.75 85.575 109.463 84.4125 109.913C84.525 109.313 84.6 108.675 84.6375 108ZM86.2125 105.487C85.6875 105.075 84.975 104.7 84.1875 104.438C83.925 103.612 83.5875 102.938 83.1375 102.413C84.525 102.975 85.65 104.1 86.2125 105.487ZM78.8625 102.413C78.45 102.938 78.075 103.65 77.8125 104.438C76.9875 104.7 76.3125 105.037 75.7875 105.487C76.35 104.1 77.475 102.975 78.8625 102.413ZM75.7875 109.763C76.3125 110.175 77.025 110.55 77.8125 110.812C78.075 111.637 78.4125 112.312 78.8625 112.837C77.475 112.275 76.35 111.15 75.7875 109.763ZM83.1375 112.837C83.55 112.312 83.925 111.6 84.1875 110.812C85.0125 110.55 85.6875 110.213 86.2125 109.763C85.65 111.15 84.525 112.275 83.1375 112.837Z" fill="#FFB317"/>
<path d="M125.062 29.25C127.425 29.25 129.375 31.2 129.375 33.5625C129.375 35.925 127.425 37.875 125.062 37.875C122.7 37.875 120.75 35.925 120.75 33.5625C120.75 31.2 122.7 29.25 125.062 29.25ZM125.062 28.5C122.25 28.5 120 30.75 120 33.5625C120 36.375 122.25 38.625 125.062 38.625C127.875 38.625 130.125 36.375 130.125 33.5625C130.125 30.75 127.875 28.5 125.062 28.5Z" fill="#FFB317"/>
<g opacity="0.5">
<path d="M133.875 46.95C133.575 46.95 133.313 46.8375 133.088 46.6125L130.238 43.7625C130.088 43.6125 130.088 43.3875 130.238 43.2375C130.388 43.0875 130.613 43.0875 130.763 43.2375L133.613 46.0875C133.763 46.2375 133.988 46.2375 134.138 46.0875L135.488 44.7375C135.638 44.5875 135.863 44.5875 136.013 44.7375C136.163 44.8875 136.163 45.1125 136.013 45.2625L134.663 46.6125C134.438 46.8375 134.175 46.95 133.875 46.95Z" fill="#FFB317"/>
</g>
<path d="M81 31.875H67.5C66.8625 31.875 66.375 31.3875 66.375 30.75V17.25C66.375 16.6125 66.8625 16.125 67.5 16.125H81C81.6375 16.125 82.125 16.6125 82.125 17.25V30.75C82.125 31.3875 81.6375 31.875 81 31.875ZM67.5 16.875C67.275 16.875 67.125 17.025 67.125 17.25V30.75C67.125 30.975 67.275 31.125 67.5 31.125H81C81.225 31.125 81.375 30.975 81.375 30.75V17.25C81.375 17.025 81.225 16.875 81 16.875H67.5Z" fill="#FFB317"/>
<g opacity="0.5">
<path d="M81.75 33.375H69C68.775 33.375 68.625 33.225 68.625 33C68.625 32.775 68.775 32.625 69 32.625H81.75C82.3875 32.625 82.875 32.1375 82.875 31.5V28.5C82.875 28.275 83.025 28.125 83.25 28.125C83.475 28.125 83.625 28.275 83.625 28.5V31.5C83.625 32.55 82.8 33.375 81.75 33.375Z" fill="#FFB317"/>
</g>
<path d="M140.175 23.2126C140.137 23.2126 140.1 23.2126 140.062 23.2126L139.687 23.1001L132.825 21.2626C132.338 21.1501 131.925 20.8126 131.7 20.4001C131.475 19.9876 131.4 19.4626 131.513 18.9751L133.837 10.2751C133.987 9.67513 134.625 9.33763 135.225 9.48763L140.662 10.9501C140.962 11.0251 141.187 11.2126 141.337 11.4751C141.487 11.7376 141.525 12.0376 141.45 12.3376L139.125 21.0001C139.05 21.3001 139.087 21.6001 139.237 21.8626C139.387 22.1251 139.612 22.3126 139.912 22.3876L140.287 22.5001C140.475 22.5376 140.587 22.7626 140.55 22.9501C140.475 23.1376 140.325 23.2126 140.175 23.2126ZM134.55 10.4626L132.225 19.1626C132.15 19.4626 132.187 19.7626 132.337 20.0251C132.487 20.2876 132.713 20.4751 133.013 20.5501L138.45 22.0126C138.3 21.6376 138.262 21.2251 138.375 20.8126L140.7 12.1126C140.738 12.0001 140.7 11.9251 140.662 11.8126C140.625 11.7376 140.55 11.6626 140.437 11.6251L135 10.2001C134.812 10.1626 134.625 10.2751 134.55 10.4626Z" fill="#FFB317"/>
<g opacity="0.5">
<path d="M131.625 14.2127C131.587 14.2127 131.55 14.2127 131.512 14.2127C131.325 14.1752 131.212 13.9502 131.25 13.7627L132.487 9.15018C132.75 8.13768 133.8 7.57518 134.775 7.83768L136.95 8.40018C137.137 8.43768 137.25 8.66268 137.212 8.85018C137.175 9.03768 136.95 9.18768 136.762 9.11268L134.587 8.55018C133.987 8.40018 133.387 8.73768 133.2 9.33768L132 13.9502C131.962 14.1002 131.812 14.2127 131.625 14.2127Z" fill="#FFB317"/>
</g>
<path d="M140.663 23.2873C140.475 23.2873 140.288 23.2498 140.062 23.2123L140.25 22.4998C140.625 22.6123 141.038 22.5373 141.375 22.3498C141.712 22.1623 141.975 21.8248 142.087 21.4498L143.362 16.7248C143.4 16.6123 143.363 16.5373 143.325 16.4248C143.288 16.3498 143.213 16.2748 143.1 16.2373L140.212 15.4498L140.4 14.7373L143.288 15.5248C143.588 15.5998 143.812 15.7873 143.962 16.0498C144.112 16.3123 144.15 16.6123 144.075 16.9123L142.8 21.6373C142.65 22.1998 142.275 22.6873 141.75 22.9873C141.45 23.1748 141.038 23.2873 140.663 23.2873Z" fill="#FFB317"/>
<path d="M67.3875 31.3875L66.8625 30.8625L73.2375 24.4875C73.3875 24.3375 73.6125 24.3375 73.7625 24.4875L76.5 27.225L78.4875 25.2375C78.6375 25.0875 78.8625 25.0875 79.0125 25.2375L82.0125 28.2375L81.4875 28.7625L78.75 26.025L76.7625 28.0125C76.6125 28.1625 76.3875 28.1625 76.2375 28.0125L73.5 25.275L67.3875 31.3875Z" fill="#FFB317"/>
<path d="M78 29.625C77.8875 29.625 77.8125 29.5875 77.7375 29.5125L76.2375 28.0125C76.0875 27.8625 76.0875 27.6375 76.2375 27.4875C76.3875 27.3375 76.6125 27.3375 76.7625 27.4875L78.2625 28.9875C78.4125 29.1375 78.4125 29.3625 78.2625 29.5125C78.1875 29.5875 78.1125 29.625 78 29.625Z" fill="#FFB317"/>
<g opacity="0.5">
<path d="M69.75 21.375C69.75 22.425 70.575 23.25 71.625 23.25C72.675 23.25 73.5 22.425 73.5 21.375C73.5 20.325 72.675 19.5 71.625 19.5C70.575 19.5 69.75 20.325 69.75 21.375Z" fill="#FFB317"/>
</g>
<g opacity="0.5">
<path d="M28.7626 79.2374C28.5751 79.2374 28.4251 79.1249 28.3876 78.9374L27.3751 73.1999C27.2626 72.5999 26.9251 72.0749 26.4376 71.7374C25.9501 71.3999 25.3501 71.2499 24.7501 71.3624L16.3501 72.8624C16.1626 72.8999 15.9376 72.7499 15.9001 72.5624C15.8626 72.3749 16.0126 72.1499 16.2001 72.1124L24.6001 70.6124C25.3876 70.4624 26.1751 70.6499 26.8501 71.0999C27.5251 71.5499 27.9376 72.2624 28.0876 73.0499L29.1001 78.7874C29.1376 78.9749 28.9876 79.1999 28.8001 79.2374H28.7626Z" fill="#FFB317"/>
</g>
<path d="M23.175 115.95C23.1375 115.463 22.9125 115.013 22.5 114.675C22.125 114.338 21.6375 114.188 21.15 114.225L13.6875 114.863C12.675 114.938 11.8875 115.875 12 116.888L12.1125 118.388L9.48752 118.613C8.47502 118.688 7.68752 119.625 7.80002 120.638L8.40002 127.575C8.43752 127.875 8.62502 128.138 8.92502 128.213C9.00002 128.25 9.07502 128.25 9.15002 128.25C9.37502 128.25 9.56252 128.138 9.71252 127.988L10.9875 126.488C11.0625 126.413 11.1375 126.375 11.25 126.338L17.6625 125.775C18.675 125.7 19.4625 124.763 19.35 123.75L19.2375 122.25L20.8125 122.1C20.925 122.1 21 122.138 21.075 122.175L22.575 123.45C22.725 123.563 22.875 123.638 23.0625 123.638C23.175 123.638 23.2875 123.6 23.4 123.563C23.6625 123.413 23.8125 123.15 23.8125 122.85L23.175 115.95ZM18.6 123.9C18.6375 124.5 18.1875 125.063 17.5875 125.1L11.175 125.663C10.875 125.7 10.6125 125.85 10.425 126.075L9.15002 127.575L8.55002 120.638C8.51252 120.038 8.96252 119.475 9.56252 119.4L12.1875 119.175L12.3375 121.05C12.375 121.538 12.6 121.988 13.0125 122.325C13.3875 122.663 13.875 122.813 14.3625 122.775L18.4875 122.4L18.6 123.9ZM21.5625 121.688C21.375 121.5 21.1125 121.425 20.85 121.425C20.8125 121.425 20.775 121.425 20.7375 121.425L14.325 121.988C14.025 122.025 13.725 121.913 13.5 121.725C13.275 121.538 13.125 121.275 13.0875 120.975L12.7125 116.85C12.675 116.25 13.125 115.688 13.725 115.613L21.1875 114.975C21.4875 114.938 21.7875 115.05 22.0125 115.238C22.2375 115.425 22.3875 115.688 22.425 115.988L23.025 122.925L21.5625 121.688Z" fill="#FFB317"/>
<path d="M104.888 112.838C105.188 113.063 105.562 113.175 105.975 113.175C106.087 113.175 106.2 113.175 106.312 113.138C106.8 113.063 107.25 112.763 107.513 112.35C107.813 111.938 107.925 111.45 107.812 110.963C107.737 110.475 107.437 110.025 107.025 109.763C106.612 109.463 106.125 109.35 105.638 109.463C105.15 109.538 104.7 109.838 104.437 110.25C103.837 111.075 104.063 112.238 104.888 112.838ZM105.037 110.663C105.225 110.4 105.45 110.25 105.75 110.213C105.825 110.213 105.9 110.213 105.937 110.213C106.162 110.213 106.388 110.288 106.575 110.4C106.838 110.588 106.987 110.813 107.025 111.113C107.062 111.413 107.025 111.713 106.837 111.938C106.65 112.2 106.425 112.35 106.125 112.388C105.825 112.425 105.525 112.388 105.3 112.2C104.812 111.863 104.7 111.15 105.037 110.663Z" fill="#FFB317"/>
<path d="M115.275 118.8L114.15 112.538C114.075 112.05 113.775 111.6 113.363 111.338C112.95 111.038 112.463 110.925 111.975 111.038L110.813 111.263C110.775 109.763 110.063 108.3 108.75 107.363C106.538 105.825 103.5 106.35 101.963 108.563C101.025 109.875 100.875 111.525 101.363 112.95L98.7 113.4C98.2125 113.475 97.7625 113.775 97.5 114.188C97.2 114.6 97.0875 115.088 97.2 115.575L98.325 121.838C98.475 122.738 99.2625 123.375 100.163 123.375C100.275 123.375 100.388 123.375 100.5 123.338L113.813 120.975C114.788 120.788 115.463 119.812 115.275 118.8ZM102.713 114.9C102.863 115.013 103.013 115.163 103.163 115.275L106.425 117.563C106.575 117.675 106.763 117.713 106.913 117.713C107.175 117.713 107.475 117.6 107.625 117.338L109.913 114.075C110.025 113.925 110.138 113.738 110.213 113.55L111.6 113.288L112.575 118.838L101.85 120.713L100.875 115.163L102.713 114.9ZM102.6 108.938C103.913 107.063 106.5 106.613 108.338 107.925C110.213 109.238 110.663 111.825 109.35 113.663L107.063 116.925C107.025 117 106.95 117 106.875 116.963L103.613 114.675C101.738 113.363 101.288 110.775 102.6 108.938ZM113.625 120.225L100.313 122.588C99.7125 122.7 99.1125 122.288 99 121.688L97.875 115.425C97.8375 115.125 97.875 114.825 98.0625 114.6C98.25 114.338 98.475 114.188 98.775 114.15L101.588 113.663C101.7 113.888 101.85 114.113 102.038 114.338L100.388 114.638C100.275 114.638 100.2 114.713 100.163 114.788C100.088 114.863 100.088 114.975 100.088 115.05L101.213 121.313C101.213 121.425 101.288 121.5 101.363 121.538C101.438 121.575 101.513 121.612 101.588 121.612C101.625 121.612 101.625 121.612 101.663 121.612L113.1 119.588C113.288 119.55 113.438 119.363 113.4 119.138L112.275 112.875C112.238 112.688 112.05 112.538 111.825 112.575L110.55 112.8C110.625 112.538 110.7 112.275 110.738 112.013L112.088 111.788C112.163 111.788 112.238 111.788 112.275 111.788C112.5 111.788 112.725 111.863 112.913 111.975C113.175 112.163 113.325 112.388 113.363 112.688L114.488 118.95C114.638 119.513 114.263 120.113 113.625 120.225Z" fill="#FFB317"/>
<path d="M230.925 126.188L229.538 124.8C228.975 124.238 228.225 124.05 227.513 124.2C227.663 123.488 227.438 122.738 226.913 122.175L225.525 120.788C225.113 120.375 224.55 120.15 223.95 120.15C223.35 120.15 222.788 120.375 222.375 120.788C221.963 121.2 221.738 121.763 221.738 122.363C221.738 122.963 221.963 123.525 222.375 123.938L223.763 125.325C224.213 125.775 224.775 125.963 225.338 125.963C225.488 125.963 225.638 125.963 225.788 125.925C225.638 126.638 225.863 127.388 226.388 127.95L227.775 129.338C228.188 129.75 228.75 129.975 229.35 129.975C229.95 129.975 230.513 129.75 230.925 129.338C231.338 128.925 231.563 128.363 231.563 127.763C231.6 127.163 231.338 126.6 230.925 126.188ZM223.65 122.663C223.5 122.513 223.5 122.288 223.65 122.138L223.725 122.063C223.8 121.988 223.875 121.95 223.988 121.95C224.1 121.95 224.175 121.988 224.25 122.063L224.888 122.7C224.775 122.775 224.625 122.85 224.55 122.925C224.438 123.038 224.363 123.15 224.325 123.263L223.65 122.663ZM225.038 124.05C224.963 123.975 224.925 123.863 224.925 123.75C224.925 123.638 224.963 123.525 225.038 123.45C225.113 123.375 225.225 123.338 225.338 123.338C225.45 123.338 225.563 123.375 225.638 123.45L228.263 126.075C228.338 126.15 228.375 126.263 228.375 126.375C228.375 126.488 228.338 126.6 228.263 126.675C228.113 126.825 227.813 126.825 227.663 126.675L225.038 124.05ZM228.825 127.238C228.938 127.125 229.013 127.013 229.05 126.9L229.688 127.538C229.838 127.688 229.838 127.913 229.688 128.063L229.613 128.138C229.463 128.288 229.238 128.288 229.088 128.138L228.45 127.5C228.563 127.425 228.713 127.313 228.825 127.238ZM222.938 123.45C222.675 123.188 222.488 122.813 222.488 122.4C222.488 121.988 222.638 121.65 222.938 121.35C223.238 121.05 223.575 120.9 223.988 120.9C224.4 120.9 224.738 121.05 225.038 121.35L226.425 122.738C226.65 122.963 226.8 123.263 226.838 123.6L226.238 123L226.2 122.963L224.775 121.538C224.363 121.125 223.613 121.125 223.2 121.538L223.125 121.613C222.675 122.063 222.675 122.775 223.125 123.188L224.55 124.613L224.588 124.65L225.188 125.25C224.888 125.213 224.588 125.063 224.325 124.838L222.938 123.45ZM230.4 128.813C229.838 129.375 228.863 129.375 228.3 128.813L226.913 127.425C226.688 127.2 226.538 126.9 226.5 126.563L227.1 127.163L227.138 127.2L228.563 128.625C228.788 128.85 229.05 128.963 229.35 128.963C229.65 128.963 229.95 128.85 230.138 128.625L230.213 128.55C230.663 128.1 230.663 127.388 230.213 126.975L228.788 125.55L228.188 124.95C228.488 124.988 228.788 125.138 229.05 125.363L230.438 126.75C230.7 127.013 230.888 127.388 230.888 127.8C230.888 128.213 230.663 128.55 230.4 128.813Z" fill="#FFB317"/>
<path d="M178.725 32.8877C178.162 33.3002 177.75 33.9002 177.637 34.5752L177.45 35.7002C177.412 35.8877 177.562 36.1127 177.75 36.1502L186.6 37.7252C186.637 37.7252 186.637 37.7252 186.675 37.7252C186.862 37.7252 187.012 37.6127 187.05 37.4252L187.237 36.3002C187.5 34.8752 186.525 33.5252 185.1 33.2627L184.312 33.1127C184.5 32.9627 184.725 32.7752 184.912 32.5502C185.475 31.9127 185.887 31.0502 186.037 30.3752C186.15 29.7002 186 28.9877 185.587 28.4252C185.175 27.8627 184.575 27.4502 183.9 27.3377C182.475 27.0752 181.125 28.0502 180.862 29.4752C180.712 30.3002 180.937 31.6877 181.537 32.6252L180.712 32.4752C180 32.3252 179.325 32.4752 178.725 32.8877ZM186.525 36.1502L186.412 36.9002L178.275 35.4752L178.387 34.7252C178.462 34.2377 178.762 33.7877 179.175 33.5252C179.587 33.2252 180.075 33.1127 180.562 33.2252L182.775 33.6002L184.987 33.9752C186.037 34.1252 186.712 35.1002 186.525 36.1502ZM181.575 29.5502C181.725 28.6502 182.512 28.0127 183.412 28.0127C183.525 28.0127 183.637 28.0127 183.75 28.0502C184.237 28.1252 184.687 28.4252 184.95 28.8377C185.25 29.2502 185.362 29.7377 185.25 30.2252C185.062 31.3127 183.825 33.0377 182.887 32.8502C181.987 32.6627 181.387 30.6377 181.575 29.5502Z" fill="#FFB317"/>
<path d="M190.762 25.0878C189.525 24.8628 188.362 25.6878 188.137 26.9253C187.912 28.1628 188.737 29.3253 189.975 29.5503C191.212 29.7753 192.375 28.9503 192.6 27.7128C192.787 26.4753 192 25.2753 190.762 25.0878Z" fill="#FFB317"/>
<path d="M195.15 21.6747C194.325 21.5247 193.537 22.0872 193.425 22.8747C193.275 23.6997 193.837 24.4872 194.625 24.5997C195.45 24.7497 196.237 24.1872 196.35 23.3997C196.462 22.6122 195.975 21.8247 195.15 21.6747Z" fill="#FFB317"/>
<path d="M192.787 17.8126C192.375 17.7376 192 18.0001 191.925 18.4126C191.85 18.8251 192.113 19.2001 192.525 19.2751C192.938 19.3501 193.313 19.0876 193.388 18.6751C193.463 18.2626 193.2 17.8876 192.787 17.8126Z" fill="#FFB317"/>
<path d="M191.512 30.4499C191.7 31.4624 191.737 32.5124 191.55 33.5624C190.725 38.2499 186.262 41.3999 181.575 40.5749C176.887 39.7499 173.737 35.2499 174.562 30.5999C174.975 28.3124 176.212 26.3624 178.125 25.0499C179.587 24.0374 181.312 23.4749 183.037 23.4749C183.525 23.4749 184.05 23.5124 184.537 23.6249C185.775 23.8499 186.937 24.3374 187.912 25.0124C188.1 24.8249 188.287 24.6374 188.512 24.5249C187.387 23.7374 186.112 23.1749 184.687 22.9124C182.212 22.4624 179.737 23.0249 177.675 24.4499C175.612 25.8749 174.262 28.0499 173.812 30.4874C172.912 35.5874 176.325 40.4624 181.425 41.3624C181.987 41.4749 182.512 41.5124 183.075 41.5124C187.537 41.5124 191.512 38.3249 192.3 33.7499C192.525 32.5124 192.487 31.3124 192.225 30.1499C192 30.2624 191.775 30.3749 191.512 30.4499Z" fill="#FFB317"/>
<path opacity="0.2" d="M214.05 20.9256C213.825 21.1881 213.412 21.0381 213.375 20.7006L213.225 18.9756L208.725 19.3506L209.737 30.9381L216.45 30.3381L215.475 19.2006C215.4 19.2381 215.325 19.3131 215.287 19.3506L214.05 20.9256Z" fill="#FFB317"/>
<path d="M224.7 8.21287C224.625 7.20037 223.688 6.41287 222.675 6.52537L213.713 7.31287C213.225 7.35037 212.775 7.57537 212.438 7.98787C212.1 8.36287 211.95 8.85037 211.988 9.33787L212.625 16.8004L208.5 17.1754C208.013 17.2129 207.563 17.4379 207.225 17.8504C206.888 18.2629 206.738 18.7129 206.775 19.2004L207.938 32.6629C208.013 33.6379 208.838 34.3879 209.813 34.3879C209.85 34.3879 209.925 34.3879 209.963 34.3879L216.675 33.7879C217.688 33.7129 218.475 32.7754 218.363 31.7629L217.275 19.4254L223.613 18.8629C224.625 18.7879 225.413 17.8504 225.3 16.8379L224.7 8.21287ZM215.213 20.1379L216.075 30.0754L210.113 30.6004L209.175 19.7629L212.925 19.4254L213.038 20.7754C213.075 21.0754 213.263 21.3379 213.563 21.4129C213.638 21.4504 213.713 21.4504 213.788 21.4504C214.013 21.4504 214.2 21.3379 214.35 21.1879L215.213 20.1379ZM217.763 31.8004C217.8 32.4004 217.35 32.9629 216.75 33.0379L210 33.6004C209.363 33.6379 208.838 33.1879 208.8 32.5879L207.6 19.1254C207.563 18.8254 207.675 18.5254 207.863 18.3004C208.05 18.0754 208.313 17.9254 208.613 17.8879L212.738 17.5129L212.85 18.6379L208.725 19.0129C208.613 19.0129 208.538 19.0504 208.463 19.1629C208.388 19.2379 208.35 19.3504 208.388 19.4254L209.4 31.0129C209.4 31.2004 209.588 31.3504 209.775 31.3504H209.813L216.525 30.7504C216.638 30.7504 216.713 30.7129 216.788 30.6004C216.863 30.5254 216.9 30.4129 216.863 30.3379L215.925 19.5004L216.675 19.4254L217.763 31.8004ZM223.688 18.1129L215.775 18.7879C215.475 18.8254 215.213 18.9379 215.025 19.2004L213.75 20.7004L212.738 9.26287C212.7 8.96287 212.813 8.66287 213 8.43787C213.188 8.21287 213.45 8.06287 213.75 8.02537L222.713 7.23787C223.35 7.20037 223.875 7.65037 223.913 8.25037L224.663 16.8379C224.775 17.5129 224.325 18.0379 223.688 18.1129Z" fill="#FFB317"/>
<path d="M107.138 45.4877L105.3 38.5877C105.3 38.5502 105.263 38.5127 105.225 38.4377C105.188 38.4002 105.15 38.3627 105.113 38.3252L103.425 37.3502L103.088 36.0377C103.013 35.7377 102.825 35.5127 102.563 35.3627C102.3 35.2127 102 35.1752 101.7 35.2502L100.388 35.5877L98.8875 34.7252C98.3625 34.4252 97.65 34.6127 97.35 35.1377L96.4875 36.6377L95.175 36.9752C94.875 37.0502 94.65 37.2377 94.5 37.5002C94.35 37.7627 94.3125 38.0627 94.3875 38.3627L94.725 39.6752L93.75 41.3627C93.7125 41.4002 93.7125 41.4377 93.7125 41.4752C93.7125 41.5127 93.7125 41.5877 93.7125 41.6252L95.55 48.5252C95.5875 48.6377 95.625 48.7127 95.7375 48.7502C95.8125 48.7877 95.85 48.7877 95.925 48.7877C95.9625 48.7877 96 48.7877 96.0375 48.7877L106.913 45.8627C107.1 45.9002 107.213 45.6752 107.138 45.4877ZM104.438 38.8502L104.025 39.5627L103.725 38.4002L104.438 38.8502ZM98.025 35.5502C98.1375 35.3627 98.3625 35.3252 98.55 35.4002L99.4125 35.8877L97.5375 36.3752L98.025 35.5502ZM95.4 37.7627L101.925 36.0002C102.038 35.9627 102.113 36.0002 102.225 36.0377C102.3 36.0752 102.375 36.1502 102.413 36.2627L103.538 40.4627L101.588 43.8752L99.7125 44.3627L96.3 42.4127L95.175 38.2127C95.0625 38.0252 95.175 37.8377 95.4 37.7627ZM95.325 41.8877L94.6125 41.4752L95.025 40.7627L95.325 41.8877ZM96.1875 48.0377L94.6875 42.3752L95.7375 42.9752L99.4125 45.1127C99.4875 45.1502 99.525 45.1502 99.6 45.1502C99.6375 45.1502 99.675 45.1502 99.7125 45.1502L101.888 44.5502C102 44.5127 102.075 44.4752 102.113 44.3627L104.25 40.6877L104.85 39.6377L106.35 45.3002L96.1875 48.0377Z" fill="#FFB317"/>
<path d="M99.4126 41.6631C99.5626 41.6631 99.7501 41.6256 99.9001 41.5881C100.913 41.3256 101.475 40.2756 101.213 39.3006C100.95 38.2881 99.9001 37.7256 98.9251 37.9881C97.9126 38.2506 97.3501 39.3006 97.6126 40.2756C97.8376 41.1006 98.5876 41.6631 99.4126 41.6631ZM99.1126 38.7006C99.2251 38.6631 99.3001 38.6631 99.4126 38.6631C99.9001 38.6631 100.35 39.0006 100.5 39.4881C100.65 40.0881 100.313 40.6881 99.7126 40.8756C99.1126 41.0256 98.5126 40.6881 98.3251 40.0881C98.1751 39.4881 98.5126 38.8506 99.1126 38.7006Z" fill="#FFB317"/>
<path d="M136.388 42.1125L132.263 37.9875C132.113 37.8375 131.887 37.8375 131.737 37.9875L131.438 38.2875L130.462 37.3125C131.212 36.2625 131.625 34.95 131.625 33.5625C131.625 29.925 128.7 27 125.062 27C121.425 27 118.5 29.925 118.5 33.5625C118.5 37.2 121.425 40.125 125.062 40.125C126.45 40.125 127.725 39.675 128.812 38.9625L129.788 39.9375L129.487 40.2375C129.337 40.3875 129.337 40.6125 129.487 40.7625L133.612 44.8875C133.687 44.9625 133.8 45 133.875 45C133.95 45 134.063 44.9625 134.138 44.8875L136.388 42.6375C136.538 42.4875 136.538 42.2625 136.388 42.1125ZM119.25 33.5625C119.25 30.375 121.875 27.75 125.062 27.75C128.25 27.75 130.875 30.375 130.875 33.5625C130.875 36.75 128.25 39.375 125.062 39.375C121.875 39.375 119.25 36.75 119.25 33.5625ZM129.375 38.475C129.6 38.2875 129.788 38.1 129.975 37.875L130.913 38.8125L130.312 39.4125L129.375 38.475ZM133.875 44.1L130.275 40.5L132 38.775L135.6 42.375L133.875 44.1Z" fill="#FFB317"/>
</svg>
