<svg width="24" height="24" viewBox="0 0 24 24" fill="none" xmlns="http://www.w3.org/2000/svg">
<path d="M23.6712 4.665L21.6712 0.665C21.609 0.540279 21.5132 0.435379 21.3946 0.362073C21.2761 0.288768 21.1394 0.249958 21 0.25H3C2.8606 0.249958 2.72395 0.288768 2.60538 0.362073C2.48681 0.435379 2.39102 0.540279 2.32875 0.665L0.32875 4.665C0.277189 4.76916 0.250246 4.88378 0.25 5V22C0.25 22.4641 0.434375 22.9092 0.762563 23.2374C1.09075 23.5656 1.53587 23.75 2 23.75H22C22.4641 23.75 22.9092 23.5656 23.2374 23.2374C23.5656 22.9092 23.75 22.4641 23.75 22V5C23.7498 4.88378 23.7228 4.76916 23.6712 4.665ZM3.46375 1.75H20.5362L21.7862 4.25H2.21375L3.46375 1.75ZM22 22.25H2C1.9337 22.25 1.87011 22.2237 1.82322 22.1768C1.77634 22.1299 1.75 22.0663 1.75 22V5.75H22.25V22C22.25 22.0663 22.2237 22.1299 22.1768 22.1768C22.1299 22.2237 22.0663 22.25 22 22.25ZM16.53 14.47C16.6705 14.6106 16.7493 14.8012 16.7493 15C16.7493 15.1988 16.6705 15.3894 16.53 15.53L12.53 19.53C12.3894 19.6705 12.1988 19.7493 12 19.7493C11.8012 19.7493 11.6106 19.6705 11.47 19.53L7.47 15.53C7.33752 15.3878 7.2654 15.1998 7.26882 15.0055C7.27225 14.8112 7.35097 14.6258 7.48838 14.4884C7.62579 14.351 7.81118 14.2723 8.00548 14.2688C8.19978 14.2654 8.38783 14.3375 8.53 14.47L11.25 17.1887V9C11.25 8.80109 11.329 8.61032 11.4697 8.46967C11.6103 8.32902 11.8011 8.25 12 8.25C12.1989 8.25 12.3897 8.32902 12.5303 8.46967C12.671 8.61032 12.75 8.80109 12.75 9V17.1887L15.47 14.47C15.6106 14.3295 15.8012 14.2507 16 14.2507C16.1988 14.2507 16.3894 14.3295 16.53 14.47Z" fill="#B5B5B5"/>
</svg>
