<svg width="38" height="38" viewBox="0 0 38 38" fill="none" xmlns="http://www.w3.org/2000/svg">
<path d="M33.5214 31.2525C33.5299 31.2397 33.5426 31.227 33.5511 31.2143C36.329 27.9105 38 23.6525 38 19C38 14.3475 36.329 10.0895 33.5554 6.78571C33.5469 6.77299 33.5342 6.76451 33.5257 6.75179C33.479 6.69665 33.4366 6.64576 33.39 6.59487C33.373 6.57366 33.356 6.5567 33.3391 6.53549L33.1652 6.33616L33.1609 6.33192C33.0973 6.25982 33.0295 6.18772 32.9658 6.11562L32.9616 6.11138C32.8259 5.96719 32.6902 5.82299 32.5502 5.68304L32.546 5.67879L32.3424 5.47522L32.3297 5.4625C32.2661 5.39888 32.2025 5.33951 32.1388 5.28013C32.1176 5.25893 32.0964 5.23772 32.071 5.21652C32.0286 5.17411 31.9862 5.13594 31.9437 5.09777C31.931 5.08504 31.9141 5.07232 31.9013 5.05536C28.517 1.91696 23.9833 0 19 0C14.0167 0 9.48304 1.91696 6.09442 5.05536C6.0817 5.06808 6.06473 5.0808 6.05201 5.09777C6.0096 5.13594 5.96719 5.17835 5.92478 5.22076C5.90357 5.24196 5.88237 5.26317 5.85692 5.28438C5.7933 5.34375 5.72969 5.40737 5.66607 5.46674L5.65335 5.47946L5.44978 5.68304L5.44554 5.68728C5.30558 5.82723 5.16987 5.97143 5.03415 6.11562L5.02991 6.11987C4.96205 6.19196 4.89844 6.26406 4.83482 6.33616L4.83058 6.3404C4.7712 6.40402 4.71183 6.47187 4.6567 6.53973C4.63973 6.56094 4.62277 6.5779 4.6058 6.59911C4.55915 6.65 4.51674 6.70513 4.47009 6.75603C4.46161 6.76875 4.44888 6.77723 4.4404 6.78996C1.67098 10.0895 0 14.3475 0 19C0 23.6525 1.67098 27.9105 4.44464 31.2143C4.45312 31.227 4.46585 31.2397 4.47433 31.2525L4.6058 31.4094C4.62277 31.4306 4.63973 31.4475 4.6567 31.4687L4.83058 31.6681C4.83058 31.6723 4.83482 31.6723 4.83482 31.6766C4.89844 31.7487 4.96205 31.8208 5.02991 31.8886L5.03415 31.8929C5.16987 32.0371 5.30558 32.1812 5.44129 32.3212L5.44554 32.3254C5.51339 32.3933 5.57701 32.4612 5.64487 32.5248L5.65759 32.5375C5.79754 32.6775 5.94174 32.8132 6.08594 32.9446C9.48304 36.083 14.0167 38 19 38C23.9833 38 28.517 36.083 31.9056 32.9446C32.0501 32.8122 32.1915 32.6765 32.3297 32.5375L32.3424 32.5248C32.4103 32.4569 32.4781 32.3933 32.5417 32.3254L32.546 32.3212C32.6859 32.1812 32.8217 32.0371 32.9531 31.8929L32.9574 31.8886C33.021 31.8165 33.0888 31.7487 33.1525 31.6766C33.1525 31.6723 33.1567 31.6723 33.1567 31.6681C33.2161 31.6045 33.2754 31.5366 33.3306 31.4687C33.3475 31.4475 33.3645 31.4306 33.3815 31.4094C33.4294 31.3582 33.4761 31.3059 33.5214 31.2525ZM33.6953 25.2047C33.11 26.5873 32.3382 27.8681 31.3967 29.0301C30.3363 28.1137 29.177 27.3186 27.9402 26.6594C28.4321 24.6703 28.7375 22.4862 28.8181 20.1875H34.904C34.7768 21.9221 34.3696 23.6058 33.6953 25.2047ZM34.904 17.8125H28.8181C28.7375 15.5138 28.4321 13.3297 27.9402 11.3406C29.1828 10.679 30.3406 9.8817 31.3967 8.96987C33.4433 11.489 34.6675 14.5754 34.904 17.8125ZM25.2047 4.30469C26.8884 5.01719 28.4194 6.00112 29.7681 7.23951C28.9846 7.9066 28.1413 8.50003 27.2489 9.01228C26.583 7.10379 25.7306 5.44554 24.7382 4.11808C24.8951 4.17746 25.052 4.24107 25.2047 4.30469ZM21.3623 34.0176C20.9721 34.323 20.5819 34.5562 20.1875 34.7132V26.846C21.8703 26.9634 23.5252 27.3381 25.0944 27.9571C24.7424 29.0004 24.3353 29.9632 23.8645 30.8326C23.1266 32.2067 22.2614 33.3051 21.3623 34.0176ZM23.8645 7.16741C24.331 8.04107 24.7424 9.00379 25.0944 10.0429C23.5252 10.6619 21.8703 11.0366 20.1875 11.154V3.29107C20.5777 3.44799 20.9721 3.67701 21.3623 3.98661C22.2614 4.69487 23.1266 5.7933 23.8645 7.16741ZM20.1875 24.4667V20.1875H26.4431C26.3752 22.0621 26.142 23.8815 25.7518 25.6076L25.7391 25.6585C23.9592 24.9836 22.0875 24.5818 20.1875 24.4667ZM20.1875 17.8125V13.5333C22.1299 13.4145 23.996 13.0031 25.7391 12.3415L25.7518 12.3924C26.142 14.1185 26.3752 15.9337 26.4431 17.8125H20.1875ZM17.8125 20.1875V24.4667C15.8701 24.5855 14.004 24.9969 12.2609 25.6585L12.2482 25.6076C11.858 23.8815 11.6248 22.0663 11.5569 20.1875H17.8125ZM11.5569 17.8125C11.6248 15.9379 11.858 14.1185 12.2482 12.3924L12.2609 12.3415C14.004 13.0031 15.8658 13.4145 17.8125 13.5333V17.8125H11.5569ZM17.8125 26.846V34.7089C17.4223 34.552 17.0279 34.323 16.6377 34.0134C15.7386 33.3051 14.8692 32.2025 14.1312 30.8283C13.6647 29.9547 13.2533 28.992 12.9013 27.9529C14.479 27.3337 16.1203 26.9647 17.8125 26.846ZM17.8125 11.154C16.1297 11.0366 14.4748 10.6619 12.9056 10.0429C13.2576 8.99955 13.6647 8.03683 14.1355 7.16741C14.8734 5.7933 15.7386 4.69062 16.642 3.98237C17.0321 3.67701 17.4223 3.44375 17.8167 3.28683V11.154H17.8125ZM12.7953 4.30469C12.9522 4.24107 13.1049 4.17746 13.2618 4.11808C12.2694 5.44554 11.417 7.10379 10.7511 9.01228C9.86049 8.50335 9.01652 7.9096 8.23192 7.23951C9.58058 6.00112 11.1116 5.01719 12.7953 4.30469ZM4.30469 12.7953C4.88996 11.4127 5.66183 10.1319 6.60335 8.96987C7.65937 9.8817 8.81719 10.679 10.0598 11.3406C9.56786 13.3297 9.2625 15.5138 9.18192 17.8125H3.09598C3.22321 16.0779 3.63036 14.3942 4.30469 12.7953ZM3.09598 20.1875H9.18192C9.2625 22.4862 9.56786 24.6703 10.0598 26.6594C8.82304 27.3186 7.66371 28.1137 6.60335 29.0301C4.55673 26.511 3.3325 23.4246 3.09598 20.1875ZM12.7953 33.6953C11.1116 32.9828 9.58058 31.9989 8.23192 30.7605C9.01652 30.0904 9.86049 29.5009 10.7511 28.9877C11.417 30.8962 12.2694 32.5545 13.2618 33.8819C13.1049 33.8225 12.948 33.7589 12.7953 33.6953ZM25.2047 33.6953C25.0478 33.7589 24.8951 33.8225 24.7382 33.8819C25.7306 32.5545 26.583 30.8962 27.2489 28.9877C28.1395 29.4967 28.9835 30.0904 29.7681 30.7605C28.4269 31.9937 26.8832 32.9865 25.2047 33.6953Z" fill="#898989"/>
</svg>
