<svg width="32" height="32" viewBox="0 0 32 32" fill="none" xmlns="http://www.w3.org/2000/svg">
<path d="M7.5 5C7.77614 5 8 4.77614 8 4.5C8 4.22386 7.77614 4 7.5 4C7.22386 4 7 4.22386 7 4.5C7 4.77614 7.22386 5 7.5 5Z" fill="#898989"/>
<path d="M5.5 5C5.77614 5 6 4.77614 6 4.5C6 4.22386 5.77614 4 5.5 4C5.22386 4 5 4.22386 5 4.5C5 4.77614 5.22386 5 5.5 5Z" fill="#898989"/>
<path d="M3.5 5C3.77614 5 4 4.77614 4 4.5C4 4.22386 3.77614 4 3.5 4C3.22386 4 3 4.22386 3 4.5C3 4.77614 3.22386 5 3.5 5Z" fill="#898989"/>
<path d="M30.5 7H3.5C3.224 7 3 6.776 3 6.5C3 6.224 3.224 6 3.5 6H30.5C30.776 6 31 6.224 31 6.5C31 6.776 30.776 7 30.5 7Z" fill="#898989"/>
<path d="M30.5 22C30.224 22 30 21.776 30 21.5V3.5C30 3.225 29.776 3 29.5 3H2.5C2.224 3 2 3.225 2 3.5V19.5C2 19.776 1.776 20 1.5 20C1.224 20 1 19.776 1 19.5V3.5C1 2.673 1.673 2 2.5 2H29.5C30.327 2 31 2.673 31 3.5V21.5C31 21.776 30.776 22 30.5 22Z" fill="#898989"/>
<path d="M21.5 31H10.5C10.224 31 10 30.776 10 30.5C10 30.224 10.224 30 10.5 30H11.5C12.327 30 13 29.327 13 28.5V27.5C13 27.224 13.224 27 13.5 27C13.776 27 14 27.224 14 27.5V28.5C14 29.063 13.813 29.582 13.499 30H18.501C18.187 29.582 18 29.063 18 28.5V25.5C18 25.224 18.224 25 18.5 25C18.776 25 19 25.224 19 25.5V28.5C19 29.327 19.673 30 20.5 30H21.5C21.776 30 22 30.224 22 30.5C22 30.776 21.776 31 21.5 31Z" fill="#898989"/>
<path d="M29.5 26H2.5C1.673 26 1 25.327 1 24.5V21.5C1 21.224 1.224 21 1.5 21H30.5C30.776 21 31 21.224 31 21.5V24.5C31 25.327 30.327 26 29.5 26ZM2 22V24.5C2 24.775 2.224 25 2.5 25H29.5C29.776 25 30 24.775 30 24.5V22H2Z" fill="#898989"/>
<path d="M28.5 15H3.5C3.224 15 3 14.776 3 14.5V8.5C3 8.224 3.224 8 3.5 8H28.5C28.776 8 29 8.224 29 8.5V14.5C29 14.776 28.776 15 28.5 15ZM4 14H28V9H4V14Z" fill="#898989"/>
<path d="M28.5 17H17.5C17.224 17 17 16.776 17 16.5C17 16.224 17.224 16 17.5 16H28.5C28.776 16 29 16.224 29 16.5C29 16.776 28.776 17 28.5 17Z" fill="#898989"/>
<path d="M28.5 19H17.5C17.224 19 17 18.776 17 18.5C17 18.224 17.224 18 17.5 18H28.5C28.776 18 29 18.224 29 18.5C29 18.776 28.776 19 28.5 19Z" fill="#898989"/>
<path d="M14.5 17H3.5C3.224 17 3 16.776 3 16.5C3 16.224 3.224 16 3.5 16H14.5C14.776 16 15 16.224 15 16.5C15 16.776 14.776 17 14.5 17Z" fill="#898989"/>
<path d="M14.5 19H3.5C3.224 19 3 18.776 3 18.5C3 18.224 3.224 18 3.5 18H14.5C14.776 18 15 18.224 15 18.5C15 18.776 14.776 19 14.5 19Z" fill="#898989"/>
</svg>
