<svg width="21" height="20" viewBox="0 0 21 20" fill="none" xmlns="http://www.w3.org/2000/svg">
<path d="M0 20L1.44976 14.8642C0.555155 13.3608 0.0850779 11.6567 0.0859373 9.90917C0.0885154 4.44583 4.67327 0 10.3065 0C13.0401 0.000833333 15.6062 1.03333 17.5364 2.90667C19.4657 4.78 20.5278 7.27 20.527 9.91833C20.5244 15.3825 15.9397 19.8283 10.3065 19.8283C8.59631 19.8275 6.91108 19.4117 5.41835 18.6217L0 20ZM5.66928 16.8275C7.10959 17.6567 8.48459 18.1533 10.303 18.1542C14.9849 18.1542 18.7988 14.4592 18.8014 9.91667C18.8031 5.365 15.0072 1.675 10.3099 1.67333C5.6246 1.67333 1.81328 5.36833 1.81156 9.91C1.8107 11.7642 2.37101 13.1525 3.31202 14.605L2.45351 17.645L5.66928 16.8275ZM15.455 12.2742C15.3914 12.1708 15.2212 12.1092 14.9651 11.985C14.7099 11.8608 13.4543 11.2617 13.2197 11.1792C12.986 11.0967 12.8158 11.055 12.6448 11.3033C12.4747 11.5508 11.9848 12.1092 11.8361 12.2742C11.6875 12.4392 11.5379 12.46 11.2827 12.3358C11.0275 12.2117 10.2042 11.9508 9.22881 11.1067C8.46998 10.45 7.95693 9.63917 7.80826 9.39083C7.65959 9.14333 7.79279 9.00917 7.91998 8.88583C8.03514 8.775 8.17522 8.59667 8.30326 8.45167C8.43303 8.30833 8.47514 8.205 8.56107 8.03917C8.64615 7.87417 8.60404 7.72917 8.53959 7.605C8.47514 7.48167 7.96467 6.2625 7.7524 5.76667C7.54444 5.28417 7.33389 5.34917 7.17748 5.34167L6.68764 5.33333C6.51749 5.33333 6.24077 5.395 6.00702 5.64333C5.77327 5.89167 5.11327 6.49 5.11327 7.70917C5.11327 8.92833 6.0285 10.1058 6.15569 10.2708C6.28374 10.4358 7.95608 12.9375 10.5179 14.01C11.1272 14.265 11.6033 14.4175 11.9736 14.5317C12.5855 14.72 13.1424 14.6933 13.5824 14.63C14.0731 14.5592 15.0932 14.0308 15.3063 13.4525C15.5194 12.8733 15.5194 12.3775 15.455 12.2742Z" fill="#898989"/>
</svg>
