<svg width="24" height="25" viewBox="0 0 24 25" fill="none" xmlns="http://www.w3.org/2000/svg">
<path d="M23.9463 1.07156C24.0008 0.929585 24.0142 0.774056 23.9847 0.624251C23.9552 0.474446 23.8841 0.336954 23.7803 0.22882C23.6765 0.120686 23.5445 0.0466663 23.4007 0.0159363C23.2569 -0.0147937 23.1076 -0.000882167 22.9713 0.0559463L1.15158 9.14802H1.15008L0.472108 9.42927C0.343698 9.48262 0.231945 9.57191 0.149193 9.68728C0.066441 9.80264 0.0159111 9.93959 0.00318472 10.083C-0.00954165 10.2264 0.0160309 10.3707 0.0770774 10.4999C0.138124 10.6291 0.232269 10.7382 0.349113 10.8152L0.964091 11.2214L0.965591 11.2246L8.45783 16.1901L13.2247 23.9947L13.2277 23.9978L13.6177 24.6384C13.6918 24.7597 13.7966 24.8573 13.9205 24.9205C14.0445 24.9837 14.1828 25.01 14.3202 24.9966C14.4576 24.9832 14.5887 24.9305 14.6993 24.8445C14.8098 24.7584 14.8954 24.6422 14.9466 24.5088L23.9463 1.07156ZM21.1969 4.02465L9.95628 15.7339L9.63379 15.2058C9.5747 15.1088 9.49583 15.0267 9.4028 14.9651L8.89582 14.6292L20.1364 2.91997L21.9034 2.18404L21.1984 4.02465H21.1969Z" fill="white"/>
</svg>
