<svg width="25" height="25" viewBox="0 0 25 25" fill="none" xmlns="http://www.w3.org/2000/svg">
<path fill-rule="evenodd" clip-rule="evenodd" d="M2.94596 0.797178C3.21934 0.524179 3.54763 0.312403 3.90905 0.175883C4.27046 0.0393643 4.65677 -0.0187805 5.04236 0.00530214C5.42795 0.0293848 5.80401 0.135145 6.14564 0.315574C6.48727 0.496004 6.78665 0.746982 7.02395 1.05188L9.82855 4.65517C10.3426 5.31613 10.5238 6.17711 10.3207 6.98965L9.46606 10.4117C9.42188 10.5889 9.42426 10.7746 9.47299 10.9506C9.52172 11.1267 9.61514 11.2871 9.74418 11.4164L13.5831 15.2557C13.7126 15.385 13.8733 15.4785 14.0496 15.5273C14.2259 15.576 14.4119 15.5783 14.5893 15.5338L18.0095 14.6791C18.4105 14.5788 18.829 14.571 19.2334 14.6563C19.6378 14.7416 20.0175 14.9177 20.3438 15.1713L23.9469 17.9745C25.2421 18.9824 25.3609 20.8965 24.2015 22.0544L22.586 23.6701C21.4298 24.8264 19.7017 25.3342 18.0908 24.767C13.9678 23.3162 10.2243 20.9557 7.13801 17.8605C4.04325 14.7744 1.68288 11.0312 0.231979 6.9084C-0.333629 5.29895 0.174168 3.56918 1.33038 2.41288L2.94596 0.797178Z" fill="white"/>
</svg>
