<svg width="25" height="26" viewBox="0 0 25 26" fill="none" xmlns="http://www.w3.org/2000/svg">
<path d="M16.5599 15.744C16.3788 15.692 15.2336 15.239 15.9492 13.33H15.9389C17.8042 11.644 19.2297 8.931 19.2297 6.26C19.2297 2.153 16.1178 0 12.5011 0C8.88218 0 5.78738 2.152 5.78738 6.26C5.78738 8.942 7.20488 11.666 9.08159 13.348C9.81313 15.032 8.50501 15.657 8.23154 15.745C4.44394 16.947 0 19.138 0 21.301V22.112C0 25.059 6.51094 25.729 12.5365 25.729C18.5711 25.729 25 25.059 25 22.112V21.301C25 19.073 20.5344 16.899 16.5599 15.744Z" fill="white"/>
</svg>
